<?xml version="1.0" encoding="UTF-8" standalone="no"?>
<svg
   xmlns:dc="http://purl.org/dc/elements/1.1/"
   xmlns:cc="http://creativecommons.org/ns#"
   xmlns:rdf="http://www.w3.org/1999/02/22-rdf-syntax-ns#"
   xmlns:svg="http://www.w3.org/2000/svg"
   xmlns="http://www.w3.org/2000/svg"
   xmlns:sodipodi="http://sodipodi.sourceforge.net/DTD/sodipodi-0.dtd"
   xmlns:inkscape="http://www.inkscape.org/namespaces/inkscape"
   width="210"
   height="68"
   version="1.1"
   id="svg37"
   sodipodi:docname="phiTechMinimal-small.svg"
   inkscape:version="0.92.1 r15371">
  <metadata
     id="metadata43">
    <rdf:RDF>
      <cc:Work
         rdf:about="">
        <dc:format>image/svg+xml</dc:format>
        <dc:type
           rdf:resource="http://purl.org/dc/dcmitype/StillImage" />
        <dc:title></dc:title>
      </cc:Work>
    </rdf:RDF>
  </metadata>
  <defs
     id="defs41" />
  <sodipodi:namedview
     pagecolor="#ffffff"
     bordercolor="#666666"
     borderopacity="1"
     objecttolerance="10"
     gridtolerance="10"
     guidetolerance="10"
     inkscape:pageopacity="0"
     inkscape:pageshadow="2"
     inkscape:window-width="1858"
     inkscape:window-height="1057"
     id="namedview39"
     showgrid="false"
     inkscape:zoom="2.5041928"
     inkscape:cx="185.61753"
     inkscape:cy="38.0331"
     inkscape:window-x="54"
     inkscape:window-y="-8"
     inkscape:window-maximized="1"
     inkscape:current-layer="svg37" />
  <g
     id="g5"
     transform="matrix(0.51227148,0,0,0.51227148,1.1095926,1.4897581)">
    <title
       id="title2">background</title>
    <rect
       id="canvas_background"
       height="132"
       width="412"
       y="-1"
       x="-1"
       style="fill:none" />
  </g>
  <g
     id="g35"
     transform="matrix(0.51227148,0,0,0.51227148,1.1095926,1.4897581)">
    <title
       id="title7">Layer 1</title>
    <path
       id="svg_3"
       d="m 125.486,44.844 c 0,-6.52 5.336,-11.852 11.853,-11.852 h 55.665 c 6.52,0 17.146,0.661 23.615,1.471 0,0 15.11,1.884 10.957,22.137 -0.49,2.417 -2.18,10.548 -2.713,12.657 -3.675,14.784 -9.108,22.223 -31.155,22.223 h -44.782 c -6.523,0 -11.961,5.328 -12.094,11.852 l -0.226,10.849 c -0.132,6.516 -2.689,11.849 -5.683,11.849 -2.989,0 -5.438,-5.333 -5.438,-11.849 V 44.844 Z m 89.849,10.56 C 217.191,45.1 211.497,42.579 200.384,42.579 h -50.235 c -6.52,0 -11.984,5.332 -12.148,11.848 l -0.393,15.609 c -0.164,6.52 5.04,11.848 11.557,11.848 h 34.588 c 6.516,0 15.355,-0.751 19.633,-1.677 4.282,-0.919 10.35,-15.916 11.506,-22.331 z"
       inkscape:connector-curvature="0" />
    <path
       id="svg_4"
       d="m 252.46,16.328 c 1.495,-6.349 5.435,-11.541 8.755,-11.541 3.319,0 4.701,5.165 3.074,11.479 l -3.413,13.246 c -1.627,6.31 -2.9,11.475 -2.826,11.475 0.07,0 4.484,-3.078 9.805,-6.851 0,0 6.57,-4.659 20.914,-4.659 h 4.64 c 6.517,0 16.812,1.962 22.872,4.355 0,0 13.554,5.356 9.187,16.384 l -12.024,30.321 c -2.401,6.064 -6.655,11.023 -9.45,11.023 -2.799,0 -3.212,-4.994 -0.927,-11.101 l 6.228,-16.633 c 2.285,-6.107 5.139,-16.344 6.341,-22.747 0,0 0.604,-3.207 -21.424,-3.207 -1.596,0 -8.189,0.712 -14.65,1.584 0,0 -22.012,2.97 -25.722,17.345 l -5.998,23.28 c -1.631,6.313 -5.243,11.479 -8.041,11.479 -2.795,0 -3.857,-5.196 -2.359,-11.537 z"
       inkscape:connector-curvature="0" />
    <path
       id="svg_5"
       d="m 359.132,10.424 c 1.37,-3.103 5.2,-5.637 8.521,-5.637 3.321,0 4.861,2.534 3.425,5.637 -1.432,3.102 -5.262,5.636 -8.517,5.636 -3.254,0 -4.795,-2.535 -3.429,-5.636 m -13.285,30.995 c 2.456,-6.041 7.054,-10.98 10.218,-10.98 3.165,0 3.515,4.842 0.774,10.755 l -18.321,39.608 c -2.736,5.917 -6.796,10.759 -9.015,10.759 -2.223,0 -2.028,-4.939 0.424,-10.98 z"
       inkscape:connector-curvature="0" />
    <path
       id="svg_6"
       d="M 7.227,117.784 7.2,117.772 7.173,117.496 7.154,117.426 7.161,117.375 7.154,117.34 c -0.07,-0.716 -0.141,-1.678 -0.141,-2.817 0,-3.869 0.759,-9.898 4.508,-16.119 2.032,-3.589 5.208,-6.979 9.124,-9.653 3.192,-2.184 6.89,-3.892 10.864,-4.811 -0.366,-0.144 -0.72,-0.308 -1.078,-0.467 -0.21,-0.094 -0.42,-0.176 -0.631,-0.272 -0.681,-0.315 -1.358,-0.658 -2.024,-1.021 -0.241,-0.136 -0.479,-0.284 -0.72,-0.42 -0.42,-0.245 -0.836,-0.49 -1.249,-0.755 -0.308,-0.199 -0.604,-0.401 -0.903,-0.607 -0.16,-0.109 -0.327,-0.21 -0.486,-0.327 -0.245,-0.175 -0.479,-0.358 -0.72,-0.537 -0.195,-0.147 -0.381,-0.296 -0.572,-0.439 -0.459,-0.37 -0.903,-0.748 -1.347,-1.141 -0.164,-0.148 -0.335,-0.296 -0.494,-0.448 -0.463,-0.428 -0.903,-0.871 -1.339,-1.331 -0.155,-0.163 -0.311,-0.331 -0.463,-0.498 -0.42,-0.471 -0.829,-0.949 -1.222,-1.448 -0.128,-0.163 -0.253,-0.33 -0.378,-0.494 -0.346,-0.459 -0.681,-0.93 -0.996,-1.417 -0.059,-0.085 -0.121,-0.163 -0.179,-0.249 -0.467,-0.673 -0.892,-1.362 -1.292,-2.059 -0.05,-0.082 -0.089,-0.16 -0.132,-0.241 -0.35,-0.623 -0.677,-1.254 -0.98,-1.893 -0.035,-0.077 -0.07,-0.159 -0.109,-0.237 -2.938,-6.367 -3.406,-13.257 -2.37,-18.94 0,-0.008 0.004,-0.02 0.004,-0.023 0.062,-0.338 0.132,-0.673 0.202,-1.004 0.039,-0.179 0.082,-0.362 0.125,-0.541 0.063,-0.257 0.128,-0.51 0.195,-0.759 0.07,-0.265 0.144,-0.521 0.226,-0.774 0.055,-0.188 0.109,-0.374 0.171,-0.557 0.128,-0.401 0.269,-0.794 0.42,-1.176 0.012,-0.035 0.023,-0.074 0.035,-0.109 0.007,-0.016 0.015,-0.031 0.027,-0.054 0.234,-0.646 0.483,-1.266 0.744,-1.861 0.121,-0.272 0.245,-0.533 0.37,-0.798 0.148,-0.308 0.292,-0.619 0.444,-0.91 0.156,-0.308 0.312,-0.6 0.471,-0.884 0.117,-0.218 0.238,-0.429 0.358,-0.635 0.179,-0.304 0.354,-0.604 0.533,-0.884 0.097,-0.151 0.191,-0.296 0.288,-0.439 0.194,-0.3 0.389,-0.596 0.58,-0.864 0.058,-0.078 0.109,-0.144 0.159,-0.222 0.44,-0.604 0.864,-1.156 1.269,-1.635 0.035,-0.047 0.074,-0.094 0.113,-0.137 0.113,-0.14 0.222,-0.257 0.331,-0.385 0.113,-0.125 0.229,-0.265 0.339,-0.386 0.042,-0.047 0.082,-0.09 0.125,-0.136 0.085,-0.094 0.16,-0.172 0.241,-0.257 0.179,-0.195 0.35,-0.374 0.502,-0.534 h -7.24 c -4.889,0 -8.89,4.006 -8.89,8.895 v 74.232 c 0,3.152 1.677,5.916 4.168,7.492 -0.514,-2.016 -0.712,-3.658 -0.817,-4.705 -0.037,-0.371 -0.064,-0.667 -0.091,-0.865 M 52.85,80.619 c 0.342,-0.136 0.669,-0.272 0.985,-0.412 0.163,-0.07 0.315,-0.141 0.471,-0.211 0.156,-0.069 0.315,-0.144 0.467,-0.214 0.14,-0.07 0.272,-0.136 0.413,-0.202 0.148,-0.078 0.3,-0.148 0.443,-0.226 0.133,-0.066 0.257,-0.137 0.386,-0.203 0.125,-0.065 0.249,-0.136 0.366,-0.198 0.14,-0.078 0.272,-0.151 0.401,-0.229 0.132,-0.074 0.261,-0.147 0.381,-0.218 0.078,-0.043 0.144,-0.086 0.214,-0.133 0.152,-0.089 0.304,-0.183 0.436,-0.265 0.012,-0.004 0.023,-0.012 0.035,-0.02 0.351,-0.222 0.639,-0.412 0.856,-0.561 3.262,-2.172 6.053,-5.024 8.197,-8.329 0.027,-0.039 0.055,-0.074 0.078,-0.117 0.413,-0.643 0.802,-1.296 1.16,-1.966 0.023,-0.043 0.043,-0.085 0.07,-0.124 0.304,-0.584 0.591,-1.172 0.86,-1.775 0.074,-0.167 0.152,-0.331 0.222,-0.498 0.272,-0.635 0.525,-1.276 0.751,-1.931 0.011,-0.031 0.023,-0.059 0.035,-0.086 v -0.008 l 0.004,-0.008 c 0.027,-0.073 0.043,-0.147 0.066,-0.222 0.222,-0.615 0.42,-1.249 0.587,-1.899 0.063,-0.241 0.102,-0.502 0.164,-0.751 0.109,-0.518 0.222,-1.031 0.308,-1.561 0.034,-0.238 0.058,-0.487 0.089,-0.729 0.07,-0.561 0.137,-1.125 0.172,-1.697 0.015,-0.233 0.019,-0.463 0.026,-0.7 0.094,-2.352 -0.081,-4.772 -0.552,-7.162 0,-0.004 0,-0.004 -0.004,-0.008 -0.164,-0.837 -0.366,-1.666 -0.604,-2.487 -0.008,-0.039 -0.019,-0.074 -0.031,-0.113 -0.234,-0.806 -0.499,-1.604 -0.802,-2.39 -2.401,0.896 -4.612,2.095 -6.454,3.499 -0.564,0.405 -1.105,0.825 -1.635,1.262 -0.062,0.047 -0.121,0.098 -0.179,0.147 -0.499,0.413 -0.973,0.853 -1.44,1.297 -0.07,0.069 -0.144,0.136 -0.214,0.206 -0.459,0.451 -0.903,0.922 -1.328,1.409 -0.05,0.058 -0.101,0.108 -0.148,0.163 -2.382,2.744 -4.231,5.967 -5.519,9.646 -0.261,0.735 -0.487,1.479 -0.689,2.234 -0.004,0.016 -0.008,0.027 -0.012,0.043 -0.191,0.739 -0.354,1.494 -0.487,2.25 -0.004,0.026 -0.008,0.046 -0.012,0.069 -0.125,0.748 -0.226,1.503 -0.295,2.258 -0.008,0.051 -0.012,0.102 -0.016,0.148 -0.339,3.864 0.093,7.812 1.292,11.571 0.012,0.035 0.02,0.074 0.031,0.113 l 0.004,0.012 v 0.012 c 0.132,0.426 0.284,0.863 0.451,1.314 m -1.362,5.318 c -0.136,-0.241 -0.269,-0.472 -0.39,-0.705 -0.21,0.059 -0.479,0.129 -0.778,0.207 0.393,0.155 0.786,0.318 1.168,0.498 M 19.504,35.748 c -0.129,0.163 -0.25,0.33 -0.378,0.51 -0.121,0.163 -0.241,0.346 -0.362,0.525 -0.132,0.19 -0.265,0.381 -0.397,0.584 -0.125,0.198 -0.249,0.404 -0.377,0.61 -0.132,0.215 -0.261,0.429 -0.394,0.65 -0.14,0.241 -0.28,0.506 -0.42,0.759 -0.113,0.218 -0.229,0.421 -0.346,0.643 -0.249,0.494 -0.502,1.004 -0.748,1.553 l -0.008,0.02 c -0.194,0.394 -0.377,0.806 -0.549,1.23 -0.082,0.202 -0.159,0.428 -0.237,0.638 -0.085,0.227 -0.171,0.448 -0.253,0.678 -0.093,0.292 -0.183,0.596 -0.272,0.899 -0.055,0.171 -0.105,0.334 -0.152,0.506 -0.089,0.323 -0.167,0.653 -0.245,0.988 -0.039,0.168 -0.085,0.331 -0.121,0.506 -0.07,0.312 -0.128,0.646 -0.187,0.97 -0.039,0.202 -0.078,0.396 -0.109,0.6 -0.047,0.3 -0.085,0.606 -0.125,0.91 -0.031,0.241 -0.066,0.483 -0.089,0.732 -0.031,0.276 -0.051,0.553 -0.07,0.833 -0.023,0.288 -0.047,0.568 -0.059,0.855 -0.015,0.266 -0.015,0.526 -0.023,0.791 -0.004,0.311 -0.016,0.618 -0.012,0.934 0,0.284 0.016,0.576 0.023,0.868 0.011,0.315 0.015,0.627 0.039,0.935 0.016,0.261 0.043,0.525 0.066,0.782 0.035,0.351 0.062,0.696 0.105,1.047 0.027,0.226 0.066,0.451 0.105,0.678 0.055,0.389 0.109,0.771 0.187,1.155 0.035,0.195 0.082,0.39 0.125,0.58 0.085,0.417 0.171,0.833 0.28,1.25 0.043,0.163 0.101,0.33 0.144,0.498 0.125,0.439 0.245,0.88 0.389,1.315 0.051,0.147 0.113,0.3 0.164,0.447 0.156,0.452 0.315,0.896 0.498,1.34 0.07,0.167 0.148,0.33 0.226,0.494 0.183,0.424 0.366,0.849 0.572,1.265 0.167,0.339 0.362,0.674 0.545,1.004 0.132,0.238 0.253,0.483 0.393,0.713 l 0.008,0.012 c 0.082,0.155 0.179,0.296 0.269,0.447 0.237,0.425 0.482,0.849 0.747,1.254 0.179,0.276 0.377,0.537 0.564,0.802 0.191,0.265 0.374,0.533 0.568,0.79 0.249,0.327 0.518,0.639 0.782,0.949 0.152,0.184 0.296,0.366 0.456,0.541 0.288,0.323 0.592,0.631 0.895,0.938 0.152,0.147 0.292,0.312 0.448,0.459 0.292,0.284 0.596,0.557 0.903,0.821 0.183,0.164 0.362,0.331 0.549,0.491 0.261,0.226 0.533,0.432 0.802,0.642 0.245,0.195 0.494,0.394 0.743,0.584 0.207,0.145 0.409,0.28 0.615,0.421 0.338,0.241 0.681,0.479 1.027,0.7 0.113,0.074 0.23,0.137 0.335,0.206 3.706,2.289 7.757,3.714 11.502,4.224 0.055,0.008 0.109,0.012 0.171,0.02 0.459,0.063 0.918,0.108 1.374,0.14 0.374,0.023 0.744,0.035 1.113,0.039 0.148,0.004 0.3,0.016 0.448,0.016 h 0.097 c 0.042,0 0.082,0 0.128,0 0.409,0.012 0.813,0 1.226,-0.008 0.3,-0.008 0.599,-0.012 0.887,-0.027 0.382,-0.02 0.759,-0.051 1.141,-0.085 0.207,-0.023 0.42,-0.039 0.623,-0.063 0.506,-0.059 1.008,-0.137 1.506,-0.222 0.078,-0.012 0.164,-0.02 0.241,-0.035 0.607,-0.113 1.21,-0.241 1.806,-0.394 -0.164,-0.408 -0.312,-0.825 -0.452,-1.245 -0.187,-0.514 -0.35,-1.028 -0.506,-1.534 -0.066,-0.214 -0.117,-0.42 -0.179,-0.63 -0.078,-0.288 -0.16,-0.576 -0.233,-0.86 C 47.97,77.167 47.911,76.907 47.853,76.646 47.802,76.427 47.752,76.202 47.705,75.988 47.65,75.692 47.6,75.4 47.545,75.112 47.514,74.937 47.483,74.761 47.46,74.583 47.405,74.271 47.363,73.96 47.324,73.648 47.308,73.508 47.293,73.372 47.273,73.236 47.238,72.905 47.203,72.574 47.18,72.252 47.172,72.15 47.164,72.045 47.157,71.944 47.13,71.593 47.11,71.255 47.095,70.916 c -0.004,-0.062 -0.004,-0.124 -0.008,-0.19 -0.012,-0.37 -0.02,-0.731 -0.02,-1.086 v -0.004 -0.008 c 0,-0.498 0.012,-0.98 0.035,-1.452 0,-0.022 0,-0.046 0,-0.077 0.027,-0.444 0.055,-0.884 0.094,-1.309 0,-0.03 0.004,-0.058 0.008,-0.085 0.035,-0.421 0.082,-0.825 0.132,-1.215 0.004,-0.023 0.008,-0.051 0.008,-0.074 0.05,-0.393 0.113,-0.778 0.175,-1.151 0,-0.008 0,-0.016 0.004,-0.027 0.124,-0.732 0.269,-1.417 0.412,-2.036 0.012,-0.031 0.02,-0.059 0.027,-0.093 0.063,-0.258 0.121,-0.507 0.187,-0.736 0.012,-0.035 0.02,-0.063 0.027,-0.101 0.058,-0.207 0.117,-0.409 0.171,-0.6 0.042,-0.16 0.105,-0.358 0.171,-0.576 0.012,-0.047 0.031,-0.102 0.047,-0.152 0.047,-0.144 0.093,-0.284 0.144,-0.443 0.046,-0.136 0.101,-0.284 0.156,-0.432 0.027,-0.09 0.058,-0.172 0.093,-0.265 0.07,-0.195 0.152,-0.401 0.233,-0.611 0.023,-0.063 0.047,-0.117 0.074,-0.18 0.093,-0.241 0.202,-0.486 0.307,-0.743 0.027,-0.047 0.043,-0.094 0.066,-0.144 0.113,-0.265 0.241,-0.541 0.377,-0.825 0.023,-0.047 0.047,-0.098 0.074,-0.152 0.132,-0.272 0.276,-0.557 0.424,-0.849 0.035,-0.065 0.074,-0.132 0.109,-0.202 0.144,-0.276 0.3,-0.549 0.456,-0.833 0.054,-0.09 0.105,-0.183 0.159,-0.28 0.051,-0.082 0.09,-0.159 0.136,-0.237 0.117,-0.198 0.25,-0.401 0.37,-0.604 0.062,-0.094 0.117,-0.187 0.175,-0.28 0.191,-0.296 0.393,-0.596 0.6,-0.899 0.063,-0.085 0.117,-0.175 0.179,-0.261 0.202,-0.296 0.424,-0.595 0.646,-0.895 0.082,-0.102 0.152,-0.203 0.233,-0.308 0.21,-0.272 0.436,-0.549 0.662,-0.825 0.105,-0.125 0.207,-0.253 0.312,-0.386 0.214,-0.241 0.436,-0.486 0.654,-0.728 0.144,-0.16 0.28,-0.319 0.428,-0.479 0.195,-0.203 0.401,-0.409 0.6,-0.611 0.198,-0.194 0.381,-0.39 0.584,-0.58 0.156,-0.148 0.327,-0.296 0.486,-0.443 0.677,-0.623 1.386,-1.234 2.16,-1.834 0.561,-0.459 1.164,-0.899 1.791,-1.323 0.055,-0.039 0.109,-0.078 0.171,-0.121 0.596,-0.396 1.222,-0.774 1.869,-1.136 0.093,-0.051 0.183,-0.105 0.276,-0.156 0.65,-0.354 1.324,-0.685 2.009,-0.996 0.082,-0.035 0.167,-0.074 0.249,-0.109 0.705,-0.312 1.429,-0.604 2.164,-0.86 0.035,-0.012 0.066,-0.027 0.102,-0.043 -1.273,-2.409 -2.916,-4.655 -4.928,-6.604 l -0.538,-0.53 H 22.154 l -0.518,0.522 c -0.233,0.237 -0.553,0.567 -0.911,0.973 -0.055,0.063 -0.102,0.117 -0.156,0.175 -0.125,0.145 -0.261,0.312 -0.397,0.476 -0.102,0.128 -0.21,0.261 -0.319,0.396 -0.108,0.146 -0.228,0.309 -0.349,0.469 m 44.062,66.151 c -0.339,-0.678 -0.705,-1.343 -1.094,-1.997 -0.016,-0.027 -0.027,-0.051 -0.043,-0.078 V 99.82 99.816 L 62.417,99.808 C 62.285,99.579 62.133,99.349 61.985,99.116 61.837,98.879 61.693,98.633 61.533,98.399 61.37,98.158 61.191,97.924 61.019,97.691 60.844,97.454 60.677,97.22 60.498,96.986 60.311,96.757 60.113,96.527 59.918,96.298 59.716,96.069 59.521,95.831 59.311,95.606 59.112,95.391 58.906,95.173 58.692,94.963 58.47,94.73 58.236,94.5 57.999,94.274 56.392,92.745 54.554,91.339 52.538,90.148 48.86,87.976 44.613,86.505 40.195,86.127 c -0.047,-0.008 -0.093,-0.012 -0.136,-0.016 -0.689,-0.055 -1.386,-0.09 -2.086,-0.09 -1.039,0 -2.086,0.066 -3.133,0.199 h -0.02 -0.016 c -4.359,0.369 -8.376,1.821 -11.856,3.915 -3.479,2.099 -6.422,4.827 -8.614,7.707 -1.459,1.923 -2.584,3.916 -3.32,5.823 l -0.004,0.012 -0.004,0.012 c -2.113,4.971 -2.417,9.132 -2.417,11.471 0,0.732 0.027,1.289 0.047,1.646 0.004,0.109 0.008,0.203 0.008,0.288 0.011,0.039 0.011,0.063 0.015,0.082 0.004,0.051 0.008,0.086 0.016,0.132 0.004,0.09 0.012,0.211 0.023,0.366 0.027,0.308 0.07,0.747 0.148,1.323 0.164,1.141 0.479,2.783 1.129,4.753 l 0.179,0.533 c 0.856,0.272 1.748,0.463 2.697,0.463 h 52.135 c 0.724,-2.105 1.222,-4.34 1.483,-6.69 0.089,-0.782 0.14,-1.565 0.159,-2.355 0.004,0 0.004,-0.004 0.004,-0.008 0.121,-4.721 -0.938,-9.478 -3.056,-13.768 -0.003,-0.01 -0.006,-0.018 -0.01,-0.026 M 91.291,43.4 91.26,43.388 c -3.522,-1.615 -7.356,-2.344 -11.147,-2.344 -2.569,0 -5.114,0.347 -7.524,0.95 1.472,3.736 1.814,6.449 1.826,6.539 0.023,0.136 0.039,0.28 0.063,0.424 0.077,0.44 0.144,0.872 0.202,1.313 0.023,0.194 0.047,0.385 0.066,0.583 0.05,0.448 0.089,0.899 0.124,1.352 0.016,0.163 0.027,0.326 0.035,0.49 0.035,0.584 0.055,1.172 0.059,1.747 0,0.023 0,0.047 0,0.07 0,0.027 0,0.055 0,0.082 0,0.136 -0.012,0.269 -0.012,0.4 -0.008,0.596 -0.027,1.191 -0.066,1.775 -0.016,0.253 -0.043,0.494 -0.066,0.747 -0.047,0.498 -0.101,0.997 -0.171,1.487 -0.035,0.237 -0.07,0.475 -0.109,0.712 -0.085,0.521 -0.187,1.031 -0.3,1.538 -0.042,0.187 -0.081,0.373 -0.124,0.564 -0.171,0.681 -0.358,1.354 -0.576,2.008 0,0.004 -0.004,0.008 -0.004,0.016 -0.047,0.145 -0.098,0.276 -0.144,0.421 -0.133,0.404 -0.266,0.81 -0.409,1.202 -0.078,0.21 -0.167,0.413 -0.245,0.623 -0.129,0.315 -0.249,0.635 -0.378,0.942 -0.077,0.171 -0.155,0.334 -0.233,0.506 -0.147,0.331 -0.3,0.661 -0.459,0.984 -0.059,0.125 -0.121,0.237 -0.188,0.362 -0.179,0.354 -0.361,0.708 -0.548,1.047 -0.043,0.078 -0.093,0.151 -0.136,0.233 -0.21,0.374 -0.424,0.739 -0.646,1.094 -0.023,0.043 -0.047,0.078 -0.07,0.113 -0.245,0.389 -0.49,0.771 -0.743,1.133 -0.004,0.004 -0.004,0.008 -0.008,0.012 -1.32,1.919 -2.709,3.499 -4.013,4.771 -0.008,0.008 -0.012,0.016 -0.02,0.023 -0.233,0.226 -0.467,0.447 -0.689,0.654 -0.047,0.039 -0.089,0.077 -0.132,0.12 -0.183,0.164 -0.362,0.323 -0.537,0.476 -0.097,0.085 -0.191,0.163 -0.288,0.245 -0.113,0.093 -0.226,0.194 -0.335,0.284 -0.198,0.167 -0.389,0.314 -0.568,0.455 l -0.008,0.004 c -0.222,0.171 -0.428,0.335 -0.611,0.471 -0.253,0.188 -0.561,0.413 -0.899,0.646 -0.105,0.074 -0.207,0.144 -0.319,0.222 -0.035,0.023 -0.074,0.047 -0.109,0.07 -1.437,0.957 -3.546,2.164 -6.294,3.184 0.482,0.849 1.868,2.865 2.717,3.951 0.218,0.265 0.44,0.529 0.669,0.79 0.148,0.167 0.3,0.335 0.448,0.502 1.374,1.507 2.923,2.908 4.624,4.146 3.807,2.775 8.349,4.729 13.246,5.228 h 0.02 l 0.012,0.012 c 1.258,0.179 2.499,0.269 3.733,0.269 5.761,0 11.226,-1.896 15.616,-4.659 l 0.393,-0.245 v -48.22 l -0.4,-0.257 C 94.238,44.794 92.817,44.019 91.291,43.4 M 72.25,100.961 c -2.083,-0.424 -4.08,-1.074 -5.971,-1.915 3.009,5.122 4.134,10.708 4.286,13.807 0.008,0.229 0.012,0.479 0.02,0.716 0.031,0.6 0.046,1.152 0.046,1.654 0,0.713 -0.023,1.331 -0.058,1.817 -0.07,1.542 -0.397,4.349 -1.491,7.707 h 18.007 c 4.893,0 8.894,-4.001 8.894,-8.886 V 96.803 c -4.799,2.989 -10.809,4.932 -17.049,4.936 -2.216,0 -4.465,-0.249 -6.684,-0.778 M 87.088,32.734 H 66.606 c 0.207,0.234 0.417,0.464 0.623,0.713 1.51,1.697 2.779,3.538 3.834,5.484 0.027,0.004 0.051,0.016 0.074,0.031 2.596,-0.65 5.32,-1.005 8.076,-1.005 3.453,0 6.94,0.549 10.249,1.787 2.354,0.778 4.526,1.86 6.52,3.13 V 41.628 C 95.981,36.74 91.98,32.734 87.088,32.734"
       inkscape:connector-curvature="0" />
    <polygon
       id="svg_9"
       points="168.72302,109.09998 168.72302,110.90997 161.11298,110.90997 161.11298,125.44397 159.07397,125.44397 159.07397,110.90997 151.46802,110.90997 151.46802,109.09998 " />
    <path
       id="svg_10"
       d="m 159.074,110.221 h -7.606 l 0.686,0.689 v -1.81 l -0.686,0.689 h 17.255 l -0.685,-0.689 v 1.811 l 0.685,-0.689 h -7.609 -0.685 v 0.689 14.534 l 0.685,-0.686 h -2.039 l 0.688,0.686 v -14.535 -0.689 z m 0,15.912 h 2.039 0.689 v -0.688 -14.535 l -0.689,0.688 h 7.609 0.689 v -0.688 -1.81 -0.688 h -0.689 -17.255 -0.688 v 0.688 1.811 0.688 h 0.688 7.606 l -0.686,-0.688 v 14.534 0.688 z"
       inkscape:connector-curvature="0" />
    <polygon
       id="svg_11"
       points="176.271,125.44397 176.271,109.09998 191.05798,109.09998 191.05798,110.90997 178.31702,110.90997 178.31702,116.13 190.56,116.13 190.56,117.93597 178.31702,117.93597 178.31702,123.646 191.14001,123.646 191.14001,125.44397 " />
    <path
       id="svg_12"
       d="m 176.271,109.789 h 14.787 l -0.685,-0.689 v 1.811 l 0.685,-0.689 h -12.74 -0.692 v 0.689 5.22 0.685 h 0.692 12.242 l -0.689,-0.685 v 1.806 l 0.689,-0.688 h -12.242 -0.692 v 0.688 5.71 0.686 h 0.692 12.822 l -0.686,-0.686 v 1.799 l 0.686,-0.686 h -14.869 l 0.688,0.686 V 109.1 Z m 0,16.344 h 14.869 0.685 v -0.688 -1.799 -0.685 h -0.685 -12.822 l 0.686,0.685 v -5.71 l -0.686,0.682 h 12.242 0.685 v -0.682 -1.806 -0.689 h -0.685 -12.242 l 0.686,0.689 v -5.22 l -0.686,0.688 h 12.74 0.688 v -0.688 -1.81 -0.688 h -0.688 -14.787 -0.686 v 0.688 16.345 0.688 z"
       inkscape:connector-curvature="0" />
    <path
       id="svg_13"
       d="m 199.045,115.044 c 0,-4.134 1.288,-6.119 5.371,-6.119 h 7.793 c 3.697,0 4.722,1.872 4.722,4.06 v 1.405 h -1.787 v -0.739 c 0,-2.791 -1.584,-2.92 -3.46,-2.92 h -7.064 c -1.954,0 -3.535,0.631 -3.535,3.473 v 6.146 c 0,2.842 1.581,3.477 3.535,3.477 h 7.135 c 2.744,0 3.53,-0.635 3.53,-2.842 v -1.023 h 1.915 v 1.113 c 0,2.958 -0.868,4.554 -5.092,4.554 h -7.691 c -4.083,0 -5.371,-1.981 -5.371,-6.119 v -4.466 z"
       inkscape:connector-curvature="0" />
    <path
       id="svg_14"
       d="m 199.733,115.044 c 0,-4.01 1.23,-5.435 4.683,-5.435 h 7.793 c 3.577,0 4.032,1.803 4.032,3.375 v 1.405 l 0.689,-0.692 h -1.787 l 0.686,0.692 v -0.739 c 0,-3.604 -2.495,-3.604 -4.146,-3.604 h -7.064 c -2.842,0 -4.224,1.354 -4.224,4.157 v 6.146 c 0,2.803 1.382,4.169 4.224,4.169 h 7.135 c 2.67,0 4.219,-0.58 4.219,-3.534 v -1.023 l -0.688,0.685 h 1.915 l -0.686,-0.685 v 1.113 c 0,2.67 -0.638,3.869 -4.406,3.869 h -7.691 c -3.452,0 -4.683,-1.425 -4.683,-5.435 v -4.464 z m -1.37,4.464 c 0,4.769 1.811,6.809 6.053,6.809 h 7.691 c 4.796,0 5.776,-2.103 5.776,-5.243 v -1.113 -0.693 h -0.685 -1.915 -0.686 v 0.693 1.023 c 0,1.592 -0.233,2.152 -2.845,2.152 h -7.135 c -1.764,0 -2.85,-0.463 -2.85,-2.787 v -6.146 c 0,-2.32 1.086,-2.783 2.85,-2.783 h 7.064 c 2.017,0 2.775,0.19 2.775,2.23 v 0.739 0.686 h 0.685 1.787 0.685 v -0.686 -1.405 c 0,-2.164 -0.941,-4.744 -5.406,-4.744 h -7.793 c -4.242,0 -6.053,2.027 -6.053,6.804 v 4.464 z"
       inkscape:connector-curvature="0" />
    <polygon
       id="svg_15"
       points="225.685,125.44397 225.685,109.09998 227.72498,109.09998 227.72498,116.13 241.32001,116.13 241.32001,109.09998 243.36401,109.09998 243.36401,125.44397 241.32001,125.44397 241.32001,117.93597 227.72498,117.93597 227.72498,125.44397 " />
    <path
       id="svg_16"
       d="m 225.685,109.789 h 2.04 l -0.686,-0.689 v 7.03 0.685 h 0.686 13.596 0.686 v -0.685 -7.03 l -0.686,0.689 h 2.044 l -0.689,-0.689 v 16.345 l 0.689,-0.686 h -2.044 l 0.686,0.686 v -7.509 -0.688 h -0.686 -13.596 -0.686 v 0.688 7.509 l 0.686,-0.686 h -2.04 l 0.688,0.686 V 109.1 Z m 0,16.344 h 2.04 0.685 v -0.688 -7.509 l -0.685,0.682 h 13.596 l -0.686,-0.682 v 7.509 0.688 h 0.686 2.044 0.685 v -0.688 -16.345 -0.688 h -0.685 -2.044 -0.686 v 0.688 7.03 l 0.686,-0.689 h -13.596 l 0.685,0.689 v -7.03 -0.688 h -0.685 -2.04 -0.686 v 0.688 16.345 0.688 z"
       inkscape:connector-curvature="0" />
    <polygon
       id="svg_17"
       points="252.43402,125.44397 252.43402,109.09998 255.461,109.09998 269.25201,123.46698 269.25201,109.09998 271.28802,109.09998 271.28802,125.44397 268.26001,125.44397 254.47699,111.09302 254.47699,125.44397 " />
    <path
       id="svg_18"
       d="m 252.434,109.789 h 3.027 l -0.498,-0.21 13.791,14.366 1.184,1.223 V 123.467 109.1 l -0.686,0.689 h 2.036 l -0.686,-0.689 v 16.345 l 0.686,-0.686 h -3.028 l 0.494,0.211 -13.783,-14.355 -1.183,-1.227 v 1.705 14.352 l 0.688,-0.686 h -2.043 l 0.688,0.686 V 109.1 Z m 0,16.344 h 2.043 0.686 v -0.688 -14.352 l -1.184,0.475 13.787,14.355 0.202,0.21 h 0.292 3.028 0.688 v -0.688 -16.345 -0.688 h -0.688 -2.036 -0.688 v 0.688 14.367 l 1.183,-0.479 -13.79,-14.363 -0.203,-0.214 h -0.292 -3.027 -0.686 v 0.688 16.345 0.688 h 0.685 z"
       inkscape:connector-curvature="0" />
    <path
       id="svg_19"
       d="m 279.964,115.044 c 0,-4.134 1.289,-6.119 5.368,-6.119 H 294 c 4.075,0 5.364,1.985 5.364,6.119 v 4.464 c 0,4.138 -1.289,6.119 -5.364,6.119 h -8.668 c -4.079,0 -5.368,-1.981 -5.368,-6.119 z m 17.368,-0.841 c 0,-2.842 -1.584,-3.473 -3.542,-3.473 h -8.26 c -1.95,0 -3.53,0.631 -3.53,3.473 v 6.146 c 0,2.842 1.58,3.477 3.53,3.477 h 8.26 c 1.958,0 3.542,-0.635 3.542,-3.477 z"
       inkscape:connector-curvature="0" />
    <path
       id="svg_20"
       d="m 280.653,115.044 c 0,-4.01 1.222,-5.435 4.679,-5.435 H 294 c 3.457,0 4.679,1.425 4.679,5.435 v 4.464 c 0,4.01 -1.222,5.435 -4.679,5.435 h -8.668 c -3.457,0 -4.679,-1.425 -4.679,-5.435 z m -1.382,4.464 c 0,4.769 1.81,6.809 6.061,6.809 H 294 c 4.247,0 6.057,-2.04 6.057,-6.809 v -4.464 c 0,-4.776 -1.81,-6.804 -6.057,-6.804 h -8.668 c -4.251,0 -6.061,2.027 -6.061,6.804 z"
       inkscape:connector-curvature="0" />
    <path
       id="svg_21"
       d="m 298.018,114.203 c 0,-2.803 -1.386,-4.157 -4.228,-4.157 h -8.26 c -2.838,0 -4.212,1.354 -4.212,4.157 v 6.146 c 0,2.803 1.374,4.169 4.212,4.169 h 8.26 c 2.842,0 4.228,-1.366 4.228,-4.169 z m -1.379,6.146 c 0,2.324 -1.09,2.787 -2.849,2.787 h -8.26 c -1.756,0 -2.846,-0.463 -2.846,-2.787 v -6.146 c 0,-2.32 1.09,-2.783 2.846,-2.783 h 8.26 c 1.759,0 2.849,0.463 2.849,2.783 z"
       inkscape:connector-curvature="0" />
    <polygon
       id="svg_22"
       points="308.16101,125.44397 308.16101,109.09998 310.20001,109.09998 310.20001,123.646 321.89398,123.646 321.89398,125.44397 " />
    <path
       id="svg_23"
       d="m 308.161,109.789 h 2.039 l -0.692,-0.689 v 14.546 0.686 h 0.692 11.693 l -0.693,-0.686 v 1.799 l 0.693,-0.686 h -13.732 l 0.692,0.686 V 109.1 Z m 0,16.344 h 13.732 0.685 v -0.688 -1.799 -0.685 H 321.893 310.2 l 0.689,0.685 V 109.1 108.412 h -0.689 -2.039 -0.686 v 0.688 16.345 0.688 z"
       inkscape:connector-curvature="0" />
    <path
       id="svg_24"
       d="m 328.888,115.044 c 0,-4.134 1.276,-6.119 5.356,-6.119 h 8.676 c 4.067,0 5.363,1.985 5.363,6.119 v 4.464 c 0,4.138 -1.296,6.119 -5.363,6.119 h -8.676 c -4.08,0 -5.356,-1.981 -5.356,-6.119 z m 17.36,-0.841 c 0,-2.842 -1.588,-3.473 -3.538,-3.473 h -8.256 c -1.95,0 -3.53,0.631 -3.53,3.473 v 6.146 c 0,2.842 1.58,3.477 3.53,3.477 h 8.256 c 1.95,0 3.538,-0.635 3.538,-3.477 z"
       inkscape:connector-curvature="0" />
    <path
       id="svg_25"
       d="m 329.569,115.044 c 0,-4.01 1.229,-5.435 4.675,-5.435 h 8.676 c 3.456,0 4.679,1.425 4.679,5.435 v 4.464 c 0,4.01 -1.223,5.435 -4.679,5.435 h -8.676 c -3.445,0 -4.675,-1.425 -4.675,-5.435 z m -1.37,4.464 c 0,4.769 1.806,6.809 6.045,6.809 h 8.676 c 4.243,0 6.053,-2.04 6.053,-6.809 v -4.464 c 0,-4.776 -1.81,-6.804 -6.053,-6.804 h -8.676 c -4.239,0 -6.045,2.027 -6.045,6.804 z"
       inkscape:connector-curvature="0" />
    <path
       id="svg_26"
       d="m 346.933,114.203 c 0,-2.803 -1.378,-4.157 -4.223,-4.157 h -8.256 c -2.834,0 -4.216,1.354 -4.216,4.157 v 6.146 c 0,2.803 1.382,4.169 4.216,4.169 h 8.256 c 2.845,0 4.223,-1.366 4.223,-4.169 z m -1.374,6.146 c 0,2.324 -1.086,2.787 -2.849,2.787 h -8.256 c -1.752,0 -2.838,-0.463 -2.838,-2.787 v -6.146 c 0,-2.32 1.086,-2.783 2.838,-2.783 h 8.256 c 1.763,0 2.849,0.463 2.849,2.783 z"
       inkscape:connector-curvature="0" />
    <path
       id="svg_27"
       d="m 375.546,119.602 c 0,4.445 -1.327,6.025 -5.103,6.025 h -8.381 c -4.087,0 -5.387,-1.981 -5.387,-6.119 v -4.464 c 0,-4.134 1.3,-6.119 5.387,-6.119 h 7.676 c 2.709,0 5.602,0.724 5.602,4.488 v 0.591 h -1.923 c 0,-3.055 -0.853,-3.273 -5.874,-3.273 h -5.293 c -1.946,0 -3.531,0.631 -3.531,3.473 v 6.146 c 0,2.842 1.585,3.477 3.531,3.477 h 7.979 c 2.039,0 3.277,-0.771 3.277,-3.024 v -1.658 h -7.719 v -1.795 h 9.758 v 2.252 z"
       inkscape:connector-curvature="0" />
    <path
       id="svg_28"
       d="m 374.865,119.602 c 0,4.087 -1.032,5.341 -4.422,5.341 h -8.381 c -3.472,0 -4.702,-1.425 -4.702,-5.435 v -4.464 c 0,-4.01 1.23,-5.435 4.702,-5.435 h 7.676 c 3.398,0 4.916,1.168 4.916,3.804 v 0.591 l 0.686,-0.685 h -1.923 l 0.685,0.685 c 0,-3.768 -1.681,-3.958 -6.559,-3.958 h -5.293 c -2.838,0 -4.216,1.354 -4.216,4.157 v 6.146 c 0,2.803 1.378,4.169 4.216,4.169 h 7.979 c 2.635,0 3.962,-1.249 3.962,-3.717 v -1.658 -0.682 h -0.685 -7.719 l 0.688,0.682 v -1.795 l -0.688,0.686 h 9.758 l -0.681,-0.686 v 2.254 z m 0.681,-2.943 h -9.758 -0.689 v 0.688 1.795 0.688 h 0.689 7.719 l -0.682,-0.688 v 1.658 c 0,1.686 -0.735,2.335 -2.596,2.335 h -7.979 c -1.752,0 -2.846,-0.463 -2.846,-2.787 v -6.146 c 0,-2.32 1.094,-2.783 2.846,-2.783 h 5.293 c 5.188,0 5.188,0.292 5.188,2.584 v 0.689 h 0.686 1.923 0.685 v -0.689 -0.591 c 0,-3.434 -2.113,-5.173 -6.286,-5.173 h -7.676 c -4.258,0 -6.072,2.027 -6.072,6.804 v 4.464 c 0,4.769 1.814,6.809 6.072,6.809 h 8.381 c 4.169,0 5.788,-1.884 5.788,-6.715 v -2.254 -0.688 z"
       inkscape:connector-curvature="0" />
    <polygon
       id="svg_29"
       points="391.354,125.44397 391.354,118.539 382.72803,109.09998 385.47601,109.09998 392.38501,116.69397 399.271,109.09998 402.026,109.09998 393.396,118.539 393.396,125.44397 " />
    <path
       id="svg_30"
       d="m 391.863,118.076 -8.634,-9.436 -0.502,1.148 h 2.748 l -0.51,-0.226 6.905,7.594 0.514,0.557 0.51,-0.557 6.886,-7.594 -0.51,0.226 h 2.756 l -0.51,-1.148 -8.622,9.436 -0.183,0.194 v 0.269 6.905 l 0.685,-0.686 h -2.043 l 0.688,0.686 v -6.905 -0.269 z m -0.509,8.057 h 2.043 0.689 v -0.688 -6.905 l -0.18,0.463 8.622,-9.438 1.051,-1.152 h -1.553 -2.756 -0.304 l -0.206,0.229 -6.89,7.586 h 1.02 l -6.913,-7.586 -0.198,-0.229 h -0.304 -2.748 -1.561 l 1.055,1.152 8.629,9.438 -0.183,-0.463 v 6.905 0.688 z"
       inkscape:connector-curvature="0" />
  </g>
</svg>
