<svg xmlns="http://www.w3.org/2000/svg" viewBox="0 0 36.598 40">
  <defs>
    <style>
      .cls-1 {
        fill: #01579B;
        fill-rule: evenodd;
      }
    </style>
  </defs>
  <g id="noun_engineer_1632691" transform="translate(-2.127 0)">
    <g id="Group_307" data-name="Group 307" transform="translate(2.127 0)">
      <path id="Path_276" data-name="Path 276" class="cls-1" d="M21.561,28.706,22.567,26H18.285l1.006,2.7Zm4.8-16.644H14.5l-1.971-.578H11.85V10.4l.686-1.283a8.1,8.1,0,0,1,1.76-4,6.5,6.5,0,0,1,2.374-1.682V8.355h2.28V2.366a5.081,5.081,0,0,1,1.482-.086,5.311,5.311,0,0,1,1.474.117V8.355h2.28V3.434a6.512,6.512,0,0,1,2.374,1.682,8.1,8.1,0,0,1,1.76,4l.686,1.283v1.083h-.678Zm-4,10.5a10.715,10.715,0,0,1-3.737.03l-1.056-.411a7.739,7.739,0,0,1-2.242-2.551c-.423-.625-.906-1.34-1.562-2.221a1.913,1.913,0,0,1-.242-.468,11.178,11.178,0,0,1-.393-2.916l1.07.314H26.663l1.07-.314a10.534,10.534,0,0,1-.393,2.916,1.886,1.886,0,0,1-.242.468c-.655.88-1.14,1.6-1.562,2.221a7.719,7.719,0,0,1-2.242,2.552Zm-1.928,2.482c4.194,0,5.038-1.247,6.994-4.141.434-.643.933-1.38,1.5-2.141a4.887,4.887,0,0,0,.77-1.822,16.4,16.4,0,0,0,.322-3.18H31.27l.018-3.915-.8-1.489a10.047,10.047,0,0,0-2.219-4.739A9.2,9.2,0,0,0,23.678.854C22.725.286,23.309,0,20.433,0c-1.959,0-1.824-.064-3.259.855a9.187,9.187,0,0,0-4.587,2.765A10.047,10.047,0,0,0,10.368,8.36l-.8,1.489.018,3.915h1.254a16.912,16.912,0,0,0,.322,3.18,4.874,4.874,0,0,0,.77,1.822c.565.76,1.063,1.5,1.5,2.141C15.392,23.8,16.235,25.047,20.429,25.047Zm6.651-1.712-5.52,10.429v-4.31h-2.27v4.31L13.77,23.335l-.777.1A14.721,14.721,0,0,0,5.34,26.289c-2.014,1.692-3.213,4.175-3.213,7.834V40h36.6V34.123c0-3.658-1.2-6.142-3.213-7.834a14.714,14.714,0,0,0-7.654-2.855Z" transform="translate(-2.127 0)"/>
    </g>
  </g>
</svg>
