<svg xmlns="http://www.w3.org/2000/svg" viewBox="0 0 86.861 66.178">
  <defs>
    <style>
      .cls-1 {
        fill: none;
      }

      .cls-1, .cls-2 {
        stroke: #00467e;
        stroke-linecap: round;
        stroke-linejoin: round;
        stroke-width: 3px;
      }

      .cls-2, .cls-3 {
        fill: #fff;
      }

      .cls-4 {
        fill: #00467e;
      }
    </style>
  </defs>
  <g id="Group_472" data-name="Group 472" transform="translate(-442.139 -1087.822)">
    <g id="Group_471" data-name="Group 471">
      <path id="Path_366" data-name="Path 366" class="cls-1" d="M630.639,2108.647v-58.325h15.907l7.008,7.009h44.357v51.316Z" transform="translate(-187 -961)"/>
      <path id="Path_367" data-name="Path 367" class="cls-2" d="M698.613,2109.647l10.98-38.613H641.121l-10.98,38.613Z" transform="translate(-186 -962)"/>
    </g>
    <g id="Group_468" data-name="Group 468" transform="translate(-239 68)">
      <circle id="Ellipse_41" data-name="Ellipse 41" class="cls-3" cx="14" cy="14" r="14" transform="translate(740 1058)"/>
      <path id="Exclusion_23" data-name="Exclusion 23" class="cls-4" d="M-156-947a11.922,11.922,0,0,1-8.486-3.515A11.922,11.922,0,0,1-168-959a11.921,11.921,0,0,1,3.515-8.485A11.922,11.922,0,0,1-156-971a11.921,11.921,0,0,1,8.485,3.515A11.921,11.921,0,0,1-144-959a11.923,11.923,0,0,1-3.515,8.486A11.921,11.921,0,0,1-156-947Zm-1.451-12.455h0l1.324,1.324-.828.83a1.4,1.4,0,0,0-.412,1,1.4,1.4,0,0,0,.412,1l3.317,3.317a1.4,1.4,0,0,0,1,.412,1.4,1.4,0,0,0,1-.412l2.653-2.654a1.394,1.394,0,0,0,.412-.995,1.4,1.4,0,0,0-.412-1l-3.317-3.317a1.4,1.4,0,0,0-1-.412,1.4,1.4,0,0,0-1,.412l-.828.828-1.327-1.325.829-.83a1.4,1.4,0,0,0,.412-1,1.4,1.4,0,0,0-.412-1l-3.316-3.317a1.4,1.4,0,0,0-1-.412,1.4,1.4,0,0,0-1,.412l-2.654,2.654a1.4,1.4,0,0,0-.412.995,1.4,1.4,0,0,0,.413,1l3.317,3.316a1.4,1.4,0,0,0,1,.412,1.4,1.4,0,0,0,1-.412l.828-.827Zm4.809,6.469h0l-3.316-3.318.828-.829,1,.994.994-.995-1-.994.831-.83,3.317,3.317-2.654,2.655Zm-6.634-6.636h0l-3.317-3.317,2.654-2.653,3.317,3.317-.829.83-1-1-1,1,1,1-.828.828Z" transform="translate(910 2031)"/>
    </g>
  </g>
</svg>
