<svg xmlns="http://www.w3.org/2000/svg" viewBox="0 0 86.861 66.178">
  <defs>
    <style>
      .cls-1 {
        fill: none;
      }

      .cls-1, .cls-2 {
        stroke: #00467e;
        stroke-linecap: round;
        stroke-linejoin: round;
        stroke-width: 3px;
      }

      .cls-2, .cls-3 {
        fill: #fff;
      }

      .cls-4 {
        fill: #00467e;
      }
    </style>
  </defs>
  <g id="Group_476" data-name="Group 476" transform="translate(-553.139 -1087.822)">
    <g id="Group_473" data-name="Group 473" transform="translate(111)">
      <g id="Group_471" data-name="Group 471">
        <path id="Path_366" data-name="Path 366" class="cls-1" d="M630.639,2108.647v-58.325h15.907l7.008,7.009h44.357v51.316Z" transform="translate(-187 -961)"/>
        <path id="Path_367" data-name="Path 367" class="cls-2" d="M698.613,2109.647l10.98-38.613H641.121l-10.98,38.613Z" transform="translate(-186 -962)"/>
      </g>
      <g id="Group_468" data-name="Group 468" transform="translate(-239 68)">
        <circle id="Ellipse_41" data-name="Ellipse 41" class="cls-3" cx="14" cy="14" r="14" transform="translate(740 1058)"/>
        <path id="Exclusion_23" data-name="Exclusion 23" class="cls-4" d="M-156-947a11.922,11.922,0,0,1-8.486-3.515A11.922,11.922,0,0,1-168-959a11.921,11.921,0,0,1,3.515-8.485A11.922,11.922,0,0,1-156-971a11.921,11.921,0,0,1,8.485,3.515A11.921,11.921,0,0,1-144-959a11.923,11.923,0,0,1-3.515,8.486A11.921,11.921,0,0,1-156-947Zm-1.451-12.455h0l1.324,1.324-.828.83a1.4,1.4,0,0,0-.412,1,1.4,1.4,0,0,0,.412,1l3.317,3.317a1.4,1.4,0,0,0,1,.412,1.4,1.4,0,0,0,1-.412l2.653-2.654a1.394,1.394,0,0,0,.412-.995,1.4,1.4,0,0,0-.412-1l-3.317-3.317a1.4,1.4,0,0,0-1-.412,1.4,1.4,0,0,0-1,.412l-.828.828-1.327-1.325.829-.83a1.4,1.4,0,0,0,.412-1,1.4,1.4,0,0,0-.412-1l-3.316-3.317a1.4,1.4,0,0,0-1-.412,1.4,1.4,0,0,0-1,.412l-2.654,2.654a1.4,1.4,0,0,0-.412.995,1.4,1.4,0,0,0,.413,1l3.317,3.316a1.4,1.4,0,0,0,1,.412,1.4,1.4,0,0,0,1-.412l.828-.827Zm4.809,6.469h0l-3.316-3.318.828-.829,1,.994.994-.995-1-.994.831-.83,3.317,3.317-2.654,2.655Zm-6.634-6.636h0l-3.317-3.317,2.654-2.653,3.317,3.317-.829.83-1-1-1,1,1,1-.828.828Z" transform="translate(910 2031)"/>
      </g>
    </g>
    <g id="noun_Star_1861217" transform="translate(576.281 1097.986)">
      <g id="Group_470" data-name="Group 470" transform="translate(8.173 18.014)">
        <path id="Path_365" data-name="Path 365" class="cls-4" d="M36.249,994.409a.761.761,0,0,0,.529-.268.739.739,0,0,0,.169-.562l-.909-7.663,5.307-5.677a.738.738,0,0,0,.163-.736.754.754,0,0,0-.572-.5l-7.677-1.522-3.837-6.724a.762.762,0,0,0-1.317,0l-3.837,6.724L16.592,979a.753.753,0,0,0-.572.5.738.738,0,0,0,.163.737l5.307,5.677-.909,7.663a.742.742,0,0,0,.306.69.767.767,0,0,0,.761.075l7.116-3.219,7.116,3.219a.768.768,0,0,0,.369.065Zm-.961-1.978-6.207-2.808a.766.766,0,0,0-.632,0l-6.207,2.808.79-6.685a.739.739,0,0,0-.193-.593l-4.627-4.95,6.694-1.328a.756.756,0,0,0,.509-.364l3.349-5.867,3.349,5.867a.757.757,0,0,0,.509.364l6.694,1.328-4.627,4.95a.74.74,0,0,0-.193.593l.79,6.685Z" transform="translate(-15.983 -970.376)"/>
      </g>
    </g>
  </g>
</svg>
