<svg id="noun_binder_1840515" xmlns="http://www.w3.org/2000/svg" viewBox="0 0 40 40">
  <defs>
    <style>
      .cls-1 {
        fill: #01579B;
      }
    </style>
  </defs>
  <g id="Group_304" data-name="Group 304">
    <path id="Path_258" data-name="Path 258" class="cls-1" d="M46.274,40H35.481a.685.685,0,0,1-.685-.685V.685A.685.685,0,0,1,35.481,0H46.274a.685.685,0,0,1,.685.685V39.315A.685.685,0,0,1,46.274,40ZM36.166,38.631h9.423V1.369H36.166Z" transform="translate(-20.878)"/>
    <path id="Path_259" data-name="Path 259" class="cls-1" d="M46.274,40H35.481a.685.685,0,0,1-.685-.685V.685A.685.685,0,0,1,35.481,0H46.274a.685.685,0,0,1,.685.685V39.315A.685.685,0,0,1,46.274,40ZM36.166,38.631h9.423V1.369H36.166Z" transform="translate(-20.878)"/>
    <path id="Path_260" data-name="Path 260" class="cls-1" d="M45.35,80.136a3.1,3.1,0,1,1,3.1-3.1A3.1,3.1,0,0,1,45.35,80.136Zm0-4.838a1.734,1.734,0,1,0,1.734,1.734A1.724,1.724,0,0,0,45.35,75.3Z" transform="translate(-25.362 -44.358)"/>
    <path id="Path_261" data-name="Path 261" class="cls-1" d="M47.872,39.942h-4.29a.685.685,0,0,1-.685-.685V23.787a.685.685,0,0,1,.685-.685h4.29a.685.685,0,0,1,.685.685v15.47A.685.685,0,0,1,47.872,39.942Zm-3.605-1.369h2.921v-14.1H44.267Z" transform="translate(-25.738 -13.861)"/>
    <path id="Path_262" data-name="Path 262" class="cls-1" d="M36.987,11.923H35.481a.685.685,0,1,1,0-1.369h1.506a.685.685,0,1,1,0,1.369Z" transform="translate(-20.878 -6.332)"/>
    <path id="Path_263" data-name="Path 263" class="cls-1" d="M60.2,11.923H58.7a.685.685,0,1,1,0-1.369H60.2a.685.685,0,1,1,0,1.369Z" transform="translate(-34.809 -6.332)"/>
    <path id="Path_264" data-name="Path 264" class="cls-1" d="M11.477,40H.685A.685.685,0,0,1,0,39.315V.685A.685.685,0,0,1,.685,0H11.477a.685.685,0,0,1,.685.685V39.315A.685.685,0,0,1,11.477,40ZM1.369,38.631h9.423V1.369H1.369Z"/>
    <path id="Path_265" data-name="Path 265" class="cls-1" d="M11.477,40H.685A.685.685,0,0,1,0,39.315V.685A.685.685,0,0,1,.685,0H11.477a.685.685,0,0,1,.685.685V39.315A.685.685,0,0,1,11.477,40ZM1.369,38.631h9.423V1.369H1.369Z"/>
    <path id="Path_266" data-name="Path 266" class="cls-1" d="M10.576,80.136a3.1,3.1,0,1,1,3.081-3.1A3.107,3.107,0,0,1,10.576,80.136Zm0-4.838a1.734,1.734,0,1,0,1.711,1.734A1.715,1.715,0,0,0,10.576,75.3Z" transform="translate(-4.484 -44.358)"/>
    <path id="Path_267" data-name="Path 267" class="cls-1" d="M13.131,39.942H8.841a.685.685,0,0,1-.685-.685V23.787a.685.685,0,0,1,.685-.685h4.29a.685.685,0,0,1,.685.685v15.47A.685.685,0,0,1,13.131,39.942ZM9.526,38.573h2.92v-14.1H9.526v14.1Z" transform="translate(-4.894 -13.861)"/>
    <path id="Path_268" data-name="Path 268" class="cls-1" d="M2.19,11.923H.685a.685.685,0,0,1,0-1.369H2.19a.685.685,0,0,1,0,1.369Z" transform="translate(0 -6.332)"/>
    <path id="Path_269" data-name="Path 269" class="cls-1" d="M25.407,11.923H23.9a.685.685,0,0,1,0-1.369h1.506a.685.685,0,1,1,0,1.369Z" transform="translate(-13.93 -6.332)"/>
    <path id="Path_270" data-name="Path 270" class="cls-1" d="M81.037,40H70.222a.685.685,0,0,1-.685-.685V.685A.685.685,0,0,1,70.222,0H81.037a.685.685,0,0,1,.685.685V39.315A.685.685,0,0,1,81.037,40ZM70.906,38.631h9.446V1.369H70.906Z" transform="translate(-41.722)"/>
    <path id="Path_271" data-name="Path 271" class="cls-1" d="M81.037,40H70.222a.685.685,0,0,1-.685-.685V.685A.685.685,0,0,1,70.222,0H81.037a.685.685,0,0,1,.685.685V39.315A.685.685,0,0,1,81.037,40ZM70.906,38.631h9.446V1.369H70.906Z" transform="translate(-41.722)"/>
    <path id="Path_272" data-name="Path 272" class="cls-1" d="M80.112,80.136a3.1,3.1,0,1,1,3.1-3.1A3.107,3.107,0,0,1,80.112,80.136Zm0-4.838a1.734,1.734,0,0,0,0,3.468,1.734,1.734,0,1,0,0-3.468Z" transform="translate(-46.205 -44.358)"/>
    <path id="Path_273" data-name="Path 273" class="cls-1" d="M82.669,39.942h-4.29a.685.685,0,0,1-.685-.685V23.787a.685.685,0,0,1,.685-.685h4.29a.685.685,0,0,1,.685.685v15.47A.685.685,0,0,1,82.669,39.942Zm-3.605-1.369h2.92v-14.1h-2.92Z" transform="translate(-46.617 -13.861)"/>
    <path id="Path_274" data-name="Path 274" class="cls-1" d="M71.751,11.923H70.222a.685.685,0,0,1,0-1.369h1.529a.685.685,0,0,1,0,1.369Z" transform="translate(-41.722 -6.332)"/>
    <path id="Path_275" data-name="Path 275" class="cls-1" d="M95,11.923H93.5a.685.685,0,1,1,0-1.369H95a.685.685,0,1,1,0,1.369Z" transform="translate(-55.687 -6.332)"/>
  </g>
</svg>
