<?xml version="1.0" encoding="utf-8"?>
<!-- Generator: Adobe Illustrator 22.1.0, SVG Export Plug-In . SVG Version: 6.00 Build 0)  -->
<svg version="1.1" id="Livello_1" xmlns="http://www.w3.org/2000/svg" xmlns:xlink="http://www.w3.org/1999/xlink" x="0px" y="0px"
	 viewBox="0 0 64 45.2" style="enable-background:new 0 0 64 45.2;" xml:space="preserve">
<style type="text/css">
	.st0{fill:#00467E;}
	.st1{fill:#FFFFFF;}
</style>
<g>
	<path class="st0" d="M18.2,39.1h23.3c20.7,0,3.6,0,7.1,0s-7.6,0,6.7,0h7.4c0.7,0,1.2-0.6,1.2-1.2v-8.8l0,0v-5.8
		c0-1.7-0.6-3.3-1.6-4.6l-8-9.8c-1.4-1.7-3.4-2.7-5.7-2.7h-9.4V1.5c0-0.7-0.6-1.2-1.2-1.2H1.1c-0.7,0-1.2,0.6-1.2,1.2
		c0,13,0,23.1,0,36.4c0,0.7,0.6,1.2,1.2,1.2h3.3 M48.6,7.6c1.5,0,2.8,0.6,3.7,1.7l9,10.8c0.7,0.9,1.1,2,1.1,3v5.6H39.3V7.6H48.6z
		 M37.8,28.7H1.3v-27h36.5v5.7 M6.7,38 M15.9,38 M43.9,38 M53.1,37.8L53.1,37.8L53.1,37.8L53.1,37.8 M4.4,37.7H1.3v-8.4
		c13.5,0,47.4,0,61,0v8.4h-6.9"/>
	<path class="st0" d="M42.9,22.8h14.4c0.5,0,0.9-0.2,1.1-0.7s0.1-1-0.1-1.4l-7.4-9.1c-0.5-0.6-1.2-1-2-1H43c-0.7,0-1.2,0.6-1.2,1.2
		v9.6C41.7,22.3,42.3,22.8,42.9,22.8z M43.1,12.2h6.7l6.8,9.1H43.1V12.2z"/>
	<path class="st0" d="M27.1,7.9c-0.4,0-0.7,0.6-0.7,1.2v12.4c0,0.7,0.4,1.2,0.7,1.2c0.4,0,0.7-0.6,0.7-1.2V9.1
		C27.9,8.4,27.5,7.9,27.1,7.9z"/>
	<path class="st0" d="M19.5,7.9c-0.4,0-0.7,0.6-0.7,1.2v12.4c0,0.7,0.4,1.2,0.7,1.2c0.4,0,0.7-0.6,0.7-1.2V9.1
		C20.4,8.4,20,7.9,19.5,7.9z"/>
	<path class="st0" d="M12,7.9c-0.4,0-0.7,0.6-0.7,1.2v12.4c0,0.7,0.4,1.2,0.7,1.2c0.4,0,0.7-0.6,0.7-1.2V9.1
		C12.8,8.4,12.5,7.9,12,7.9z"/>
</g>
<g>
	<g>
		<path class="st0" d="M12.5,31.2c-3.8,0-7,3.1-7,7c0,3.8,3.1,7,7,7c3.8,0,7-3.1,7-7C19.5,34.3,16.4,31.2,12.5,31.2z M12.5,43.8
			c-3.1,0-5.7-2.5-5.7-5.7c0-3.1,2.5-5.7,5.7-5.7c3.1,0,5.7,2.5,5.7,5.7C18.2,41.3,15.6,43.8,12.5,43.8z"/>
		<circle class="st1" cx="12.5" cy="38.1" r="5.6"/>
	</g>
	<g>
		<path class="st0" d="M52.7,31.2c-3.8,0-7,3.1-7,7c0,3.8,3.1,7,7,7c3.8,0,7-3.1,7-7C59.6,34.3,56.5,31.2,52.7,31.2z M52.7,43.8
			c-3.1,0-5.7-2.5-5.7-5.7c0-3.1,2.5-5.7,5.7-5.7c3.1,0,5.7,2.5,5.7,5.7C58.4,41.3,55.8,43.8,52.7,43.8z"/>
		<circle class="st1" cx="52.7" cy="38.1" r="5.6"/>
	</g>
</g>
</svg>
