<svg xmlns="http://www.w3.org/2000/svg" viewBox="0 0 64.001 64">
  <g id="Group_573" data-name="Group 573" transform="translate(-56 -1495)">
    <g id="Symbol_18_5" data-name="Symbol 18 – 5" transform="translate(56 1495)">
      <g id="Group_256" data-name="Group 256" transform="translate(0)">
        <path id="Exclusion_57" data-name="Exclusion 57" d="M-576-2385a31.8,31.8,0,0,1-12.456-2.515,31.9,31.9,0,0,1-10.172-6.858,31.894,31.894,0,0,1-6.858-10.171A31.8,31.8,0,0,1-608-2417a31.8,31.8,0,0,1,2.515-12.456,31.893,31.893,0,0,1,6.858-10.172,31.9,31.9,0,0,1,10.172-6.858A31.8,31.8,0,0,1-576-2449a31.8,31.8,0,0,1,12.456,2.515,31.9,31.9,0,0,1,10.172,6.858,31.893,31.893,0,0,1,6.858,10.172A31.8,31.8,0,0,1-544-2417a31.8,31.8,0,0,1-2.515,12.456,31.894,31.894,0,0,1-6.858,10.171,31.9,31.9,0,0,1-10.172,6.858A31.8,31.8,0,0,1-576-2385Zm0-62.476A30.511,30.511,0,0,0-606.476-2417,30.51,30.51,0,0,0-576-2386.524,30.51,30.51,0,0,0-545.524-2417,30.511,30.511,0,0,0-576-2447.476Z" transform="translate(608 2449)" fill="#00467e"/>
      </g>
    </g>
    <g id="Group_567" data-name="Group 567" transform="translate(-515.058 953.668)">
      <path id="Path_358" data-name="Path 358" d="M1205.828,1555" transform="translate(-595.533 -994.928)" fill="none" stroke="#00467e" stroke-width="1"/>
      <g id="Rectangle_362" data-name="Rectangle 362" transform="translate(593.567 583.712) rotate(-45)" fill="none" stroke="#00467e" stroke-linecap="round" stroke-linejoin="round" stroke-width="1">
        <rect width="27.188" height="5.577" stroke="none"/>
        <rect x="0.5" y="0.5" width="26.188" height="4.577" fill="none"/>
      </g>
      <g id="Path_418" data-name="Path 418" transform="translate(588.06 578.205) rotate(-45)" fill="none" stroke-linecap="round">
        <path d="M0,0,27.129.115l.059,5.462H0Z" stroke="none"/>
        <path d="M 1.000001907348633 1.004231452941895 L 1.000001907348633 4.577039241790771 L 26.17723846435547 4.577039241790771 L 26.1399097442627 1.110437393188477 L 1.000001907348633 1.004231452941895 M 1.9073486328125e-06 -9.5367431640625e-07 L 27.12924194335938 0.1146092414855957 L 27.18806266784668 5.577039241790771 L 1.9073486328125e-06 5.577039241790771 L 1.9073486328125e-06 -9.5367431640625e-07 Z" stroke="none" fill="#00467e"/>
      </g>
      <path id="Path_359" data-name="Path 359" d="M1201.441,1551.874l6.542-6.542,8.6,8.6-4.986,4.986" transform="translate(-594.204 -992)" fill="none" stroke="#00467e" stroke-linecap="round" stroke-linejoin="round" stroke-width="1"/>
      <path id="Path_360" data-name="Path 360" d="M1172.3,1581.273l-3.511,3.837-2.3,10.52,1.754-.365,9.3-1.935,3.685-3.422" transform="translate(-583.429 -1003.191)" fill="none" stroke="#00467e" stroke-linecap="round" stroke-linejoin="round" stroke-width="1"/>
      <path id="Path_417" data-name="Path 417" d="M-.125-.023l8.5,8.608" transform="translate(607.558 559.832)" fill="none" stroke="#00467e" stroke-linecap="round" stroke-width="1"/>
      <path id="Path_416" data-name="Path 416" d="M-.583-.327l8.556,8.45" transform="translate(589.558 578.832)" fill="none" stroke="#00467e" stroke-linecap="round" stroke-width="1"/>
    </g>
  </g>
</svg>
