<svg xmlns="http://www.w3.org/2000/svg" viewBox="0 0 64 64">
  <defs>
    <style>
      .cls-1, .cls-4 {
        fill: #00a0dc;
      }

      .cls-2 {
        fill: #fff;
      }

      .cls-3, .cls-4 {
        stroke: none;
      }
    </style>
  </defs>
  <g id="Symbol_25_1" data-name="Symbol 25 – 1" transform="translate(-133 -460)">
    <g id="Group_144" data-name="Group 144" transform="translate(133 460)">
      <g id="Path_94" data-name="Path 94" class="cls-1">
        <path class="cls-3" d="M 32 63.5 C 27.74731063842773 63.5 23.62208938598633 62.66722106933594 19.73892974853516 61.0247802734375 C 15.9879903793335 59.43827056884766 12.61919975280762 57.16693115234375 9.726140022277832 54.27386856079102 C 6.833069801330566 51.38079833984375 4.561729907989502 48.01200866699219 2.975219964981079 44.26107025146484 C 1.332780003547668 40.3779182434082 0.5 36.25270080566406 0.5 32 C 0.5 27.74731063842773 1.332780003547668 23.62208938598633 2.975219964981079 19.73892974853516 C 4.561729907989502 15.9879903793335 6.833069801330566 12.61919975280762 9.726140022277832 9.726140022277832 C 12.61919975280762 6.833069801330566 15.9879903793335 4.561729907989502 19.73892974853516 2.975219964981079 C 23.62208938598633 1.332780003547668 27.74731063842773 0.5 32 0.5 C 36.25270080566406 0.5 40.3779182434082 1.332780003547668 44.26107025146484 2.975219964981079 C 48.01200866699219 4.561729907989502 51.38079833984375 6.833069801330566 54.27386856079102 9.726140022277832 C 57.16693115234375 12.61919975280762 59.43827056884766 15.9879903793335 61.0247802734375 19.73892974853516 C 62.66722106933594 23.62208938598633 63.5 27.74731063842773 63.5 32 C 63.5 36.25270080566406 62.66722106933594 40.3779182434082 61.0247802734375 44.26107025146484 C 59.43827056884766 48.01200866699219 57.16693115234375 51.38079833984375 54.27386856079102 54.27386856079102 C 51.38079833984375 57.16693115234375 48.01200866699219 59.43827056884766 44.26107025146484 61.0247802734375 C 40.3779182434082 62.66722106933594 36.25270080566406 63.5 32 63.5 Z"/>
        <path class="cls-4" d="M 32 1 C 27.81459045410156 1 23.75490188598633 1.819499969482422 19.93370819091797 3.435718536376953 C 16.24237060546875 4.997028350830078 12.92699813842773 7.232379913330078 10.07968902587891 10.07968902587891 C 7.232379913330078 12.92699813842773 4.997028350830078 16.24237060546875 3.435718536376953 19.93370819091797 C 1.819499969482422 23.75490188598633 1 27.81459045410156 1 32 C 1 36.18540954589844 1.819499969482422 40.24510192871094 3.435718536376953 44.06629180908203 C 4.997028350830078 47.75762939453125 7.232379913330078 51.072998046875 10.07968902587891 53.92031097412109 C 12.92699813842773 56.76762008666992 16.24237060546875 59.00297164916992 19.93370819091797 60.56428146362305 C 23.75490188598633 62.18050003051758 27.81459045410156 63 32 63 C 36.18540954589844 63 40.24510192871094 62.18050003051758 44.06629180908203 60.56428146362305 C 47.75762939453125 59.00297164916992 51.072998046875 56.76762008666992 53.92031097412109 53.92031097412109 C 56.76762008666992 51.072998046875 59.00297164916992 47.75762939453125 60.56428146362305 44.06629180908203 C 62.18050003051758 40.24510192871094 63 36.18540954589844 63 32 C 63 27.81459045410156 62.18050003051758 23.75490188598633 60.56428146362305 19.93370819091797 C 59.00297164916992 16.24237060546875 56.76762008666992 12.92699813842773 53.92031097412109 10.07968902587891 C 51.072998046875 7.232379913330078 47.75762939453125 4.997028350830078 44.06629180908203 3.435718536376953 C 40.24510192871094 1.819499969482422 36.18540954589844 1 32 1 M 32 0 C 49.67311096191406 0 64 14.32688903808594 64 32 C 64 49.67311096191406 49.67311096191406 64 32 64 C 14.32688903808594 64 0 49.67311096191406 0 32 C 0 14.32688903808594 14.32688903808594 0 32 0 Z"/>
      </g>
    </g>
    <g id="Group_32" data-name="Group 32" transform="translate(143.667 480.267)">
      <g id="noun_603871_cc" transform="translate(0 0)">
        <path id="Path_93" data-name="Path 93" class="cls-2" d="M37.039,18.412H5.882a.922.922,0,0,0-.134.014.922.922,0,0,0-.134-.014H.95a.95.95,0,0,0,0,1.9H4.932v3.625H.95a.95.95,0,1,0,0,1.9H4.932v3.626H.95a.95.95,0,0,0,0,1.9H4.932v3.626H.95a.95.95,0,0,0,0,1.9H4.932v3.626H.95a.95.95,0,0,0,0,1.9H5.614a.976.976,0,0,0,.134-.013.912.912,0,0,0,.134.013H37.039a.95.95,0,0,0,.95-.95v-22.1A.95.95,0,0,0,37.039,18.412Zm-2.288,1.9L23.139,31.924a2.374,2.374,0,0,1-3.357,0L8.171,20.311Zm-27.92,20.2V21.659L18.439,33.266a4.272,4.272,0,0,0,6.043,0L36.09,21.659V40.512Z" transform="translate(0 -18.412)"/>
      </g>
      <g id="noun_126067_cc" transform="translate(25.651 11.499)">
        <path id="Path_52" data-name="Path 52" class="cls-2" d="M36.888,32.115a4.774,4.774,0,1,0,4.775,4.774A4.78,4.78,0,0,0,36.888,32.115Zm0,8.748a3.974,3.974,0,1,1,3.974-3.974A3.978,3.978,0,0,1,36.888,40.863Zm0-7.314a.4.4,0,0,0-.4.4v2.774l-1.235,1.235a.4.4,0,0,0,.566.566l1.353-1.353h0a.407.407,0,0,0,.085-.129l0-.009a.4.4,0,0,0,.028-.141s0,0,0,0V33.95A.4.4,0,0,0,36.888,33.549Z" transform="translate(-32.114 -32.115)"/>
      </g>
    </g>
  </g>
</svg>
