<svg xmlns="http://www.w3.org/2000/svg" width="64" height="42.503" viewBox="0 0 64 42.503">
  <g id="noun_Engine_1387716" transform="translate(0 -16.793)">
    <g id="Group_575" data-name="Group 575" transform="translate(0 16.793)">
      <path id="Path_428" data-name="Path 428" d="M61.528,30.951a1.6,1.6,0,0,0-1.437-.9h-5.72a1.6,1.6,0,0,0-1.6,1.6v3.389H50.494v-3.4a1.6,1.6,0,0,0-1.592-1.6l-3.526-.017-2.2-4.985a1.6,1.6,0,0,0-1.464-.954H33.122v-4.1h4.516a1.6,1.6,0,1,0,0-3.2H18.653a1.6,1.6,0,1,0,0,3.2h5.519v4.1H16.645a1.6,1.6,0,0,0-1.393.813l-1.61,2.852h-1.1a5.265,5.265,0,0,0-5.259,5.259V36.5H3.593a1.6,1.6,0,0,0-.393.054V27.972a1.6,1.6,0,1,0-3.2,0V47.687a1.6,1.6,0,1,0,3.2,0V39.649a1.591,1.591,0,0,0,.393.054H7.286V47.46a5.333,5.333,0,0,0,5.327,5.327h5.133l6.042,6.042a1.6,1.6,0,0,0,1.132.468H48.895a1.6,1.6,0,0,0,1.6-1.6V53.088l2.276,0V56.1a1.6,1.6,0,0,0,1.6,1.6l5.842.01h0a1.6,1.6,0,0,0,1.434-.89C61.743,56.631,64,51.98,64,43.669A31.052,31.052,0,0,0,61.528,30.951ZM27.372,19.993h2.55v4.1h-2.55Zm31.765,34.52-3.167-.006V51.481a1.6,1.6,0,0,0-1.6-1.6h0l-5.476.01a1.6,1.6,0,0,0-1.6,1.6V56.1H25.583l-6.042-6.042a1.6,1.6,0,0,0-1.132-.468h-5.8a2.129,2.129,0,0,1-2.127-2.127V33.016a2.061,2.061,0,0,1,2.059-2.059h2.031a1.6,1.6,0,0,0,1.393-.813l1.61-2.852H40.672l2.2,4.979a1.6,1.6,0,0,0,1.456.955l2.971.014v3.4a1.6,1.6,0,0,0,1.6,1.6h5.476a1.6,1.6,0,0,0,1.6-1.6V33.254h3.055A30.023,30.023,0,0,1,60.8,43.67,32.39,32.39,0,0,1,59.137,54.513Z" transform="translate(0 -16.793)" fill="#00467e"/>
      <path id="Path_429" data-name="Path 429" d="M53.831,42.7h-4.2l1.615-3.082a1.6,1.6,0,0,0-1.418-2.342H41.04a1.6,1.6,0,0,0-1.43.883l-4.576,9.13a1.6,1.6,0,0,0,1.43,2.317h.005l4.367-.013-1.494,9.938a1.6,1.6,0,0,0,2.81,1.263L55.06,45.324A1.6,1.6,0,0,0,53.831,42.7ZM43.355,54.355l.922-6.134a1.6,1.6,0,0,0-1.582-1.837H42.69l-3.631.012,2.968-5.921h5.159l-1.615,3.082A1.6,1.6,0,0,0,46.989,45.9h3.423Z" transform="translate(-12.551 -24.166)" fill="#00467e"/>
    </g>
  </g>
</svg>
