<svg xmlns="http://www.w3.org/2000/svg" viewBox="0 0 31.12 40">
  <defs>
    <style>
      .cls-1 {
        fill: #01579B;
      }
    </style>
  </defs>
  <g id="noun_465892_cc" transform="translate(8 26)">
    <g id="Group_180" data-name="Group 180" transform="translate(-23 -983.362)">
      <path id="Path_156" data-name="Path 156" class="cls-1" d="M29.226,957.362a1.8,1.8,0,0,0-1.778,1.779v4.489a5.774,5.774,0,0,0-2.667,4.85c0,.185.011.375.028.556L20.752,979.6H16.334a1.334,1.334,0,0,0,0,2.668h3.39l-3.751,9.742a1.341,1.341,0,0,0-.069.639l.445,3.558a1.4,1.4,0,0,0,1.792,1.084l3.557-1.334a1.352,1.352,0,0,0,.778-.764l4.9-12.924h1.848v.889a1.334,1.334,0,1,0,2.667,0v-.889h1.848l4.9,12.924a1.352,1.352,0,0,0,.778.764l3.557,1.334a1.4,1.4,0,0,0,1.792-1.084l.445-3.558a1.341,1.341,0,0,0-.069-.639L41.4,982.266h3.39a1.334,1.334,0,0,0,0-2.668H40.369l-4.057-10.562c.017-.181.028-.371.028-.556a5.774,5.774,0,0,0-2.667-4.85v-4.489a1.8,1.8,0,0,0-1.778-1.779Zm.889,2.668H31v2.7c-.148-.012-.293-.028-.445-.028s-.3.016-.445.028Zm.445,5.337a3.113,3.113,0,1,1-3.112,3.113A3.093,3.093,0,0,1,30.56,965.367Zm-4.2,7.074a5.833,5.833,0,0,0,1.459,1.126L25.531,979.6H23.614Zm8.391,0,2.751,7.157H35.589L33.3,973.566A5.836,5.836,0,0,0,34.756,972.44Zm-4.335,1.821H30.7l2.028,5.337h-.834v-.889a1.334,1.334,0,1,0-2.667,0v.889h-.834Zm-7.836,8h1.931l-4.335,11.41-1.4.528-.195-1.529Zm14.018,0h1.931l4,10.409-.195,1.529-1.4-.528Z"/>
    </g>
  </g>
</svg>
