<svg xmlns="http://www.w3.org/2000/svg" viewBox="0 0 52.378 40">
  <defs>
    <style>
      .cls-1 {
        fill: #01579B;
      }
    </style>
  </defs>
  <g id="noun_851357_cc" transform="translate(-5.666 -10)">
    <path id="Path_157" data-name="Path 157" class="cls-1" d="M57.241,22.2,32.48,10.145a1.423,1.423,0,0,0-1.264.006L6.456,22.53a1.429,1.429,0,0,0,0,2.556l5.4,2.7v8.228L8.9,47.843a1.428,1.428,0,0,0,1.038,1.731,13.692,13.692,0,0,0,3.2.417l.012,0c.036,0,.1.006.135.006l.056,0h.006a13.724,13.724,0,0,0,3.287-.423,1.428,1.428,0,0,0,1.038-1.731L14.714,36.014v-6.8l3.334,1.667v7.14c0,4.979,6.065,8.879,13.807,8.879S45.663,43,45.663,38.022V30.708l11.606-5.957a1.428,1.428,0,0,0-.028-2.555ZM42.806,38.022c0,3.264-5.015,6.022-10.951,6.022S20.9,41.287,20.9,38.022V32.311l10.312,5.156a1.429,1.429,0,0,0,1.291-.007l10.3-5.286v5.848ZM31.847,34.588l-13.994-7L32.09,25.218a1.428,1.428,0,1,0-.47-2.818L13.509,25.418l-3.22-1.61L31.864,13.022,53.422,23.515Z" transform="translate(0 0)"/>
  </g>
</svg>
