<svg xmlns="http://www.w3.org/2000/svg" viewBox="0 0 30.591 40">
  <defs>
    <style>
      .cls-1 {
        fill: #01579B;
      }
    </style>
  </defs>
  <g id="noun_240547_cc" transform="translate(-36.045 -68.604)">
    <g id="Group_181" data-name="Group 181" transform="translate(20 67)">
      <path id="Path_161" data-name="Path 161" class="cls-1" d="M32.9,63.69a2.756,2.756,0,0,0-2.288-2.71v-.007l-.508-1.3.552-.733,4.079-11.688a9.345,9.345,0,0,0-.981-.312L31.814,48.9l-1.885-1.978-.019,0a21.855,21.855,0,0,0-5.087,2.643,20.993,20.993,0,0,0-2.9,2.453,21.537,21.537,0,0,0-5.648,9.4,4.027,4.027,0,0,0,.312,3.427c.855,1.08,1.335,1.643,6.871,1.643,0-.013,6.685-.038,6.685-.038A2.761,2.761,0,0,0,32.9,63.69Zm-6.1,1.938-2.3.012-.761.007a2.664,2.664,0,0,0-.279.015v-.009c-5.166,0-5.54-.471-6.217-1.327a3.269,3.269,0,0,1-.17-2.663A20.813,20.813,0,0,1,22.523,52.6,20.06,20.06,0,0,1,25.3,50.254l.181-.125,4.342,11.1a.833.833,0,0,0,.653.571,1.92,1.92,0,0,1-.332,3.812S28.471,65.62,26.8,65.629Z" transform="translate(0 -30.555)"/>
      <path id="Path_162" data-name="Path 162" class="cls-1" d="M57.955,54.471a19.143,19.143,0,0,0-6.338-5.492l-2.25,14.3a7.752,7.752,0,0,1,.369,1.8,3.483,3.483,0,0,1-3.479,3.478H39.942v3.775A11.574,11.574,0,0,0,40,73.547H55.856c.034-.339.056-.739.056-1.215V62.6A36.239,36.239,0,0,1,57.188,72.99a2.817,2.817,0,0,0,.056.556h5.449a2.816,2.816,0,0,0,.055-.556C62.749,62.308,60.026,56.979,57.955,54.471Z" transform="translate(-16.112 -31.943)"/>
      <circle id="Ellipse_25" data-name="Ellipse 25" class="cls-1" cx="7.297" cy="7.297" r="7.297" transform="translate(24.534 1.604)"/>
    </g>
  </g>
</svg>
