<svg xmlns="http://www.w3.org/2000/svg" viewBox="0 0 40 40">
  <defs>
    <style>
      .cls-1 {
        fill: #01579B;
      }
    </style>
  </defs>
  <g id="noun_641713_cc" transform="translate(-5 -5)">
    <path id="Path_158" data-name="Path 158" class="cls-1" d="M25,7.667A17.333,17.333,0,1,1,7.667,25,17.353,17.353,0,0,1,25,7.667M25,5A20,20,0,1,0,45,25,20,20,0,0,0,25,5Z"/>
    <path id="Path_159" data-name="Path 159" class="cls-1" d="M45.432,52.3q0,.541-2.55,2.533a7.81,7.81,0,0,1-4.611,1.993,2.62,2.62,0,0,1-2.06-.726,2.408,2.408,0,0,1-.642-1.638,3.237,3.237,0,0,1,.169-1.064q.169-.489.372-1l3.209-6.654a8.968,8.968,0,0,0,.388-.929,2.015,2.015,0,0,0,.118-.625.6.6,0,0,0-.1-.388.339.339,0,0,0-.27-.118q-.439,0-1.706,1.334t-1.5,1.334a.725.725,0,0,1-.54-.372,1.316,1.316,0,0,1-.27-.473,2.245,2.245,0,0,1,.642-1.1,14.61,14.61,0,0,1,1.621-1.6,11.558,11.558,0,0,1,2.111-1.452,4.666,4.666,0,0,1,2.179-.676,2.881,2.881,0,0,1,2.28.861,3.032,3.032,0,0,1,.76,2.077,6.234,6.234,0,0,1-.1,1.081,3.805,3.805,0,0,1-.439,1.182l-2.567,5.641a12.052,12.052,0,0,0-.439,1.148,2.506,2.506,0,0,0-.135.608q0,.2.1.253a.45.45,0,0,0,.2.051,2.69,2.69,0,0,0,1.74-1.064q1-1.064,1.267-1.064.236,0,.507.355A1.121,1.121,0,0,1,45.432,52.3Z" transform="translate(-16.908 -19.824)"/>
    <path id="Path_160" data-name="Path 160" class="cls-1" d="M56.1,23.769a2.981,2.981,0,0,1-.9,2.162,3.063,3.063,0,1,1-4.34-4.324A3.065,3.065,0,0,1,56.1,23.769Z" transform="translate(-24.972 -8.719)"/>
  </g>
</svg>
