<svg xmlns="http://www.w3.org/2000/svg" viewBox="0 0 39.999 40">
  <defs>
    <style>
      .cls-1 {
        fill: #01579B;
      }
    </style>
  </defs>
  <g id="noun_1303306_cc" transform="translate(-0.014 -0.018)">
    <g id="Group_182" data-name="Group 182" transform="translate(0.014 0.018)">
      <path id="Path_163" data-name="Path 163" class="cls-1" d="M13.747,33.78c1.839-.088,3.576-.172,4.624-1.217L21.233,29.7l.005,0,0-.005,2.271-2.271.005,0,0-.005,2.271-2.271.005,0,0-.005,2.271-2.271.005,0,0-.005,2.271-2.271.005,0,0-.005,2.266-2.266s.007,0,.01-.007,0-.007.007-.01l5.118-5.118a7.71,7.71,0,0,0-10.906-10.9l-5.12,5.12-.007.005-.005.007-2.27,2.27-.007,0s0,.005,0,.007L10.331,18.8a0,0,0,0,0,0,0s0,0,0,0L7.464,21.663c-1.043,1.045-1.128,2.774-1.217,4.628-.04.893-.117,2.557-.452,2.889L1.057,33.918a3.576,3.576,0,0,0,5.057,5.057l4.733-4.738C11.182,33.9,12.786,33.825,13.747,33.78ZM5.174,38.024a2.3,2.3,0,0,1-3.164,0,2.243,2.243,0,0,1,0-3.167l4.738-4.739c.649-.651.758-1.974.841-3.792.075-1.565.149-3.046.828-3.725l2.393-2.391,1.7,1.7a.668.668,0,0,0,.945-.945l-1.7-1.7,1.335-1.335.561.561a.667.667,0,0,0,.941-.945l-.559-.557,1.335-1.335,1.7,1.7a.668.668,0,0,0,.945-.945l-1.7-1.7,1.335-1.335.557.557a.667.667,0,0,0,.945-.941l-.559-.559.447-.447v0c.008-.008.017-.017.025-.027l.861-.861,1.7,1.7a.668.668,0,1,0,.945-.945l-1.7-1.7L22.2,8.811l.559.559a.668.668,0,0,0,.945-.945l-.559-.559L27.8,3.214a6.537,6.537,0,0,1,9.012,0,6.383,6.383,0,0,1,0,9.012L32.159,16.88l-.559-.559a.668.668,0,1,0-.945.945l.559.559-1.333,1.333-1.7-1.7a.668.668,0,0,0-.945.945l1.7,1.7L27.6,21.437l-.561-.561a.668.668,0,0,0-.945.945l.561.561-1.335,1.335-1.7-1.7a.668.668,0,0,0-.945.945l1.7,1.7L23.042,26l-.561-.561a.668.668,0,0,0-.945.945l.561.561-1.335,1.335-1.7-1.7a.668.668,0,0,0-.945.945l1.7,1.7-2.393,2.393c-.684.683-2.173.754-3.748.829-1.857.09-3.124.2-3.773.841Z" transform="translate(-0.014 -0.018)"/>
      <path id="Path_164" data-name="Path 164" class="cls-1" d="M26.127,8.982a3.577,3.577,0,1,0-.926-.926c-.017.015-.038.02-.055.037L6.513,26.722a.668.668,0,0,0,.945.945L26.09,9.037C26.105,9.021,26.112,9,26.127,8.982Z" transform="translate(4.203 1.615)"/>
    </g>
  </g>
</svg>
