<svg xmlns="http://www.w3.org/2000/svg" viewBox="0 0 46.153 40">
  <defs>
    <style>
      .cls-1 {
        fill: #01579B;
      }

      .cls-2 {
        fill: #fff;
      }
    </style>
  </defs>
  <g id="noun_185225_cc_1_" data-name="noun_185225_cc (1)" transform="translate(5.066 -46.542)">
    <g id="Group_183" data-name="Group 183" transform="translate(-77 26)">
      <path id="Path_165" data-name="Path 165" class="cls-1" d="M49.1,16.619a3.013,3.013,0,0,0-3.076-3.077H34.488c-2.822,0-3.846,1.84-3.846,3.077v3.846H27.565V53.541H52.181V20.466H49.1V16.619ZM33.718,20.466V16.761a1.459,1.459,0,0,1,.769-.141h11.5a.218.218,0,0,1,.043.005v3.841Z" transform="translate(55.138 7)"/>
      <path id="Path_166" data-name="Path 166" class="cls-1" d="M7.934,29.325V56.162a3.076,3.076,0,0,0,3.077,3.076h4.615V26.163H11.011A3.151,3.151,0,0,0,7.934,29.325Z" transform="translate(64 1.303)"/>
      <path id="Path_167" data-name="Path 167" class="cls-1" d="M82.659,26.163H78.044V59.239h4.615a3.077,3.077,0,0,0,3.077-3.076V29.325A3.151,3.151,0,0,0,82.659,26.163Z" transform="translate(32.351 1.303)"/>
    </g>
    <path id="Path_174" data-name="Path 174" class="cls-2" d="M7.727,22.113A1.378,1.378,0,0,0,9.1,20.737V11.111H6.351v9.626A1.378,1.378,0,0,0,7.727,22.113ZM9.979,5.753h-4.5a.474.474,0,1,0,0,.949H5.52V20.925a2.206,2.206,0,1,0,4.412,0V6.7h.046a.474.474,0,0,0,0-.949Zm-.52,15.172a1.732,1.732,0,1,1-3.464,0V6.7H9.459V20.925Zm5.426,1.06h6.208a.673.673,0,0,0,.672-.672v-10.2H14.212v10.2A.673.673,0,0,0,14.884,21.985Zm5.827-3.639a.961.961,0,1,1-.96-.961A.96.96,0,0,1,20.711,18.346ZM18.79,12.313a.409.409,0,1,1-.409.409A.41.41,0,0,1,18.79,12.313Zm-.178,2.379a.465.465,0,1,1-.465.466A.465.465,0,0,1,18.612,14.692ZM17.55,16.314a.536.536,0,1,1-.536.536A.535.535,0,0,1,17.55,16.314Zm-1.008-2.872a.425.425,0,1,1-.425.426A.425.425,0,0,1,16.541,13.442Zm.472,5.864a.9.9,0,1,1-.9.9A.9.9,0,0,1,17.014,19.307ZM13.3,6.9V21.313a1.583,1.583,0,0,0,1.581,1.581h6.208a1.583,1.583,0,0,0,1.581-1.581V6.9Zm8.9,14.409a1.109,1.109,0,0,1-1.107,1.107H14.884a1.109,1.109,0,0,1-1.107-1.107V7.378H22.2Z" transform="translate(3.823 55.904)"/>
  </g>
</svg>
