<svg xmlns="http://www.w3.org/2000/svg" viewBox="0 0 46.153 40">
  <defs>
    <style>
      .cls-1 {
        fill: #01579B;
      }

      .cls-2 {
        fill: #fff;
      }
    </style>
  </defs>
  <g id="noun_185225_cc_1_" data-name="noun_185225_cc (1)" transform="translate(5.066 -46.542)">
    <g id="Group_183" data-name="Group 183" transform="translate(-77 26)">
      <path id="Path_165" data-name="Path 165" class="cls-1" d="M49.1,16.619a3.013,3.013,0,0,0-3.076-3.077H34.488c-2.822,0-3.846,1.84-3.846,3.077v3.846H27.565V53.541H52.181V20.466H49.1V16.619ZM33.718,20.466V16.761a1.459,1.459,0,0,1,.769-.141h11.5a.218.218,0,0,1,.043.005v3.841Z" transform="translate(55.138 7)"/>
      <path id="Path_166" data-name="Path 166" class="cls-1" d="M7.934,29.325V56.162a3.076,3.076,0,0,0,3.077,3.076h4.615V26.163H11.011A3.151,3.151,0,0,0,7.934,29.325Z" transform="translate(64 1.303)"/>
      <path id="Path_167" data-name="Path 167" class="cls-1" d="M82.659,26.163H78.044V59.239h4.615a3.077,3.077,0,0,0,3.077-3.076V29.325A3.151,3.151,0,0,0,82.659,26.163Z" transform="translate(32.351 1.303)"/>
    </g>
    <g id="noun_17432_cc" transform="translate(-7.194 50.497)">
      <g id="Group_185" data-name="Group 185" transform="translate(16 9)">
        <g id="Group_184" data-name="Group 184">
          <path id="Path_168" data-name="Path 168" class="cls-2" d="M22.417,28.114,22.2,28.1C18.731,27.827,16,22.715,16,16.47c0-2.445,1.436-5.168,3.615-5.168v1.246c-1.246,0-2.333,1.906-2.333,3.923,0,5.443,2.382,10.228,5.135,10.394,2.753-.166,5.134-4.952,5.134-10.394,0-1.939-1.088-3.705-2.333-3.705V11.52c1.868,0,3.5,2.267,3.5,4.951,0,6.244-2.571,11.356-6.306,11.633v.011Z" transform="translate(-16 -10.679)"/>
          <path id="Path_169" data-name="Path 169" class="cls-2" d="M28.619,10.868a.623.623,0,0,1-.622.623h-.311a.623.623,0,0,1-.623-.623V9.622A.622.622,0,0,1,27.684,9H28a.622.622,0,0,1,.622.622v1.246Z" transform="translate(-24.069 -9)"/>
          <path id="Path_170" data-name="Path 170" class="cls-2" d="M48.182,10.868a.623.623,0,0,1-.623.623h-.311a.623.623,0,0,1-.623-.623V9.622A.623.623,0,0,1,47.248,9h.311a.623.623,0,0,1,.623.622v1.246Z" transform="translate(-38.34 -9)"/>
          <path id="Path_171" data-name="Path 171" class="cls-2" d="M42.4,59.728c-3.386,0-5.751-2.257-5.751-5.371H37.9c0,2.491,1.81,4.124,4.505,4.124,2.057,0,4.419-.67,4.419-6.1V48.13h1.246v4.255C48.067,57.343,46.213,59.728,42.4,59.728Z" transform="translate(-31.064 -37.544)"/>
          <path id="Path_172" data-name="Path 172" class="cls-2" d="M69.352,37.856A2.439,2.439,0,1,1,71.8,35.418,2.445,2.445,0,0,1,69.352,37.856Zm0-3.632a1.193,1.193,0,1,0,1.2,1.193A1.2,1.2,0,0,0,69.352,34.225Z" transform="translate(-53.134 -26.492)"/>
        </g>
      </g>
    </g>
  </g>
</svg>
