<svg xmlns="http://www.w3.org/2000/svg" viewBox="0 0 46.153 40">
  <defs>
    <style>
      .cls-1 {
        fill: #01579B;
      }

      .cls-2 {
        fill: #fff;
      }
    </style>
  </defs>
  <g id="noun_185225_cc_1_" data-name="noun_185225_cc (1)" transform="translate(5.066 -46.542)">
    <g id="Group_183" data-name="Group 183" transform="translate(-77 26)">
      <path id="Path_165" data-name="Path 165" class="cls-1" d="M49.1,16.619a3.013,3.013,0,0,0-3.076-3.077H34.488c-2.822,0-3.846,1.84-3.846,3.077v3.846H27.565V53.541H52.181V20.466H49.1V16.619ZM33.718,20.466V16.761a1.459,1.459,0,0,1,.769-.141h11.5a.218.218,0,0,1,.043.005v3.841Z" transform="translate(55.138 7)"/>
      <path id="Path_166" data-name="Path 166" class="cls-1" d="M7.934,29.325V56.162a3.076,3.076,0,0,0,3.077,3.076h4.615V26.163H11.011A3.151,3.151,0,0,0,7.934,29.325Z" transform="translate(64 1.303)"/>
      <path id="Path_167" data-name="Path 167" class="cls-1" d="M82.659,26.163H78.044V59.239h4.615a3.077,3.077,0,0,0,3.077-3.076V29.325A3.151,3.151,0,0,0,82.659,26.163Z" transform="translate(32.351 1.303)"/>
    </g>
    <path id="Path_173" data-name="Path 173" class="cls-2" d="M176.819,342.521a.773.773,0,0,0-.539.257l-.645.715,4.468,4.01.641-.712a.786.786,0,0,0-.06-1.11l-3.295-2.96a.791.791,0,0,0-.571-.2ZM175.7,344.23l-4.137,4.606,3.665,3.291,1.025-1.145a.565.565,0,0,1,.8-.042l5.652,5.074a1.029,1.029,0,0,0,1.321.074,1,1,0,0,0,.046-1.519l-5.687-5.113a.557.557,0,0,1-.046-.789l1.029-1.145L175.7,344.23Zm-4.873,4.623-.641.715a.781.781,0,0,0,.056,1.106l3.3,2.963a.786.786,0,0,0,1.11-.06l.641-.715-4.465-4.01Zm-1.762,6.371a1.148,1.148,0,0,0-1.149,1.149v1.008h9.874v-1.008h0a1.148,1.148,0,0,0-1.149-1.149h-7.573Zm-3.7,3.185V359.6a.968.968,0,0,0,.965.969h13.038a.967.967,0,0,0,.966-.969V358.41Z" transform="translate(-157.444 -282.026)"/>
  </g>
</svg>
