<svg viewBox="0 0 270.68 255.3" xmlns="http://www.w3.org/2000/svg">
 <path d="m155.23 0.71968c4.4887 1.259 6.2836 2.2878 9.8562 5.6492 1.707 1.6061 25.384 26.838 52.615 56.072 31.364 33.67 50.146 54.297 51.244 56.277 1.5622 2.8181 1.7322 3.6966 1.7296 8.9366-3e-3 5.124-0.19621 6.1729-1.6372 8.8698-1.0722 2.0066-18.695 21.363-51.236 56.277-27.281 29.27-51.151 54.659-53.044 56.418-5.3537 4.9769-12.236 7.0352-18.948 5.6668-7.1872-1.4652-12.862-5.9732-16.032-12.736l-1.6274-3.4715-0.34768-63.272-103.03-0.34551-4.1354-1.6572c-9.7833-3.9205-16.86-11.604-19.519-21.194-0.98263-3.5437-1.1197-6.55-1.1197-24.557 0-18.007 0.13708-21.013 1.1197-24.557 2.659-9.5892 9.7358-17.273 19.519-21.194l4.1354-1.6572 103.03-0.34551 0.34768-63.3 2.0068-4.0752c4.6334-9.4092 15.454-14.505 25.073-11.807z" fill="#00a0dc" stroke-width="2.4468"/>
</svg>
