<svg xmlns="http://www.w3.org/2000/svg" viewBox="0 0 120 120">
  <defs>
    <style>
      .cls-1, .cls-5 {
        fill: #00a0dc;
      }

      .cls-2 {
        fill: none;
        stroke: #fff;
        stroke-miterlimit: 10;
        stroke-width: 3px;
      }

      .cls-3 {
        fill: #fff;
      }

      .cls-4, .cls-5 {
        stroke: none;
      }
    </style>
  </defs>
  <g id="Group_147" data-name="Group 147" transform="translate(-974 -49)">
    <g id="Group_146" data-name="Group 146">
      <g id="Path_96" data-name="Path 96" class="cls-1" transform="translate(974 49)">
        <path class="cls-4" d="M 60 119.5 C 51.96733856201172 119.5 44.17520141601563 117.9269104003906 36.8400764465332 114.8244018554688 C 33.31455230712891 113.3332290649414 29.91416931152344 111.4875564575195 26.73333930969238 109.3386306762695 C 23.58259963989258 107.2100296020508 20.61977005004883 104.7654800415039 17.92715454101563 102.0728607177734 C 15.23452281951904 99.38023376464844 12.7899694442749 96.41739654541016 10.66136932373047 93.26667785644531 C 8.512446403503418 90.08584594726563 6.666769027709961 86.68544769287109 5.175600051879883 83.15993499755859 C 2.073092222213745 75.82479858398438 0.5 68.03267669677734 0.5 60 C 0.5 51.96733856201172 2.073092222213745 44.17520141601563 5.175600051879883 36.8400764465332 C 6.666769027709961 33.31455230712891 8.512446403503418 29.91416931152344 10.66136932373047 26.73333930969238 C 12.7899694442749 23.58259963989258 15.23452281951904 20.61977005004883 17.92715454101563 17.92715454101563 C 20.61977005004883 15.23452281951904 23.58259963989258 12.7899694442749 26.73333930969238 10.66136932373047 C 29.91416931152344 8.512446403503418 33.31455230712891 6.666769027709961 36.8400764465332 5.175600051879883 C 44.17520141601563 2.073092222213745 51.96733856201172 0.5 60 0.5 C 68.03267669677734 0.5 75.82479858398438 2.073092222213745 83.15993499755859 5.175600051879883 C 86.68544769287109 6.666769027709961 90.08584594726563 8.512446403503418 93.26667785644531 10.66136932373047 C 96.41739654541016 12.7899694442749 99.38023376464844 15.23452281951904 102.0728607177734 17.92715454101563 C 104.7654800415039 20.61977005004883 107.2100296020508 23.58259963989258 109.3386306762695 26.73333930969238 C 111.4875564575195 29.91416931152344 113.3332290649414 33.31455230712891 114.8244018554688 36.8400764465332 C 117.9269104003906 44.17520141601563 119.5 51.96733856201172 119.5 60 C 119.5 68.03267669677734 117.9269104003906 75.82479858398438 114.8244018554688 83.15993499755859 C 113.3332290649414 86.68544769287109 111.4875564575195 90.08584594726563 109.3386306762695 93.26667785644531 C 107.2100296020508 96.41739654541016 104.7654800415039 99.38023376464844 102.0728607177734 102.0728607177734 C 99.38023376464844 104.7654800415039 96.41739654541016 107.2100296020508 93.26667785644531 109.3386306762695 C 90.08584594726563 111.4875564575195 86.68544769287109 113.3332290649414 83.15993499755859 114.8244018554688 C 75.82479858398438 117.9269104003906 68.03267669677734 119.5 60 119.5 Z"/>
        <path class="cls-5" d="M 60 119 C 67.96538543701172 119 75.69198608398438 117.440185546875 82.96514892578125 114.363899230957 C 86.46092987060547 112.8853149414063 89.83267974853516 111.0551681518555 92.98676300048828 108.92431640625 C 96.11112976074219 106.8135299682617 99.04918670654297 104.3894195556641 101.7192993164063 101.7192993164063 C 104.3894195556641 99.04918670654297 106.8135299682617 96.11112976074219 108.92431640625 92.98676300048828 C 111.0551681518555 89.83267974853516 112.8853149414063 86.46092987060547 114.363899230957 82.96514892578125 C 117.440185546875 75.69198608398438 119 67.96538543701172 119 60 C 119 52.03461837768555 117.440185546875 44.30801773071289 114.363899230957 37.03485107421875 C 112.8853149414063 33.53906631469727 111.0551681518555 30.16731643676758 108.92431640625 27.01323318481445 C 106.8135299682617 23.88886642456055 104.3894195556641 20.9508171081543 101.7192993164063 18.28070068359375 C 99.04918670654297 15.61058330535889 96.11112976074219 13.18646621704102 92.98676300048828 11.07568359375 C 89.83267974853516 8.944833755493164 86.46092987060547 7.114683151245117 82.96514892578125 5.636099815368652 C 75.69198608398438 2.559816598892212 67.96538543701172 1 60 1 C 52.03461837768555 1 44.30801773071289 2.559816598892212 37.03485107421875 5.636099815368652 C 33.53906631469727 7.114683151245117 30.16731643676758 8.944833755493164 27.01323318481445 11.07568359375 C 23.88886642456055 13.18646621704102 20.9508171081543 15.61058330535889 18.28070068359375 18.28070068359375 C 15.61058330535889 20.9508171081543 13.18646621704102 23.88886642456055 11.07568359375 27.01323318481445 C 8.944833755493164 30.16731643676758 7.114683151245117 33.53906631469727 5.636099815368652 37.03485107421875 C 2.559816598892212 44.30801773071289 1 52.03461837768555 1 60 C 1 67.96538543701172 2.559816598892212 75.69198608398438 5.636099815368652 82.96514892578125 C 7.114683151245117 86.46092987060547 8.944833755493164 89.83267974853516 11.07568359375 92.98676300048828 C 13.18646621704102 96.11112976074219 15.61058330535889 99.04918670654297 18.28070068359375 101.7192993164063 C 20.9508171081543 104.3894195556641 23.88886642456055 106.8135299682617 27.01323318481445 108.92431640625 C 30.16731643676758 111.0551681518555 33.53906631469727 112.8853149414063 37.03485107421875 114.363899230957 C 44.30801773071289 117.440185546875 52.03461837768555 119 60 119 M 60 120 C 26.86291694641113 120 0 93.1370849609375 0 60 C 0 26.86291694641113 26.86291694641113 0 60 0 C 93.1370849609375 0 120 26.86291694641113 120 60 C 120 93.1370849609375 93.1370849609375 120 60 120 Z"/>
      </g>
    </g>
    <g id="Group_34" data-name="Group 34" transform="translate(1005 -253)">
      <g id="noun_421713_cc" transform="translate(3 340)">
        <path id="Path_62" data-name="Path 62" class="cls-2" d="M30.1,229.049l9.459-23.584s1.433-5.151,4.873-5.015,45.147.065,45.147.065,4.3.477,2.866,4.543L82.7,229.049Zm53.746-33.208s0-3.389-4.013-3.66H49.158l-4.73-8.133H26.083a3.511,3.511,0,0,0-3.44,3.66v33.343s.43,3.66,4.013,3.66" transform="translate(-22.643 -184.049)"/>
      </g>
      <g id="noun_126067_cc" transform="translate(45.095 364.56)">
        <path id="Path_52" data-name="Path 52" class="cls-3" d="M41.066,32.115a8.952,8.952,0,1,0,8.953,8.952A8.962,8.962,0,0,0,41.066,32.115Zm0,16.4a7.451,7.451,0,1,1,7.451-7.451A7.459,7.459,0,0,1,41.066,48.518Zm0-13.713a.751.751,0,0,0-.751.751v5.2L38,43.073a.751.751,0,0,0,1.062,1.062L41.6,41.6s0,0,0,0a.763.763,0,0,0,.16-.242c0-.005,0-.011.005-.017a.748.748,0,0,0,.052-.264s0-.006,0-.008v-5.51A.752.752,0,0,0,41.066,34.8Z" transform="translate(-32.114 -32.115)"/>
      </g>
    </g>
  </g>
</svg>
