<svg xmlns="http://www.w3.org/2000/svg" viewBox="0 0 42 42">
  <defs>
    <style>
      .cls-1, .cls-2 {
        fill: #01579B;
      }

      .cls-2 {
        stroke: #fff;
      }

      .cls-3 {
        fill: #fff;
        fill-rule: evenodd;
      }

      .cls-4 {
        stroke: none;
      }

      .cls-5 {
        fill: none;
      }
    </style>
  </defs>
  <g
     id="Group_260"
     data-name="Group 260"
     transform="matrix(1.7261163,0,0,1.5767219,-1177.8059,-886.27968)">
    <g
       id="noun_11723_cc"
       transform="translate(683,562.989)"
       style="fill:#01579B;fill-opacity:1">
      <g
         id="Group_186"
         data-name="Group 186"
         transform="translate(0.111,0.011)"
         style="fill:#01579B;fill-opacity:1">
        <path
           id="Path_175"
           data-name="Path 175"
           class="cls-3"
           d="M 11.514,7.727 10.237,6.606 7.7,9.49 A 1.49,1.49 0 0 1 5.6,9.626 v 0 a 1.49,1.49 0 0 1 -0.136,-2.1 l 3.512,-4 a 1.49,1.49 0 0 1 2.1,-0.136 v 0 L 17.84,9.334 20.372,6.45 a 1.49,1.49 0 0 1 2.1,-0.136 v 0 a 1.49,1.49 0 0 1 0.136,2.1 l -3.512,4 a 1.49,1.49 0 0 1 -2.1,0.136 v 0 l -0.009,-0.008 -2.07,-1.817 -2.515,3.383 1.467,1.09 v 0 a 1.793,1.793 0 0 1 0.347,2.359 l -3.6,4.848 a 1.691,1.691 0 0 1 -2.359,0.347 v 0 A 1.691,1.691 0 0 1 7.91,20.394 L 10.51,16.899 9.457,16.116 3.221,24.5 a 1.691,1.691 0 0 1 -2.359,0.347 v 0 A 1.69,1.69 0 0 1 0.515,22.488 Z M 18.979,0.83 A 3.278,3.278 0 1 1 14.393,1.505 3.278,3.278 0 0 1 18.979,0.83 Z"
           transform="translate(-0.184,-0.182)"
           style="fill:#01579B;fill-opacity:1" />
      </g>
    </g>
  </g>
</svg>
