<svg xmlns="http://www.w3.org/2000/svg" viewBox="0 0 44.132 40">
  <defs>
    <style>
      .cls-1, .cls-2 {
        fill: #01579B;
      }

      .cls-1 {
        fill-rule: evenodd;
      }
    </style>
  </defs>
  <g id="noun_6704_cc" transform="translate(0 0)">
    <g id="Group_187" data-name="Group 187" transform="translate(0 0)">
      <path id="Path_176" data-name="Path 176" class="cls-1" d="M40.8,19.222A16.39,16.39,0,0,0,24.319,4.45C15.7,4.45,6.984,10.131,7.878,22.83c1.9-6.443,11.433,1.377,23.714-12.21-1.942,5.449,5.357,8.062,9.207,8.6Z" transform="translate(-2.1 -1.196)"/>
      <path id="Path_177" data-name="Path 177" class="cls-1" d="M33.131,41.756c.848,1.609-.953,4.188-4.41,4.188-3.229,0-5.494-2.6-4.616-4.1a8.933,8.933,0,0,0,4.443,1.045,8.745,8.745,0,0,0,4.582-1.132Z" transform="translate(-6.428 -11.223)"/>
      <ellipse id="Ellipse_26" data-name="Ellipse 26" class="cls-2" cx="3.248" cy="3.342" rx="3.248" ry="3.342" transform="translate(12.402 19.026)"/>
      <ellipse id="Ellipse_27" data-name="Ellipse 27" class="cls-2" cx="3.248" cy="3.342" rx="3.248" ry="3.342" transform="translate(25.025 19.026)"/>
      <path id="Path_178" data-name="Path 178" class="cls-1" d="M22.056,19.812l.145.06-.146-.066v.006Zm22.076.6c0-3-1.307-5.515-3.071-6.209a19.818,19.818,0,0,0-37.979-.1C1.313,14.784,0,17.3,0,20.31c0,3.211,1.5,5.87,3.452,6.328A19.825,19.825,0,0,0,19.72,39.486a1.493,1.493,0,1,0-.006-1.953A17.882,17.882,0,1,1,38.579,26.642c4.094.564,5.552-3.5,5.552-6.235h0Z" transform="translate(0 0)"/>
    </g>
  </g>
</svg>
