<svg xmlns="http://www.w3.org/2000/svg" viewBox="0 0 33.523 40">
  <defs>
    <style>
      .cls-1 {
        fill: #01579B;
      }
    </style>
  </defs>
  <g id="Group_193" data-name="Group 193" transform="translate(9.818 -940.363)">
    <path id="Path_179" data-name="Path 179" class="cls-1" d="M40.066,970.37a.941.941,0,0,0-.771.42c-1.711,2.482-7.136,4.592-13.342,4.628h-.037a.909.909,0,0,0-1.047.732,83.164,83.164,0,0,0-1.408,9.321c-.47,5.1-.567,11.077,1.5,14.935,1.545,2.89,5.2,5.213,8.464,6.981a56.674,56.674,0,0,0,5.9,2.779,1.09,1.09,0,0,0,1.252,0h0a56.02,56.02,0,0,0,5.893-2.772c3.264-1.768,6.914-4.091,8.459-6.981,2.063-3.858,1.966-9.833,1.5-14.935a83.177,83.177,0,0,0-1.408-9.321.939.939,0,0,0-.949-.744q-.039,0-.078,0c-5.963-.024-11.2-2.022-13.03-4.434a.94.94,0,0,0-.9-.612Zm-.017,2.433c2.621,2.764,7.65,4.319,13.266,4.455a74.092,74.092,0,0,1,1.24,8.389c.458,4.97.362,10.806-1.286,13.888-1.131,2.115-4.555,4.513-7.7,6.217a54.112,54.112,0,0,1-5.624,2.652,54.1,54.1,0,0,1-5.624-2.652c-3.145-1.7-6.57-4.1-7.7-6.217-1.648-3.083-1.744-8.918-1.286-13.888a74.043,74.043,0,0,1,1.24-8.386c5.714-.136,10.82-1.69,13.476-4.458Z" transform="translate(-33 -30)"/>
    <g id="noun_58760_cc" transform="translate(-21.913 928.746)">
      <g id="Group_208" data-name="Group 208" transform="translate(20.263 24.108)">
        <g id="Group_194" data-name="Group 194" transform="translate(0.101 5.976)">
          <path id="Path_182" data-name="Path 182" class="cls-1" d="M23.252,47.884a.2.2,0,0,1-.108-.031A5.341,5.341,0,0,1,20.613,44.7a.2.2,0,0,1,.394-.1,4.951,4.951,0,0,0,2.353,2.9.2.2,0,0,1-.108.375Z" transform="translate(-20.607 -44.454)"/>
        </g>
        <g id="Group_195" data-name="Group 195" transform="translate(14.24 5.976)">
          <path id="Path_183" data-name="Path 183" class="cls-1" d="M68.947,48.089a.2.2,0,0,1-.1-.38,5.194,5.194,0,0,0,2.691-3.1.2.2,0,0,1,.395.1,5.589,5.589,0,0,1-2.887,3.359A.2.2,0,0,1,68.947,48.089Z" transform="translate(-68.743 -44.453)"/>
        </g>
        <g id="Group_196" data-name="Group 196">
          <path id="Path_184" data-name="Path 184" class="cls-1" d="M37.428,30.783a.193.193,0,0,1-.048-.006.2.2,0,0,1-.15-.245,3.343,3.343,0,0,0,.1-.789c0-2.883-3.736-5.228-8.329-5.228s-8.328,2.345-8.328,5.228a3.343,3.343,0,0,0,.1.789.2.2,0,1,1-.394.1,3.745,3.745,0,0,1-.107-.885c0-3.107,3.919-5.634,8.735-5.634s8.735,2.527,8.735,5.634a3.762,3.762,0,0,1-.107.885A.2.2,0,0,1,37.428,30.783Z" transform="translate(-20.263 -24.108)"/>
        </g>
        <g id="Group_197" data-name="Group 197" transform="translate(0 5.391)">
          <path id="Path_185" data-name="Path 185" class="cls-1" d="M23.086,47.62a.2.2,0,0,1-.105-.03A4.933,4.933,0,0,1,20.263,43.5a3.746,3.746,0,0,1,.107-.885.2.2,0,1,1,.394.1,3.343,3.343,0,0,0-.1.789,4.548,4.548,0,0,0,2.523,3.743.2.2,0,0,1-.106.376Z" transform="translate(-20.263 -42.461)"/>
        </g>
        <g id="Group_198" data-name="Group 198" transform="translate(14.178 5.391)">
          <path id="Path_186" data-name="Path 186" class="cls-1" d="M68.735,47.775a.2.2,0,0,1-.1-.38c1.768-.994,2.782-2.413,2.782-3.894a3.342,3.342,0,0,0-.1-.789.2.2,0,0,1,.395-.1,3.762,3.762,0,0,1,.107.885c0,1.632-1.09,3.18-2.989,4.248A.2.2,0,0,1,68.735,47.775Z" transform="translate(-68.531 -42.461)"/>
        </g>
        <g id="Group_199" data-name="Group 199" transform="translate(0.101 0.797)">
          <path id="Path_187" data-name="Path 187" class="cls-1" d="M37.671,31.822a.2.2,0,0,1-.2-.155c-.615-2.531-4.154-4.439-8.233-4.439s-7.618,1.908-8.233,4.439a.2.2,0,1,1-.394-.1c.669-2.751,4.3-4.749,8.628-4.749s7.959,2,8.628,4.749a.2.2,0,0,1-.15.245A.191.191,0,0,1,37.671,31.822Z" transform="translate(-20.607 -26.822)"/>
        </g>
        <g id="Group_200" data-name="Group 200" transform="translate(2.564 1.846)">
          <path id="Path_188" data-name="Path 188" class="cls-1" d="M35.036,43.757a6.05,6.05,0,0,1-6.043-6.044c0-2.677,1.057-4.725,2.9-5.619a7.764,7.764,0,0,0,.925-.6,4.743,4.743,0,0,1,2.217-1.1,4.84,4.84,0,0,1,2.138,1.022,7.62,7.62,0,0,0,.924.568c1.895.847,2.982,2.936,2.982,5.731A6.05,6.05,0,0,1,35.036,43.757Zm0-12.959a4.677,4.677,0,0,0-1.982,1.026,7.949,7.949,0,0,1-.983.636c-1.7.823-2.672,2.738-2.672,5.253a5.637,5.637,0,1,0,11.275,0c0-2.628-1-4.582-2.741-5.36a7.781,7.781,0,0,1-.985-.6A4.8,4.8,0,0,0,35.036,30.8Z" transform="translate(-28.993 -30.392)"/>
        </g>
        <g id="Group_201" data-name="Group 201" transform="translate(5.168 7.586)">
          <path id="Path_189" data-name="Path 189" class="cls-1" d="M44.788,50.341H38.06a.2.2,0,1,1,0-.406h6.728a.2.2,0,1,1,0,.406Z" transform="translate(-37.857 -49.935)"/>
        </g>
        <g id="Group_202" data-name="Group 202" transform="translate(5.168 10.886)">
          <path id="Path_190" data-name="Path 190" class="cls-1" d="M44.788,61.575H38.06a.2.2,0,0,1,0-.406h6.728a.2.2,0,0,1,0,.406Z" transform="translate(-37.857 -61.169)"/>
        </g>
        <g id="Group_203" data-name="Group 203" transform="translate(5.168 9.257)">
          <path id="Path_191" data-name="Path 191" class="cls-1" d="M39.848,56.027H38.06a.2.2,0,1,1,0-.406h1.788a.2.2,0,0,1,0,.406Z" transform="translate(-37.857 -55.621)"/>
        </g>
        <g id="Group_204" data-name="Group 204" transform="translate(9.848 9.257)">
          <path id="Path_192" data-name="Path 192" class="cls-1" d="M55.782,56.027H53.994a.2.2,0,0,1,0-.406h1.789a.2.2,0,0,1,0,.406Z" transform="translate(-53.791 -55.621)"/>
        </g>
        <g id="Group_205" data-name="Group 205" transform="translate(6.956 7.808)">
          <path id="Path_193" data-name="Path 193" class="cls-1" d="M45.6,53.992a1.652,1.652,0,1,1,1.652-1.652A1.654,1.654,0,0,1,45.6,53.992Zm0-2.9a1.246,1.246,0,1,0,1.246,1.246A1.247,1.247,0,0,0,45.6,51.094Z" transform="translate(-43.944 -50.688)"/>
        </g>
        <g id="Group_206" data-name="Group 206" transform="translate(6.752 3.528)">
          <path id="Path_194" data-name="Path 194" class="cls-1" d="M43.95,39.264a.2.2,0,0,1-.2-.167l-.5-2.741a.2.2,0,0,1,.4-.073l.5,2.741a.2.2,0,0,1-.164.236A.185.185,0,0,1,43.95,39.264Z" transform="translate(-43.251 -36.117)"/>
        </g>
        <g id="Group_207" data-name="Group 207" transform="translate(9.385 3.528)">
          <path id="Path_195" data-name="Path 195" class="cls-1" d="M52.416,39.264a.194.194,0,0,1-.036,0,.2.2,0,0,1-.164-.236l.5-2.741a.2.2,0,0,1,.4.073l-.5,2.741A.2.2,0,0,1,52.416,39.264Z" transform="translate(-52.213 -36.117)"/>
        </g>
      </g>
    </g>
  </g>
</svg>
