<svg xmlns="http://www.w3.org/2000/svg" viewBox="0 0 33.523 40">
  <defs>
    <style>
      .cls-1 {
        fill: #01579B;
      }
    </style>
  </defs>
  <g id="Group_190" data-name="Group 190" transform="translate(9.818 -940.363)">
    <path id="Path_179" data-name="Path 179" class="cls-1" d="M40.066,970.37a.941.941,0,0,0-.771.42c-1.711,2.482-7.136,4.592-13.342,4.628h-.037a.909.909,0,0,0-1.047.732,83.164,83.164,0,0,0-1.408,9.321c-.47,5.1-.567,11.077,1.5,14.935,1.545,2.89,5.2,5.213,8.464,6.981a56.674,56.674,0,0,0,5.9,2.779,1.09,1.09,0,0,0,1.252,0h0a56.02,56.02,0,0,0,5.893-2.772c3.264-1.768,6.914-4.091,8.459-6.981,2.063-3.858,1.966-9.833,1.5-14.935a83.177,83.177,0,0,0-1.408-9.321.939.939,0,0,0-.949-.744q-.039,0-.078,0c-5.963-.024-11.2-2.022-13.03-4.434a.94.94,0,0,0-.9-.612Zm-.017,2.433c2.621,2.764,7.65,4.319,13.266,4.455a74.092,74.092,0,0,1,1.24,8.389c.458,4.97.362,10.806-1.286,13.888-1.131,2.115-4.555,4.513-7.7,6.217a54.112,54.112,0,0,1-5.624,2.652,54.1,54.1,0,0,1-5.624-2.652c-3.145-1.7-6.57-4.1-7.7-6.217-1.648-3.083-1.744-8.918-1.286-13.888a74.043,74.043,0,0,1,1.24-8.386c5.714-.136,10.82-1.69,13.476-4.458Z" transform="translate(-33 -30)"/>
    <g id="noun_502505_cc" transform="translate(0.511 943.26)">
      <g id="Group_191" data-name="Group 191" transform="translate(2.333 7)">
        <path id="Path_181" data-name="Path 181" class="cls-1" d="M10.2,26.02V7.619A.619.619,0,0,0,9.58,7H3.909a.619.619,0,0,0-.619.619v18.4H2.333V26.6h8.823V26.02ZM3.727,8.208V7.541H9.762V26.02H7.327V23.856H6.162V26.02H3.727V8.208Z" transform="translate(-2.333 -7)"/>
        <rect id="Rectangle_308" data-name="Rectangle 308" class="cls-1" width="1.166" height="1.165" transform="translate(5.337 10.613)"/>
        <rect id="Rectangle_309" data-name="Rectangle 309" class="cls-1" width="1.166" height="1.165" transform="translate(5.337 9.115)"/>
        <rect id="Rectangle_310" data-name="Rectangle 310" class="cls-1" width="1.165" height="1.165" transform="translate(3.829 9.115)"/>
        <rect id="Rectangle_311" data-name="Rectangle 311" class="cls-1" width="1.165" height="1.165" transform="translate(2.32 7.616)"/>
        <rect id="Rectangle_312" data-name="Rectangle 312" class="cls-1" width="1.166" height="1.165" transform="translate(5.337 7.616)"/>
        <rect id="Rectangle_313" data-name="Rectangle 313" class="cls-1" width="1.165" height="1.165" transform="translate(3.829 7.616)"/>
        <rect id="Rectangle_314" data-name="Rectangle 314" class="cls-1" width="1.165" height="1.165" transform="translate(2.32 6.118)"/>
        <rect id="Rectangle_315" data-name="Rectangle 315" class="cls-1" width="1.166" height="1.165" transform="translate(5.337 6.118)"/>
        <rect id="Rectangle_316" data-name="Rectangle 316" class="cls-1" width="1.165" height="1.165" transform="translate(3.829 6.118)"/>
        <rect id="Rectangle_317" data-name="Rectangle 317" class="cls-1" width="1.165" height="1.165" transform="translate(2.32 4.62)"/>
        <rect id="Rectangle_318" data-name="Rectangle 318" class="cls-1" width="1.166" height="1.165" transform="translate(5.337 4.62)"/>
        <rect id="Rectangle_319" data-name="Rectangle 319" class="cls-1" width="1.165" height="1.165" transform="translate(3.829 4.62)"/>
        <rect id="Rectangle_320" data-name="Rectangle 320" class="cls-1" width="1.165" height="1.165" transform="translate(2.32 3.121)"/>
        <rect id="Rectangle_321" data-name="Rectangle 321" class="cls-1" width="1.166" height="1.165" transform="translate(5.337 3.121)"/>
        <rect id="Rectangle_322" data-name="Rectangle 322" class="cls-1" width="1.165" height="1.165" transform="translate(3.829 3.121)"/>
        <rect id="Rectangle_323" data-name="Rectangle 323" class="cls-1" width="1.165" height="1.165" transform="translate(2.32 1.623)"/>
        <rect id="Rectangle_324" data-name="Rectangle 324" class="cls-1" width="1.166" height="1.165" transform="translate(5.337 1.623)"/>
        <rect id="Rectangle_325" data-name="Rectangle 325" class="cls-1" width="1.165" height="1.165" transform="translate(3.829 1.623)"/>
      </g>
    </g>
  </g>
</svg>
