<svg xmlns="http://www.w3.org/2000/svg" viewBox="0 0 33.523 40">
  <defs>
    <style>
      .cls-1 {
        fill: #01579B;
      }
    </style>
  </defs>
  <g id="Group_188" data-name="Group 188" transform="translate(9.818 -940.363)">
    <path id="Path_179" data-name="Path 179" class="cls-1" d="M40.066,970.37a.941.941,0,0,0-.771.42c-1.711,2.482-7.136,4.592-13.342,4.628h-.037a.909.909,0,0,0-1.047.732,83.164,83.164,0,0,0-1.408,9.321c-.47,5.1-.567,11.077,1.5,14.935,1.545,2.89,5.2,5.213,8.464,6.981a56.674,56.674,0,0,0,5.9,2.779,1.09,1.09,0,0,0,1.252,0h0a56.02,56.02,0,0,0,5.893-2.772c3.264-1.768,6.914-4.091,8.459-6.981,2.063-3.858,1.966-9.833,1.5-14.935a83.177,83.177,0,0,0-1.408-9.321.939.939,0,0,0-.949-.744q-.039,0-.078,0c-5.963-.024-11.2-2.022-13.03-4.434a.94.94,0,0,0-.9-.612Zm-.017,2.433c2.621,2.764,7.65,4.319,13.266,4.455a74.092,74.092,0,0,1,1.24,8.389c.458,4.97.362,10.806-1.286,13.888-1.131,2.115-4.555,4.513-7.7,6.217a54.112,54.112,0,0,1-5.624,2.652,54.1,54.1,0,0,1-5.624-2.652c-3.145-1.7-6.57-4.1-7.7-6.217-1.648-3.083-1.744-8.918-1.286-13.888a74.043,74.043,0,0,1,1.24-8.386c5.714-.136,10.82-1.69,13.476-4.458Z" transform="translate(-33 -30)"/>
    <path id="Path_180" data-name="Path 180" class="cls-1" d="M25.16,35.025a.333.333,0,0,0-.045-.014l-3.311-.8a1.216,1.216,0,0,1-.9-.972,8.093,8.093,0,0,0-8.89-6.824,8.178,8.178,0,0,0-7.3,7.467,8.325,8.325,0,0,0,.074,1.992l-.234.343a.71.71,0,0,0,.585,1.11h.047c1.173-.075,3.253-.219,4-.344a3.374,3.374,0,0,0,1.294-.618,3.866,3.866,0,0,1,2.178-.82,4.51,4.51,0,0,1,1.778.288,9.814,9.814,0,0,0,2.093.467,35.872,35.872,0,0,0,6.925.051c.366-.027.655-.048.812-.048a5.394,5.394,0,0,0,.757-.06.635.635,0,0,0,.139-1.22Zm-.9.584c-.182,0-.468.021-.863.05a35.246,35.246,0,0,1-6.794-.048,9.087,9.087,0,0,1-1.96-.438,5.146,5.146,0,0,0-2.014-.321,4.561,4.561,0,0,0-2.54.935,2.843,2.843,0,0,1-1.024.511c-.745.124-3,.276-3.931.335l-.012-.022.313-.459a.348.348,0,0,0,.055-.257A7.626,7.626,0,0,1,5.4,33.942a7.482,7.482,0,0,1,6.681-6.832,7.9,7.9,0,0,1,.813-.042,7.418,7.418,0,0,1,7.321,6.3,1.912,1.912,0,0,0,1.423,1.524l2.932.706C24.463,35.6,24.359,35.609,24.263,35.609ZM5.934,33.785a6.714,6.714,0,0,1,9.9-5.325.348.348,0,0,1-.333.611,6.018,6.018,0,0,0-8.869,4.772.348.348,0,0,1-.346.319H6.252A.348.348,0,0,1,5.934,33.785Zm12.288.824a.348.348,0,0,1-.3.393,8.084,8.084,0,0,1-3.7-.441c-.177-.056-.33-.1-.439-.13a4.287,4.287,0,0,0-3.394.612,18.107,18.107,0,0,1-4.074.968l-.039,0a.348.348,0,0,1-.038-.694A18.436,18.436,0,0,0,10,34.47a4.984,4.984,0,0,1,3.946-.717c.135.031.3.084.492.144a7.462,7.462,0,0,0,3.392.415A.35.35,0,0,1,18.222,34.609Zm-8.149-3.625a.9.9,0,1,0,.9-.9A.9.9,0,0,0,10.073,30.985Zm1.1,0a.2.2,0,1,1-.2-.2A.2.2,0,0,1,11.176,30.985Zm1.361,0a.9.9,0,1,0,.9-.9A.9.9,0,0,0,12.537,30.985Zm1.1,0a.2.2,0,1,1-.2-.2A.2.2,0,0,1,13.639,30.985Zm1.361,0a.9.9,0,1,0,.9-.9A.9.9,0,0,0,15,30.985Zm1.1,0a.2.2,0,1,1-.2-.2A.2.2,0,0,1,16.1,30.985Z" transform="translate(-6.265 928.809)"/>
  </g>
</svg>
