<?xml version="1.0" encoding="UTF-8" standalone="no"?>
<svg
   xmlns:dc="http://purl.org/dc/elements/1.1/"
   xmlns:cc="http://creativecommons.org/ns#"
   xmlns:rdf="http://www.w3.org/1999/02/22-rdf-syntax-ns#"
   xmlns:svg="http://www.w3.org/2000/svg"
   xmlns="http://www.w3.org/2000/svg"
   xmlns:sodipodi="http://sodipodi.sourceforge.net/DTD/sodipodi-0.dtd"
   xmlns:inkscape="http://www.inkscape.org/namespaces/inkscape"
   viewBox="0 0 33.523 40"
   version="1.1"
   id="svg29"
   sodipodi:docname="vigilanza.svg"
   inkscape:version="0.92.3 (2405546, 2018-03-11)">
  <metadata
     id="metadata33">
    <rdf:RDF>
      <cc:Work
         rdf:about="">
        <dc:format>image/svg+xml</dc:format>
        <dc:type
           rdf:resource="http://purl.org/dc/dcmitype/StillImage" />
      </cc:Work>
    </rdf:RDF>
  </metadata>
  <sodipodi:namedview
     pagecolor="#ffffff"
     bordercolor="#666666"
     borderopacity="1"
     objecttolerance="10"
     gridtolerance="10"
     guidetolerance="10"
     inkscape:pageopacity="0"
     inkscape:pageshadow="2"
     inkscape:window-width="1920"
     inkscape:window-height="1017"
     id="namedview31"
     showgrid="false"
     inkscape:zoom="5.9"
     inkscape:cx="16.761499"
     inkscape:cy="20"
     inkscape:window-x="-8"
     inkscape:window-y="-8"
     inkscape:window-maximized="1"
     inkscape:current-layer="Group_190" />
  <defs
     id="defs4">
    <style
       id="style2">
      .cls-1 {
        fill: #01579B;
      }
    </style>
  </defs>
  <g
     id="Group_190"
     data-name="Group 190"
     transform="translate(9.818 -940.363)">
    <path
       id="Path_179"
       data-name="Path 179"
       class="cls-1"
       d="M40.066,970.37a.941.941,0,0,0-.771.42c-1.711,2.482-7.136,4.592-13.342,4.628h-.037a.909.909,0,0,0-1.047.732,83.164,83.164,0,0,0-1.408,9.321c-.47,5.1-.567,11.077,1.5,14.935,1.545,2.89,5.2,5.213,8.464,6.981a56.674,56.674,0,0,0,5.9,2.779,1.09,1.09,0,0,0,1.252,0h0a56.02,56.02,0,0,0,5.893-2.772c3.264-1.768,6.914-4.091,8.459-6.981,2.063-3.858,1.966-9.833,1.5-14.935a83.177,83.177,0,0,0-1.408-9.321.939.939,0,0,0-.949-.744q-.039,0-.078,0c-5.963-.024-11.2-2.022-13.03-4.434a.94.94,0,0,0-.9-.612Zm-.017,2.433c2.621,2.764,7.65,4.319,13.266,4.455a74.092,74.092,0,0,1,1.24,8.389c.458,4.97.362,10.806-1.286,13.888-1.131,2.115-4.555,4.513-7.7,6.217a54.112,54.112,0,0,1-5.624,2.652,54.1,54.1,0,0,1-5.624-2.652c-3.145-1.7-6.57-4.1-7.7-6.217-1.648-3.083-1.744-8.918-1.286-13.888a74.043,74.043,0,0,1,1.24-8.386c5.714-.136,10.82-1.69,13.476-4.458Z"
       transform="translate(-33 -30)" />
  </g>
</svg>
