<?xml version="1.0" encoding="utf-8"?>
<!-- Generator: Adobe Illustrator 15.0.2, SVG Export Plug-In . SVG Version: 6.00 Build 0)  -->
<!DOCTYPE svg PUBLIC "-//W3C//DTD SVG 1.1//EN" "http://www.w3.org/Graphics/SVG/1.1/DTD/svg11.dtd">
<svg version="1.1" id="Layer_1" xmlns="http://www.w3.org/2000/svg" xmlns:xlink="http://www.w3.org/1999/xlink" x="0px" y="0px"
	 width="1190.55px" height="841.89px" viewBox="0 0 1190.55 841.89" enable-background="new 0 0 1190.55 841.89"
	 xml:space="preserve">
<path fill="#CCCF19" d="M864.757,445.883c-5.153,10.941-19.26,19.893-31.354,19.893H389.551c-12.094,0-17.084-8.594-11.086-19.092
	l52.036-91.094c5.999-10.501,20.758-20.015,32.799-21.144l452.946-42.435c12.039-1.129,17.675,6.901,12.525,17.843L864.757,445.883z
	"/>
<path fill="#FFFFFF" d="M502.025,367.038c0-6.521,5.337-11.853,11.854-11.853h55.665c6.519,0,17.148,0.661,23.613,1.467
	c0,0,15.108,1.889,10.961,22.141c-0.494,2.417-2.182,10.548-2.715,12.658c-3.678,14.783-9.112,22.222-31.152,22.222h-44.786
	c-6.52,0-11.962,5.332-12.096,11.853l-0.22,10.848c-0.137,6.516-2.69,11.848-5.684,11.848s-5.441-5.332-5.441-11.848V367.038z
	 M591.874,377.597c1.856-10.307-3.838-12.825-14.951-12.825h-50.233c-6.52,0-11.984,5.332-12.147,11.849l-0.392,15.612
	c-0.163,6.516,5.039,11.849,11.555,11.849h34.59c6.516,0,15.354-0.756,19.633-1.678c4.282-0.923,10.349-15.916,11.505-22.331
	L591.874,377.597z"/>
<path fill="#FFFFFF" d="M628.998,338.521c1.494-6.348,5.438-11.541,8.758-11.541s4.702,5.166,3.073,11.479l-3.412,13.241
	c-1.627,6.314-2.901,11.479-2.826,11.479c0.07,0,4.484-3.083,9.802-6.851c0,0,6.576-4.659,20.918-4.659h4.632
	c6.523,0,16.814,1.961,22.879,4.355c0,0,13.55,5.352,9.179,16.379l-12.02,30.33c-2.402,6.064-6.656,11.022-9.451,11.022
	s-3.211-4.993-0.926-11.101l6.228-16.636c2.284-6.107,5.138-16.345,6.345-22.752c0,0,0.6-3.207-21.424-3.207
	c-1.6,0-8.193,0.716-14.655,1.584c0,0-22.01,2.97-25.715,17.349l-6.004,23.284c-1.626,6.313-5.245,11.479-8.038,11.479
	c-2.795,0-3.859-5.196-2.361-11.54L628.998,338.521z"/>
<path fill="#FFFFFF" d="M735.669,332.617c1.37-3.099,5.2-5.637,8.517-5.637c3.324,0,4.866,2.538,3.434,5.637
	s-5.271,5.636-8.521,5.636S734.303,335.715,735.669,332.617 M722.389,363.612c2.452-6.041,7.049-10.98,10.213-10.98
	c3.165,0,3.516,4.842,0.779,10.755L715.055,403c-2.736,5.916-6.796,10.758-9.015,10.758s-2.027-4.943,0.429-10.98L722.389,363.612z"
	/>
<polygon points="535.38,432.59 527.754,432.59 527.754,430.775 545.033,430.775 545.033,432.59 537.411,432.59 537.411,447.146 
	535.38,447.146 "/>
<polygon points="552.59,430.775 567.393,430.775 567.393,432.59 554.632,432.59 554.632,437.813 566.887,437.813 566.887,439.611 
	554.632,439.611 554.632,445.338 567.473,445.338 567.473,447.146 552.59,447.146 "/>
<path d="M575.384,436.723c0-4.133,1.292-6.123,5.373-6.123h7.805c3.708,0,4.731,1.873,4.731,4.068v1.396H591.5v-0.738
	c0-2.783-1.588-2.92-3.456-2.92h-7.078c-1.958,0-3.54,0.631-3.54,3.48v6.15c0,2.848,1.582,3.479,3.54,3.479h7.143
	c2.746,0,3.538-0.631,3.538-2.846v-1.016h1.913v1.102c0,2.963-0.872,4.57-5.102,4.57h-7.701c-4.081,0-5.373-1.988-5.373-6.127
	V436.723z"/>
<polygon points="602.055,430.775 604.098,430.775 604.098,437.813 617.71,437.813 617.71,430.775 619.751,430.775 619.751,447.146 
	617.71,447.146 617.71,439.611 604.098,439.611 604.098,447.146 602.055,447.146 "/>
<polygon points="628.826,430.775 631.868,430.775 645.671,445.158 645.671,430.775 647.707,430.775 647.707,447.146 
	644.671,447.146 630.868,432.764 630.868,447.146 628.826,447.146 "/>
<path d="M656.393,436.723c0-4.133,1.288-6.123,5.367-6.123h8.681c4.083,0,5.375,1.99,5.375,6.123v4.477
	c0,4.139-1.292,6.127-5.375,6.127h-8.681c-4.079,0-5.367-1.988-5.367-6.127V436.723z M673.772,435.887c0-2.85-1.581-3.48-3.534-3.48
	h-8.268c-1.958,0-3.534,0.631-3.534,3.48v6.15c0,2.848,1.576,3.479,3.534,3.479h8.268c1.953,0,3.534-0.631,3.534-3.479V435.887z"/>
<polygon points="684.62,430.775 686.664,430.775 686.664,445.338 698.356,445.338 698.356,447.146 684.62,447.146 "/>
<path d="M705.359,436.723c0-4.133,1.288-6.123,5.367-6.123h8.681c4.079,0,5.375,1.99,5.375,6.123v4.477
	c0,4.139-1.296,6.127-5.375,6.127h-8.681c-4.079,0-5.367-1.988-5.367-6.127V436.723z M722.738,435.887c0-2.85-1.584-3.48-3.538-3.48
	h-8.264c-1.962,0-3.542,0.631-3.542,3.48v6.15c0,2.848,1.58,3.479,3.542,3.479h8.264c1.954,0,3.538-0.631,3.538-3.479V435.887z"/>
<path d="M752.076,441.293c0,4.449-1.336,6.033-5.104,6.033h-8.407c-4.083,0-5.372-1.988-5.372-6.127v-4.477
	c0-4.133,1.289-6.123,5.372-6.123h7.699c2.709,0,5.601,0.721,5.601,4.5v0.584h-1.911c0-3.051-0.86-3.277-5.896-3.277h-5.29
	c-1.954,0-3.534,0.631-3.534,3.48v6.15c0,2.848,1.58,3.479,3.534,3.479h7.976c2.044,0,3.289-0.77,3.289-3.027v-1.65h-7.723v-1.807
	h9.767V441.293z"/>
<polygon points="767.898,440.23 759.257,430.775 762.005,430.775 768.918,438.373 775.827,430.775 778.571,430.775 769.938,440.23 
	769.938,447.146 767.898,447.146 "/>
<path fill="#FFFFFF" d="M475.744,445.477c-0.36,5.699-5.319,10.066-11.018,9.709l-86.552-5.449
	c-5.7-0.359-10.069-5.318-9.713-11.016l5.451-86.552c0.36-5.698,5.317-10.074,11.018-9.716l86.551,5.449
	c5.701,0.358,10.068,5.317,9.71,11.02L475.744,445.477z"/>
<path d="M383.36,439.385l-0.023-0.004l-0.029-0.279l-0.02-0.063l0.004-0.055l-0.004-0.039c-0.072-0.717-0.14-1.674-0.14-2.818
	c0-3.869,0.755-9.895,4.505-16.122c2.032-3.581,5.208-6.972,9.124-9.649c3.196-2.18,6.892-3.885,10.864-4.808
	c-0.362-0.147-0.72-0.311-1.08-0.463c-0.207-0.094-0.418-0.179-0.625-0.272c-0.685-0.319-1.364-0.658-2.034-1.023
	c-0.233-0.133-0.461-0.272-0.693-0.409c-0.43-0.245-0.856-0.502-1.275-0.767c-0.303-0.198-0.599-0.4-0.893-0.6
	c-0.164-0.116-0.331-0.214-0.494-0.331c-0.244-0.179-0.487-0.361-0.73-0.549c-0.183-0.14-0.366-0.276-0.541-0.42
	c-0.471-0.37-0.93-0.759-1.376-1.16c-0.164-0.144-0.323-0.284-0.483-0.428c-0.461-0.437-0.913-0.888-1.351-1.351
	c-0.152-0.156-0.296-0.315-0.442-0.476c-0.432-0.479-0.844-0.969-1.244-1.475c-0.121-0.148-0.231-0.304-0.346-0.456
	c-0.372-0.49-0.726-0.992-1.064-1.506c-0.041-0.063-0.088-0.125-0.128-0.187c-0.465-0.666-0.888-1.351-1.287-2.04
	c-0.061-0.105-0.113-0.206-0.167-0.308c-0.338-0.604-0.654-1.214-0.946-1.825c-0.043-0.094-0.087-0.187-0.13-0.284
	c-0.312-0.674-0.594-1.351-0.849-2.036c-0.006-0.008-0.01-0.02-0.014-0.027c-2.148-5.757-2.423-11.778-1.499-16.842
	c0-0.012,0.004-0.023,0.004-0.035c0.064-0.339,0.132-0.67,0.205-0.997c0.039-0.183,0.083-0.365,0.123-0.545
	c0.064-0.261,0.128-0.514,0.196-0.767c0.07-0.261,0.142-0.51,0.218-0.763c0.06-0.19,0.117-0.382,0.179-0.568
	c0.125-0.378,0.257-0.743,0.396-1.105c0.02-0.059,0.041-0.116,0.064-0.175c0.016-0.051,0.039-0.094,0.057-0.148
	c0.226-0.61,0.461-1.202,0.708-1.763c0.121-0.276,0.247-0.529,0.372-0.798c0.146-0.312,0.29-0.623,0.442-0.919
	c0.155-0.3,0.311-0.588,0.467-0.872c0.123-0.222,0.247-0.436,0.37-0.649c0.171-0.296,0.346-0.588,0.521-0.868
	c0.101-0.16,0.204-0.312,0.304-0.468c0.19-0.284,0.379-0.572,0.566-0.837c0.068-0.097,0.134-0.183,0.203-0.276
	c0.399-0.549,0.786-1.051,1.156-1.494c0.064-0.078,0.128-0.16,0.19-0.237c0.109-0.129,0.208-0.237,0.315-0.362
	c0.117-0.132,0.239-0.276,0.346-0.397c0.049-0.05,0.084-0.093,0.132-0.14c0.084-0.094,0.16-0.171,0.24-0.261
	c0.179-0.19,0.35-0.366,0.498-0.525h-7.238c-4.891,0-8.889,4.001-8.889,8.89v74.237c0,3.152,1.674,5.912,4.165,7.496
	c-0.514-2.023-0.71-3.658-0.813-4.709C383.412,439.883,383.383,439.588,383.36,439.385 M427.622,407.542
	c-0.14-0.233-0.271-0.471-0.395-0.7c-0.206,0.058-0.477,0.132-0.772,0.206C426.85,407.203,427.239,407.367,427.622,407.542
	 M428.98,402.224c0.349-0.136,0.683-0.272,1-0.412c0.128-0.051,0.247-0.113,0.372-0.167c0.191-0.086,0.384-0.172,0.563-0.257
	c0.134-0.063,0.259-0.125,0.386-0.191c0.151-0.074,0.307-0.151,0.451-0.226c0.16-0.086,0.315-0.167,0.465-0.249
	c0.083-0.043,0.167-0.09,0.251-0.137c0.197-0.104,0.383-0.214,0.559-0.314c0.068-0.039,0.136-0.078,0.2-0.117
	c0.167-0.098,0.317-0.187,0.465-0.28c0.061-0.035,0.128-0.074,0.183-0.113c0.14-0.089,0.272-0.171,0.395-0.249
	c0.049-0.031,0.103-0.062,0.148-0.097c0.156-0.098,0.294-0.195,0.418-0.272c3.26-2.172,6.047-5.029,8.195-8.326
	c0.027-0.043,0.055-0.086,0.084-0.125c0.404-0.638,0.796-1.292,1.155-1.961c0.023-0.043,0.047-0.098,0.07-0.141
	c0.308-0.572,0.586-1.16,0.854-1.751c0.08-0.172,0.156-0.343,0.229-0.519c0.265-0.614,0.508-1.237,0.727-1.868
	c0.02-0.047,0.041-0.093,0.056-0.144v-0.012l0.004-0.004c0.023-0.059,0.039-0.125,0.061-0.188c0.222-0.626,0.427-1.269,0.598-1.93
	c0.061-0.242,0.1-0.495,0.155-0.74c0.115-0.518,0.232-1.039,0.313-1.576c0.037-0.233,0.057-0.475,0.09-0.716
	c0.07-0.564,0.134-1.133,0.171-1.709c0.016-0.226,0.02-0.464,0.027-0.693c0.129-3.18-0.251-6.5-1.16-9.665
	c-0.008-0.038-0.019-0.073-0.026-0.104c-0.236-0.81-0.503-1.611-0.802-2.394c-2.408,0.895-4.617,2.09-6.458,3.499
	c-0.566,0.4-1.107,0.825-1.639,1.257c-0.055,0.051-0.119,0.098-0.179,0.148c-0.494,0.416-0.971,0.849-1.438,1.3
	c-0.072,0.066-0.144,0.136-0.212,0.202c-0.461,0.456-0.903,0.927-1.331,1.413c-0.047,0.051-0.099,0.105-0.146,0.164
	c-2.376,2.74-4.225,5.967-5.521,9.641c-0.259,0.736-0.486,1.483-0.681,2.234c-0.004,0.016-0.008,0.027-0.012,0.043
	c-0.194,0.747-0.354,1.503-0.486,2.258c-0.004,0.02-0.012,0.039-0.012,0.063c-0.132,0.751-0.231,1.51-0.3,2.265
	c-0.004,0.047-0.008,0.098-0.016,0.145c-0.338,3.877,0.096,7.835,1.3,11.607c0.008,0.027,0.016,0.046,0.023,0.073l0.004,0.012v0.012
	C428.667,401.341,428.813,401.781,428.98,402.224 M395.632,357.357c-0.125,0.163-0.247,0.327-0.372,0.502
	c-0.119,0.167-0.247,0.351-0.37,0.533c-0.128,0.187-0.259,0.382-0.391,0.584c-0.123,0.194-0.251,0.401-0.378,0.611
	c-0.132,0.214-0.265,0.424-0.395,0.646c-0.14,0.245-0.278,0.515-0.422,0.771c-0.117,0.21-0.228,0.416-0.342,0.634
	c-0.251,0.49-0.502,1.005-0.75,1.55l-0.01,0.02c-0.19,0.393-0.37,0.806-0.545,1.233c-0.08,0.198-0.156,0.409-0.231,0.615
	c-0.088,0.233-0.175,0.459-0.259,0.7c-0.096,0.288-0.183,0.592-0.274,0.896c-0.049,0.171-0.105,0.335-0.152,0.506
	c-0.087,0.327-0.167,0.662-0.247,1.001c-0.041,0.163-0.084,0.322-0.121,0.49c-0.066,0.327-0.127,0.665-0.191,1.004
	c-0.031,0.187-0.068,0.37-0.099,0.564c-0.053,0.312-0.092,0.631-0.132,0.95c-0.027,0.233-0.063,0.455-0.088,0.688
	c-0.027,0.288-0.046,0.584-0.072,0.88c-0.02,0.269-0.043,0.541-0.055,0.813s-0.016,0.557-0.02,0.837
	c-0.01,0.292-0.021,0.584-0.018,0.88c0,0.308,0.018,0.61,0.029,0.922c0.008,0.292,0.016,0.588,0.035,0.888
	c0.016,0.276,0.049,0.553,0.072,0.829c0.031,0.335,0.06,0.666,0.099,1c0.033,0.242,0.076,0.487,0.113,0.729
	c0.055,0.369,0.107,0.739,0.179,1.105c0.039,0.214,0.091,0.424,0.134,0.638c0.087,0.397,0.167,0.799,0.272,1.191
	c0.046,0.187,0.107,0.37,0.159,0.557c0.119,0.42,0.234,0.841,0.374,1.261c0.056,0.172,0.125,0.339,0.187,0.511
	c0.148,0.428,0.3,0.855,0.475,1.28c0.072,0.183,0.164,0.358,0.243,0.537c0.175,0.409,0.351,0.817,0.555,1.223
	c0.142,0.287,0.31,0.575,0.469,0.859c0.156,0.284,0.296,0.572,0.463,0.853l0.004,0.004l0.008,0.012
	c0.191,0.351,0.403,0.686,0.609,1.023c0.136,0.219,0.259,0.452,0.399,0.666c0.235,0.358,0.486,0.697,0.738,1.039
	c0.132,0.184,0.255,0.374,0.395,0.549c0.286,0.382,0.593,0.736,0.901,1.094c0.111,0.133,0.218,0.272,0.335,0.401
	c0.323,0.362,0.658,0.704,0.996,1.043c0.115,0.117,0.226,0.241,0.347,0.354c0.323,0.315,0.658,0.611,0.997,0.906
	c0.148,0.137,0.293,0.276,0.445,0.405c0.3,0.249,0.602,0.486,0.909,0.724c0.212,0.164,0.422,0.335,0.638,0.495
	c0.239,0.175,0.487,0.342,0.73,0.51c0.298,0.206,0.597,0.42,0.905,0.61c0.154,0.102,0.317,0.195,0.477,0.292
	c0.407,0.249,0.817,0.499,1.232,0.729c0.048,0.027,0.095,0.047,0.144,0.073c3.822,2.079,7.915,3.263,11.589,3.52
	c0.216,0.016,0.428,0.016,0.643,0.023c0.327,0.012,0.662,0.03,0.984,0.03c0.446,0.012,0.897,0,1.343-0.011
	c0.303-0.004,0.605-0.012,0.905-0.027c0.37-0.02,0.742-0.055,1.111-0.086c0.22-0.023,0.44-0.039,0.654-0.063
	c0.479-0.059,0.958-0.128,1.437-0.21c0.107-0.02,0.214-0.035,0.321-0.055c0.604-0.104,1.197-0.233,1.791-0.382
	c-0.183-0.455-0.331-0.863-0.459-1.253c-0.183-0.514-0.351-1.027-0.506-1.533c-0.058-0.199-0.111-0.397-0.167-0.6
	c-0.084-0.296-0.171-0.596-0.244-0.896c-0.062-0.253-0.119-0.51-0.179-0.763c-0.051-0.229-0.103-0.455-0.15-0.686
	c-0.057-0.288-0.109-0.572-0.156-0.86c-0.033-0.179-0.064-0.361-0.097-0.537c-0.047-0.314-0.088-0.622-0.127-0.93
	c-0.015-0.137-0.037-0.28-0.052-0.417c-0.035-0.33-0.066-0.657-0.095-0.98c-0.008-0.105-0.016-0.206-0.023-0.312
	c-0.023-0.347-0.045-0.688-0.061-1.027c0-0.066-0.004-0.129-0.004-0.191c-0.012-0.365-0.02-0.731-0.02-1.09v-0.004v-0.011
	c0-0.491,0.012-0.974,0.031-1.44c0-0.031,0.004-0.059,0.004-0.09c0.021-0.439,0.049-0.868,0.088-1.284l0.008-0.117
	c0.037-0.4,0.08-0.79,0.132-1.175c0.004-0.035,0.008-0.074,0.012-0.109c0.049-0.374,0.104-0.731,0.16-1.074
	c0.008-0.039,0.012-0.074,0.02-0.109c0.057-0.335,0.117-0.653,0.181-0.965c0.008-0.035,0.012-0.078,0.02-0.109
	c0.054-0.257,0.107-0.498,0.163-0.739c0.152-0.643,0.302-1.203,0.438-1.654c0.004-0.023,0.012-0.059,0.02-0.082
	c0.045-0.151,0.095-0.331,0.156-0.525c0.041-0.132,0.087-0.276,0.132-0.412c0.02-0.066,0.039-0.121,0.059-0.188
	c0.064-0.19,0.14-0.396,0.216-0.607c0.012-0.026,0.02-0.058,0.031-0.089c0.087-0.237,0.185-0.49,0.288-0.748
	c0.008-0.015,0.012-0.03,0.02-0.054c0.107-0.265,0.228-0.549,0.354-0.841c0.008-0.016,0.018-0.035,0.025-0.055
	c0.126-0.288,0.263-0.588,0.411-0.888c0.012-0.035,0.027-0.066,0.042-0.097c0.141-0.292,0.292-0.588,0.452-0.892
	c0.027-0.059,0.055-0.113,0.084-0.168c0.15-0.284,0.309-0.572,0.477-0.863c0.049-0.086,0.095-0.164,0.144-0.254
	c0.049-0.081,0.091-0.163,0.14-0.253c0.119-0.198,0.255-0.404,0.377-0.606c0.057-0.09,0.109-0.18,0.167-0.269
	c0.193-0.3,0.391-0.6,0.604-0.903c0.054-0.09,0.111-0.172,0.175-0.261c0.207-0.296,0.426-0.592,0.648-0.892
	c0.076-0.105,0.148-0.202,0.228-0.308c0.212-0.276,0.434-0.545,0.662-0.821c0.107-0.132,0.208-0.261,0.319-0.389
	c0.206-0.246,0.426-0.487,0.646-0.729c0.144-0.163,0.282-0.323,0.434-0.482c0.191-0.202,0.399-0.405,0.598-0.604
	c0.19-0.194,0.379-0.396,0.582-0.588c0.155-0.147,0.323-0.296,0.486-0.439c0.673-0.623,1.388-1.242,2.16-1.833
	c0.563-0.464,1.164-0.903,1.791-1.324c0.055-0.042,0.115-0.081,0.171-0.12c0.598-0.405,1.228-0.778,1.868-1.137
	c0.092-0.055,0.183-0.109,0.28-0.159c0.648-0.351,1.317-0.682,2.005-0.993c0.084-0.039,0.167-0.074,0.251-0.112
	c0.704-0.312,1.427-0.6,2.168-0.864c0.031-0.012,0.064-0.027,0.096-0.039c-1.268-2.409-2.914-4.651-4.926-6.605l-0.539-0.525
	h-40.471l-0.514,0.518c-0.24,0.241-0.555,0.572-0.917,0.98c-0.052,0.055-0.101,0.113-0.152,0.172
	c-0.125,0.144-0.263,0.312-0.399,0.475c-0.103,0.129-0.212,0.257-0.319,0.394C395.876,357.03,395.755,357.193,395.632,357.357
	 M467.42,365.001l-0.023-0.012c-3.522-1.611-7.362-2.335-11.147-2.335c-2.575,0-5.118,0.338-7.53,0.949
	c1.472,3.733,1.814,6.45,1.826,6.531c0.023,0.145,0.041,0.288,0.063,0.429c0.076,0.436,0.145,0.876,0.199,1.315
	c0.025,0.194,0.048,0.386,0.071,0.58c0.049,0.451,0.092,0.903,0.125,1.351c0.012,0.163,0.023,0.327,0.031,0.494
	c0.035,0.588,0.057,1.168,0.061,1.748c0,0.023,0,0.047,0,0.066c0,0.026,0.004,0.058,0.004,0.089c0,0.133-0.016,0.265-0.016,0.401
	c-0.01,0.596-0.029,1.183-0.068,1.771c-0.016,0.249-0.045,0.495-0.064,0.744c-0.049,0.502-0.103,0.996-0.171,1.486
	c-0.031,0.241-0.068,0.479-0.107,0.713c-0.087,0.525-0.192,1.035-0.304,1.545c-0.045,0.183-0.079,0.37-0.122,0.553
	c-0.17,0.685-0.356,1.358-0.574,2.013c0,0.004-0.01,0.004-0.01,0.016v0.004c-0.088,0.284-0.187,0.553-0.282,0.829
	c-0.088,0.261-0.172,0.525-0.263,0.778c-0.096,0.265-0.204,0.51-0.304,0.767c-0.107,0.265-0.21,0.541-0.323,0.798
	c-0.088,0.206-0.179,0.397-0.271,0.596c-0.136,0.304-0.271,0.607-0.414,0.896c-0.072,0.147-0.148,0.288-0.225,0.436
	c-0.167,0.331-0.338,0.658-0.514,0.977c-0.055,0.098-0.11,0.195-0.171,0.296c-0.198,0.351-0.403,0.697-0.609,1.032
	c-0.037,0.058-0.072,0.116-0.112,0.175c-0.227,0.366-0.458,0.72-0.693,1.063c-0.02,0.031-0.039,0.055-0.061,0.086
	c-0.255,0.365-0.51,0.72-0.765,1.063c-0.004,0.004-0.008,0.012-0.012,0.016c-0.806,1.07-1.623,2.02-2.419,2.853
	c-0.008,0.008-0.016,0.016-0.023,0.023c-0.243,0.253-0.486,0.499-0.726,0.732c-0.041,0.043-0.08,0.081-0.121,0.12
	c-0.198,0.188-0.39,0.374-0.582,0.549c-0.095,0.09-0.183,0.168-0.274,0.253c-0.13,0.113-0.259,0.23-0.381,0.343
	c-0.182,0.156-0.353,0.3-0.52,0.437c-0.031,0.026-0.064,0.058-0.096,0.081c-0.471,0.39-0.897,0.721-1.248,0.985
	c-0.298,0.222-0.669,0.494-1.096,0.778c-0.037,0.027-0.064,0.047-0.099,0.07c-0.084,0.058-0.179,0.12-0.267,0.175
	c-1.433,0.942-3.498,2.105-6.16,3.095c0.483,0.849,1.867,2.86,2.715,3.942c0.22,0.272,0.446,0.537,0.674,0.798
	c0.151,0.168,0.3,0.335,0.447,0.499c1.374,1.506,2.921,2.911,4.623,4.146c3.807,2.782,8.351,4.732,13.246,5.234h0.02l0.012,0.008
	c1.255,0.18,2.503,0.269,3.738,0.269c5.759,0,11.22-1.896,15.612-4.659l0.392-0.241V367.52l-0.398-0.253
	C470.37,366.399,468.948,365.628,467.42,365.001 M463.225,354.344h-20.488c0.208,0.229,0.419,0.463,0.623,0.708
	c1.51,1.693,2.781,3.542,3.834,5.484c0.027,0.004,0.055,0.016,0.076,0.027c2.598-0.642,5.324-1.004,8.074-1.004
	c3.451,0,6.938,0.557,10.247,1.79c2.356,0.782,4.532,1.857,6.521,3.13v-1.246C472.112,358.345,468.111,354.344,463.225,354.344
	 M448.381,422.57c-2.081-0.428-4.074-1.083-5.968-1.919c3.009,5.126,4.134,10.712,4.282,13.806c0.012,0.234,0.012,0.479,0.02,0.721
	c0.031,0.596,0.048,1.156,0.048,1.658c0,0.709-0.024,1.328-0.06,1.818c-0.064,1.537-0.396,4.344-1.487,7.707h18.009
	c4.887,0,8.888-4.002,8.888-8.891v-19.057c-4.799,2.989-10.806,4.936-17.047,4.936C452.849,423.35,450.604,423.1,448.381,422.57
	 M438.56,421.434v-0.004l-0.004-0.004l-0.004-0.004c-0.121-0.211-0.259-0.421-0.391-0.627c-0.164-0.261-0.319-0.529-0.499-0.794
	c-0.156-0.229-0.331-0.452-0.498-0.682c-0.175-0.241-0.347-0.486-0.539-0.724c-0.183-0.229-0.381-0.459-0.572-0.686
	c-0.201-0.237-0.399-0.467-0.611-0.696c-0.198-0.218-0.403-0.429-0.609-0.639c-0.232-0.237-0.467-0.471-0.71-0.7
	c-1.605-1.53-3.435-2.928-5.451-4.118c-3.677-2.172-7.925-3.644-12.345-4.025c-0.044-0.004-0.091-0.012-0.14-0.016
	c-0.689-0.054-1.382-0.085-2.081-0.085c-1.04,0-2.088,0.063-3.137,0.194h-0.016l-0.016,0.004c-4.355,0.366-8.378,1.821-11.854,3.916
	c-3.483,2.094-6.424,4.826-8.612,7.711c-1.463,1.923-2.592,3.913-3.324,5.815l-0.004,0.012l-0.004,0.012
	c-2.114,4.971-2.421,9.131-2.421,11.471c0,0.736,0.029,1.289,0.048,1.65c0.004,0.113,0.012,0.199,0.012,0.289
	c0.008,0.035,0.008,0.057,0.012,0.076c0.008,0.055,0.012,0.094,0.016,0.137c0.004,0.09,0.018,0.215,0.025,0.363
	c0.027,0.307,0.068,0.75,0.148,1.318c0.162,1.148,0.48,2.787,1.131,4.76l0.175,0.531c0.858,0.275,1.753,0.471,2.7,0.471h52.135
	c0.724-2.115,1.219-4.344,1.485-6.691c0.083-0.787,0.14-1.572,0.159-2.355v-0.016c0.141-5.5-1.313-11.047-4.196-15.85
	C438.567,421.441,438.563,421.437,438.56,421.434"/>
<path fill="#808285" d="M418.023,404.151h-0.039h-0.035h0.035H418.023z M444.988,361.218c0.023-0.012,0.901-0.374,1.666-0.584
	c0.284-0.082,0.43-0.117,0.543-0.09c-1.053-1.946-2.324-3.795-3.838-5.492c-0.204-0.245-0.415-0.479-0.623-0.708h-3.974l0.539,0.525
	c2.012,1.954,3.659,4.196,4.926,6.605 M427.638,407.549c-0.389-0.179-0.788-0.351-1.191-0.506c-2.906,0.735-9.941,1.911-17.94-1.164
	c-0.43-0.159-0.845-0.347-1.267-0.518c0.134,0.051,0.263,0.133,0.401,0.187c-3.972,0.923-7.668,2.628-10.864,4.808
	c-3.916,2.678-7.092,6.068-9.124,9.649c-3.75,6.227-4.505,12.252-4.505,16.122c0,1.145,0.068,2.102,0.14,2.818l0.004,0.039
	l-0.004,0.055l0.02,0.063l0.029,0.279l0.023,0.004c0.023,0.203,0.052,0.498,0.087,0.873c0.103,1.055,0.3,2.705,0.821,4.732
	c0.63,0.396,1.312,0.721,2.032,0.949l-0.19-0.58c-0.65-1.973-0.969-3.611-1.131-4.76c-0.08-0.568-0.121-1.012-0.148-1.318
	c-0.008-0.148-0.021-0.273-0.025-0.363c-0.004-0.043-0.008-0.082-0.016-0.137c-0.004-0.02-0.004-0.041-0.012-0.076
	c0-0.09-0.008-0.176-0.012-0.289c-0.02-0.361-0.048-0.914-0.048-1.65c0-2.34,0.307-6.5,2.421-11.471l0.004-0.012l0.004-0.012
	c0.732-1.902,1.861-3.892,3.324-5.815c2.188-2.885,5.128-5.617,8.612-7.711c3.476-2.095,7.499-3.55,11.854-3.916l0.016-0.004h0.016
	c1.049-0.132,2.098-0.194,3.137-0.194c5.214,0,10.276,1.592,14.565,4.126c2.077,1.226,3.957,2.678,5.595,4.258
	c-0.156-0.151-0.294-0.3-0.454-0.447c-1.033-1.164-4.48-4.928-6.418-8.442 M456.108,420.647c-1.235,0-2.483-0.089-3.738-0.269
	l-0.012-0.008h-0.02c-4.895-0.502-9.438-2.452-13.246-5.234c-1.75-1.273-3.34-2.722-4.747-4.278
	c1.773,1.997,3.359,3.869,4.453,4.994c1.43,1.479,2.618,3.114,3.606,4.795c1.897,0.841,3.895,1.496,5.976,1.923
	c2.224,0.529,4.468,0.779,6.685,0.779c6.241,0,12.248-1.947,17.047-4.936v-2.667l-0.392,0.241
	C467.328,418.751,461.867,420.647,456.108,420.647 M465.591,361.35c-3.309-1.233-6.796-1.79-10.247-1.79
	c-2.754,0-5.484,0.362-8.078,1.012c0.095,0.055,0.171,0.176,0.301,0.421c0.452,0.918,0.818,1.782,1.145,2.615
	c2.416-0.611,4.959-0.953,7.538-0.953c3.785,0,7.625,0.724,11.147,2.335l0.023,0.012c1.528,0.627,2.95,1.397,4.294,2.266
	l0.398,0.253v-3.04C470.123,363.208,467.947,362.132,465.591,361.35"/>
<path fill="#CCCF19" d="M397.801,354.827l0.479-0.482h-2.057c-1.639,1.689-4.776,5.161-6.888,11.016
	c-2.917,7.372-2.978,18.995,3.507,28.317c3.479,5.438,9.048,9.777,15.665,12.202c8.785,3.375,16.465,1.615,18.72,0.962
	c1.905,3.597,5.525,7.527,6.586,8.727c1.989,1.837,3.567,3.795,4.743,5.854c3.298,5.5,4.739,11.976,4.048,18.248
	c-0.267,2.348-0.762,4.576-1.485,6.691h4.081c1.399-4.422,1.65-8.6,1.495-11.904c-0.201-4.109-2.118-12.626-7.896-18.605
	c-1.24-1.28-3.103-3.503-5.167-5.804c-0.78-0.931-2.458-3.348-2.997-4.297c3.776-1.405,6.378-3.173,7.625-4.13
	c3.092-2.281,8.694-7.419,11.413-16.188c1.525-4.547,1.837-9.992,0.872-15.298c-0.016-0.104-0.518-4.13-2.979-9.143
	c-0.289-0.545-0.293-0.529-0.912-0.358c-0.765,0.21-1.643,0.572-1.666,0.584c-3.53,1.141-6.8,2.884-9.391,5.006
	c-7.864,6.041-10.494,13.817-11.117,16.056c-1.1,3.679-2.487,11.155,0.605,19.785c0.128,0.39,0.276,0.798,0.459,1.253
	c-2.464,0.615-5.005,0.903-7.561,0.833c-8.199,0.055-19.199-4.9-24.413-14.479c-5.389-9.038-4.484-20.046-1.368-26.464
	C394.074,359.046,396.278,356.357,397.801,354.827 M428.714,382.202c2.084-5.924,5.605-10.677,10.467-14.125
	c1.841-1.409,4.05-2.604,6.458-3.499c2.479,6.457,2.711,13.95,0.569,19.734c-2.08,6.064-6.118,11.33-11.371,14.83
	c-0.901,0.6-2.951,1.946-5.856,3.082c-0.179-0.475-0.317-0.902-0.445-1.312C426.554,394.794,426.618,388.162,428.714,382.202"/>
<rect x="368.094" y="290.867" fill="none" width="566.929" height="247.303"/>
</svg>
