<?xml version="1.0" encoding="utf-8"?>
<!-- Generator: Adobe Illustrator 15.0.2, SVG Export Plug-In . SVG Version: 6.00 Build 0)  -->
<!DOCTYPE svg PUBLIC "-//W3C//DTD SVG 1.1//EN" "http://www.w3.org/Graphics/SVG/1.1/DTD/svg11.dtd">
<svg version="1.1" id="Layer_1" xmlns="http://www.w3.org/2000/svg" xmlns:xlink="http://www.w3.org/1999/xlink" x="0px" y="0px"
	 width="1190.55px" height="841.89px" viewBox="0 0 1190.55 841.89" enable-background="new 0 0 1190.55 841.89"
	 xml:space="preserve">
<path fill="#FFFFFF" d="M1064.821,391.04L1064.821,391.04l-452.948,42.439c-11.72,1.098-26.005,10.307-31.843,20.528l-52.034,91.094
	c-2.674,4.683-3.118,9.03-1.25,12.254c1.872,3.223,5.87,4.993,11.261,4.993h443.859c11.692,0,25.258-8.602,30.24-19.186
	l64.015-136.028c2.292-4.873,2.397-9.217,0.288-12.218C1074.299,391.916,1070.185,390.538,1064.821,391.04"/>
<path d="M1066.903,389.709c-0.704,0-1.439,0.035-2.195,0.109l-452.951,42.435c-12.035,1.129-26.799,10.642-32.794,21.144
	l-52.037,91.094c-1.736,3.036-2.55,5.913-2.542,8.467c0.02,6.286,5.025,10.626,13.624,10.626h443.859
	c12.094,0,26.204-8.953,31.354-19.895l64.015-136.032c1.3-2.764,1.915-5.34,1.911-7.633
	C1079.126,393.819,1074.579,389.709,1066.903,389.709 M538.007,561.123c-4.936,0-8.556-1.558-10.194-4.383
	c-1.643-2.826-1.195-6.746,1.25-11.031l52.038-91.09c2.709-4.745,7.438-9.443,13.328-13.238c5.885-3.799,12.125-6.17,17.563-6.676
	l452.943-42.443c0.678-0.058,1.34-0.089,1.97-0.089c4.071,0,7.15,1.315,8.665,3.702c1.662,2.62,1.463,6.434-0.561,10.739
	l-64.019,136.028c-2.297,4.873-6.613,9.497-12.16,13.017c-5.55,3.522-11.576,5.465-16.963,5.465H538.007z"/>
<path d="M650.486,464.844c0-6.52,5.336-11.852,11.853-11.852h55.665c6.52,0,17.146,0.661,23.615,1.471
	c0,0,15.11,1.884,10.957,22.137c-0.49,2.417-2.18,10.548-2.713,12.657c-3.675,14.784-9.108,22.223-31.155,22.223h-44.782
	c-6.523,0-11.961,5.328-12.094,11.852l-0.226,10.849c-0.132,6.516-2.689,11.849-5.683,11.849c-2.989,0-5.438-5.333-5.438-11.849
	V464.844z M740.335,475.404c1.856-10.304-3.838-12.825-14.951-12.825h-50.235c-6.52,0-11.984,5.332-12.148,11.848l-0.393,15.609
	c-0.164,6.52,5.04,11.848,11.557,11.848h34.588c6.516,0,15.355-0.751,19.633-1.677c4.282-0.919,10.35-15.916,11.506-22.331
	L740.335,475.404z"/>
<path d="M777.46,436.328c1.495-6.349,5.435-11.541,8.755-11.541c3.319,0,4.701,5.165,3.074,11.479l-3.413,13.246
	c-1.627,6.31-2.9,11.475-2.826,11.475c0.07,0,4.484-3.078,9.805-6.851c0,0,6.57-4.659,20.914-4.659h4.64
	c6.517,0,16.812,1.962,22.872,4.355c0,0,13.554,5.356,9.187,16.384l-12.024,30.321c-2.401,6.064-6.655,11.023-9.45,11.023
	c-2.799,0-3.212-4.994-0.927-11.101l6.228-16.633c2.285-6.107,5.139-16.344,6.341-22.747c0,0,0.604-3.207-21.424-3.207
	c-1.596,0-8.189,0.712-14.65,1.584c0,0-22.012,2.97-25.722,17.345l-5.998,23.28c-1.631,6.313-5.243,11.479-8.041,11.479
	c-2.795,0-3.857-5.196-2.359-11.537L777.46,436.328z"/>
<path d="M884.132,430.424c1.37-3.103,5.2-5.637,8.521-5.637s4.861,2.534,3.425,5.637c-1.432,3.102-5.262,5.636-8.517,5.636
	C884.307,436.06,882.766,433.525,884.132,430.424 M870.847,461.419c2.456-6.041,7.054-10.98,10.218-10.98
	c3.165,0,3.515,4.842,0.774,10.755l-18.321,39.608c-2.736,5.917-6.796,10.759-9.015,10.759c-2.223,0-2.028-4.939,0.424-10.98
	L870.847,461.419z"/>
<path d="M532.227,537.784l-0.027-0.012l-0.027-0.276l-0.019-0.07l0.007-0.051l-0.007-0.035c-0.07-0.716-0.141-1.678-0.141-2.817
	c0-3.869,0.759-9.898,4.508-16.119c2.032-3.589,5.208-6.979,9.124-9.653c3.192-2.184,6.89-3.892,10.864-4.811
	c-0.366-0.144-0.72-0.308-1.078-0.467c-0.21-0.094-0.42-0.176-0.631-0.272c-0.681-0.315-1.358-0.658-2.024-1.021
	c-0.241-0.136-0.479-0.284-0.72-0.42c-0.42-0.245-0.836-0.49-1.249-0.755c-0.308-0.199-0.604-0.401-0.903-0.607
	c-0.16-0.109-0.327-0.21-0.486-0.327c-0.245-0.175-0.479-0.358-0.72-0.537c-0.195-0.147-0.381-0.296-0.572-0.439
	c-0.459-0.37-0.903-0.748-1.347-1.141c-0.164-0.148-0.335-0.296-0.494-0.448c-0.463-0.428-0.903-0.871-1.339-1.331
	c-0.155-0.163-0.311-0.331-0.463-0.498c-0.42-0.471-0.829-0.949-1.222-1.448c-0.128-0.163-0.253-0.33-0.378-0.494
	c-0.346-0.459-0.681-0.93-0.996-1.417c-0.059-0.085-0.121-0.163-0.179-0.249c-0.467-0.673-0.892-1.362-1.292-2.059
	c-0.05-0.082-0.089-0.16-0.132-0.241c-0.35-0.623-0.677-1.254-0.98-1.893c-0.035-0.077-0.07-0.159-0.109-0.237
	c-2.938-6.367-3.406-13.257-2.37-18.94c0-0.008,0.004-0.02,0.004-0.023c0.062-0.338,0.132-0.673,0.202-1.004
	c0.039-0.179,0.082-0.362,0.125-0.541c0.063-0.257,0.128-0.51,0.195-0.759c0.07-0.265,0.144-0.521,0.226-0.774
	c0.055-0.188,0.109-0.374,0.171-0.557c0.128-0.401,0.269-0.794,0.42-1.176c0.012-0.035,0.023-0.074,0.035-0.109
	c0.007-0.016,0.015-0.031,0.027-0.054c0.234-0.646,0.483-1.266,0.744-1.861c0.121-0.272,0.245-0.533,0.37-0.798
	c0.148-0.308,0.292-0.619,0.444-0.91c0.156-0.308,0.312-0.6,0.471-0.884c0.117-0.218,0.238-0.429,0.358-0.635
	c0.179-0.304,0.354-0.604,0.533-0.884c0.097-0.151,0.191-0.296,0.288-0.439c0.194-0.3,0.389-0.596,0.58-0.864
	c0.058-0.078,0.109-0.144,0.159-0.222c0.44-0.604,0.864-1.156,1.269-1.635c0.035-0.047,0.074-0.094,0.113-0.137
	c0.113-0.14,0.222-0.257,0.331-0.385c0.113-0.125,0.229-0.265,0.339-0.386c0.042-0.047,0.082-0.09,0.125-0.136
	c0.085-0.094,0.16-0.172,0.241-0.257c0.179-0.195,0.35-0.374,0.502-0.534h-7.24c-4.889,0-8.89,4.006-8.89,8.895v74.232
	c0,3.152,1.677,5.916,4.168,7.492c-0.514-2.016-0.712-3.658-0.817-4.705C532.281,538.278,532.254,537.982,532.227,537.784
	 M577.85,500.619c0.342-0.136,0.669-0.272,0.985-0.412c0.163-0.07,0.315-0.141,0.471-0.211c0.156-0.069,0.315-0.144,0.467-0.214
	c0.14-0.07,0.272-0.136,0.413-0.202c0.148-0.078,0.3-0.148,0.443-0.226c0.133-0.066,0.257-0.137,0.386-0.203
	c0.125-0.065,0.249-0.136,0.366-0.198c0.14-0.078,0.272-0.151,0.401-0.229c0.132-0.074,0.261-0.147,0.381-0.218
	c0.078-0.043,0.144-0.086,0.214-0.133c0.152-0.089,0.304-0.183,0.436-0.265c0.012-0.004,0.023-0.012,0.035-0.02
	c0.351-0.222,0.639-0.412,0.856-0.561c3.262-2.172,6.053-5.024,8.197-8.329c0.027-0.039,0.055-0.074,0.078-0.117
	c0.413-0.643,0.802-1.296,1.16-1.966c0.023-0.043,0.043-0.085,0.07-0.124c0.304-0.584,0.591-1.172,0.86-1.775
	c0.074-0.167,0.152-0.331,0.222-0.498c0.272-0.635,0.525-1.276,0.751-1.931c0.011-0.031,0.023-0.059,0.035-0.086v-0.008l0.004-0.008
	c0.027-0.073,0.043-0.147,0.066-0.222c0.222-0.615,0.42-1.249,0.587-1.899c0.063-0.241,0.102-0.502,0.164-0.751
	c0.109-0.518,0.222-1.031,0.308-1.561c0.034-0.238,0.058-0.487,0.089-0.729c0.07-0.561,0.137-1.125,0.172-1.697
	c0.015-0.233,0.019-0.463,0.026-0.7c0.094-2.352-0.081-4.772-0.552-7.162c0-0.004,0-0.004-0.004-0.008
	c-0.164-0.837-0.366-1.666-0.604-2.487c-0.008-0.039-0.019-0.074-0.031-0.113c-0.234-0.806-0.499-1.604-0.802-2.39
	c-2.401,0.896-4.612,2.095-6.454,3.499c-0.564,0.405-1.105,0.825-1.635,1.262c-0.062,0.047-0.121,0.098-0.179,0.147
	c-0.499,0.413-0.973,0.853-1.44,1.297c-0.07,0.069-0.144,0.136-0.214,0.206c-0.459,0.451-0.903,0.922-1.328,1.409
	c-0.05,0.058-0.101,0.108-0.148,0.163c-2.382,2.744-4.231,5.967-5.519,9.646c-0.261,0.735-0.487,1.479-0.689,2.234
	c-0.004,0.016-0.008,0.027-0.012,0.043c-0.191,0.739-0.354,1.494-0.487,2.25c-0.004,0.026-0.008,0.046-0.012,0.069
	c-0.125,0.748-0.226,1.503-0.295,2.258c-0.008,0.051-0.012,0.102-0.016,0.148c-0.339,3.864,0.093,7.812,1.292,11.571
	c0.012,0.035,0.02,0.074,0.031,0.113l0.004,0.012v0.012C577.531,499.731,577.683,500.168,577.85,500.619 M576.488,505.937
	c-0.136-0.241-0.269-0.472-0.39-0.705c-0.21,0.059-0.479,0.129-0.778,0.207C575.713,505.594,576.106,505.757,576.488,505.937
	 M544.504,455.748c-0.129,0.163-0.25,0.33-0.378,0.51c-0.121,0.163-0.241,0.346-0.362,0.525c-0.132,0.19-0.265,0.381-0.397,0.584
	c-0.125,0.198-0.249,0.404-0.377,0.61c-0.132,0.215-0.261,0.429-0.394,0.65c-0.14,0.241-0.28,0.506-0.42,0.759
	c-0.113,0.218-0.229,0.421-0.346,0.643c-0.249,0.494-0.502,1.004-0.748,1.553l-0.008,0.02c-0.194,0.394-0.377,0.806-0.549,1.23
	c-0.082,0.202-0.159,0.428-0.237,0.638c-0.085,0.227-0.171,0.448-0.253,0.678c-0.093,0.292-0.183,0.596-0.272,0.899
	c-0.055,0.171-0.105,0.334-0.152,0.506c-0.089,0.323-0.167,0.653-0.245,0.988c-0.039,0.168-0.085,0.331-0.121,0.506
	c-0.07,0.312-0.128,0.646-0.187,0.97c-0.039,0.202-0.078,0.396-0.109,0.6c-0.047,0.3-0.085,0.606-0.125,0.91
	c-0.031,0.241-0.066,0.483-0.089,0.732c-0.031,0.276-0.051,0.553-0.07,0.833c-0.023,0.288-0.047,0.568-0.059,0.855
	c-0.015,0.266-0.015,0.526-0.023,0.791c-0.004,0.311-0.016,0.618-0.012,0.934c0,0.284,0.016,0.576,0.023,0.868
	c0.011,0.315,0.015,0.627,0.039,0.935c0.016,0.261,0.043,0.525,0.066,0.782c0.035,0.351,0.062,0.696,0.105,1.047
	c0.027,0.226,0.066,0.451,0.105,0.678c0.055,0.389,0.109,0.771,0.187,1.155c0.035,0.195,0.082,0.39,0.125,0.58
	c0.085,0.417,0.171,0.833,0.28,1.25c0.043,0.163,0.101,0.33,0.144,0.498c0.125,0.439,0.245,0.88,0.389,1.315
	c0.051,0.147,0.113,0.3,0.164,0.447c0.156,0.452,0.315,0.896,0.498,1.34c0.07,0.167,0.148,0.33,0.226,0.494
	c0.183,0.424,0.366,0.849,0.572,1.265c0.167,0.339,0.362,0.674,0.545,1.004c0.132,0.238,0.253,0.483,0.393,0.713l0.008,0.012
	c0.082,0.155,0.179,0.296,0.269,0.447c0.237,0.425,0.482,0.849,0.747,1.254c0.179,0.276,0.377,0.537,0.564,0.802
	c0.191,0.265,0.374,0.533,0.568,0.79c0.249,0.327,0.518,0.639,0.782,0.949c0.152,0.184,0.296,0.366,0.456,0.541
	c0.288,0.323,0.592,0.631,0.895,0.938c0.152,0.147,0.292,0.312,0.448,0.459c0.292,0.284,0.596,0.557,0.903,0.821
	c0.183,0.164,0.362,0.331,0.549,0.491c0.261,0.226,0.533,0.432,0.802,0.642c0.245,0.195,0.494,0.394,0.743,0.584
	c0.207,0.145,0.409,0.28,0.615,0.421c0.338,0.241,0.681,0.479,1.027,0.7c0.113,0.074,0.23,0.137,0.335,0.206
	c3.706,2.289,7.757,3.714,11.502,4.224c0.055,0.008,0.109,0.012,0.171,0.02c0.459,0.063,0.918,0.108,1.374,0.14
	c0.374,0.023,0.744,0.035,1.113,0.039c0.148,0.004,0.3,0.016,0.448,0.016h0.097c0.042,0,0.082,0,0.128,0
	c0.409,0.012,0.813,0,1.226-0.008c0.3-0.008,0.599-0.012,0.887-0.027c0.382-0.02,0.759-0.051,1.141-0.085
	c0.207-0.023,0.42-0.039,0.623-0.063c0.506-0.059,1.008-0.137,1.506-0.222c0.078-0.012,0.164-0.02,0.241-0.035
	c0.607-0.113,1.21-0.241,1.806-0.394c-0.164-0.408-0.312-0.825-0.452-1.245c-0.187-0.514-0.35-1.028-0.506-1.534
	c-0.066-0.214-0.117-0.42-0.179-0.63c-0.078-0.288-0.16-0.576-0.233-0.86c-0.066-0.269-0.125-0.529-0.183-0.79
	c-0.051-0.219-0.101-0.444-0.148-0.658c-0.055-0.296-0.105-0.588-0.16-0.876c-0.031-0.175-0.062-0.351-0.085-0.529
	c-0.055-0.312-0.097-0.623-0.136-0.935c-0.016-0.14-0.031-0.276-0.051-0.412c-0.035-0.331-0.07-0.662-0.093-0.984
	c-0.008-0.102-0.016-0.207-0.023-0.308c-0.027-0.351-0.047-0.689-0.062-1.028c-0.004-0.062-0.004-0.124-0.008-0.19
	c-0.012-0.37-0.02-0.731-0.02-1.086v-0.004v-0.008c0-0.498,0.012-0.98,0.035-1.452c0-0.022,0-0.046,0-0.077
	c0.027-0.444,0.055-0.884,0.094-1.309c0-0.03,0.004-0.058,0.008-0.085c0.035-0.421,0.082-0.825,0.132-1.215
	c0.004-0.023,0.008-0.051,0.008-0.074c0.05-0.393,0.113-0.778,0.175-1.151c0-0.008,0-0.016,0.004-0.027
	c0.124-0.732,0.269-1.417,0.412-2.036c0.012-0.031,0.02-0.059,0.027-0.093c0.063-0.258,0.121-0.507,0.187-0.736
	c0.012-0.035,0.02-0.063,0.027-0.101c0.058-0.207,0.117-0.409,0.171-0.6c0.042-0.16,0.105-0.358,0.171-0.576
	c0.012-0.047,0.031-0.102,0.047-0.152c0.047-0.144,0.093-0.284,0.144-0.443c0.046-0.136,0.101-0.284,0.156-0.432
	c0.027-0.09,0.058-0.172,0.093-0.265c0.07-0.195,0.152-0.401,0.233-0.611c0.023-0.063,0.047-0.117,0.074-0.18
	c0.093-0.241,0.202-0.486,0.307-0.743c0.027-0.047,0.043-0.094,0.066-0.144c0.113-0.265,0.241-0.541,0.377-0.825
	c0.023-0.047,0.047-0.098,0.074-0.152c0.132-0.272,0.276-0.557,0.424-0.849c0.035-0.065,0.074-0.132,0.109-0.202
	c0.144-0.276,0.3-0.549,0.456-0.833c0.054-0.09,0.105-0.183,0.159-0.28c0.051-0.082,0.09-0.159,0.136-0.237
	c0.117-0.198,0.25-0.401,0.37-0.604c0.062-0.094,0.117-0.187,0.175-0.28c0.191-0.296,0.393-0.596,0.6-0.899
	c0.063-0.085,0.117-0.175,0.179-0.261c0.202-0.296,0.424-0.595,0.646-0.895c0.082-0.102,0.152-0.203,0.233-0.308
	c0.21-0.272,0.436-0.549,0.662-0.825c0.105-0.125,0.207-0.253,0.312-0.386c0.214-0.241,0.436-0.486,0.654-0.728
	c0.144-0.16,0.28-0.319,0.428-0.479c0.195-0.203,0.401-0.409,0.6-0.611c0.198-0.194,0.381-0.39,0.584-0.58
	c0.156-0.148,0.327-0.296,0.486-0.443c0.677-0.623,1.386-1.234,2.16-1.834c0.561-0.459,1.164-0.899,1.791-1.323
	c0.055-0.039,0.109-0.078,0.171-0.121c0.596-0.396,1.222-0.774,1.869-1.136c0.093-0.051,0.183-0.105,0.276-0.156
	c0.65-0.354,1.324-0.685,2.009-0.996c0.082-0.035,0.167-0.074,0.249-0.109c0.705-0.312,1.429-0.604,2.164-0.86
	c0.035-0.012,0.066-0.027,0.102-0.043c-1.273-2.409-2.916-4.655-4.928-6.604l-0.538-0.53h-40.473l-0.518,0.522
	c-0.233,0.237-0.553,0.567-0.911,0.973c-0.055,0.063-0.102,0.117-0.156,0.175c-0.125,0.145-0.261,0.312-0.397,0.476
	c-0.102,0.128-0.21,0.261-0.319,0.396C544.745,455.425,544.625,455.588,544.504,455.748 M588.566,521.899
	c-0.339-0.678-0.705-1.343-1.094-1.997c-0.016-0.027-0.027-0.051-0.043-0.078v-0.004v-0.004l-0.012-0.008
	c-0.132-0.229-0.284-0.459-0.432-0.692c-0.148-0.237-0.292-0.483-0.452-0.717c-0.163-0.241-0.342-0.475-0.514-0.708
	c-0.175-0.237-0.342-0.471-0.521-0.705c-0.187-0.229-0.385-0.459-0.58-0.688c-0.202-0.229-0.397-0.467-0.607-0.692
	c-0.199-0.215-0.405-0.433-0.619-0.643c-0.222-0.233-0.456-0.463-0.693-0.689c-1.607-1.529-3.445-2.935-5.461-4.126
	c-3.678-2.172-7.925-3.643-12.343-4.021c-0.047-0.008-0.093-0.012-0.136-0.016c-0.689-0.055-1.386-0.09-2.086-0.09
	c-1.039,0-2.086,0.066-3.133,0.199h-0.02h-0.016c-4.359,0.369-8.376,1.821-11.856,3.915c-3.479,2.099-6.422,4.827-8.614,7.707
	c-1.459,1.923-2.584,3.916-3.32,5.823l-0.004,0.012l-0.004,0.012c-2.113,4.971-2.417,9.132-2.417,11.471
	c0,0.732,0.027,1.289,0.047,1.646c0.004,0.109,0.008,0.203,0.008,0.288c0.011,0.039,0.011,0.063,0.015,0.082
	c0.004,0.051,0.008,0.086,0.016,0.132c0.004,0.09,0.012,0.211,0.023,0.366c0.027,0.308,0.07,0.747,0.148,1.323
	c0.164,1.141,0.479,2.783,1.129,4.753l0.179,0.533c0.856,0.272,1.748,0.463,2.697,0.463h52.135c0.724-2.105,1.222-4.34,1.483-6.69
	c0.089-0.782,0.14-1.565,0.159-2.355c0.004,0,0.004-0.004,0.004-0.008c0.121-4.721-0.938-9.478-3.056-13.768
	C588.573,521.915,588.57,521.907,588.566,521.899 M616.291,463.4l-0.031-0.012c-3.522-1.615-7.356-2.344-11.147-2.344
	c-2.569,0-5.114,0.347-7.524,0.95c1.472,3.736,1.814,6.449,1.826,6.539c0.023,0.136,0.039,0.28,0.063,0.424
	c0.077,0.44,0.144,0.872,0.202,1.313c0.023,0.194,0.047,0.385,0.066,0.583c0.05,0.448,0.089,0.899,0.124,1.352
	c0.016,0.163,0.027,0.326,0.035,0.49c0.035,0.584,0.055,1.172,0.059,1.747c0,0.023,0,0.047,0,0.07c0,0.027,0,0.055,0,0.082
	c0,0.136-0.012,0.269-0.012,0.4c-0.008,0.596-0.027,1.191-0.066,1.775c-0.016,0.253-0.043,0.494-0.066,0.747
	c-0.047,0.498-0.101,0.997-0.171,1.487c-0.035,0.237-0.07,0.475-0.109,0.712c-0.085,0.521-0.187,1.031-0.3,1.538
	c-0.042,0.187-0.081,0.373-0.124,0.564c-0.171,0.681-0.358,1.354-0.576,2.008c0,0.004-0.004,0.008-0.004,0.016
	c-0.047,0.145-0.098,0.276-0.144,0.421c-0.133,0.404-0.266,0.81-0.409,1.202c-0.078,0.21-0.167,0.413-0.245,0.623
	c-0.129,0.315-0.249,0.635-0.378,0.942c-0.077,0.171-0.155,0.334-0.233,0.506c-0.147,0.331-0.3,0.661-0.459,0.984
	c-0.059,0.125-0.121,0.237-0.188,0.362c-0.179,0.354-0.361,0.708-0.548,1.047c-0.043,0.078-0.093,0.151-0.136,0.233
	c-0.21,0.374-0.424,0.739-0.646,1.094c-0.023,0.043-0.047,0.078-0.07,0.113c-0.245,0.389-0.49,0.771-0.743,1.133
	c-0.004,0.004-0.004,0.008-0.008,0.012c-1.32,1.919-2.709,3.499-4.013,4.771c-0.008,0.008-0.012,0.016-0.02,0.023
	c-0.233,0.226-0.467,0.447-0.689,0.654c-0.047,0.039-0.089,0.077-0.132,0.12c-0.183,0.164-0.362,0.323-0.537,0.476
	c-0.097,0.085-0.191,0.163-0.288,0.245c-0.113,0.093-0.226,0.194-0.335,0.284c-0.198,0.167-0.389,0.314-0.568,0.455l-0.008,0.004
	c-0.222,0.171-0.428,0.335-0.611,0.471c-0.253,0.188-0.561,0.413-0.899,0.646c-0.105,0.074-0.207,0.144-0.319,0.222
	c-0.035,0.023-0.074,0.047-0.109,0.07c-1.437,0.957-3.546,2.164-6.294,3.184c0.482,0.849,1.868,2.865,2.717,3.951
	c0.218,0.265,0.44,0.529,0.669,0.79c0.148,0.167,0.3,0.335,0.448,0.502c1.374,1.507,2.923,2.908,4.624,4.146
	c3.807,2.775,8.349,4.729,13.246,5.228h0.02l0.012,0.012c1.258,0.179,2.499,0.269,3.733,0.269c5.761,0,11.226-1.896,15.616-4.659
	l0.393-0.245v-48.22l-0.4-0.257C619.238,464.794,617.817,464.019,616.291,463.4 M597.25,520.961
	c-2.083-0.424-4.08-1.074-5.971-1.915c3.009,5.122,4.134,10.708,4.286,13.807c0.008,0.229,0.012,0.479,0.02,0.716
	c0.031,0.6,0.046,1.152,0.046,1.654c0,0.713-0.023,1.331-0.058,1.817c-0.07,1.542-0.397,4.349-1.491,7.707h18.007
	c4.893,0,8.894-4.001,8.894-8.886v-19.058c-4.799,2.989-10.809,4.932-17.049,4.936C601.718,521.739,599.469,521.49,597.25,520.961
	 M612.088,452.734h-20.482c0.207,0.234,0.417,0.464,0.623,0.713c1.51,1.697,2.779,3.538,3.834,5.484
	c0.027,0.004,0.051,0.016,0.074,0.031c2.596-0.65,5.32-1.005,8.076-1.005c3.453,0,6.94,0.549,10.249,1.787
	c2.354,0.778,4.526,1.86,6.52,3.13v-1.246C620.981,456.74,616.98,452.734,612.088,452.734"/>
<path fill="#808285" d="M566.893,502.538h-0.042h-0.035c0.012,0,0.023,0,0.035,0C566.866,502.538,566.877,502.538,566.893,502.538
	 M593.852,459.612c0.031-0.012,0.907-0.373,1.67-0.587c0.284-0.078,0.432-0.113,0.545-0.086c-1.059-1.95-2.328-3.795-3.838-5.492
	c-0.206-0.249-0.417-0.479-0.623-0.713h-3.974l0.538,0.53c2.012,1.949,3.655,4.195,4.928,6.604 M576.503,505.944
	c-0.385-0.184-0.79-0.351-1.187-0.51c-2.912,0.731-9.945,1.907-17.94-1.16c-0.432-0.16-0.845-0.347-1.269-0.521
	c0.136,0.054,0.265,0.132,0.401,0.187c-3.974,0.919-7.672,2.627-10.864,4.811c-3.916,2.675-7.092,6.064-9.124,9.653
	c-3.749,6.221-4.508,12.25-4.508,16.119c0,1.14,0.07,2.102,0.141,2.817l0.007,0.035l-0.007,0.051l0.019,0.07l0.027,0.276
	l0.027,0.012c0.027,0.198,0.054,0.494,0.085,0.864c0.105,1.055,0.304,2.705,0.825,4.732c0.631,0.401,1.312,0.725,2.032,0.95
	l-0.195-0.58c-0.65-1.97-0.965-3.612-1.129-4.753c-0.078-0.576-0.121-1.016-0.148-1.323c-0.012-0.155-0.02-0.276-0.023-0.366
	c-0.008-0.046-0.012-0.081-0.016-0.132c-0.004-0.02-0.004-0.043-0.015-0.082c0-0.085-0.004-0.179-0.008-0.288
	c-0.02-0.357-0.047-0.914-0.047-1.646c0-2.339,0.304-6.5,2.417-11.471l0.004-0.012l0.004-0.012c0.736-1.907,1.861-3.9,3.32-5.823
	c2.191-2.88,5.134-5.608,8.614-7.707c3.48-2.094,7.497-3.546,11.856-3.915h0.016h0.02c1.047-0.133,2.094-0.199,3.133-0.199
	c5.216,0,10.276,1.597,14.565,4.126c2.079,1.23,3.958,2.679,5.597,4.259c-0.156-0.148-0.296-0.3-0.455-0.447
	c-1.032-1.168-4.48-4.929-6.419-8.443 M604.973,519.038c-1.234,0-2.476-0.09-3.733-0.269l-0.012-0.012h-0.02
	c-4.896-0.498-9.439-2.452-13.246-5.228c-1.755-1.276-3.34-2.725-4.749-4.277c1.775,1.996,3.363,3.861,4.453,4.993
	c1.433,1.476,2.62,3.11,3.608,4.792c1.896,0.845,3.892,1.499,5.975,1.923c2.219,0.529,4.468,0.778,6.683,0.778
	c6.24-0.004,12.25-1.946,17.049-4.936v-2.67l-0.393,0.245C616.198,517.143,610.733,519.038,604.973,519.038 M614.462,459.745
	c-3.309-1.238-6.796-1.787-10.249-1.787c-2.756,0-5.484,0.358-8.084,1.005c0.101,0.055,0.175,0.175,0.308,0.424
	c0.451,0.915,0.813,1.783,1.14,2.612c2.414-0.607,4.963-0.954,7.536-0.954c3.791,0,7.625,0.729,11.147,2.344l0.031,0.012
	c1.526,0.618,2.947,1.394,4.29,2.257l0.4,0.257v-3.039C618.988,461.605,616.816,460.523,614.462,459.745"/>
<path fill="#FFFFFF" d="M546.664,453.218l0.482-0.483h-2.055c-1.639,1.693-4.776,5.166-6.893,11.02
	c-2.912,7.369-2.974,18.991,3.507,28.313c3.483,5.434,9.054,9.774,15.671,12.207c8.785,3.37,16.465,1.611,18.722,0.957
	c1.904,3.593,5.523,7.532,6.583,8.728c1.985,1.837,3.565,3.791,4.745,5.85c3.301,5.5,4.737,11.978,4.044,18.248
	c-0.261,2.351-0.759,4.585-1.483,6.69h4.083c1.397-4.414,1.646-8.594,1.495-11.895c-0.199-4.118-2.118-12.627-7.898-18.606
	c-1.238-1.284-3.098-3.503-5.165-5.803c-0.783-0.935-2.46-3.348-2.997-4.302c3.775-1.401,6.372-3.168,7.625-4.13
	c3.094-2.28,8.692-7.423,11.409-16.185c1.529-4.55,1.841-9.991,0.876-15.293c-0.016-0.105-0.518-4.134-2.978-9.147
	c-0.292-0.545-0.3-0.533-0.915-0.361c-0.763,0.214-1.639,0.575-1.67,0.587c-3.526,1.141-6.792,2.881-9.385,5.002
	c-7.862,6.041-10.494,13.818-11.116,16.057c-1.102,3.678-2.491,11.155,0.607,19.789c0.121,0.381,0.272,0.798,0.456,1.245
	c-2.46,0.619-5.006,0.907-7.563,0.833c-8.198,0.059-19.197-4.896-24.409-14.479c-5.395-9.03-4.484-20.042-1.367-26.457
	C542.943,457.444,545.146,454.751,546.664,453.218 M577.585,480.597c2.082-5.924,5.601-10.677,10.462-14.13
	c1.841-1.404,4.052-2.604,6.454-3.499c2.484,6.458,2.717,13.95,0.576,19.738c-2.083,6.057-6.123,11.323-11.374,14.822
	c-0.899,0.604-2.946,1.954-5.854,3.091c-0.183-0.479-0.323-0.907-0.448-1.312C575.421,493.181,575.487,486.548,577.585,480.597"/>
<polygon points="684.074,530.91 676.468,530.91 676.468,529.1 693.723,529.1 693.723,530.91 686.113,530.91 686.113,545.444 
	684.074,545.444 "/>
<path d="M684.074,530.221h-7.606l0.686,0.689V529.1l-0.686,0.689h17.255l-0.685-0.689v1.811l0.685-0.689h-7.609h-0.685v0.689v14.534
	l0.685-0.686h-2.039l0.688,0.686V530.91v-0.689H684.074z M684.074,546.133h2.039h0.689v-0.688V530.91l-0.689,0.688h7.609h0.689
	v-0.688V529.1v-0.688h-0.689h-17.255h-0.688v0.688v1.811v0.688h0.688h7.606l-0.686-0.688v14.534v0.688H684.074z"/>
<polygon points="701.271,529.1 716.058,529.1 716.058,530.91 703.317,530.91 703.317,536.13 715.56,536.13 715.56,537.936 
	703.317,537.936 703.317,543.646 716.14,543.646 716.14,545.444 701.271,545.444 "/>
<path d="M701.271,529.789h14.787l-0.685-0.689v1.811l0.685-0.689h-12.74h-0.692v0.689v5.22v0.685h0.692h12.242l-0.689-0.685v1.806
	l0.689-0.688h-12.242h-0.692v0.688v5.71v0.686h0.692h12.822l-0.686-0.686v1.799l0.686-0.686h-14.869l0.688,0.686V529.1
	L701.271,529.789z M701.271,546.133h14.869h0.685v-0.688v-1.799v-0.685h-0.685h-12.822l0.686,0.685v-5.71l-0.686,0.682h12.242h0.685
	v-0.682v-1.806v-0.689h-0.685h-12.242l0.686,0.689v-5.22l-0.686,0.688h12.74h0.688v-0.688V529.1v-0.688h-0.688h-14.787h-0.686v0.688
	v16.345v0.688H701.271z"/>
<path d="M724.045,535.044c0-4.134,1.288-6.119,5.371-6.119h7.793c3.697,0,4.722,1.872,4.722,4.06v1.405h-1.787v-0.739
	c0-2.791-1.584-2.92-3.46-2.92h-7.064c-1.954,0-3.535,0.631-3.535,3.473v6.146c0,2.842,1.581,3.477,3.535,3.477h7.135
	c2.744,0,3.53-0.635,3.53-2.842v-1.023h1.915v1.113c0,2.958-0.868,4.554-5.092,4.554h-7.691c-4.083,0-5.371-1.981-5.371-6.119
	V535.044z"/>
<path d="M724.733,535.044c0-4.01,1.23-5.435,4.683-5.435h7.793c3.577,0,4.032,1.803,4.032,3.375v1.405l0.689-0.692h-1.787
	l0.686,0.692v-0.739c0-3.604-2.495-3.604-4.146-3.604h-7.064c-2.842,0-4.224,1.354-4.224,4.157v6.146
	c0,2.803,1.382,4.169,4.224,4.169h7.135c2.67,0,4.219-0.58,4.219-3.534v-1.023l-0.688,0.685h1.915l-0.686-0.685v1.113
	c0,2.67-0.638,3.869-4.406,3.869h-7.691c-3.452,0-4.683-1.425-4.683-5.435V535.044z M723.363,539.508
	c0,4.769,1.811,6.809,6.053,6.809h7.691c4.796,0,5.776-2.103,5.776-5.243v-1.113v-0.693h-0.685h-1.915h-0.686v0.693v1.023
	c0,1.592-0.233,2.152-2.845,2.152h-7.135c-1.764,0-2.85-0.463-2.85-2.787v-6.146c0-2.32,1.086-2.783,2.85-2.783h7.064
	c2.017,0,2.775,0.19,2.775,2.23v0.739v0.686h0.685h1.787h0.685v-0.686v-1.405c0-2.164-0.941-4.744-5.406-4.744h-7.793
	c-4.242,0-6.053,2.027-6.053,6.804V539.508z"/>
<polygon points="750.685,529.1 752.725,529.1 752.725,536.13 766.32,536.13 766.32,529.1 768.364,529.1 768.364,545.444 
	766.32,545.444 766.32,537.936 752.725,537.936 752.725,545.444 750.685,545.444 "/>
<path d="M750.685,529.789h2.04l-0.686-0.689v7.03v0.685h0.686h13.596h0.686v-0.685v-7.03l-0.686,0.689h2.044l-0.689-0.689v16.345
	l0.689-0.686h-2.044l0.686,0.686v-7.509v-0.688h-0.686h-13.596h-0.686v0.688v7.509l0.686-0.686h-2.04l0.688,0.686V529.1
	L750.685,529.789z M750.685,546.133h2.04h0.685v-0.688v-7.509l-0.685,0.682h13.596l-0.686-0.682v7.509v0.688h0.686h2.044h0.685
	v-0.688V529.1v-0.688h-0.685h-2.044h-0.686v0.688v7.03l0.686-0.689h-13.596l0.685,0.689v-7.03v-0.688h-0.685h-2.04h-0.686v0.688
	v16.345v0.688H750.685z"/>
<polygon points="777.434,529.1 780.461,529.1 794.252,543.467 794.252,529.1 796.288,529.1 796.288,545.444 793.26,545.444 
	779.477,531.093 779.477,545.444 777.434,545.444 "/>
<path d="M777.434,529.789h3.027l-0.498-0.21l13.791,14.366l1.184,1.223v-1.701V529.1l-0.686,0.689h2.036l-0.686-0.689v16.345
	l0.686-0.686h-3.028l0.494,0.211l-13.783-14.355l-1.183-1.227v1.705v14.352l0.688-0.686h-2.043l0.688,0.686V529.1L777.434,529.789z
	 M777.434,546.133h2.043h0.686v-0.688v-14.352l-1.184,0.475l13.787,14.355l0.202,0.21h0.292h3.028h0.688v-0.688V529.1v-0.688h-0.688
	h-2.036h-0.688v0.688v14.367l1.183-0.479l-13.79-14.363l-0.203-0.214h-0.292h-3.027h-0.686v0.688v16.345v0.688H777.434z"/>
<path d="M804.964,535.044c0-4.134,1.289-6.119,5.368-6.119H819c4.075,0,5.364,1.985,5.364,6.119v4.464
	c0,4.138-1.289,6.119-5.364,6.119h-8.668c-4.079,0-5.368-1.981-5.368-6.119V535.044z M822.332,534.203
	c0-2.842-1.584-3.473-3.542-3.473h-8.26c-1.95,0-3.53,0.631-3.53,3.473v6.146c0,2.842,1.58,3.477,3.53,3.477h8.26
	c1.958,0,3.542-0.635,3.542-3.477V534.203z"/>
<path d="M805.653,535.044c0-4.01,1.222-5.435,4.679-5.435H819c3.457,0,4.679,1.425,4.679,5.435v4.464
	c0,4.01-1.222,5.435-4.679,5.435h-8.668c-3.457,0-4.679-1.425-4.679-5.435V535.044z M804.271,539.508
	c0,4.769,1.81,6.809,6.061,6.809H819c4.247,0,6.057-2.04,6.057-6.809v-4.464c0-4.776-1.81-6.804-6.057-6.804h-8.668
	c-4.251,0-6.061,2.027-6.061,6.804V539.508z"/>
<path d="M823.018,534.203c0-2.803-1.386-4.157-4.228-4.157h-8.26c-2.838,0-4.212,1.354-4.212,4.157v6.146
	c0,2.803,1.374,4.169,4.212,4.169h8.26c2.842,0,4.228-1.366,4.228-4.169V534.203z M821.639,540.349c0,2.324-1.09,2.787-2.849,2.787
	h-8.26c-1.756,0-2.846-0.463-2.846-2.787v-6.146c0-2.32,1.09-2.783,2.846-2.783h8.26c1.759,0,2.849,0.463,2.849,2.783V540.349z"/>
<polygon points="833.161,529.1 835.2,529.1 835.2,543.646 846.894,543.646 846.894,545.444 833.161,545.444 "/>
<path d="M833.161,529.789h2.039l-0.692-0.689v14.546v0.686h0.692h11.693l-0.693-0.686v1.799l0.693-0.686h-13.732l0.692,0.686V529.1
	L833.161,529.789z M833.161,546.133h13.732h0.685v-0.688v-1.799v-0.685h-0.685H835.2l0.689,0.685V529.1v-0.688H835.2h-2.039h-0.686
	v0.688v16.345v0.688H833.161z"/>
<path d="M853.888,535.044c0-4.134,1.276-6.119,5.356-6.119h8.676c4.067,0,5.363,1.985,5.363,6.119v4.464
	c0,4.138-1.296,6.119-5.363,6.119h-8.676c-4.08,0-5.356-1.981-5.356-6.119V535.044z M871.248,534.203
	c0-2.842-1.588-3.473-3.538-3.473h-8.256c-1.95,0-3.53,0.631-3.53,3.473v6.146c0,2.842,1.58,3.477,3.53,3.477h8.256
	c1.95,0,3.538-0.635,3.538-3.477V534.203z"/>
<path d="M854.569,535.044c0-4.01,1.229-5.435,4.675-5.435h8.676c3.456,0,4.679,1.425,4.679,5.435v4.464
	c0,4.01-1.223,5.435-4.679,5.435h-8.676c-3.445,0-4.675-1.425-4.675-5.435V535.044z M853.199,539.508
	c0,4.769,1.806,6.809,6.045,6.809h8.676c4.243,0,6.053-2.04,6.053-6.809v-4.464c0-4.776-1.81-6.804-6.053-6.804h-8.676
	c-4.239,0-6.045,2.027-6.045,6.804V539.508z"/>
<path d="M871.933,534.203c0-2.803-1.378-4.157-4.223-4.157h-8.256c-2.834,0-4.216,1.354-4.216,4.157v6.146
	c0,2.803,1.382,4.169,4.216,4.169h8.256c2.845,0,4.223-1.366,4.223-4.169V534.203z M870.559,540.349
	c0,2.324-1.086,2.787-2.849,2.787h-8.256c-1.752,0-2.838-0.463-2.838-2.787v-6.146c0-2.32,1.086-2.783,2.838-2.783h8.256
	c1.763,0,2.849,0.463,2.849,2.783V540.349z"/>
<path d="M900.546,539.602c0,4.445-1.327,6.025-5.103,6.025h-8.381c-4.087,0-5.387-1.981-5.387-6.119v-4.464
	c0-4.134,1.3-6.119,5.387-6.119h7.676c2.709,0,5.602,0.724,5.602,4.488v0.591h-1.923c0-3.055-0.853-3.273-5.874-3.273h-5.293
	c-1.946,0-3.531,0.631-3.531,3.473v6.146c0,2.842,1.585,3.477,3.531,3.477h7.979c2.039,0,3.277-0.771,3.277-3.024v-1.658h-7.719
	v-1.795h9.758V539.602z"/>
<path d="M899.865,539.602c0,4.087-1.032,5.341-4.422,5.341h-8.381c-3.472,0-4.702-1.425-4.702-5.435v-4.464
	c0-4.01,1.23-5.435,4.702-5.435h7.676c3.398,0,4.916,1.168,4.916,3.804v0.591l0.686-0.685h-1.923l0.685,0.685
	c0-3.768-1.681-3.958-6.559-3.958h-5.293c-2.838,0-4.216,1.354-4.216,4.157v6.146c0,2.803,1.378,4.169,4.216,4.169h7.979
	c2.635,0,3.962-1.249,3.962-3.717v-1.658v-0.682h-0.685h-7.719l0.688,0.682v-1.795l-0.688,0.686h9.758l-0.681-0.686V539.602z
	 M900.546,536.659h-9.758h-0.689v0.688v1.795v0.688h0.689h7.719l-0.682-0.688v1.658c0,1.686-0.735,2.335-2.596,2.335h-7.979
	c-1.752,0-2.846-0.463-2.846-2.787v-6.146c0-2.32,1.094-2.783,2.846-2.783h5.293c5.188,0,5.188,0.292,5.188,2.584v0.689h0.686h1.923
	h0.685v-0.689v-0.591c0-3.434-2.113-5.173-6.286-5.173h-7.676c-4.258,0-6.072,2.027-6.072,6.804v4.464
	c0,4.769,1.814,6.809,6.072,6.809h8.381c4.169,0,5.788-1.884,5.788-6.715v-2.254v-0.688H900.546z"/>
<polygon points="916.354,538.539 907.728,529.1 910.476,529.1 917.385,536.694 924.271,529.1 927.026,529.1 918.396,538.539 
	918.396,545.444 916.354,545.444 "/>
<path d="M916.863,538.076l-8.634-9.436l-0.502,1.148h2.748l-0.51-0.226l6.905,7.594l0.514,0.557l0.51-0.557l6.886-7.594l-0.51,0.226
	h2.756l-0.51-1.148l-8.622,9.436l-0.183,0.194v0.269v6.905l0.685-0.686h-2.043l0.688,0.686v-6.905v-0.269L916.863,538.076z
	 M916.354,546.133h2.043h0.689v-0.688v-6.905l-0.18,0.463l8.622-9.438l1.051-1.152h-1.553h-2.756h-0.304l-0.206,0.229l-6.89,7.586
	h1.02l-6.913-7.586l-0.198-0.229h-0.304h-2.748h-1.561l1.055,1.152l8.629,9.438l-0.183-0.463v6.905v0.688H916.354z"/>
<polyline fill="none" points="1091.309,637.009 1091.309,389.705 524.38,389.705 524.38,637.009 "/>
</svg>
