<?xml version="1.0" standalone="no"?>
<!DOCTYPE svg PUBLIC "-//W3C//DTD SVG 20010904//EN"
 "http://www.w3.org/TR/2001/REC-SVG-20010904/DTD/svg10.dtd">
<svg version="1.0" xmlns="http://www.w3.org/2000/svg"
 width="593.000000pt" height="777.000000pt" viewBox="0 0 593.000000 777.000000"
 preserveAspectRatio="xMidYMid meet">
<metadata>
Created by potrace 1.15, written by Peter Selinger 2001-2017
</metadata>
<g transform="translate(0.000000,777.000000) scale(0.100000,-0.100000)"
fill="#01579B" stroke="none">
<path d="M372 7679 c-118 -20 -230 -109 -274 -217 l-23 -57 0 -3075 0 -3075
22 -55 c29 -71 69 -119 135 -162 103 -66 17 -62 1325 -66 l1193 -3 2 -425 3
-425 225 192 c124 106 299 256 390 333 90 78 176 151 190 163 l26 22 151 -127
c409 -345 693 -582 698 -582 3 0 5 191 5 424 l0 425 548 4 c432 2 555 6 587
17 101 35 193 122 233 221 16 41 17 177 17 2279 0 2135 -1 2239 -18 2313 -11
44 -34 118 -54 165 -73 184 -75 186 -737 850 -336 337 -638 635 -671 661 -74
58 -146 98 -250 139 -182 72 -20 66 -1940 68 -977 1 -1753 -2 -1783 -7z m3060
-1286 c4 -911 -1 -852 73 -953 39 -53 118 -110 180 -131 32 -10 211 -14 853
-17 l812 -3 0 -1919 0 -1920 -455 0 -455 0 0 210 0 209 -42 11 c-24 6 -50 13
-58 16 -12 3 -32 -34 -80 -151 -40 -94 -71 -157 -82 -160 -9 -3 -124 38 -255
91 l-240 96 -226 -132 c-160 -93 -230 -129 -241 -123 -14 8 -39 47 -196 301
-35 56 -68 102 -73 102 -5 0 -52 -23 -103 -52 l-94 -52 0 -183 0 -183 -1100 0
-1100 0 0 2880 0 2880 1440 0 1439 0 3 -817z m568 751 c31 -16 231 -209 657
-636 484 -485 617 -624 637 -665 14 -29 26 -57 26 -63 0 -7 -227 -10 -705 -10
l-705 0 0 706 0 705 23 -7 c12 -3 42 -17 67 -30z"/>
<path d="M3711 4488 l-204 -121 -218 87 c-131 53 -228 86 -244 84 -24 -3 -35
-22 -121 -217 -51 -118 -99 -220 -106 -227 -7 -6 -98 -32 -203 -58 -269 -67
-264 -65 -275 -86 -8 -14 0 -64 29 -197 22 -98 44 -204 51 -235 l11 -58 -155
-186 c-86 -102 -156 -194 -156 -204 0 -16 64 -77 331 -315 l36 -32 -13 -179
c-18 -251 -20 -312 -8 -324 6 -6 118 -22 250 -35 149 -16 242 -30 250 -37 6
-7 62 -94 124 -193 124 -198 136 -215 158 -215 8 0 109 54 223 121 l209 121
226 -91 c250 -100 253 -100 281 -33 30 71 175 397 178 400 2 2 107 30 233 61
126 32 234 61 240 65 7 4 12 18 12 31 0 21 -84 431 -94 461 -2 6 65 93 150
194 113 134 154 191 154 210 0 21 -33 55 -181 185 l-181 160 6 70 c25 304 29
417 15 431 -10 10 -88 22 -254 39 -131 14 -240 27 -242 29 -2 2 -61 95 -132
207 -106 170 -131 204 -152 206 -15 1 -100 -43 -228 -119z m104 -473 c94 -26
254 -108 327 -169 148 -123 258 -301 299 -486 27 -122 22 -306 -10 -415 -86
-288 -295 -505 -574 -597 -99 -32 -106 -33 -267 -33 -158 1 -169 2 -260 33
-245 81 -442 263 -540 498 -103 249 -81 541 62 782 47 80 180 215 267 273 81
53 199 103 296 125 80 18 318 12 400 -11z"/>
<path d="M3455 3886 c-155 -31 -259 -87 -375 -205 -94 -95 -142 -174 -182
-301 -33 -108 -33 -302 0 -410 63 -201 190 -354 367 -441 364 -178 797 -38
971 316 24 50 51 119 61 155 19 77 22 261 4 335 -65 268 -263 473 -523 541
-85 22 -239 26 -323 10z m555 -381 c31 -16 48 -54 34 -77 -14 -23 -568 -668
-574 -667 -3 0 -70 74 -150 165 -160 182 -172 205 -123 244 38 30 65 22 164
-49 46 -33 93 -61 104 -61 12 0 104 84 250 230 127 127 239 230 248 230 10 0
31 -7 47 -15z"/>
</g>
</svg>
