<?xml version="1.0" encoding="iso-8859-1"?>
<!DOCTYPE svg PUBLIC "-//W3C//DTD SVG 1.1//EN" "http://www.w3.org/Graphics/SVG/1.1/DTD/svg11.dtd">
<svg version="1.1" id="Capa_1" xmlns="http://www.w3.org/2000/svg" xmlns:xlink="http://www.w3.org/1999/xlink" x="0px" y="0px"
	 viewBox="0 0 207.103 207.103" height="64px" width="64px" style="enable-background:new 0 0 207.103 207.103;" xml:space="preserve">
<g>
	<path d="M113.998,150.959l5.528-12.636h3.218c8.801,0,15.96-7.159,15.96-15.959V28.527c0-2.761-2.238-5-5-5h-25.152v-5.98
		c0-1.649-0.809-3.1-2.041-4.011C106.092,6.004,99.849,0,92.215,0c-7.905,0-14.337,6.432-14.337,14.337c0,1.657,1.343,3,3,3
		s3-1.343,3-3C83.878,9.74,87.618,6,92.215,6c4.348,0,7.925,3.347,8.3,7.6c-1.186,0.914-1.963,2.334-1.963,3.947v5.98H73.399
		c-2.762,0-5,2.239-5,5v93.837c0,8.8,7.159,15.959,15.96,15.959h3.218l5.528,12.636c0.478,1.092,1.557,1.797,2.748,1.797h4.713
		c0.315,22.19,12.37,42.799,31.633,53.943c0.473,0.274,0.989,0.404,1.499,0.404c1.036,0,2.044-0.537,2.6-1.498
		c0.83-1.434,0.34-3.27-1.095-4.099c-17.415-10.076-28.323-28.694-28.637-48.75h4.683
		C112.441,152.756,113.52,152.051,113.998,150.959z M128.704,33.527v15.159H78.399V33.527H128.704z M78.399,122.364V54.686h50.305
		v67.678c0,3.286-2.674,5.959-5.96,5.959H84.359C81.073,128.323,78.399,125.65,78.399,122.364z M97.815,146.756l-3.363-7.687h18.199
		l-3.363,7.687H97.815z"/>
</g>
</svg>
