<?xml version="1.0" encoding="utf-8"?>
<!DOCTYPE svg PUBLIC "-//W3C//DTD SVG 1.1//EN" "http://www.w3.org/Graphics/SVG/1.1/DTD/svg11.dtd">
<svg width="200" height="80" xmlns="http://www.w3.org/2000/svg">
  <g>
    <title>Phi Logo</title>
    <path stroke="null" d="m65.148724,71.830348l-0.022012,-0.009783l-0.022012,-0.22501l-0.01549,-0.057068l0.005707,-0.041578l-0.005707,-0.028534c-0.057068,-0.583722 -0.114951,-1.367995 -0.114951,-2.296569c0,-3.154216 0.618777,-8.06938 3.675163,-13.141072c1.656595,-2.925945 4.24584,-5.689654 7.438373,-7.869642c2.602289,-1.780514 5.617097,-3.172967 8.856915,-3.922185c-0.298383,-0.117397 -0.586983,-0.251098 -0.878843,-0.380723c-0.171203,-0.076634 -0.342406,-0.143485 -0.514425,-0.221749c-0.555188,-0.256805 -1.107114,-0.536437 -1.650073,-0.832374c-0.196476,-0.110874 -0.390506,-0.231532 -0.586983,-0.342406c-0.342406,-0.199737 -0.681552,-0.399474 -1.018252,-0.615516c-0.251098,-0.162235 -0.492413,-0.326917 -0.736174,-0.494859c-0.130441,-0.088863 -0.266588,-0.171203 -0.396213,-0.266588c-0.199737,-0.142669 -0.390506,-0.291861 -0.586983,-0.437791c-0.158974,-0.119842 -0.310612,-0.241315 -0.466325,-0.357896c-0.374201,-0.301644 -0.736174,-0.60981 -1.098147,-0.930204c-0.133702,-0.120658 -0.27311,-0.241315 -0.402735,-0.365234c-0.377462,-0.348929 -0.736174,-0.710086 -1.091624,-1.085102c-0.126364,-0.132886 -0.253544,-0.269849 -0.377462,-0.405996c-0.342406,-0.383984 -0.675845,-0.773676 -0.99624,-1.180487c-0.104352,-0.132886 -0.206259,-0.269034 -0.308166,-0.402735c-0.282078,-0.374201 -0.555188,-0.758186 -0.811993,-1.155214c-0.0481,-0.069297 -0.098646,-0.132886 -0.14593,-0.202998c-0.380723,-0.548666 -0.727206,-1.110375 -1.053308,-1.678607c-0.040763,-0.066851 -0.072558,-0.130441 -0.107613,-0.196476c-0.285339,-0.507903 -0.551927,-1.022328 -0.798948,-1.543275c-0.028534,-0.062775 -0.057068,-0.129625 -0.088863,-0.193215c-2.395215,-5.190719 -2.776754,-10.807816 -1.932151,-15.440902c0,-0.006522 0.003261,-0.016305 0.003261,-0.018751c0.050546,-0.275556 0.107613,-0.548666 0.164681,-0.818515c0.031795,-0.14593 0.066851,-0.295122 0.101907,-0.441052c0.051361,-0.20952 0.104352,-0.415779 0.158974,-0.618777c0.057068,-0.216042 0.117397,-0.424747 0.184247,-0.631006c0.044839,-0.153268 0.088863,-0.304905 0.139408,-0.454096c0.104352,-0.326917 0.219303,-0.647311 0.342406,-0.958738c0.009783,-0.028534 0.018751,-0.060329 0.028534,-0.088863c0.005707,-0.013044 0.012229,-0.025273 0.022012,-0.044024c0.190769,-0.526654 0.393767,-1.032111 0.606549,-1.517187c0.098646,-0.221749 0.199737,-0.43453 0.301644,-0.650572c0.120658,-0.251098 0.238054,-0.504642 0.361973,-0.741881c0.12718,-0.251098 0.254359,-0.489152 0.383984,-0.720684c0.095385,-0.177725 0.19403,-0.349744 0.291861,-0.517686c0.14593,-0.247837 0.2886,-0.492413 0.43453,-0.720684c0.07908,-0.123103 0.155713,-0.241315 0.234793,-0.357896c0.158159,-0.244576 0.317134,-0.485891 0.472847,-0.704379c0.047285,-0.06359 0.088863,-0.117397 0.129625,-0.180986c0.358712,-0.492413 0.704379,-0.942433 1.034557,-1.33294c0.028534,-0.038317 0.060329,-0.076634 0.092124,-0.11169c0.092124,-0.114135 0.180986,-0.20952 0.269849,-0.313873c0.092124,-0.101907 0.186693,-0.216042 0.276371,-0.314688c0.034241,-0.038317 0.066851,-0.073373 0.101907,-0.110874c0.069297,-0.076634 0.130441,-0.140224 0.196476,-0.20952c0.14593,-0.158974 0.285339,-0.304905 0.409257,-0.435345l-5.902436,0c-3.985775,0 -7.247604,3.265906 -7.247604,7.25168l0,60.517901c0,2.569679 1.36718,4.82304 3.397977,6.10788c-0.41904,-1.643551 -0.580461,-2.982197 -0.666062,-3.835768c-0.030164,-0.302459 -0.052176,-0.543774 -0.074188,-0.705194m37.194312,-30.298898c0.278817,-0.110874 0.545405,-0.221749 0.803025,-0.335884c0.132886,-0.057068 0.256805,-0.114951 0.383984,-0.172018c0.12718,-0.056252 0.256805,-0.117397 0.380723,-0.174464c0.114135,-0.057068 0.221749,-0.110874 0.3367,-0.164681c0.120658,-0.06359 0.244576,-0.120658 0.361157,-0.184247c0.108429,-0.053807 0.20952,-0.11169 0.314688,-0.165496c0.101907,-0.052991 0.202998,-0.110874 0.298383,-0.16142c0.114135,-0.06359 0.221749,-0.123103 0.326917,-0.186693c0.107613,-0.060329 0.212781,-0.119842 0.310612,-0.177725c0.06359,-0.035056 0.117397,-0.070112 0.174464,-0.108429c0.123919,-0.072558 0.247837,-0.149191 0.355451,-0.216042c0.009783,-0.003261 0.018751,-0.009783 0.028534,-0.016305c0.286154,-0.180986 0.520947,-0.335884 0.697857,-0.457357c2.659357,-1.770731 4.93473,-4.095834 6.682633,-6.790247c0.022012,-0.031795 0.044839,-0.060329 0.06359,-0.095385c0.3367,-0.524208 0.653833,-1.056569 0.945694,-1.602788c0.018751,-0.035056 0.035056,-0.069297 0.057068,-0.101091c0.247837,-0.476108 0.481815,-0.955477 0.701118,-1.447075c0.060329,-0.136147 0.123919,-0.269849 0.180986,-0.405996c0.221749,-0.517686 0.428008,-1.040264 0.612255,-1.574255c0.008968,-0.025273 0.018751,-0.0481 0.028534,-0.070112l0,-0.006522l0.003261,-0.006522c0.022012,-0.059514 0.035056,-0.119842 0.053807,-0.180986c0.180986,-0.501381 0.342406,-1.018252 0.478554,-1.548166c0.051361,-0.196476 0.083156,-0.409257 0.133702,-0.612255c0.088863,-0.422301 0.180986,-0.840526 0.251098,-1.272611c0.027719,-0.19403 0.047285,-0.397028 0.072558,-0.59432c0.057068,-0.457357 0.11169,-0.91716 0.140224,-1.383485c0.012229,-0.189954 0.01549,-0.377462 0.021197,-0.570677c0.076634,-1.917476 -0.066036,-3.89039 -0.45002,-5.838846c0,-0.003261 0,-0.003261 -0.003261,-0.006522c-0.133702,-0.682367 -0.298383,-1.358212 -0.492413,-2.027536c-0.006522,-0.031795 -0.01549,-0.060329 -0.025273,-0.092124c-0.190769,-0.657094 -0.406812,-1.307667 -0.653833,-1.948456c-1.957424,0.730467 -3.759949,1.707956 -5.261646,2.852572c-0.459803,0.330178 -0.900855,0.672584 -1.33294,1.02885c-0.050546,0.038317 -0.098646,0.079895 -0.14593,0.119842c-0.406812,0.3367 -0.793242,0.695411 -1.173965,1.057384c-0.057068,0.056252 -0.117397,0.110874 -0.174464,0.167942c-0.374201,0.367679 -0.736174,0.751664 -1.082657,1.148692c-0.040763,0.047285 -0.082341,0.088047 -0.120658,0.132886c-1.941934,2.237056 -3.449338,4.864618 -4.499384,7.863936c-0.212781,0.599211 -0.397028,1.20576 -0.56171,1.821276c-0.003261,0.013044 -0.006522,0.022012 -0.009783,0.035056c-0.155713,0.602472 -0.2886,1.217989 -0.397028,1.83432c-0.003261,0.021197 -0.006522,0.037502 -0.009783,0.056252c-0.101907,0.60981 -0.184247,1.225326 -0.2405,1.840843c-0.006522,0.041578 -0.009783,0.083156 -0.013044,0.120658c-0.276371,3.15014 0.075819,6.368761 1.053308,9.433299c0.009783,0.028534 0.016305,0.060329 0.025273,0.092124l0.003261,0.009783l0,0.009783c0.107613,0.347298 0.231532,0.703564 0.367679,1.071243m-1.110375,4.335518c-0.110874,-0.196476 -0.219303,-0.3848 -0.317949,-0.574754c-0.171203,0.0481 -0.390506,0.105168 -0.634267,0.168757c0.320395,0.126364 0.640789,0.259251 0.952216,0.405996m-26.075069,-40.91676c-0.105168,0.132886 -0.203813,0.269034 -0.308166,0.415779c-0.098646,0.132886 -0.196476,0.282078 -0.295122,0.428008c-0.107613,0.154898 -0.216042,0.310612 -0.323656,0.476108c-0.101907,0.16142 -0.202998,0.329362 -0.307351,0.497305c-0.107613,0.17528 -0.212781,0.349744 -0.32121,0.529915c-0.114135,0.196476 -0.228271,0.412518 -0.342406,0.618777c-0.092124,0.177725 -0.186693,0.343222 -0.282078,0.524208c-0.202998,0.402735 -0.409257,0.818515 -0.60981,1.266089l-0.006522,0.016305c-0.158159,0.32121 -0.307351,0.657094 -0.447574,1.002762c-0.066851,0.164681 -0.129625,0.348929 -0.193215,0.520132c-0.069297,0.185063 -0.139408,0.365234 -0.206259,0.552742c-0.075819,0.238054 -0.149191,0.485891 -0.221749,0.732913c-0.044839,0.139408 -0.085602,0.272295 -0.123919,0.412518c-0.072558,0.263327 -0.136147,0.532361 -0.199737,0.805471c-0.031795,0.136963 -0.069297,0.269849 -0.098646,0.412518c-0.057068,0.254359 -0.104352,0.526654 -0.152452,0.790796c-0.031795,0.164681 -0.06359,0.32284 -0.088863,0.489152c-0.038317,0.244576 -0.069297,0.494044 -0.101907,0.741881c-0.025273,0.196476 -0.053807,0.393767 -0.072558,0.596766c-0.025273,0.22501 -0.041578,0.450835 -0.057068,0.679106c-0.018751,0.234793 -0.038317,0.463064 -0.0481,0.697042c-0.012229,0.216857 -0.012229,0.428823 -0.018751,0.644866c-0.003261,0.253544 -0.013044,0.503827 -0.009783,0.761447c0,0.231532 0.013044,0.469586 0.018751,0.70764c0.008968,0.256805 0.012229,0.511164 0.031795,0.762262c0.013044,0.212781 0.035056,0.428008 0.053807,0.637528c0.028534,0.286154 0.050546,0.567416 0.085602,0.85357c0.022012,0.184247 0.053807,0.367679 0.085602,0.552742c0.044839,0.317134 0.088863,0.62856 0.152452,0.941618c0.028534,0.158974 0.066851,0.317949 0.101907,0.472847c0.069297,0.339961 0.139408,0.679106 0.228271,1.019067c0.035056,0.132886 0.082341,0.269034 0.117397,0.405996c0.101907,0.357896 0.199737,0.717423 0.317134,1.072058c0.041578,0.119842 0.092124,0.244576 0.133702,0.364418c0.12718,0.368495 0.256805,0.730467 0.405996,1.09244c0.057068,0.136147 0.120658,0.269034 0.184247,0.402735c0.149191,0.345668 0.298383,0.69215 0.466325,1.031296c0.136147,0.276371 0.295122,0.549481 0.444313,0.818515c0.107613,0.19403 0.206259,0.393767 0.320395,0.581276l0.006522,0.009783c0.066851,0.126364 0.14593,0.241315 0.219303,0.364418c0.193215,0.346483 0.392952,0.69215 0.608994,1.022328c0.14593,0.22501 0.307351,0.437791 0.459803,0.653833c0.155713,0.216042 0.304905,0.43453 0.463064,0.64405c0.202998,0.266588 0.422301,0.520947 0.637528,0.773676c0.123919,0.150007 0.241315,0.298383 0.371756,0.441052c0.234793,0.263327 0.48263,0.514425 0.729652,0.764708c0.123919,0.119842 0.238054,0.254359 0.365234,0.374201c0.238054,0.231532 0.485891,0.454096 0.736174,0.669323c0.149191,0.133702 0.295122,0.269849 0.447574,0.400289c0.212781,0.184247 0.43453,0.35219 0.653833,0.523393c0.199737,0.158974 0.402735,0.32121 0.605733,0.476108c0.168757,0.118212 0.333439,0.228271 0.501381,0.343222c0.275556,0.196476 0.555188,0.390506 0.837265,0.570677c0.092124,0.060329 0.187508,0.11169 0.27311,0.167942c3.02133,1.866115 6.323922,3.027852 9.377046,3.443631c0.044839,0.006522 0.088863,0.009783 0.139408,0.016305c0.374201,0.051361 0.748403,0.088047 1.120158,0.114135c0.304905,0.018751 0.606549,0.028534 0.907377,0.031795c0.120658,0.003261 0.244576,0.013044 0.365234,0.013044l0.07908,0c0.034241,0 0.066851,0 0.104352,0c0.333439,0.009783 0.662801,0 0.999501,-0.006522c0.244576,-0.006522 0.488337,-0.009783 0.72313,-0.022012c0.311427,-0.016305 0.618777,-0.041578 0.930204,-0.069297c0.168757,-0.018751 0.342406,-0.031795 0.507903,-0.051361c0.412518,-0.0481 0.821776,-0.11169 1.227772,-0.180986c0.06359,-0.009783 0.133702,-0.016305 0.196476,-0.028534c0.494859,-0.092124 0.986457,-0.196476 1.472348,-0.32121c-0.133702,-0.332623 -0.254359,-0.672584 -0.368495,-1.014991c-0.152452,-0.41904 -0.285339,-0.838081 -0.412518,-1.250599c-0.053807,-0.174464 -0.095385,-0.342406 -0.14593,-0.51361c-0.06359,-0.234793 -0.130441,-0.469586 -0.189954,-0.701118c-0.053807,-0.219303 -0.101907,-0.431269 -0.149191,-0.64405c-0.041578,-0.178541 -0.082341,-0.361973 -0.120658,-0.536437c-0.044839,-0.241315 -0.085602,-0.479369 -0.130441,-0.714162c-0.025273,-0.142669 -0.050546,-0.286154 -0.069297,-0.431269c-0.044839,-0.254359 -0.07908,-0.507903 -0.110874,-0.762262c-0.013044,-0.114135 -0.025273,-0.22501 -0.041578,-0.335884c-0.028534,-0.269849 -0.057068,-0.539698 -0.075819,-0.802209c-0.006522,-0.083156 -0.013044,-0.168757 -0.018751,-0.251098c-0.022012,-0.286154 -0.038317,-0.56171 -0.050546,-0.838081c-0.003261,-0.050546 -0.003261,-0.101091 -0.006522,-0.154898c-0.009783,-0.301644 -0.016305,-0.59595 -0.016305,-0.885365l0,-0.003261l0,-0.006522c0,-0.405996 0.009783,-0.798948 0.028534,-1.183748c0,-0.017936 0,-0.037502 0,-0.062775c0.022012,-0.361973 0.044839,-0.720684 0.076634,-1.067167c0,-0.024458 0.003261,-0.047285 0.006522,-0.069297c0.028534,-0.343222 0.066851,-0.672584 0.107613,-0.990533c0.003261,-0.018751 0.006522,-0.041578 0.006522,-0.060329c0.040763,-0.320395 0.092124,-0.634267 0.142669,-0.938357c0,-0.006522 0,-0.013044 0.003261,-0.022012c0.101091,-0.596766 0.219303,-1.155214 0.335884,-1.659856c0.009783,-0.025273 0.016305,-0.0481 0.022012,-0.075819c0.051361,-0.210335 0.098646,-0.413334 0.152452,-0.600027c0.009783,-0.028534 0.016305,-0.051361 0.022012,-0.082341c0.047285,-0.168757 0.095385,-0.333439 0.139408,-0.489152c0.034241,-0.130441 0.085602,-0.291861 0.139408,-0.469586c0.009783,-0.038317 0.025273,-0.083156 0.038317,-0.123919c0.038317,-0.117397 0.075819,-0.231532 0.117397,-0.361157c0.037502,-0.110874 0.082341,-0.231532 0.12718,-0.35219c0.022012,-0.073373 0.047285,-0.140224 0.075819,-0.216042c0.057068,-0.158974 0.123919,-0.326917 0.189954,-0.49812c0.018751,-0.051361 0.038317,-0.095385 0.060329,-0.146746c0.075819,-0.196476 0.164681,-0.396213 0.250283,-0.605733c0.022012,-0.038317 0.035056,-0.076634 0.053807,-0.117397c0.092124,-0.216042 0.196476,-0.441052 0.307351,-0.672584c0.018751,-0.038317 0.038317,-0.079895 0.060329,-0.123919c0.107613,-0.221749 0.22501,-0.454096 0.345668,-0.69215c0.028534,-0.052991 0.060329,-0.107613 0.088863,-0.164681c0.117397,-0.22501 0.244576,-0.447574 0.371756,-0.679106c0.044024,-0.073373 0.085602,-0.149191 0.129625,-0.228271c0.041578,-0.066851 0.073373,-0.129625 0.110874,-0.193215c0.095385,-0.16142 0.203813,-0.326917 0.301644,-0.492413c0.050546,-0.076634 0.095385,-0.152452 0.142669,-0.228271c0.155713,-0.241315 0.320395,-0.485891 0.489152,-0.732913c0.051361,-0.069297 0.095385,-0.142669 0.14593,-0.212781c0.164681,-0.241315 0.345668,-0.485076 0.526654,-0.729652c0.066851,-0.083156 0.123919,-0.165496 0.189954,-0.251098c0.171203,-0.221749 0.355451,-0.447574 0.539698,-0.672584c0.085602,-0.101907 0.168757,-0.206259 0.254359,-0.314688c0.174464,-0.196476 0.355451,-0.396213 0.533176,-0.593505c0.117397,-0.130441 0.228271,-0.260066 0.348929,-0.390506c0.158974,-0.165496 0.326917,-0.333439 0.489152,-0.49812c0.16142,-0.158159 0.310612,-0.317949 0.476108,-0.472847c0.12718,-0.120658 0.266588,-0.241315 0.396213,-0.361157c0.551927,-0.507903 1.129941,-1.006023 1.760948,-1.495175c0.457357,-0.374201 0.948955,-0.732913 1.460119,-1.07858c0.044839,-0.031795 0.088863,-0.06359 0.139408,-0.098646c0.485891,-0.32284 0.99624,-0.631006 1.523709,-0.926128c0.075819,-0.041578 0.149191,-0.085602 0.22501,-0.12718c0.529915,-0.2886 1.079396,-0.558449 1.637844,-0.811993c0.066851,-0.028534 0.136147,-0.060329 0.202998,-0.088863c0.574754,-0.254359 1.164997,-0.492413 1.764209,-0.701118c0.028534,-0.009783 0.053807,-0.022012 0.083156,-0.035056c-1.037818,-1.963946 -2.377279,-3.795005 -4.017569,-5.383934l-0.438606,-0.432084l-32.995757,0l-0.422301,0.425562c-0.189954,0.193215 -0.450835,0.462249 -0.742696,0.793242c-0.044839,0.051361 -0.083156,0.095385 -0.12718,0.142669c-0.101907,0.118212 -0.212781,0.254359 -0.323656,0.388061c-0.083156,0.104352 -0.171203,0.212781 -0.260066,0.32284c-0.088047,0.119027 -0.185878,0.251913 -0.284523,0.382354m35.921702,53.929837c-0.276371,-0.552742 -0.574754,-1.094886 -0.891887,-1.628061c-0.013044,-0.022012 -0.022012,-0.041578 -0.035056,-0.06359l0,-0.003261l0,-0.003261l-0.009783,-0.006522c-0.107613,-0.186693 -0.231532,-0.374201 -0.35219,-0.564155c-0.120658,-0.193215 -0.238054,-0.393767 -0.368495,-0.584537c-0.132886,-0.196476 -0.278817,-0.387245 -0.41904,-0.5772c-0.142669,-0.193215 -0.278817,-0.383984 -0.424747,-0.574754c-0.152452,-0.186693 -0.313873,-0.374201 -0.472847,-0.560894c-0.164681,-0.186693 -0.323656,-0.380723 -0.494859,-0.564155c-0.162235,-0.17528 -0.330178,-0.353005 -0.504642,-0.524208c-0.180986,-0.189954 -0.371756,-0.377462 -0.564971,-0.56171c-1.310112,-1.246523 -2.808548,-2.392769 -4.4521,-3.363736c-2.998503,-1.770731 -6.460884,-2.969969 -10.062675,-3.278135c-0.038317,-0.006522 -0.075819,-0.009783 -0.110874,-0.013044c-0.56171,-0.044839 -1.129941,-0.073373 -1.700619,-0.073373c-0.847048,0 -1.700619,0.053807 -2.554189,0.162235l-0.016305,0l-0.013044,0c-3.55369,0.300829 -6.828564,1.484577 -9.665646,3.191718c-2.836267,1.711217 -5.235558,3.935229 -7.022594,6.283159c-1.189455,1.567733 -2.106615,3.192533 -2.706642,4.747221l-0.003261,0.009783l-0.003261,0.009783c-1.722631,4.052625 -1.970468,7.444895 -1.970468,9.351773c0,0.596766 0.022012,1.050862 0.038317,1.341907c0.003261,0.088863 0.006522,0.165496 0.006522,0.234793c0.008968,0.031795 0.008968,0.051361 0.012229,0.066851c0.003261,0.041578 0.006522,0.070112 0.013044,0.107613c0.003261,0.073373 0.009783,0.172018 0.018751,0.298383c0.022012,0.251098 0.057068,0.608994 0.120658,1.07858c0.133702,0.930204 0.390506,2.268851 0.920421,3.8749l0.14593,0.43453c0.697857,0.221749 1.425063,0.377462 2.198739,0.377462l42.503244,0c0.590244,-1.716109 0.99624,-3.5382 1.209021,-5.454046c0.072558,-0.637528 0.114135,-1.275872 0.129625,-1.919922c0.003261,0 0.003261,-0.003261 0.003261,-0.006522c0.098646,-3.848812 -0.764708,-7.726973 -2.491415,-11.224411c-0.002446,-0.008153 -0.004892,-0.014675 -0.008153,-0.021197m22.602905,-47.691517l-0.025273,-0.009783c-2.871323,-1.316634 -5.997005,-1.910954 -9.087631,-1.910954c-2.094386,0 -4.169207,0.282893 -6.133968,0.774491c1.200053,3.045787 1.47887,5.25757 1.488653,5.330943c0.018751,0.110874 0.031795,0.228271 0.051361,0.345668c0.062775,0.358712 0.117397,0.710901 0.164681,1.070428c0.018751,0.158159 0.038317,0.313873 0.053807,0.475293c0.040763,0.365234 0.072558,0.732913 0.101091,1.102223c0.013044,0.132886 0.022012,0.265773 0.028534,0.399474c0.028534,0.476108 0.044839,0.955477 0.0481,1.424248c0,0.018751 0,0.038317 0,0.057068c0,0.022012 0,0.044839 0,0.066851c0,0.110874 -0.009783,0.219303 -0.009783,0.326101c-0.006522,0.485891 -0.022012,0.970967 -0.053807,1.447075c-0.013044,0.206259 -0.035056,0.402735 -0.053807,0.608994c-0.038317,0.405996 -0.082341,0.812808 -0.139408,1.212282c-0.028534,0.193215 -0.057068,0.387245 -0.088863,0.580461c-0.069297,0.424747 -0.152452,0.840526 -0.244576,1.25386c-0.034241,0.152452 -0.066036,0.30409 -0.101091,0.459803c-0.139408,0.555188 -0.291861,1.103853 -0.469586,1.637029c0,0.003261 -0.003261,0.006522 -0.003261,0.013044c-0.038317,0.118212 -0.079895,0.22501 -0.117397,0.343222c-0.108429,0.329362 -0.216857,0.660355 -0.333439,0.979935c-0.06359,0.171203 -0.136147,0.3367 -0.199737,0.507903c-0.105168,0.256805 -0.202998,0.517686 -0.308166,0.767969c-0.062775,0.139408 -0.126364,0.272295 -0.189954,0.412518c-0.119842,0.269849 -0.244576,0.538883 -0.374201,0.802209c-0.0481,0.101907 -0.098646,0.193215 -0.153268,0.295122c-0.14593,0.2886 -0.294307,0.5772 -0.446759,0.85357c-0.035056,0.06359 -0.075819,0.123103 -0.110874,0.189954c-0.171203,0.304905 -0.345668,0.602472 -0.526654,0.891887c-0.018751,0.035056 -0.038317,0.06359 -0.057068,0.092124c-0.199737,0.317134 -0.399474,0.62856 -0.605733,0.923682c-0.003261,0.003261 -0.003261,0.006522 -0.006522,0.009783c-1.076135,1.564472 -2.208522,2.852572 -3.271612,3.889575c-0.006522,0.006522 -0.009783,0.013044 -0.016305,0.018751c-0.189954,0.184247 -0.380723,0.364418 -0.56171,0.533176c-0.038317,0.031795 -0.072558,0.062775 -0.107613,0.09783c-0.149191,0.133702 -0.295122,0.263327 -0.437791,0.388061c-0.07908,0.069297 -0.155713,0.132886 -0.234793,0.199737c-0.092124,0.075819 -0.184247,0.158159 -0.27311,0.231532c-0.16142,0.136147 -0.317134,0.25599 -0.463064,0.37094l-0.006522,0.003261c-0.180986,0.139408 -0.348929,0.27311 -0.49812,0.383984c-0.206259,0.153268 -0.457357,0.3367 -0.732913,0.526654c-0.085602,0.060329 -0.168757,0.117397 -0.260066,0.180986c-0.028534,0.018751 -0.060329,0.038317 -0.088863,0.057068c-1.171519,0.780198 -2.890889,1.764209 -5.131206,2.595767c0.392952,0.69215 1.522894,2.335701 2.215044,3.221067c0.177725,0.216042 0.358712,0.431269 0.545405,0.64405c0.120658,0.136147 0.244576,0.27311 0.365234,0.409257c1.120158,1.228587 2.382986,2.370757 3.769732,3.380041c3.10367,2.262329 6.806552,3.855334 10.798848,4.262146l0.016305,0l0.009783,0.009783c1.025589,0.14593 2.037319,0.219303 3.043341,0.219303c4.696676,0 9.152036,-1.545721 12.730999,-3.798266l0.320395,-0.199737l0,-39.311526l-0.326101,-0.20952c-1.098147,-0.701933 -2.256622,-1.333755 -3.500699,-1.838397m-15.523243,46.926809c-1.698173,-0.345668 -3.326234,-0.875582 -4.867879,-1.561211c2.453098,4.175729 3.370258,8.729735 3.494177,11.256206c0.006522,0.186693 0.009783,0.390506 0.016305,0.583722c0.025273,0.489152 0.037502,0.939172 0.037502,1.348429c0,0.581276 -0.018751,1.085102 -0.047285,1.481316c-0.057068,1.257121 -0.323656,3.545538 -1.215543,6.283159l14.680271,0c3.989036,0 7.250865,-3.261829 7.250865,-7.244343l0,-15.537102c-3.912402,2.436793 -8.812076,4.02083 -13.899258,4.024091c-1.806602,0 -3.640107,-0.202998 -5.449155,-0.634267m12.096732,-55.622304l-16.698023,0c0.168757,0.190769 0.339961,0.378278 0.507903,0.581276c1.231033,1.383485 2.26559,2.884367 3.125682,4.47085c0.022012,0.003261 0.041578,0.013044 0.060329,0.025273c2.116398,-0.529915 4.337149,-0.81933 6.583988,-0.81933c2.81507,0 5.65786,0.447574 8.355534,1.456858c1.919107,0.634267 3.689838,1.516372 5.315453,2.551744l0,-1.015806c-0.000815,-3.984959 -3.262645,-7.250865 -7.250865,-7.250865" id="svg_6">
      <!--animateTransform attributeType="xml"
                        attributeName="transform"
                        type="rotate"
                        from="0 100 40"
                        to="360 100 40"
                        dur="20s"
                        repeatCount="indefinite"/-->

    </path>
  </g>
</svg>
