<svg width="410" height="130" xmlns="http://www.w3.org/2000/svg">

 <g>
  <title>background</title>
  <rect fill="none" id="canvas_background" height="132" width="412" y="-1" x="-1"/>
 </g>
 <g>
  <title>Layer 1</title>
  <path id="svg_3" d="m125.486,44.844c0,-6.52 5.336,-11.852 11.853,-11.852l55.665,0c6.52,0 17.146,0.661 23.615,1.471c0,0 15.11,1.884 10.957,22.137c-0.49,2.417 -2.18,10.548 -2.713,12.657c-3.675,14.784 -9.108,22.223 -31.155,22.223l-44.782,0c-6.523,0 -11.961,5.328 -12.094,11.852l-0.226,10.849c-0.132,6.516 -2.689,11.849 -5.683,11.849c-2.989,0 -5.438,-5.333 -5.438,-11.849l0,-69.337l0.001,0zm89.849,10.56c1.856,-10.304 -3.838,-12.825 -14.951,-12.825l-50.235,0c-6.52,0 -11.984,5.332 -12.148,11.848l-0.393,15.609c-0.164,6.52 5.04,11.848 11.557,11.848l34.588,0c6.516,0 15.355,-0.751 19.633,-1.677c4.282,-0.919 10.35,-15.916 11.506,-22.331l0.443,-2.472z"/>
  <path id="svg_4" d="m252.46,16.328c1.495,-6.349 5.435,-11.541 8.755,-11.541c3.319,0 4.701,5.165 3.074,11.479l-3.413,13.246c-1.627,6.31 -2.9,11.475 -2.826,11.475c0.07,0 4.484,-3.078 9.805,-6.851c0,0 6.57,-4.659 20.914,-4.659l4.64,0c6.517,0 16.812,1.962 22.872,4.355c0,0 13.554,5.356 9.187,16.384l-12.024,30.321c-2.401,6.064 -6.655,11.023 -9.45,11.023c-2.799,0 -3.212,-4.994 -0.927,-11.101l6.228,-16.633c2.285,-6.107 5.139,-16.344 6.341,-22.747c0,0 0.604,-3.207 -21.424,-3.207c-1.596,0 -8.189,0.712 -14.65,1.584c0,0 -22.012,2.97 -25.722,17.345l-5.998,23.28c-1.631,6.313 -5.243,11.479 -8.041,11.479c-2.795,0 -3.857,-5.196 -2.359,-11.537l15.018,-63.695z"/>
  <path id="svg_5" d="m359.132,10.424c1.37,-3.103 5.2,-5.637 8.521,-5.637s4.861,2.534 3.425,5.637c-1.432,3.102 -5.262,5.636 -8.517,5.636c-3.254,0 -4.795,-2.535 -3.429,-5.636m-13.285,30.995c2.456,-6.041 7.054,-10.98 10.218,-10.98c3.165,0 3.515,4.842 0.774,10.755l-18.321,39.608c-2.736,5.917 -6.796,10.759 -9.015,10.759c-2.223,0 -2.028,-4.939 0.424,-10.98l15.92,-39.162z"/>
  <path id="svg_6" d="m7.227,117.784l-0.027,-0.012l-0.027,-0.276l-0.019,-0.07l0.007,-0.051l-0.007,-0.035c-0.07,-0.716 -0.141,-1.678 -0.141,-2.817c0,-3.869 0.759,-9.898 4.508,-16.119c2.032,-3.589 5.208,-6.979 9.124,-9.653c3.192,-2.184 6.89,-3.892 10.864,-4.811c-0.366,-0.144 -0.72,-0.308 -1.078,-0.467c-0.21,-0.094 -0.42,-0.176 -0.631,-0.272c-0.681,-0.315 -1.358,-0.658 -2.024,-1.021c-0.241,-0.136 -0.479,-0.284 -0.72,-0.42c-0.42,-0.245 -0.836,-0.49 -1.249,-0.755c-0.308,-0.199 -0.604,-0.401 -0.903,-0.607c-0.16,-0.109 -0.327,-0.21 -0.486,-0.327c-0.245,-0.175 -0.479,-0.358 -0.72,-0.537c-0.195,-0.147 -0.381,-0.296 -0.572,-0.439c-0.459,-0.37 -0.903,-0.748 -1.347,-1.141c-0.164,-0.148 -0.335,-0.296 -0.494,-0.448c-0.463,-0.428 -0.903,-0.871 -1.339,-1.331c-0.155,-0.163 -0.311,-0.331 -0.463,-0.498c-0.42,-0.471 -0.829,-0.949 -1.222,-1.448c-0.128,-0.163 -0.253,-0.33 -0.378,-0.494c-0.346,-0.459 -0.681,-0.93 -0.996,-1.417c-0.059,-0.085 -0.121,-0.163 -0.179,-0.249c-0.467,-0.673 -0.892,-1.362 -1.292,-2.059c-0.05,-0.082 -0.089,-0.16 -0.132,-0.241c-0.35,-0.623 -0.677,-1.254 -0.98,-1.893c-0.035,-0.077 -0.07,-0.159 -0.109,-0.237c-2.938,-6.367 -3.406,-13.257 -2.37,-18.94c0,-0.008 0.004,-0.02 0.004,-0.023c0.062,-0.338 0.132,-0.673 0.202,-1.004c0.039,-0.179 0.082,-0.362 0.125,-0.541c0.063,-0.257 0.128,-0.51 0.195,-0.759c0.07,-0.265 0.144,-0.521 0.226,-0.774c0.055,-0.188 0.109,-0.374 0.171,-0.557c0.128,-0.401 0.269,-0.794 0.42,-1.176c0.012,-0.035 0.023,-0.074 0.035,-0.109c0.007,-0.016 0.015,-0.031 0.027,-0.054c0.234,-0.646 0.483,-1.266 0.744,-1.861c0.121,-0.272 0.245,-0.533 0.37,-0.798c0.148,-0.308 0.292,-0.619 0.444,-0.91c0.156,-0.308 0.312,-0.6 0.471,-0.884c0.117,-0.218 0.238,-0.429 0.358,-0.635c0.179,-0.304 0.354,-0.604 0.533,-0.884c0.097,-0.151 0.191,-0.296 0.288,-0.439c0.194,-0.3 0.389,-0.596 0.58,-0.864c0.058,-0.078 0.109,-0.144 0.159,-0.222c0.44,-0.604 0.864,-1.156 1.269,-1.635c0.035,-0.047 0.074,-0.094 0.113,-0.137c0.113,-0.14 0.222,-0.257 0.331,-0.385c0.113,-0.125 0.229,-0.265 0.339,-0.386c0.042,-0.047 0.082,-0.09 0.125,-0.136c0.085,-0.094 0.16,-0.172 0.241,-0.257c0.179,-0.195 0.35,-0.374 0.502,-0.534l-7.24,0c-4.889,0 -8.89,4.006 -8.89,8.895l0,74.232c0,3.152 1.677,5.916 4.168,7.492c-0.514,-2.016 -0.712,-3.658 -0.817,-4.705c-0.037,-0.371 -0.064,-0.667 -0.091,-0.865m45.623,-37.165c0.342,-0.136 0.669,-0.272 0.985,-0.412c0.163,-0.07 0.315,-0.141 0.471,-0.211c0.156,-0.069 0.315,-0.144 0.467,-0.214c0.14,-0.07 0.272,-0.136 0.413,-0.202c0.148,-0.078 0.3,-0.148 0.443,-0.226c0.133,-0.066 0.257,-0.137 0.386,-0.203c0.125,-0.065 0.249,-0.136 0.366,-0.198c0.14,-0.078 0.272,-0.151 0.401,-0.229c0.132,-0.074 0.261,-0.147 0.381,-0.218c0.078,-0.043 0.144,-0.086 0.214,-0.133c0.152,-0.089 0.304,-0.183 0.436,-0.265c0.012,-0.004 0.023,-0.012 0.035,-0.02c0.351,-0.222 0.639,-0.412 0.856,-0.561c3.262,-2.172 6.053,-5.024 8.197,-8.329c0.027,-0.039 0.055,-0.074 0.078,-0.117c0.413,-0.643 0.802,-1.296 1.16,-1.966c0.023,-0.043 0.043,-0.085 0.07,-0.124c0.304,-0.584 0.591,-1.172 0.86,-1.775c0.074,-0.167 0.152,-0.331 0.222,-0.498c0.272,-0.635 0.525,-1.276 0.751,-1.931c0.011,-0.031 0.023,-0.059 0.035,-0.086l0,-0.008l0.004,-0.008c0.027,-0.073 0.043,-0.147 0.066,-0.222c0.222,-0.615 0.42,-1.249 0.587,-1.899c0.063,-0.241 0.102,-0.502 0.164,-0.751c0.109,-0.518 0.222,-1.031 0.308,-1.561c0.034,-0.238 0.058,-0.487 0.089,-0.729c0.07,-0.561 0.137,-1.125 0.172,-1.697c0.015,-0.233 0.019,-0.463 0.026,-0.7c0.094,-2.352 -0.081,-4.772 -0.552,-7.162c0,-0.004 0,-0.004 -0.004,-0.008c-0.164,-0.837 -0.366,-1.666 -0.604,-2.487c-0.008,-0.039 -0.019,-0.074 -0.031,-0.113c-0.234,-0.806 -0.499,-1.604 -0.802,-2.39c-2.401,0.896 -4.612,2.095 -6.454,3.499c-0.564,0.405 -1.105,0.825 -1.635,1.262c-0.062,0.047 -0.121,0.098 -0.179,0.147c-0.499,0.413 -0.973,0.853 -1.44,1.297c-0.07,0.069 -0.144,0.136 -0.214,0.206c-0.459,0.451 -0.903,0.922 -1.328,1.409c-0.05,0.058 -0.101,0.108 -0.148,0.163c-2.382,2.744 -4.231,5.967 -5.519,9.646c-0.261,0.735 -0.487,1.479 -0.689,2.234c-0.004,0.016 -0.008,0.027 -0.012,0.043c-0.191,0.739 -0.354,1.494 -0.487,2.25c-0.004,0.026 -0.008,0.046 -0.012,0.069c-0.125,0.748 -0.226,1.503 -0.295,2.258c-0.008,0.051 -0.012,0.102 -0.016,0.148c-0.339,3.864 0.093,7.812 1.292,11.571c0.012,0.035 0.02,0.074 0.031,0.113l0.004,0.012l0,0.012c0.132,0.426 0.284,0.863 0.451,1.314m-1.362,5.318c-0.136,-0.241 -0.269,-0.472 -0.39,-0.705c-0.21,0.059 -0.479,0.129 -0.778,0.207c0.393,0.155 0.786,0.318 1.168,0.498m-31.984,-50.189c-0.129,0.163 -0.25,0.33 -0.378,0.51c-0.121,0.163 -0.241,0.346 -0.362,0.525c-0.132,0.19 -0.265,0.381 -0.397,0.584c-0.125,0.198 -0.249,0.404 -0.377,0.61c-0.132,0.215 -0.261,0.429 -0.394,0.65c-0.14,0.241 -0.28,0.506 -0.42,0.759c-0.113,0.218 -0.229,0.421 -0.346,0.643c-0.249,0.494 -0.502,1.004 -0.748,1.553l-0.008,0.02c-0.194,0.394 -0.377,0.806 -0.549,1.23c-0.082,0.202 -0.159,0.428 -0.237,0.638c-0.085,0.227 -0.171,0.448 -0.253,0.678c-0.093,0.292 -0.183,0.596 -0.272,0.899c-0.055,0.171 -0.105,0.334 -0.152,0.506c-0.089,0.323 -0.167,0.653 -0.245,0.988c-0.039,0.168 -0.085,0.331 -0.121,0.506c-0.07,0.312 -0.128,0.646 -0.187,0.97c-0.039,0.202 -0.078,0.396 -0.109,0.6c-0.047,0.3 -0.085,0.606 -0.125,0.91c-0.031,0.241 -0.066,0.483 -0.089,0.732c-0.031,0.276 -0.051,0.553 -0.07,0.833c-0.023,0.288 -0.047,0.568 -0.059,0.855c-0.015,0.266 -0.015,0.526 -0.023,0.791c-0.004,0.311 -0.016,0.618 -0.012,0.934c0,0.284 0.016,0.576 0.023,0.868c0.011,0.315 0.015,0.627 0.039,0.935c0.016,0.261 0.043,0.525 0.066,0.782c0.035,0.351 0.062,0.696 0.105,1.047c0.027,0.226 0.066,0.451 0.105,0.678c0.055,0.389 0.109,0.771 0.187,1.155c0.035,0.195 0.082,0.39 0.125,0.58c0.085,0.417 0.171,0.833 0.28,1.25c0.043,0.163 0.101,0.33 0.144,0.498c0.125,0.439 0.245,0.88 0.389,1.315c0.051,0.147 0.113,0.3 0.164,0.447c0.156,0.452 0.315,0.896 0.498,1.34c0.07,0.167 0.148,0.33 0.226,0.494c0.183,0.424 0.366,0.849 0.572,1.265c0.167,0.339 0.362,0.674 0.545,1.004c0.132,0.238 0.253,0.483 0.393,0.713l0.008,0.012c0.082,0.155 0.179,0.296 0.269,0.447c0.237,0.425 0.482,0.849 0.747,1.254c0.179,0.276 0.377,0.537 0.564,0.802c0.191,0.265 0.374,0.533 0.568,0.79c0.249,0.327 0.518,0.639 0.782,0.949c0.152,0.184 0.296,0.366 0.456,0.541c0.288,0.323 0.592,0.631 0.895,0.938c0.152,0.147 0.292,0.312 0.448,0.459c0.292,0.284 0.596,0.557 0.903,0.821c0.183,0.164 0.362,0.331 0.549,0.491c0.261,0.226 0.533,0.432 0.802,0.642c0.245,0.195 0.494,0.394 0.743,0.584c0.207,0.145 0.409,0.28 0.615,0.421c0.338,0.241 0.681,0.479 1.027,0.7c0.113,0.074 0.23,0.137 0.335,0.206c3.706,2.289 7.757,3.714 11.502,4.224c0.055,0.008 0.109,0.012 0.171,0.02c0.459,0.063 0.918,0.108 1.374,0.14c0.374,0.023 0.744,0.035 1.113,0.039c0.148,0.004 0.3,0.016 0.448,0.016l0.097,0c0.042,0 0.082,0 0.128,0c0.409,0.012 0.813,0 1.226,-0.008c0.3,-0.008 0.599,-0.012 0.887,-0.027c0.382,-0.02 0.759,-0.051 1.141,-0.085c0.207,-0.023 0.42,-0.039 0.623,-0.063c0.506,-0.059 1.008,-0.137 1.506,-0.222c0.078,-0.012 0.164,-0.02 0.241,-0.035c0.607,-0.113 1.21,-0.241 1.806,-0.394c-0.164,-0.408 -0.312,-0.825 -0.452,-1.245c-0.187,-0.514 -0.35,-1.028 -0.506,-1.534c-0.066,-0.214 -0.117,-0.42 -0.179,-0.63c-0.078,-0.288 -0.16,-0.576 -0.233,-0.86c-0.066,-0.269 -0.125,-0.529 -0.183,-0.79c-0.051,-0.219 -0.101,-0.444 -0.148,-0.658c-0.055,-0.296 -0.105,-0.588 -0.16,-0.876c-0.031,-0.175 -0.062,-0.351 -0.085,-0.529c-0.055,-0.312 -0.097,-0.623 -0.136,-0.935c-0.016,-0.14 -0.031,-0.276 -0.051,-0.412c-0.035,-0.331 -0.07,-0.662 -0.093,-0.984c-0.008,-0.102 -0.016,-0.207 -0.023,-0.308c-0.027,-0.351 -0.047,-0.689 -0.062,-1.028c-0.004,-0.062 -0.004,-0.124 -0.008,-0.19c-0.012,-0.37 -0.02,-0.731 -0.02,-1.086l0,-0.004l0,-0.008c0,-0.498 0.012,-0.98 0.035,-1.452c0,-0.022 0,-0.046 0,-0.077c0.027,-0.444 0.055,-0.884 0.094,-1.309c0,-0.03 0.004,-0.058 0.008,-0.085c0.035,-0.421 0.082,-0.825 0.132,-1.215c0.004,-0.023 0.008,-0.051 0.008,-0.074c0.05,-0.393 0.113,-0.778 0.175,-1.151c0,-0.008 0,-0.016 0.004,-0.027c0.124,-0.732 0.269,-1.417 0.412,-2.036c0.012,-0.031 0.02,-0.059 0.027,-0.093c0.063,-0.258 0.121,-0.507 0.187,-0.736c0.012,-0.035 0.02,-0.063 0.027,-0.101c0.058,-0.207 0.117,-0.409 0.171,-0.6c0.042,-0.16 0.105,-0.358 0.171,-0.576c0.012,-0.047 0.031,-0.102 0.047,-0.152c0.047,-0.144 0.093,-0.284 0.144,-0.443c0.046,-0.136 0.101,-0.284 0.156,-0.432c0.027,-0.09 0.058,-0.172 0.093,-0.265c0.07,-0.195 0.152,-0.401 0.233,-0.611c0.023,-0.063 0.047,-0.117 0.074,-0.18c0.093,-0.241 0.202,-0.486 0.307,-0.743c0.027,-0.047 0.043,-0.094 0.066,-0.144c0.113,-0.265 0.241,-0.541 0.377,-0.825c0.023,-0.047 0.047,-0.098 0.074,-0.152c0.132,-0.272 0.276,-0.557 0.424,-0.849c0.035,-0.065 0.074,-0.132 0.109,-0.202c0.144,-0.276 0.3,-0.549 0.456,-0.833c0.054,-0.09 0.105,-0.183 0.159,-0.28c0.051,-0.082 0.09,-0.159 0.136,-0.237c0.117,-0.198 0.25,-0.401 0.37,-0.604c0.062,-0.094 0.117,-0.187 0.175,-0.28c0.191,-0.296 0.393,-0.596 0.6,-0.899c0.063,-0.085 0.117,-0.175 0.179,-0.261c0.202,-0.296 0.424,-0.595 0.646,-0.895c0.082,-0.102 0.152,-0.203 0.233,-0.308c0.21,-0.272 0.436,-0.549 0.662,-0.825c0.105,-0.125 0.207,-0.253 0.312,-0.386c0.214,-0.241 0.436,-0.486 0.654,-0.728c0.144,-0.16 0.28,-0.319 0.428,-0.479c0.195,-0.203 0.401,-0.409 0.6,-0.611c0.198,-0.194 0.381,-0.39 0.584,-0.58c0.156,-0.148 0.327,-0.296 0.486,-0.443c0.677,-0.623 1.386,-1.234 2.16,-1.834c0.561,-0.459 1.164,-0.899 1.791,-1.323c0.055,-0.039 0.109,-0.078 0.171,-0.121c0.596,-0.396 1.222,-0.774 1.869,-1.136c0.093,-0.051 0.183,-0.105 0.276,-0.156c0.65,-0.354 1.324,-0.685 2.009,-0.996c0.082,-0.035 0.167,-0.074 0.249,-0.109c0.705,-0.312 1.429,-0.604 2.164,-0.86c0.035,-0.012 0.066,-0.027 0.102,-0.043c-1.273,-2.409 -2.916,-4.655 -4.928,-6.604l-0.538,-0.53l-40.473,0l-0.518,0.522c-0.233,0.237 -0.553,0.567 -0.911,0.973c-0.055,0.063 -0.102,0.117 -0.156,0.175c-0.125,0.145 -0.261,0.312 -0.397,0.476c-0.102,0.128 -0.21,0.261 -0.319,0.396c-0.108,0.146 -0.228,0.309 -0.349,0.469m44.062,66.151c-0.339,-0.678 -0.705,-1.343 -1.094,-1.997c-0.016,-0.027 -0.027,-0.051 -0.043,-0.078l0,-0.004l0,-0.004l-0.012,-0.008c-0.132,-0.229 -0.284,-0.459 -0.432,-0.692c-0.148,-0.237 -0.292,-0.483 -0.452,-0.717c-0.163,-0.241 -0.342,-0.475 -0.514,-0.708c-0.175,-0.237 -0.342,-0.471 -0.521,-0.705c-0.187,-0.229 -0.385,-0.459 -0.58,-0.688c-0.202,-0.229 -0.397,-0.467 -0.607,-0.692c-0.199,-0.215 -0.405,-0.433 -0.619,-0.643c-0.222,-0.233 -0.456,-0.463 -0.693,-0.689c-1.607,-1.529 -3.445,-2.935 -5.461,-4.126c-3.678,-2.172 -7.925,-3.643 -12.343,-4.021c-0.047,-0.008 -0.093,-0.012 -0.136,-0.016c-0.689,-0.055 -1.386,-0.09 -2.086,-0.09c-1.039,0 -2.086,0.066 -3.133,0.199l-0.02,0l-0.016,0c-4.359,0.369 -8.376,1.821 -11.856,3.915c-3.479,2.099 -6.422,4.827 -8.614,7.707c-1.459,1.923 -2.584,3.916 -3.32,5.823l-0.004,0.012l-0.004,0.012c-2.113,4.971 -2.417,9.132 -2.417,11.471c0,0.732 0.027,1.289 0.047,1.646c0.004,0.109 0.008,0.203 0.008,0.288c0.011,0.039 0.011,0.063 0.015,0.082c0.004,0.051 0.008,0.086 0.016,0.132c0.004,0.09 0.012,0.211 0.023,0.366c0.027,0.308 0.07,0.747 0.148,1.323c0.164,1.141 0.479,2.783 1.129,4.753l0.179,0.533c0.856,0.272 1.748,0.463 2.697,0.463l52.135,0c0.724,-2.105 1.222,-4.34 1.483,-6.69c0.089,-0.782 0.14,-1.565 0.159,-2.355c0.004,0 0.004,-0.004 0.004,-0.008c0.121,-4.721 -0.938,-9.478 -3.056,-13.768c-0.003,-0.01 -0.006,-0.018 -0.01,-0.026m27.725,-58.499l-0.031,-0.012c-3.522,-1.615 -7.356,-2.344 -11.147,-2.344c-2.569,0 -5.114,0.347 -7.524,0.95c1.472,3.736 1.814,6.449 1.826,6.539c0.023,0.136 0.039,0.28 0.063,0.424c0.077,0.44 0.144,0.872 0.202,1.313c0.023,0.194 0.047,0.385 0.066,0.583c0.05,0.448 0.089,0.899 0.124,1.352c0.016,0.163 0.027,0.326 0.035,0.49c0.035,0.584 0.055,1.172 0.059,1.747c0,0.023 0,0.047 0,0.07c0,0.027 0,0.055 0,0.082c0,0.136 -0.012,0.269 -0.012,0.4c-0.008,0.596 -0.027,1.191 -0.066,1.775c-0.016,0.253 -0.043,0.494 -0.066,0.747c-0.047,0.498 -0.101,0.997 -0.171,1.487c-0.035,0.237 -0.07,0.475 -0.109,0.712c-0.085,0.521 -0.187,1.031 -0.3,1.538c-0.042,0.187 -0.081,0.373 -0.124,0.564c-0.171,0.681 -0.358,1.354 -0.576,2.008c0,0.004 -0.004,0.008 -0.004,0.016c-0.047,0.145 -0.098,0.276 -0.144,0.421c-0.133,0.404 -0.266,0.81 -0.409,1.202c-0.078,0.21 -0.167,0.413 -0.245,0.623c-0.129,0.315 -0.249,0.635 -0.378,0.942c-0.077,0.171 -0.155,0.334 -0.233,0.506c-0.147,0.331 -0.3,0.661 -0.459,0.984c-0.059,0.125 -0.121,0.237 -0.188,0.362c-0.179,0.354 -0.361,0.708 -0.548,1.047c-0.043,0.078 -0.093,0.151 -0.136,0.233c-0.21,0.374 -0.424,0.739 -0.646,1.094c-0.023,0.043 -0.047,0.078 -0.07,0.113c-0.245,0.389 -0.49,0.771 -0.743,1.133c-0.004,0.004 -0.004,0.008 -0.008,0.012c-1.32,1.919 -2.709,3.499 -4.013,4.771c-0.008,0.008 -0.012,0.016 -0.02,0.023c-0.233,0.226 -0.467,0.447 -0.689,0.654c-0.047,0.039 -0.089,0.077 -0.132,0.12c-0.183,0.164 -0.362,0.323 -0.537,0.476c-0.097,0.085 -0.191,0.163 -0.288,0.245c-0.113,0.093 -0.226,0.194 -0.335,0.284c-0.198,0.167 -0.389,0.314 -0.568,0.455l-0.008,0.004c-0.222,0.171 -0.428,0.335 -0.611,0.471c-0.253,0.188 -0.561,0.413 -0.899,0.646c-0.105,0.074 -0.207,0.144 -0.319,0.222c-0.035,0.023 -0.074,0.047 -0.109,0.07c-1.437,0.957 -3.546,2.164 -6.294,3.184c0.482,0.849 1.868,2.865 2.717,3.951c0.218,0.265 0.44,0.529 0.669,0.79c0.148,0.167 0.3,0.335 0.448,0.502c1.374,1.507 2.923,2.908 4.624,4.146c3.807,2.775 8.349,4.729 13.246,5.228l0.02,0l0.012,0.012c1.258,0.179 2.499,0.269 3.733,0.269c5.761,0 11.226,-1.896 15.616,-4.659l0.393,-0.245l0,-48.22l-0.4,-0.257c-1.347,-0.861 -2.768,-1.636 -4.294,-2.255m-19.041,57.561c-2.083,-0.424 -4.08,-1.074 -5.971,-1.915c3.009,5.122 4.134,10.708 4.286,13.807c0.008,0.229 0.012,0.479 0.02,0.716c0.031,0.6 0.046,1.152 0.046,1.654c0,0.713 -0.023,1.331 -0.058,1.817c-0.07,1.542 -0.397,4.349 -1.491,7.707l18.007,0c4.893,0 8.894,-4.001 8.894,-8.886l0,-19.058c-4.799,2.989 -10.809,4.932 -17.049,4.936c-2.216,0 -4.465,-0.249 -6.684,-0.778m14.838,-68.227l-20.482,0c0.207,0.234 0.417,0.464 0.623,0.713c1.51,1.697 2.779,3.538 3.834,5.484c0.027,0.004 0.051,0.016 0.074,0.031c2.596,-0.65 5.32,-1.005 8.076,-1.005c3.453,0 6.94,0.549 10.249,1.787c2.354,0.778 4.526,1.86 6.52,3.13l0,-1.246c-0.001,-4.888 -4.002,-8.894 -8.894,-8.894"/>
  <polygon id="svg_9" points="159.073974609375,110.90997314453125 151.468017578125,110.90997314453125 151.468017578125,109.0999755859375 168.7230224609375,109.0999755859375 168.7230224609375,110.90997314453125 161.11297607421875,110.90997314453125 161.11297607421875,125.4439697265625 159.073974609375,125.4439697265625 "/>
  <path id="svg_10" d="m159.074,110.221l-7.606,0l0.686,0.689l0,-1.81l-0.686,0.689l17.255,0l-0.685,-0.689l0,1.811l0.685,-0.689l-7.609,0l-0.685,0l0,0.689l0,14.534l0.685,-0.686l-2.039,0l0.688,0.686l0,-14.535l0,-0.689l-0.689,0zm0,15.912l2.039,0l0.689,0l0,-0.688l0,-14.535l-0.689,0.688l7.609,0l0.689,0l0,-0.688l0,-1.81l0,-0.688l-0.689,0l-17.255,0l-0.688,0l0,0.688l0,1.811l0,0.688l0.688,0l7.606,0l-0.686,-0.688l0,14.534l0,0.688l0.687,0z"/>
  <polygon id="svg_11" points="176.27099609375,109.0999755859375 191.0579833984375,109.0999755859375 191.0579833984375,110.90997314453125 178.3170166015625,110.90997314453125 178.3170166015625,116.1300048828125 190.55999755859375,116.1300048828125 190.55999755859375,117.93597412109375 178.3170166015625,117.93597412109375 178.3170166015625,123.64599609375 191.1400146484375,123.64599609375 191.1400146484375,125.4439697265625 176.27099609375,125.4439697265625 "/>
  <path id="svg_12" d="m176.271,109.789l14.787,0l-0.685,-0.689l0,1.811l0.685,-0.689l-12.74,0l-0.692,0l0,0.689l0,5.22l0,0.685l0.692,0l12.242,0l-0.689,-0.685l0,1.806l0.689,-0.688l-12.242,0l-0.692,0l0,0.688l0,5.71l0,0.686l0.692,0l12.822,0l-0.686,-0.686l0,1.799l0.686,-0.686l-14.869,0l0.688,0.686l0,-16.346l-0.688,0.689zm0,16.344l14.869,0l0.685,0l0,-0.688l0,-1.799l0,-0.685l-0.685,0l-12.822,0l0.686,0.685l0,-5.71l-0.686,0.682l12.242,0l0.685,0l0,-0.682l0,-1.806l0,-0.689l-0.685,0l-12.242,0l0.686,0.689l0,-5.22l-0.686,0.688l12.74,0l0.688,0l0,-0.688l0,-1.81l0,-0.688l-0.688,0l-14.787,0l-0.686,0l0,0.688l0,16.345l0,0.688l0.686,0z"/>
  <path id="svg_13" d="m199.045,115.044c0,-4.134 1.288,-6.119 5.371,-6.119l7.793,0c3.697,0 4.722,1.872 4.722,4.06l0,1.405l-1.787,0l0,-0.739c0,-2.791 -1.584,-2.92 -3.46,-2.92l-7.064,0c-1.954,0 -3.535,0.631 -3.535,3.473l0,6.146c0,2.842 1.581,3.477 3.535,3.477l7.135,0c2.744,0 3.53,-0.635 3.53,-2.842l0,-1.023l1.915,0l0,1.113c0,2.958 -0.868,4.554 -5.092,4.554l-7.691,0c-4.083,0 -5.371,-1.981 -5.371,-6.119l0,-4.466l-0.001,0z"/>
  <path id="svg_14" d="m199.733,115.044c0,-4.01 1.23,-5.435 4.683,-5.435l7.793,0c3.577,0 4.032,1.803 4.032,3.375l0,1.405l0.689,-0.692l-1.787,0l0.686,0.692l0,-0.739c0,-3.604 -2.495,-3.604 -4.146,-3.604l-7.064,0c-2.842,0 -4.224,1.354 -4.224,4.157l0,6.146c0,2.803 1.382,4.169 4.224,4.169l7.135,0c2.67,0 4.219,-0.58 4.219,-3.534l0,-1.023l-0.688,0.685l1.915,0l-0.686,-0.685l0,1.113c0,2.67 -0.638,3.869 -4.406,3.869l-7.691,0c-3.452,0 -4.683,-1.425 -4.683,-5.435l0,-4.464l-0.001,0zm-1.37,4.464c0,4.769 1.811,6.809 6.053,6.809l7.691,0c4.796,0 5.776,-2.103 5.776,-5.243l0,-1.113l0,-0.693l-0.685,0l-1.915,0l-0.686,0l0,0.693l0,1.023c0,1.592 -0.233,2.152 -2.845,2.152l-7.135,0c-1.764,0 -2.85,-0.463 -2.85,-2.787l0,-6.146c0,-2.32 1.086,-2.783 2.85,-2.783l7.064,0c2.017,0 2.775,0.19 2.775,2.23l0,0.739l0,0.686l0.685,0l1.787,0l0.685,0l0,-0.686l0,-1.405c0,-2.164 -0.941,-4.744 -5.406,-4.744l-7.793,0c-4.242,0 -6.053,2.027 -6.053,6.804l0,4.464l0.002,0z"/>
  <polygon id="svg_15" points="225.68499755859375,109.0999755859375 227.7249755859375,109.0999755859375 227.7249755859375,116.1300048828125 241.32000732421875,116.1300048828125 241.32000732421875,109.0999755859375 243.364013671875,109.0999755859375 243.364013671875,125.4439697265625 241.32000732421875,125.4439697265625 241.32000732421875,117.93597412109375 227.7249755859375,117.93597412109375 227.7249755859375,125.4439697265625 225.68499755859375,125.4439697265625 "/>
  <path id="svg_16" d="m225.685,109.789l2.04,0l-0.686,-0.689l0,7.03l0,0.685l0.686,0l13.596,0l0.686,0l0,-0.685l0,-7.03l-0.686,0.689l2.044,0l-0.689,-0.689l0,16.345l0.689,-0.686l-2.044,0l0.686,0.686l0,-7.509l0,-0.688l-0.686,0l-13.596,0l-0.686,0l0,0.688l0,7.509l0.686,-0.686l-2.04,0l0.688,0.686l0,-16.345l-0.688,0.689zm0,16.344l2.04,0l0.685,0l0,-0.688l0,-7.509l-0.685,0.682l13.596,0l-0.686,-0.682l0,7.509l0,0.688l0.686,0l2.044,0l0.685,0l0,-0.688l0,-16.345l0,-0.688l-0.685,0l-2.044,0l-0.686,0l0,0.688l0,7.03l0.686,-0.689l-13.596,0l0.685,0.689l0,-7.03l0,-0.688l-0.685,0l-2.04,0l-0.686,0l0,0.688l0,16.345l0,0.688l0.686,0z"/>
  <polygon id="svg_17" points="252.43402099609375,109.0999755859375 255.46099853515625,109.0999755859375 269.25201416015625,123.46697998046875 269.25201416015625,109.0999755859375 271.28802490234375,109.0999755859375 271.28802490234375,125.4439697265625 268.260009765625,125.4439697265625 254.47698974609375,111.093017578125 254.47698974609375,125.4439697265625 252.43402099609375,125.4439697265625 "/>
  <path id="svg_18" d="m252.434,109.789l3.027,0l-0.498,-0.21l13.791,14.366l1.184,1.223l0,-1.701l0,-14.367l-0.686,0.689l2.036,0l-0.686,-0.689l0,16.345l0.686,-0.686l-3.028,0l0.494,0.211l-13.783,-14.355l-1.183,-1.227l0,1.705l0,14.352l0.688,-0.686l-2.043,0l0.688,0.686l0,-16.345l-0.687,0.689zm0,16.344l2.043,0l0.686,0l0,-0.688l0,-14.352l-1.184,0.475l13.787,14.355l0.202,0.21l0.292,0l3.028,0l0.688,0l0,-0.688l0,-16.345l0,-0.688l-0.688,0l-2.036,0l-0.688,0l0,0.688l0,14.367l1.183,-0.479l-13.79,-14.363l-0.203,-0.214l-0.292,0l-3.027,0l-0.686,0l0,0.688l0,16.345l0,0.688l0.685,0l0,0.001z"/>
  <path id="svg_19" d="m279.964,115.044c0,-4.134 1.289,-6.119 5.368,-6.119l8.668,0c4.075,0 5.364,1.985 5.364,6.119l0,4.464c0,4.138 -1.289,6.119 -5.364,6.119l-8.668,0c-4.079,0 -5.368,-1.981 -5.368,-6.119l0,-4.464zm17.368,-0.841c0,-2.842 -1.584,-3.473 -3.542,-3.473l-8.26,0c-1.95,0 -3.53,0.631 -3.53,3.473l0,6.146c0,2.842 1.58,3.477 3.53,3.477l8.26,0c1.958,0 3.542,-0.635 3.542,-3.477l0,-6.146z"/>
  <path id="svg_20" d="m280.653,115.044c0,-4.01 1.222,-5.435 4.679,-5.435l8.668,0c3.457,0 4.679,1.425 4.679,5.435l0,4.464c0,4.01 -1.222,5.435 -4.679,5.435l-8.668,0c-3.457,0 -4.679,-1.425 -4.679,-5.435l0,-4.464zm-1.382,4.464c0,4.769 1.81,6.809 6.061,6.809l8.668,0c4.247,0 6.057,-2.04 6.057,-6.809l0,-4.464c0,-4.776 -1.81,-6.804 -6.057,-6.804l-8.668,0c-4.251,0 -6.061,2.027 -6.061,6.804l0,4.464z"/>
  <path id="svg_21" d="m298.018,114.203c0,-2.803 -1.386,-4.157 -4.228,-4.157l-8.26,0c-2.838,0 -4.212,1.354 -4.212,4.157l0,6.146c0,2.803 1.374,4.169 4.212,4.169l8.26,0c2.842,0 4.228,-1.366 4.228,-4.169l0,-6.146zm-1.379,6.146c0,2.324 -1.09,2.787 -2.849,2.787l-8.26,0c-1.756,0 -2.846,-0.463 -2.846,-2.787l0,-6.146c0,-2.32 1.09,-2.783 2.846,-2.783l8.26,0c1.759,0 2.849,0.463 2.849,2.783l0,6.146z"/>
  <polygon id="svg_22" points="308.1610107421875,109.0999755859375 310.20001220703125,109.0999755859375 310.20001220703125,123.64599609375 321.89398193359375,123.64599609375 321.89398193359375,125.4439697265625 308.1610107421875,125.4439697265625 "/>
  <path id="svg_23" d="m308.161,109.789l2.039,0l-0.692,-0.689l0,14.546l0,0.686l0.692,0l11.693,0l-0.693,-0.686l0,1.799l0.693,-0.686l-13.732,0l0.692,0.686l0,-16.345l-0.692,0.689zm0,16.344l13.732,0l0.685,0l0,-0.688l0,-1.799l0,-0.685l-0.685,0l-11.693,0l0.689,0.685l0,-14.546l0,-0.688l-0.689,0l-2.039,0l-0.686,0l0,0.688l0,16.345l0,0.688l0.686,0z"/>
  <path id="svg_24" d="m328.888,115.044c0,-4.134 1.276,-6.119 5.356,-6.119l8.676,0c4.067,0 5.363,1.985 5.363,6.119l0,4.464c0,4.138 -1.296,6.119 -5.363,6.119l-8.676,0c-4.08,0 -5.356,-1.981 -5.356,-6.119l0,-4.464zm17.36,-0.841c0,-2.842 -1.588,-3.473 -3.538,-3.473l-8.256,0c-1.95,0 -3.53,0.631 -3.53,3.473l0,6.146c0,2.842 1.58,3.477 3.53,3.477l8.256,0c1.95,0 3.538,-0.635 3.538,-3.477l0,-6.146z"/>
  <path id="svg_25" d="m329.569,115.044c0,-4.01 1.229,-5.435 4.675,-5.435l8.676,0c3.456,0 4.679,1.425 4.679,5.435l0,4.464c0,4.01 -1.223,5.435 -4.679,5.435l-8.676,0c-3.445,0 -4.675,-1.425 -4.675,-5.435l0,-4.464zm-1.37,4.464c0,4.769 1.806,6.809 6.045,6.809l8.676,0c4.243,0 6.053,-2.04 6.053,-6.809l0,-4.464c0,-4.776 -1.81,-6.804 -6.053,-6.804l-8.676,0c-4.239,0 -6.045,2.027 -6.045,6.804l0,4.464z"/>
  <path id="svg_26" d="m346.933,114.203c0,-2.803 -1.378,-4.157 -4.223,-4.157l-8.256,0c-2.834,0 -4.216,1.354 -4.216,4.157l0,6.146c0,2.803 1.382,4.169 4.216,4.169l8.256,0c2.845,0 4.223,-1.366 4.223,-4.169l0,-6.146zm-1.374,6.146c0,2.324 -1.086,2.787 -2.849,2.787l-8.256,0c-1.752,0 -2.838,-0.463 -2.838,-2.787l0,-6.146c0,-2.32 1.086,-2.783 2.838,-2.783l8.256,0c1.763,0 2.849,0.463 2.849,2.783l0,6.146z"/>
  <path id="svg_27" d="m375.546,119.602c0,4.445 -1.327,6.025 -5.103,6.025l-8.381,0c-4.087,0 -5.387,-1.981 -5.387,-6.119l0,-4.464c0,-4.134 1.3,-6.119 5.387,-6.119l7.676,0c2.709,0 5.602,0.724 5.602,4.488l0,0.591l-1.923,0c0,-3.055 -0.853,-3.273 -5.874,-3.273l-5.293,0c-1.946,0 -3.531,0.631 -3.531,3.473l0,6.146c0,2.842 1.585,3.477 3.531,3.477l7.979,0c2.039,0 3.277,-0.771 3.277,-3.024l0,-1.658l-7.719,0l0,-1.795l9.758,0l0,2.252l0.001,0z"/>
  <path id="svg_28" d="m374.865,119.602c0,4.087 -1.032,5.341 -4.422,5.341l-8.381,0c-3.472,0 -4.702,-1.425 -4.702,-5.435l0,-4.464c0,-4.01 1.23,-5.435 4.702,-5.435l7.676,0c3.398,0 4.916,1.168 4.916,3.804l0,0.591l0.686,-0.685l-1.923,0l0.685,0.685c0,-3.768 -1.681,-3.958 -6.559,-3.958l-5.293,0c-2.838,0 -4.216,1.354 -4.216,4.157l0,6.146c0,2.803 1.378,4.169 4.216,4.169l7.979,0c2.635,0 3.962,-1.249 3.962,-3.717l0,-1.658l0,-0.682l-0.685,0l-7.719,0l0.688,0.682l0,-1.795l-0.688,0.686l9.758,0l-0.681,-0.686l0,2.254l0.001,0zm0.681,-2.943l-9.758,0l-0.689,0l0,0.688l0,1.795l0,0.688l0.689,0l7.719,0l-0.682,-0.688l0,1.658c0,1.686 -0.735,2.335 -2.596,2.335l-7.979,0c-1.752,0 -2.846,-0.463 -2.846,-2.787l0,-6.146c0,-2.32 1.094,-2.783 2.846,-2.783l5.293,0c5.188,0 5.188,0.292 5.188,2.584l0,0.689l0.686,0l1.923,0l0.685,0l0,-0.689l0,-0.591c0,-3.434 -2.113,-5.173 -6.286,-5.173l-7.676,0c-4.258,0 -6.072,2.027 -6.072,6.804l0,4.464c0,4.769 1.814,6.809 6.072,6.809l8.381,0c4.169,0 5.788,-1.884 5.788,-6.715l0,-2.254l0,-0.688l-0.686,0z"/>
  <polygon id="svg_29" points="391.35400390625,118.53900146484375 382.72802734375,109.0999755859375 385.47601318359375,109.0999755859375 392.385009765625,116.6939697265625 399.27099609375,109.0999755859375 402.0260009765625,109.0999755859375 393.39599609375,118.53900146484375 393.39599609375,125.4439697265625 391.35400390625,125.4439697265625 "/>
  <path id="svg_30" d="m391.863,118.076l-8.634,-9.436l-0.502,1.148l2.748,0l-0.51,-0.226l6.905,7.594l0.514,0.557l0.51,-0.557l6.886,-7.594l-0.51,0.226l2.756,0l-0.51,-1.148l-8.622,9.436l-0.183,0.194l0,0.269l0,6.905l0.685,-0.686l-2.043,0l0.688,0.686l0,-6.905l0,-0.269l-0.178,-0.194zm-0.509,8.057l2.043,0l0.689,0l0,-0.688l0,-6.905l-0.18,0.463l8.622,-9.438l1.051,-1.152l-1.553,0l-2.756,0l-0.304,0l-0.206,0.229l-6.89,7.586l1.02,0l-6.913,-7.586l-0.198,-0.229l-0.304,0l-2.748,0l-1.561,0l1.055,1.152l8.629,9.438l-0.183,-0.463l0,6.905l0,0.688l0.687,0z"/>
 </g>
</svg>