<?xml version="1.0" encoding="UTF-8" standalone="no"?>
<svg
   xmlns:dc="http://purl.org/dc/elements/1.1/"
   xmlns:cc="http://creativecommons.org/ns#"
   xmlns:rdf="http://www.w3.org/1999/02/22-rdf-syntax-ns#"
   xmlns:svg="http://www.w3.org/2000/svg"
   xmlns="http://www.w3.org/2000/svg"
   viewBox="0 0 755.90668 385.84"
   height="385.84"
   width="755.90668"
   xml:space="preserve"
   id="svg2"
   version="1.1"><metadata
     id="metadata8"><rdf:RDF><cc:Work
         rdf:about=""><dc:format>image/svg+xml</dc:format><dc:type
           rdf:resource="http://purl.org/dc/dcmitype/StillImage" /><dc:title></dc:title></cc:Work></rdf:RDF></metadata><defs
     id="defs6" /><g
     transform="matrix(1.3333333,0,0,-1.3333333,0,385.84)"
     id="g10"><g
       transform="scale(0.1)"
       id="g12"><path
         id="path14"
         style="fill:#5a5758;fill-opacity:1;fill-rule:nonzero;stroke:none"
         d="m 3582.76,0 c 80.74,0 151.11,35.5586 196.29,91.8516 l -56.29,45.1874 c -32.6,-39.9999 -82.96,-65.9296 -139.26,-65.9296 -104.44,0 -183.69,85.9216 -183.69,190.3596 0,105.179 79.99,190.359 183.69,190.359 56.3,0 106.66,-25.18 139.26,-65.918 l 56.29,45.192 c -45.18,56.289 -115.55,91.839 -196.29,91.839 -144.43,0 -259.24,-117.031 -259.24,-261.472 C 3323.52,117.039 3438.33,0 3582.76,0 Z m 302.95,7.41016 h 281.46 V 77.0391 H 3962 V 517.762 h -76.29 z m 380.71,0 h 76.29 V 517.762 h -76.29 z M 4790.09,517.762 V 148.891 l -220.73,368.871 h -74.07 V 7.41016 h 76.29 V 379.25 L 4794.53,7.41016 h 71.85 V 517.762 Z M 5018.96,7.41016 h 76.3 V 517.762 h -76.3 z M 5473,0 c 80.74,0 151.11,35.5586 196.29,91.8516 L 5613,137.039 c -32.59,-39.9999 -82.96,-65.9296 -139.25,-65.9296 -104.44,0 -183.7,85.9216 -183.7,190.3596 0,105.179 80,190.359 183.7,190.359 56.29,0 106.66,-25.18 139.25,-65.918 l 56.29,45.192 c -45.18,56.289 -115.55,91.839 -196.29,91.839 -144.43,0 -259.24,-117.031 -259.24,-261.472 C 5213.76,117.039 5328.57,0 5473,0" /><path
         id="path16"
         style="fill:#d22027;fill-opacity:1;fill-rule:nonzero;stroke:none"
         d="M 382.203,517.762 H 0 V 437.02 H 145.918 V 7.41016 h 90.367 V 437.02 H 382.203 Z M 739.223,7.41016 H 845.887 L 712.559,196.289 c 88.882,16.301 126.66,85.18 126.66,157.77 0,81.48 -48.145,163.703 -162.215,163.703 H 477.016 V 7.41016 h 90.363 V 193.328 h 45.926 z M 567.379,437.02 H 670.34 c 49.625,0 78.512,-37.782 78.512,-84.442 0,-46.66 -26.664,-82.957 -90.364,-82.957 H 567.379 Z M 1275.49,7.41016 h 95.55 L 1179.94,517.762 h -97.77 L 890.324,7.41016 h 96.293 L 1031.06,132.59 h 199.99 z M 1058.47,211.109 1131.05,417.02 1203.64,211.109 Z M 1628.81,0 c 102.22,0 191.84,70.3711 191.84,186.66 v 331.102 h -90.36 V 191.109 c 0,-73.328 -48.15,-105.1793 -101.48,-105.1793 -54.07,0 -102.22,31.8513 -102.22,105.1793 v 326.653 h -90.36 V 186.66 C 1436.23,70.3711 1525.85,0 1628.81,0 Z M 2545.8,7.41016 2483.58,517.762 h -78.52 L 2239.89,166.66 2073.97,517.762 h -78.52 L 1933.24,7.41016 h 90.36 L 2065.08,349.621 2203.59,65.1914 h 73.33 L 2414.69,350.359 2455.43,7.41016 Z m 435.52,0 h 95.55 L 2885.77,517.762 H 2788 L 2596.16,7.41016 h 96.29 L 2736.89,132.59 h 199.99 z M 2764.3,211.109 l 72.58,205.911 72.59,-205.911 z" /><path
         id="path18"
         style="fill:#5a5758;fill-opacity:1;fill-rule:nonzero;stroke:none"
         d="m 702.551,844.852 h 198.508 c 145.921,0 231.101,109.617 231.101,254.058 0,145.18 -85.18,256.28 -231.101,256.28 H 702.551 Z m 76.293,69.617 v 371.101 h 122.215 c 102.221,0 154.811,-82.96 154.811,-186.66 0,-103.699 -52.59,-184.441 -154.811,-184.441 z m 697.736,-77.028 c 145.92,0 259.25,117.028 259.25,261.469 0,145.18 -113.33,262.21 -259.25,262.21 -145.18,0 -257.76,-117.03 -257.76,-262.21 0,-144.441 112.58,-261.469 257.76,-261.469 z m 0,71.11 c -103.7,0 -181.47,85.918 -181.47,190.359 0,105.18 77.77,191.1 181.47,191.1 104.44,0 182.95,-85.92 182.95,-191.1 0,-104.441 -78.51,-190.359 -182.95,-190.359 z m 377.75,-63.699 h 281.47 v 69.617 h -205.17 v 440.721 h -76.3 z m 577.75,-7.411 c 145.92,0 259.25,117.028 259.25,261.469 0,145.18 -113.33,262.21 -259.25,262.21 -145.18,0 -257.77,-117.03 -257.77,-262.21 0,-144.441 112.59,-261.469 257.77,-261.469 z m 0,71.11 c -103.7,0 -181.47,85.918 -181.47,190.359 0,105.18 77.77,191.1 181.47,191.1 104.44,0 182.95,-85.92 182.95,-191.1 0,-104.441 -78.51,-190.359 -182.95,-190.359 z m 960.69,-63.699 -62.22,510.338 H 3262.4 L 3086.86,987.801 2911.31,1355.19 h -68.15 l -62.21,-510.338 h 75.55 l 45.18,370.348 153.33,-314.059 h 65.18 l 151.84,314.059 45.19,-370.348 z m 123.69,0 h 76.29 v 510.338 h -76.29 z m 554.78,510.338 h -379.99 v -69.62 H 3843.1 V 844.852 h 76.29 v 440.718 h 151.85 z M 4245.3,914.469 v 145.921 h 200.73 v 70.37 H 4245.3 v 154.81 h 230.36 v 69.62 H 4169.74 V 844.852 h 312.58 v 69.617 z m 653.29,440.721 V 986.32 l -220.73,368.87 h -74.07 V 844.852 h 76.3 v 371.828 l 222.95,-371.828 h 71.85 v 510.338 h -76.3" /><path
         id="path20"
         style="fill:#c8c7c7;fill-opacity:1;fill-rule:nonzero;stroke:none"
         d="m 1458.95,2112.61 438.7,438.71 c 30.26,30.26 79.33,30.26 109.6,0 l 438.7,-438.71 c 48.82,-48.82 14.24,-132.29 -54.8,-132.29 h -877.4 c -69.05,0 -103.62,83.47 -54.8,132.29" /><path
         id="path22"
         style="fill:#d22027;fill-opacity:1;fill-rule:nonzero;stroke:none"
         d="m 4175.47,2153.45 -574.11,574.1 c -39.6,39.6 -103.81,39.6 -143.42,0 l -145,-145 h 81.13 c 96.23,0 96.23,-96.23 96.23,-96.23 v -37.16 c 0,-96.23 -96.23,-96.23 -96.23,-96.23 h -131.46 v -131.46 c 0,-96.23 -96.23,-96.23 -96.23,-96.23 h -37.16 c -96.23,0 -96.23,96.23 -96.23,96.23 v 81.13 l -149.15,-149.15 c -63.89,-63.89 -18.64,-173.13 71.71,-173.13 h 1148.21 c 90.35,0 135.6,109.24 71.71,173.13" /><path
         id="path24"
         style="fill:#5a5758;fill-opacity:1;fill-rule:nonzero;stroke:none"
         d="m 3626.14,2043.59 -309.35,309.34 h -54.18 v -131.46 c 0,-96.23 -96.23,-96.23 -96.23,-96.23 h -37.16 c -96.23,0 -96.23,96.23 -96.23,96.23 v 131.46 h -131.46 c -96.23,0 -96.23,96.23 -96.23,96.23 v 37.16 c 0,96.23 96.23,96.23 96.23,96.23 h 131.46 v 54.18 l -215.22,215.22 c -55.76,55.77 -146.18,55.77 -201.94,0 l -808.37,-808.36 c -89.96,-89.96 -26.25,-243.78 100.97,-243.78 h 1616.74 c 127.22,0 190.93,153.82 100.97,243.78" /></g></g></svg>