<svg xmlns="http://www.w3.org/2000/svg" viewBox="0 0 72.42 64">
  <defs>
    <style>
      .cls-1 {
        fill: #00467e;
      }
    </style>
  </defs>
  <g id="noun_555564_cc" transform="translate(-406 -196)">
    <g id="Group_217" data-name="Group 217" transform="translate(406 196)">
      <path id="Path_213" data-name="Path 213" class="cls-1" d="M18.631,12a.852.852,0,0,0-.526.342L7.158,27.5A.849.849,0,0,0,7,28V38.1a.875.875,0,0,0,.842.842H11.21v36.21a.875.875,0,0,0,.842.842H74.367a.875.875,0,0,0,.842-.842V38.947h3.368a.875.875,0,0,0,.842-.842V28a.849.849,0,0,0-.158-.5L68.315,12.342A.856.856,0,0,0,67.631,12H18.789q-.039,0-.079,0T18.631,12Zm.605,1.684H67.183L76.92,27.157H9.5ZM8.684,28.842H77.736v8.421H8.684Zm4.21,10.105H73.525V74.315H12.895Zm20.026,4.21a.869.869,0,0,0-.658.842V52.42a.875.875,0,0,0,.842.842h20.21a.875.875,0,0,0,.842-.842V44a.875.875,0,0,0-.842-.842H33.1a.842.842,0,0,0-.184,0Zm1.026,1.684H52.473v6.737H33.947Z" transform="translate(-7 -11.999)"/>
    </g>
  </g>
</svg>
