<svg xmlns="http://www.w3.org/2000/svg" xmlns:xlink="http://www.w3.org/1999/xlink" viewBox="0 0 64 64">
  <defs>
    <style>
      .cls-1, .cls-3 {
        fill: #00467e;
      }

      .cls-1 {
        stroke: #0077b5;
      }

      .cls-2 {
        clip-path: url(#clip-path);
      }

      .cls-4 {
        fill: #fff;
      }
    </style>
    <clipPath id="clip-path">
      <circle id="Ellipse_43" data-name="Ellipse 43" class="cls-1" cx="32" cy="32" r="32"/>
    </clipPath>
  </defs>
  <g id="Group_484" data-name="Group 484" transform="translate(1077 -327) rotate(90)">
    <g id="Mask_Group_3" data-name="Mask Group 3" class="cls-2" transform="translate(327 1013)">
      <path id="Path_353" data-name="Path 353" class="cls-3" d="M80.587,12H20.651A9.646,9.646,0,0,0,11,21.651V81.486a9.646,9.646,0,0,0,9.651,9.651H80.486a9.646,9.646,0,0,0,9.651-9.651C90.238,16.368,85.87,12,80.587,12Z" transform="translate(-18.111 -20.127)"/>
    </g>
    <g id="Group_463" data-name="Group 463" transform="translate(-4.651 -0.308)">
      <rect id="Rectangle_366" data-name="Rectangle 366" class="cls-4" width="5" height="35" rx="2.5" transform="translate(382 1044) rotate(90)"/>
      <rect id="Rectangle_368" data-name="Rectangle 368" class="cls-4" width="5" height="27" rx="2.5" transform="translate(364.45 1027.015) rotate(45)"/>
      <rect id="Rectangle_369" data-name="Rectangle 369" class="cls-4" width="5" height="27" rx="2.5" transform="translate(367.985 1062.107) rotate(135)"/>
    </g>
  </g>
</svg>
