<svg viewBox="0 0 16.933 19.383" xmlns="http://www.w3.org/2000/svg">
 <g transform="translate(-.33444)">
  <path d="m2.4533 19.377c-0.98095 0-1.8639-1.2469-2.108-2.0285v-15.305c0-0.89151 0.87762-2.0128 1.9674-2.0128h12.847c1.2172 0 2.115 0.99126 2.115 2.0128 0 7.6072 0.0078 7.4283 0 15.305 0 1.0263-0.83881 2.0285-1.8551 2.0285zm12.932-1.3079c0.44036 0 0.75324-0.14815 0.75324-0.72062v-15.305c0-0.46721-0.2632-0.76558-0.84847-0.76558h-12.977c-0.71122 0-0.89063 0.25002-0.89063 0.76558v15.305c0 0.53621 0.44978 0.72062 1.0312 0.72062h12.932zm-12.102-1.8321c-0.18175-0.05-0.66358-0.21497-0.79001-0.36871-0.21233-0.2582-0.27992-0.75634-0.28-1.3364-6.32e-5 -0.43899 0.034476-0.64744 0.14405-0.86932 0.10809-0.21889 0.52489-0.68112 0.7777-0.80047l0.19345-0.09132h1.2743l0.18826 0.08977c0.51236 0.2443 0.89699 0.8909 0.89759 1.6569 4.319e-4 0.59439-0.26891 1.0616-0.48288 1.3219-0.13103 0.15934-0.37707 0.31883-0.57136 0.37039-0.19306 0.05123-1.1631 0.07895-1.3511 0.02722zm1.1324-0.79894c0.18761-0.04006 0.38297-0.21573 0.4301-0.38666 0.0414-0.15007 0.041172-0.86116-3.286e-4 -1.01-0.018858-0.06779-0.081494-0.16438-0.15189-0.23433-0.14704-0.14611-0.2977-0.18423-0.72796-0.18423-0.43026 0-0.58092 0.03814-0.72796 0.18423-0.070396 0.06996-0.133 0.16653-0.15189 0.23433-0.041495 0.14883-0.041679 0.85992-3.309e-4 1.01 0.043701 0.15859 0.24485 0.34817 0.40792 0.3845 0.17469 0.03892 0.74402 0.04025 0.92229 0.0022zm3.3534-0.50788c-0.18807-0.11625-0.17714-0.54902 0.018601-0.63794 0.057508-0.02612 0.90229-0.03447 3.4791-0.03447 3.6982 0 3.5216-0.0078 3.5973 0.15792 0.07072 0.15465 0.02 0.45027-0.12583 0.51923-0.08366 0.03956-0.48404 0.0446-3.4932 0.04391-3.1145-7.14e-4 -3.4051-0.0048-3.4761-0.04863zm-4.1805-3.7721c-0.94554-0.72771-0.60102-0.38077-0.94554-0.72771-0.68499-0.68981-0.47975-0.49941-0.38994-0.71361 0.033231-0.07926 0.29858-0.57014 0.38692-0.59383 0.21223-0.056938 0.26853-0.019231 0.81917 0.55014l0.50723 0.5244 1.1133-1.1304c1.2015-1.22 1.2004-1.2191 1.4305-1.1557 0.085376 0.02348 0.38073 0.37101 0.41345 0.44901 0.095739 0.2283 0.030469 0.056133-1.3174 1.406-0.69995 0.70103-1.2171 1.3988-1.27 1.4217-0.11449 0.0495-0.23225 0.28929-0.74781-0.02994zm4.1805-1.2209c-0.18807-0.11628-0.17714-0.57795 0.018601-0.66687 0.057508-0.026117 0.90229-0.034469 3.4791-0.034469 3.6982 0 3.5216-0.00777 3.5973 0.15792 0.07072 0.15467 0.02 0.4792-0.12583 0.54816-0.08366 0.039561-0.48404 0.044597-3.4932 0.043912-3.1145-6.664e-4 -3.4051-0.0048349-3.4761-0.048659zm-4.4858-3.4837c-0.18175-0.049978-0.57649-0.21497-0.70292-0.36871-0.21233-0.2582-0.27992-0.66955-0.28-1.2496-6.32e-5 -0.43899 0.034476-0.64743 0.14405-0.86932 0.10809-0.21889 0.4378-0.59434 0.69061-0.71369l0.19345-0.091323h1.2743l0.18826 0.089767c0.25878 0.1234 0.61699 0.49686 0.72378 0.71309 0.11063 0.22404 0.14518 0.43149 0.14511 0.87148-8.5e-5 0.58002-0.067661 0.99137-0.28 1.2496-0.13103 0.15934-0.55126 0.31883-0.74555 0.37039-0.19306 0.051213-1.1631 0.050022-1.3511-0.0016802zm1.1324-0.71215c0.18761-0.04011 0.38297-0.21573 0.4301-0.38666 0.040528-0.14691 0.041539-0.85984 0.0015-1.0037-0.03823-0.13718-0.17792-0.29762-0.3138-0.36044-0.15187-0.070191-0.98374-0.070191-1.1356 0-0.13589 0.062821-0.27557 0.22326-0.3138 0.36044-0.040069 0.14382-0.039058 0.85676 0.0015 1.0037 0.043697 0.15859 0.24485 0.34817 0.40792 0.3845 0.1747 0.03892 0.74402 0.040246 0.92229 0.00216zm3.3534-0.65252c-0.18807-0.11625-0.17714-0.57795 0.018601-0.66687 0.057508-0.026117 0.90229-0.034469 3.4791-0.034469 3.6982 0 3.5216-0.00777 3.5973 0.15792 0.07072 0.15467 0.02 0.4792-0.12583 0.54816-0.08366 0.039561-0.48404 0.044597-3.4932 0.043912-3.1145-7.12e-4 -3.4051-0.0048-3.4761-0.048649z" fill="#00467e" stroke-width=".028911"/>
 </g>
</svg>
