<svg viewBox="0 0 224.87 220" xml:space="preserve" xmlns="http://www.w3.org/2000/svg"><g transform="translate(26.468 -20.925)"><g fill="#004680"><path d="m140.17 240.65c-11.37-1.3248-22.348-6.6505-30.426-14.76-9.9181-9.9567-15.191-22.676-15.205-36.676-8e-3 -8.5348 1.4902-15.277 5.0711-22.812 2.5159-5.2943 5.327-9.3327 9.5112-13.664 10.974-11.36 26.191-16.967 42.238-15.562 16.371 1.4331 31.139 10.728 39.784 25.04 3.3324 5.5169 5.6311 11.984 6.7754 19.06 0.57303 3.5439 0.64506 11.063 0.1394 14.552-2.1254 14.665-9.4409 26.901-21.247 35.537-5.3041 3.88-12.998 7.2223-19.833 8.6153-4.5068 0.91848-12.078 1.2198-16.807 0.66889zm11.298-5.5436c7.0529-0.87182 12.62-2.6988 18.161-5.9596 11.682-6.8754 19.681-18.091 22.361-31.354 0.52974-2.6213 0.61013-3.7967 0.60483-8.844-5e-3 -5.012-0.0898-6.2252-0.60844-8.7312-3.4153-16.503-14.669-29.512-30.305-35.03-7.9001-2.7884-18.531-3.2195-26.873-1.0896-13.067 3.3363-24.591 12.946-30.324 25.288-3.0733 6.6156-4.2248 12.043-4.2067 19.828 0.0102 4.3849 0.11414 5.8055 0.60685 8.2904 2.0707 10.443 7.3761 19.658 15.247 26.482 7.4609 6.4685 16.173 10.218 26.069 11.219 2.1119 0.2137 7.1763 0.15973 9.2674-0.0988zm-12.31-29.131c-0.82447-0.44779-17.847-17.467-18.274-18.27-1.4643-2.7566 1.2852-5.4818 4.0062-3.9708 0.44761 0.24856 4.1277 3.8452 8.178 7.9926s7.4458 7.5741 7.5455 7.6151c0.0997 0.041 6.2258-6.06 13.613-13.558 14.49-14.706 14.218-14.474 16.35-13.886 1.2881 0.35567 1.7854 1.1215 1.7854 2.7497v1.3247l-14.751 14.774c-8.1128 8.1257-15.072 14.945-15.465 15.153-0.8406 0.44574-2.2427 0.48108-2.9897 0.0754z" stroke-width=".26458"/><g transform="translate(0 -20)"><path d="m9.4178 153.36c-2.7479-0.56658-4.9322-2.2648-6.091-4.7355l-0.69075-1.4728v-15.875l0.68821-1.4673c0.97936-2.088 2.0949-3.2356 4.001-4.1158l1.6608-0.76694h15.61l1.5875 0.74257c2.4973 1.1681 3.6988 2.549 4.5716 5.2539 0.3831 1.1874 0.45553 2.5056 0.45553 8.291 0 6.066-0.05931 7.0512-0.50177 8.3344-0.95791 2.7781-2.5437 4.4481-5.1868 5.4622-0.99876 0.38322-2.2992 0.46737-8.0698 0.52219-3.7835 0.0359-7.3993-0.0419-8.0349-0.17295zm14.551-5.9613c1.3979-0.72287 1.5536-1.5491 1.5531-8.2422-5.29e-4 -9.1145 0.2608-8.8603-8.9954-8.7486-8.826 0.10647-8.4667-0.26805-8.4667 8.8239 0 6.5608 0.1648 7.4275 1.5561 8.1836 1.0652 0.57889 13.228 0.56469 14.353-0.0168zm37.669 5.9749c-3.3993-0.72186-5.619-2.64-6.6641-5.7587-0.5566-1.6609-0.81033-12.465-0.35444-15.092 0.60738-3.5003 2.0566-5.5488 4.8326-6.8308l1.6568-0.76514h15.61l1.6608 0.76694c1.9061 0.88023 3.0217 2.0278 4.001 4.1158 0.682 1.454 0.68895 1.5337 0.76976 8.8211 0.0665 5.9991 7e-3 7.6104-0.32335 8.7466-0.76468 2.6304-2.63 4.6483-5.2192 5.646-0.95536 0.36814-2.3359 0.45577-8.0328 0.50989-3.7835 0.0359-7.3554-0.0358-7.9375-0.15939zm14.397-5.9457c1.4456-0.74754 1.61-1.5847 1.61-8.1961 0-9.092 0.35936-8.7174-8.4667-8.8239-9.2498-0.11159-8.9948-0.35824-8.9954 8.7006-5.29e-4 6.6007 0.14135 7.4177 1.4232 8.1993 0.75126 0.4581 1.4023 0.50336 7.2546 0.50425 5.1125 8e-4 6.5819-0.0779 7.1742-0.38423zm-66.618-40.37c-2.7479-0.56658-4.9322-2.2648-6.091-4.7355l-0.69075-1.4728v-15.875l0.68821-1.4673c0.97936-2.088 2.0949-3.2356 4.001-4.1158l1.6608-0.76693h15.61l1.5875 0.74256c2.4973 1.1681 3.6988 2.549 4.5716 5.2539 0.3831 1.1874 0.45553 2.5056 0.45553 8.291 0 6.066-0.05931 7.0512-0.50177 8.3344-0.95791 2.7781-2.5437 4.4481-5.1868 5.4622-0.99876 0.38322-2.2992 0.46738-8.0698 0.52219-3.7835 0.0359-7.3993-0.0419-8.0349-0.17295zm14.551-5.9613c1.3979-0.72287 1.5536-1.5491 1.5531-8.2422-5.29e-4 -9.1145 0.2608-8.8603-8.9954-8.7486-8.826 0.10647-8.4667-0.26805-8.4667 8.8239 0 6.5608 0.1648 7.4275 1.5561 8.1836 1.0652 0.57889 13.228 0.56469 14.353-0.0168zm37.669 5.9749c-3.3993-0.72186-5.619-2.64-6.6641-5.7587-0.5566-1.6609-0.81033-12.465-0.35444-15.092 0.60738-3.5003 2.0566-5.5488 4.8326-6.8308l1.6568-0.76513h15.61l1.6608 0.76693c1.9061 0.88023 3.0217 2.0278 4.001 4.1158 0.682 1.454 0.68895 1.5337 0.76976 8.8211 0.0665 5.9991 7e-3 7.6104-0.32335 8.7466-0.76468 2.6304-2.63 4.6483-5.2192 5.646-0.95536 0.36814-2.3359 0.45577-8.0328 0.50989-3.7835 0.0359-7.3554-0.0358-7.9375-0.15939zm14.397-5.9457c1.4456-0.74754 1.61-1.5847 1.61-8.1961 0-9.092 0.35936-8.7175-8.4667-8.8239-9.2498-0.11159-8.9948-0.35824-8.9954 8.7006-5.29e-4 6.6007 0.14135 7.4177 1.4232 8.1993 0.75126 0.4581 1.4023 0.50336 7.2546 0.50426 5.1125 7.9e-4 6.5819-0.0779 7.1742-0.38424z" stroke-width=".26458"/><path d="m-11.651 260.74c-7.4722-1.8477-12.212-6.8773-14.207-15.076l-0.60938-2.5039v-184.45l0.60938-2.5039c1.8572-7.6311 6.2257-12.705 12.611-14.648 2.047-0.62283 2.8701-0.6321 56.1-0.6321 53.23 0 54.053 0.0095 56.1 0.6321 6.3184 1.9224 10.641 6.8898 12.602 14.482l0.60853 2.3556 0.0714 41.076 0.0714 41.076-2.9108 3.2504-2.9108 3.2503v-44.063c0-41.752-0.0253-44.159-0.48227-45.901-1.1101-4.2307-3.8649-7.5398-7.3385-8.8151-1.5027-0.5517-3.9615-0.57712-55.812-0.57712-51.85 0-54.309 0.02545-55.812 0.57712-3.5264 1.2947-6.5192 4.9674-7.4552 9.149-0.29876 1.3347-0.35984 17.098-0.36245 93.537-0.0034 99.686-0.09289 93.151 1.3206 96.453 0.62815 1.4673 3.0541 4.321 4.3334 5.0974 2.7893 1.6929 2.0745 1.6362 22.046 1.7477l18.575 0.10362 0.08687-18.819c0.09734-21.088 0.02535-20.22 2.0978-25.272 1.5812-3.854 3.9858-6.6573 7.3637-8.5849 2.7562-1.5728 5.5131-2.4318 7.8052-2.4318 2.2921 0 5.049 0.85893 7.8052 2.4318 3.3779 1.9276 5.7824 4.731 7.3637 8.5849 2.0724 5.051 2.0005 4.1855 2.0978 25.26l0.08684 18.807h17.547c10.556 0 18.115-0.12524 18.972-0.31437 2.1936-0.48387 4.9907-2.2659 6.4301-4.0967l1.2529-1.5935 0.56941 0.87766c0.31318 0.4827 1.1488 1.6137 1.8569 2.5133 1.2426 1.5785 1.2728 1.6609 0.86545 2.3607-0.75397 1.2953-3.4032 3.6827-5.3079 4.7833-3.8716 2.2372 0.59396 2.0837-59.424 2.0432-29.75-0.0201-54.329-0.0954-54.62-0.16735zm66.011-25.056c-3e-3 -19.784-0.0058-19.834-1.2822-22.811-0.65616-1.5301-2.5096-3.8429-3.9413-4.9181-3.3185-2.4922-9.2476-2.4922-12.566 0-1.4317 1.0752-3.2851 3.388-3.9413 4.9181-1.2763 2.9763-1.2791 3.0264-1.2822 22.811l-0.0029 18.65h23.019l-0.0029-18.65z" stroke-width=".28858"/></g></g></g></svg>
