<svg xmlns="http://www.w3.org/2000/svg" viewBox="0 0 86.952 86.952">
  <defs>
    <style>
      .cls-1, .cls-2 {
        fill: #fedc4d;
      }

      .cls-2 {
        stroke: #fff;
      }

      .cls-3 {
        fill: #283e4a;
      }

      .cls-4 {
        stroke: none;
      }

      .cls-5 {
        fill: none;
      }
    </style>
  </defs>
  <g id="Group_6" data-name="Group 6" transform="translate(-1119.524 -635.524)">
    <g id="Group_255" data-name="Group 255" transform="translate(1131 647)">
      <circle id="Ellipse_29" data-name="Ellipse 29" class="cls-1" cx="32" cy="32" r="32"/>
      <g id="Ellipse_28" data-name="Ellipse 28" class="cls-2" transform="translate(-11.476 -11.476)">
        <circle class="cls-4" cx="43.476" cy="43.476" r="43.476"/>
        <circle class="cls-5" cx="43.476" cy="43.476" r="42.976"/>
      </g>
    </g>
    <g id="Group_304" data-name="Group 304" transform="translate(1137.723 653.703)">
      <path id="Path_258" data-name="Path 258" class="cls-3" d="M49.514,51.3H35.674a.882.882,0,0,1-.882-.882V.882A.882.882,0,0,1,35.674,0H49.514A.882.882,0,0,1,50.4.882V50.416a.882.882,0,0,1-.882.882ZM36.551,49.541H48.637V1.756H36.551Z" transform="translate(-16.946 0)"/>
      <path id="Path_259" data-name="Path 259" class="cls-3" d="M49.514,51.3H35.674a.882.882,0,0,1-.882-.882V.882A.882.882,0,0,1,35.674,0H49.514A.882.882,0,0,1,50.4.882V50.416a.882.882,0,0,1-.882.882ZM36.551,49.541H48.637V1.756H36.551Z" transform="translate(-16.946 0)"/>
      <path id="Path_260" data-name="Path 260" class="cls-3" d="M46.214,81.889a3.97,3.97,0,1,1,2.818-1.163,3.98,3.98,0,0,1-2.818,1.163Zm0-6.2a2.211,2.211,0,1,0,1.577.648A2.224,2.224,0,0,0,46.214,75.685Z" transform="translate(-20.579 -36.006)"/>
      <path id="Path_261" data-name="Path 261" class="cls-3" d="M49.276,44.7h-5.5a.882.882,0,0,1-.882-.882V23.982a.882.882,0,0,1,.882-.882h5.5a.882.882,0,0,1,.882.882V43.819A.882.882,0,0,1,49.276,44.7Zm-4.624-1.756H48.4V24.858H44.652Z" transform="translate(-20.891 -11.251)"/>
      <path id="Path_262" data-name="Path 262" class="cls-3" d="M37.584,12.308H35.652a.882.882,0,1,1,0-1.756h1.932a.882.882,0,0,1,0,1.756Z" transform="translate(-16.926 -5.139)"/>
      <path id="Path_263" data-name="Path 263" class="cls-3" d="M60.8,12.308H58.872a.882.882,0,1,1,0-1.756H60.8a.882.882,0,1,1,0,1.756Z" transform="translate(-28.234 -5.139)"/>
      <path id="Path_264" data-name="Path 264" class="cls-3" d="M14.719,51.3H.882A.882.882,0,0,1,0,50.416V.882A.882.882,0,0,1,.882,0H14.719A.882.882,0,0,1,15.6.882V50.416a.882.882,0,0,1-.882.882ZM1.756,49.541H13.841V1.756H1.756Z" transform="translate(0 0)"/>
      <path id="Path_265" data-name="Path 265" class="cls-3" d="M14.719,51.3H.882A.882.882,0,0,1,0,50.416V.882A.882.882,0,0,1,.882,0H14.719A.882.882,0,0,1,15.6.882V50.416a.882.882,0,0,1-.882.882ZM1.756,49.541H13.841V1.756H1.756Z" transform="translate(0 0)"/>
      <path id="Path_266" data-name="Path 266" class="cls-3" d="M11.445,81.889a3.98,3.98,0,1,1,3.951-3.98A3.98,3.98,0,0,1,11.445,81.889Zm0-6.2a2.224,2.224,0,1,0,2.195,2.224,2.2,2.2,0,0,0-2.195-2.224Z" transform="translate(-3.632 -36.006)"/>
      <path id="Path_267" data-name="Path 267" class="cls-3" d="M14.535,44.7h-5.5a.882.882,0,0,1-.882-.882V23.982a.882.882,0,0,1,.882-.882h5.5a.882.882,0,0,1,.882.882V43.819A.882.882,0,0,1,14.535,44.7ZM9.912,42.942h3.745V24.858H9.912V42.942Z" transform="translate(-3.971 -11.251)"/>
      <path id="Path_268" data-name="Path 268" class="cls-3" d="M2.825,12.309H.9a.882.882,0,0,1,0-1.756H2.825a.882.882,0,0,1,0,1.756Z" transform="translate(-0.02 -5.14)"/>
      <path id="Path_269" data-name="Path 269" class="cls-3" d="M26.045,12.308H24.113a.882.882,0,0,1,0-1.756h1.932a.882.882,0,1,1,0,1.756Z" transform="translate(-11.326 -5.139)"/>
      <path id="Path_270" data-name="Path 270" class="cls-3" d="M84.285,51.3H70.414a.882.882,0,0,1-.882-.882V.882A.882.882,0,0,1,70.414,0H84.285a.882.882,0,0,1,.882.882V50.416a.882.882,0,0,1-.882.882ZM71.292,49.541H83.406V1.756H71.292Z" transform="translate(-33.865 0)"/>
      <path id="Path_271" data-name="Path 271" class="cls-3" d="M84.285,51.3H70.414a.882.882,0,0,1-.882-.882V.882A.882.882,0,0,1,70.414,0H84.285a.882.882,0,0,1,.882.882V50.416a.882.882,0,0,1-.882.882ZM71.292,49.541H83.406V1.756H71.292Z" transform="translate(-33.865 0)"/>
      <path id="Path_272" data-name="Path 272" class="cls-3" d="M80.988,81.889a3.98,3.98,0,1,1,3.98-3.98,3.98,3.98,0,0,1-3.98,3.98Zm0-6.2a2.224,2.224,0,1,0,2.224,2.224,2.224,2.224,0,0,0-2.224-2.224Z" transform="translate(-37.505 -36.006)"/>
      <path id="Path_273" data-name="Path 273" class="cls-3" d="M84.073,44.7h-5.5a.882.882,0,0,1-.882-.882V23.982a.882.882,0,0,1,.882-.882h5.5a.882.882,0,0,1,.882.882V43.819A.882.882,0,0,1,84.073,44.7ZM79.45,42.942H83.2V24.858H79.45Z" transform="translate(-37.838 -11.251)"/>
      <path id="Path_274" data-name="Path 274" class="cls-3" d="M72.395,12.309H70.433a.882.882,0,0,1,0-1.756h1.961a.882.882,0,0,1,0,1.756Z" transform="translate(-33.885 -5.14)"/>
      <path id="Path_275" data-name="Path 275" class="cls-3" d="M95.6,12.308H93.669a.882.882,0,1,1,0-1.756H95.6a.882.882,0,1,1,0,1.756Z" transform="translate(-45.181 -5.139)"/>
    </g>
  </g>
</svg>
