<svg xmlns="http://www.w3.org/2000/svg" viewBox="0 0 28.807 64">
  <defs>
    <style>
      .cls-1 {
        fill: #00467e;
      }
    </style>
  </defs>
  <g id="Group_562" data-name="Group 562" transform="translate(-681 -1191)">
    <g id="noun_502505_cc" transform="translate(681 1191)">
      <g id="Group_191" data-name="Group 191" transform="translate(0 0)">
        <path id="Path_181" data-name="Path 181" class="cls-1" d="M28.015,69.1V9.021A2.021,2.021,0,0,0,25.993,7H7.48A2.021,2.021,0,0,0,5.459,9.021V69.1H2.333V71H31.14V69.1ZM6.886,10.943V8.766h19.7V69.1H18.639V62.032h-3.8V69.1H6.885V10.943Z" transform="translate(-2.333 -7)"/>
        <rect id="Rectangle_308" data-name="Rectangle 308" class="cls-1" width="3.806" height="3.805" transform="translate(17.426 34.65)"/>
        <rect id="Rectangle_309" data-name="Rectangle 309" class="cls-1" width="3.806" height="3.805" transform="translate(17.426 29.758)"/>
        <rect id="Rectangle_310" data-name="Rectangle 310" class="cls-1" width="3.805" height="3.805" transform="translate(12.501 29.758)"/>
        <rect id="Rectangle_311" data-name="Rectangle 311" class="cls-1" width="3.805" height="3.805" transform="translate(7.576 24.866)"/>
        <rect id="Rectangle_312" data-name="Rectangle 312" class="cls-1" width="3.806" height="3.805" transform="translate(17.426 24.866)"/>
        <rect id="Rectangle_313" data-name="Rectangle 313" class="cls-1" width="3.805" height="3.805" transform="translate(12.501 24.866)"/>
        <rect id="Rectangle_314" data-name="Rectangle 314" class="cls-1" width="3.805" height="3.805" transform="translate(7.576 19.975)"/>
        <rect id="Rectangle_315" data-name="Rectangle 315" class="cls-1" width="3.806" height="3.805" transform="translate(17.426 19.975)"/>
        <rect id="Rectangle_316" data-name="Rectangle 316" class="cls-1" width="3.805" height="3.805" transform="translate(12.501 19.975)"/>
        <rect id="Rectangle_317" data-name="Rectangle 317" class="cls-1" width="3.805" height="3.805" transform="translate(7.576 15.083)"/>
        <rect id="Rectangle_318" data-name="Rectangle 318" class="cls-1" width="3.806" height="3.805" transform="translate(17.426 15.083)"/>
        <rect id="Rectangle_319" data-name="Rectangle 319" class="cls-1" width="3.805" height="3.805" transform="translate(12.501 15.083)"/>
        <rect id="Rectangle_320" data-name="Rectangle 320" class="cls-1" width="3.805" height="3.805" transform="translate(7.576 10.191)"/>
        <rect id="Rectangle_321" data-name="Rectangle 321" class="cls-1" width="3.806" height="3.805" transform="translate(17.426 10.191)"/>
        <rect id="Rectangle_322" data-name="Rectangle 322" class="cls-1" width="3.805" height="3.805" transform="translate(12.501 10.191)"/>
        <rect id="Rectangle_323" data-name="Rectangle 323" class="cls-1" width="3.805" height="3.805" transform="translate(7.576 5.299)"/>
        <rect id="Rectangle_324" data-name="Rectangle 324" class="cls-1" width="3.806" height="3.805" transform="translate(17.426 5.299)"/>
        <rect id="Rectangle_325" data-name="Rectangle 325" class="cls-1" width="3.805" height="3.805" transform="translate(12.501 5.299)"/>
      </g>
    </g>
  </g>
</svg>
