<svg xmlns="http://www.w3.org/2000/svg" viewBox="0 0 64 67.344">
  <defs>
    <style>
      .cls-1 {
        fill: #00467e;
      }
    </style>
  </defs>
  <g id="Group_561" data-name="Group 561" transform="translate(-574.5 -1191)">
    <g id="noun_Bug_1410026" transform="translate(559 1159)">
      <g id="Group_541" data-name="Group 541" transform="translate(15.5 32)">
        <g id="Group_540" data-name="Group 540" transform="translate(0 0)">
          <path id="Path_398" data-name="Path 398" class="cls-1" d="M28.7,42.267l.4-.767H68.7l.4.767a28.4,28.4,0,0,1,3.2,13.213c0,14.4-10.438,26.14-23.4,26.14S25.5,69.881,25.5,55.48A28.4,28.4,0,0,1,28.7,42.267ZM28.366,55.48c0,12.889,9.235,23.274,20.537,23.274S69.44,68.369,69.44,55.48a25.628,25.628,0,0,0-2.49-11.114H30.856A25.628,25.628,0,0,0,28.366,55.48Z" transform="translate(-16.903 -16.187)"/>
          <path id="Path_399" data-name="Path 399" class="cls-1" d="M62.184,40.515a13.157,13.157,0,0,0,.928-4.872,13.373,13.373,0,0,0-26.746,0,13.157,13.157,0,0,0,.928,4.872ZM35.065,42.566A16.006,16.006,0,0,1,33.5,35.643a16.239,16.239,0,0,1,32.478,0,16.006,16.006,0,0,1-1.565,6.923l-.39.815H35.455Z" transform="translate(-17.261 -15.201)"/>
          <path id="Path_400" data-name="Path 400" class="cls-1" d="M60.866,23.078c0-4.6,1.021-5.212,6.115-5.212a1.433,1.433,0,0,0,0-2.866c-2.449,0-4.546.152-6.018,1.035-2,1.2-2.963,3.481-2.963,7.043a1.433,1.433,0,0,0,2.866,0Z" transform="translate(-18.358 -15)"/>
          <path id="Path_401" data-name="Path 401" class="cls-1" d="M2.866,1.433c0,4.6,1.021,5.212,6.115,5.212a1.433,1.433,0,0,1,0,2.866c-2.449,0-4.546-.152-6.018-1.035C.96,7.275,0,5,0,1.433a1.433,1.433,0,0,1,2.866,0Z" transform="translate(25.22 9.511) rotate(180)"/>
          <path id="Path_402" data-name="Path 402" class="cls-1" d="M27.485,46.5H17.933a1.433,1.433,0,0,0,0,2.866h9.552a1.433,1.433,0,1,0,0-2.866Z" transform="translate(-16.5 -16.41)"/>
          <path id="Path_403" data-name="Path 403" class="cls-1" d="M26.664,60.5H20.933a1.433,1.433,0,1,0,0,2.866h5.731a1.433,1.433,0,1,0,0-2.866Z" transform="translate(-16.634 -17.037)"/>
          <path id="Path_404" data-name="Path 404" class="cls-1" d="M81.485,46.5H71.933a1.433,1.433,0,0,0,0,2.866h9.552a1.433,1.433,0,1,0,0-2.866Z" transform="translate(-18.918 -16.41)"/>
          <path id="Path_405" data-name="Path 405" class="cls-1" d="M79.664,60.5H73.933a1.433,1.433,0,1,0,0,2.866h5.731a1.433,1.433,0,1,0,0-2.866Z" transform="translate(-19.007 -17.037)"/>
          <path id="Path_406" data-name="Path 406" class="cls-1" d="M27.366,77.366H34.53a1.433,1.433,0,1,0,0-2.866h-8.6A1.433,1.433,0,0,0,24.5,75.933v7.642a1.433,1.433,0,0,0,2.866,0Z" transform="translate(-16.858 -17.664)"/>
          <path id="Path_407" data-name="Path 407" class="cls-1" d="M2.866,7.642H10.03a1.433,1.433,0,0,1,0,2.866h-8.6A1.433,1.433,0,0,1,0,9.075V1.433a1.433,1.433,0,0,1,2.866,0Z" transform="translate(56.358 67.343) rotate(180)"/>
          <path id="Path_408" data-name="Path 408" class="cls-1" d="M51.366,80.858V57.933a1.433,1.433,0,1,0-2.866,0V80.858a1.433,1.433,0,1,0,2.866,0Z" transform="translate(-17.933 -16.858)"/>
        </g>
      </g>
    </g>
  </g>
</svg>
