<svg xmlns="http://www.w3.org/2000/svg" viewBox="0 0 53.378 64">
  <defs>
    <style>
      .cls-1 {
        fill: #00467e;
      }
    </style>
  </defs>
  <g id="Group_564" data-name="Group 564" transform="translate(-806.06 -1193)">
    <g id="noun_Bell_1872409" transform="translate(784 1175.5)">
      <path id="Path_409" data-name="Path 409" class="cls-1" d="M74.884,66.216l-1.165.831-1.165.831v.067a.086.086,0,0,1-.1.057H25.04a.086.086,0,0,1-.1-.057l.048-.124c2.3-3.219,7.088-9.925,7.088-23.241,0-18.617,15.99-18.894,16.669-18.894s16.669.21,16.669,18.894c0,13.316,4.776,20.012,7.088,23.231l1.213-.764,1.118-.9c-2.13-2.98-6.553-9.17-6.553-21.569,0-12.122-6.142-17.49-11.539-19.869a1.528,1.528,0,0,0,.076-.621c-.43-3.754-3.888-6.591-8.072-6.591s-7.642,2.866-8.072,6.591a1.5,1.5,0,0,0,.076.621c-5.378,2.379-11.539,7.747-11.539,19.869,0,12.418-4.432,18.6-6.6,21.636a2.866,2.866,0,0,0-.22,3.038,2.952,2.952,0,0,0,2.646,1.614H38.1c.63,5.98,5.168,10.632,10.651,10.632S58.769,76.848,59.4,70.868H72.458A2.952,2.952,0,0,0,75.1,69.254,2.866,2.866,0,0,0,74.884,66.216ZM48.749,20.366A5.149,5.149,0,0,1,53.8,23.652a21.206,21.206,0,0,0-5.053-.831,21.206,21.206,0,0,0-5.053.831,5.139,5.139,0,0,1,5.053-3.286Zm0,58.269c-3.926,0-7.174-3.372-7.766-7.766H56.515C55.923,75.291,52.675,78.634,48.749,78.634Z"/>
    </g>
    <g id="noun_Bell_1872409-2" data-name="noun_Bell_1872409" transform="translate(784 1175.5)">
      <path id="Path_409-2" data-name="Path 409" class="cls-1" d="M74.884,66.216l-1.165.831-1.165.831v.067a.086.086,0,0,1-.1.057H25.04a.086.086,0,0,1-.1-.057l.048-.124c2.3-3.219,7.088-9.925,7.088-23.241,0-18.617,15.99-18.894,16.669-18.894s16.669.21,16.669,18.894c0,13.316,4.776,20.012,7.088,23.231l1.213-.764,1.118-.9c-2.13-2.98-6.553-9.17-6.553-21.569,0-12.122-6.142-17.49-11.539-19.869a1.528,1.528,0,0,0,.076-.621c-.43-3.754-3.888-6.591-8.072-6.591s-7.642,2.866-8.072,6.591a1.5,1.5,0,0,0,.076.621c-5.378,2.379-11.539,7.747-11.539,19.869,0,12.418-4.432,18.6-6.6,21.636a2.866,2.866,0,0,0-.22,3.038,2.952,2.952,0,0,0,2.646,1.614H38.1c.63,5.98,5.168,10.632,10.651,10.632S58.769,76.848,59.4,70.868H72.458A2.952,2.952,0,0,0,75.1,69.254,2.866,2.866,0,0,0,74.884,66.216ZM48.749,20.366A5.149,5.149,0,0,1,53.8,23.652a21.206,21.206,0,0,0-5.053-.831,21.206,21.206,0,0,0-5.053.831,5.139,5.139,0,0,1,5.053-3.286Zm0,58.269c-3.926,0-7.174-3.372-7.766-7.766H56.515C55.923,75.291,52.675,78.634,48.749,78.634Z"/>
    </g>
  </g>
</svg>
