<svg xmlns="http://www.w3.org/2000/svg" viewBox="0 0 64 64">
  <defs>
    <style>
      .cls-1 {
        fill: #00467e;
      }
    </style>
  </defs>
  <g id="noun_880238_cc" transform="translate(-562 -462)">
    <path id="Path_152" data-name="Path 152" class="cls-1" d="M50.2,18.2a32,32,0,1,0,32,32A32.016,32.016,0,0,0,50.2,18.2ZM33.7,55.835A5.635,5.635,0,1,1,39.332,50.2,5.626,5.626,0,0,1,33.7,55.835Zm16.5,0A5.635,5.635,0,1,1,55.835,50.2,5.626,5.626,0,0,1,50.2,55.835Zm16.5,0A5.635,5.635,0,1,1,72.338,50.2,5.691,5.691,0,0,1,66.7,55.835Z" transform="translate(543.8 443.8)"/>
  </g>
</svg>
