<svg xmlns="http://www.w3.org/2000/svg" viewBox="0 0 64 64">
  <defs>
    <style>
      .cls-1 {
        fill: #00467e;
      }
    </style>
  </defs>
  <g id="noun_binder_1840515" transform="translate(-667 -196)">
    <g id="Group_304" data-name="Group 304" transform="translate(667 196)">
      <path id="Path_258" data-name="Path 258" class="cls-1" d="M53.16,64H35.892a1.1,1.1,0,0,1-1.1-1.1V1.1a1.1,1.1,0,0,1,1.1-1.1H53.16a1.1,1.1,0,0,1,1.1,1.1V62.9A1.1,1.1,0,0,1,53.16,64ZM36.987,61.809H52.065V2.191H36.987Z" transform="translate(-12.527)"/>
      <path id="Path_259" data-name="Path 259" class="cls-1" d="M53.16,64H35.892a1.1,1.1,0,0,1-1.1-1.1V1.1a1.1,1.1,0,0,1,1.1-1.1H53.16a1.1,1.1,0,0,1,1.1,1.1V62.9A1.1,1.1,0,0,1,53.16,64ZM36.987,61.809H52.065V2.191H36.987Z" transform="translate(-12.527)"/>
      <path id="Path_260" data-name="Path 260" class="cls-1" d="M47.2,83.86a4.966,4.966,0,1,1,4.966-4.966A4.953,4.953,0,0,1,47.2,83.86Zm0-7.74a2.775,2.775,0,1,0,2.775,2.775A2.759,2.759,0,0,0,47.2,76.12Z" transform="translate(-15.217 -26.615)"/>
      <path id="Path_261" data-name="Path 261" class="cls-1" d="M50.857,50.046H43.993a1.1,1.1,0,0,1-1.1-1.1V24.2a1.1,1.1,0,0,1,1.1-1.1h6.864a1.1,1.1,0,0,1,1.1,1.1V48.95A1.1,1.1,0,0,1,50.857,50.046Zm-5.769-2.191h4.673V25.293H45.088Z" transform="translate(-15.443 -8.317)"/>
      <path id="Path_262" data-name="Path 262" class="cls-1" d="M38.3,12.744h-2.41a1.1,1.1,0,1,1,0-2.191H38.3a1.1,1.1,0,0,1,0,2.191Z" transform="translate(-12.527 -3.799)"/>
      <path id="Path_263" data-name="Path 263" class="cls-1" d="M61.519,12.744H59.11a1.1,1.1,0,1,1,0-2.191h2.409a1.1,1.1,0,1,1,0,2.191Z" transform="translate(-20.885 -3.799)"/>
      <path id="Path_264" data-name="Path 264" class="cls-1" d="M18.364,64H1.1A1.1,1.1,0,0,1,0,62.9V1.1A1.1,1.1,0,0,1,1.1,0H18.364a1.1,1.1,0,0,1,1.1,1.1V62.9A1.1,1.1,0,0,1,18.364,64ZM2.191,61.809H17.268V2.191H2.191Z"/>
      <path id="Path_265" data-name="Path 265" class="cls-1" d="M18.364,64H1.1A1.1,1.1,0,0,1,0,62.9V1.1A1.1,1.1,0,0,1,1.1,0H18.364a1.1,1.1,0,0,1,1.1,1.1V62.9A1.1,1.1,0,0,1,18.364,64ZM2.191,61.809H17.268V2.191H2.191Z"/>
      <path id="Path_266" data-name="Path 266" class="cls-1" d="M12.438,83.86a4.966,4.966,0,1,1,4.929-4.966A4.971,4.971,0,0,1,12.438,83.86Zm0-7.74a2.775,2.775,0,1,0,2.738,2.775A2.745,2.745,0,0,0,12.438,76.12Z" transform="translate(-2.69 -26.615)"/>
      <path id="Path_267" data-name="Path 267" class="cls-1" d="M16.116,50.046H9.252a1.1,1.1,0,0,1-1.1-1.1V24.2a1.1,1.1,0,0,1,1.1-1.1h6.864a1.1,1.1,0,0,1,1.1,1.1V48.95A1.1,1.1,0,0,1,16.116,50.046Zm-5.768-2.191H15.02V25.293H10.348V47.855Z" transform="translate(-2.936 -8.317)"/>
      <path id="Path_268" data-name="Path 268" class="cls-1" d="M3.5,12.744H1.1a1.1,1.1,0,0,1,0-2.191H3.5a1.1,1.1,0,0,1,0,2.191Z" transform="translate(0 -3.799)"/>
      <path id="Path_269" data-name="Path 269" class="cls-1" d="M26.722,12.744h-2.41a1.1,1.1,0,0,1,0-2.191h2.41a1.1,1.1,0,1,1,0,2.191Z" transform="translate(-8.358 -3.799)"/>
      <path id="Path_270" data-name="Path 270" class="cls-1" d="M87.938,64H70.632a1.1,1.1,0,0,1-1.1-1.1V1.1a1.1,1.1,0,0,1,1.1-1.1H87.938a1.1,1.1,0,0,1,1.1,1.1V62.9A1.1,1.1,0,0,1,87.938,64Zm-16.21-2.191H86.842V2.191H71.728Z" transform="translate(-25.033)"/>
      <path id="Path_271" data-name="Path 271" class="cls-1" d="M87.938,64H70.632a1.1,1.1,0,0,1-1.1-1.1V1.1a1.1,1.1,0,0,1,1.1-1.1H87.938a1.1,1.1,0,0,1,1.1,1.1V62.9A1.1,1.1,0,0,1,87.938,64Zm-16.21-2.191H86.842V2.191H71.728Z" transform="translate(-25.033)"/>
      <path id="Path_272" data-name="Path 272" class="cls-1" d="M81.974,83.86a4.966,4.966,0,1,1,4.966-4.966A4.971,4.971,0,0,1,81.974,83.86Zm0-7.74a2.775,2.775,0,0,0,0,5.549,2.775,2.775,0,1,0,0-5.549Z" transform="translate(-27.723 -26.615)"/>
      <path id="Path_273" data-name="Path 273" class="cls-1" d="M85.654,50.046H78.79a1.1,1.1,0,0,1-1.1-1.1V24.2a1.1,1.1,0,0,1,1.1-1.1h6.864a1.1,1.1,0,0,1,1.1,1.1V48.95A1.1,1.1,0,0,1,85.654,50.046Zm-5.768-2.191h4.673V25.293H79.886Z" transform="translate(-27.97 -8.317)"/>
      <path id="Path_274" data-name="Path 274" class="cls-1" d="M73.079,12.744H70.632a1.1,1.1,0,0,1,0-2.191h2.446a1.1,1.1,0,0,1,0,2.191Z" transform="translate(-25.033 -3.799)"/>
      <path id="Path_275" data-name="Path 275" class="cls-1" d="M96.317,12.744h-2.41a1.1,1.1,0,1,1,0-2.191h2.41a1.1,1.1,0,1,1,0,2.191Z" transform="translate(-33.412 -3.799)"/>
    </g>
  </g>
</svg>
