<svg xmlns="http://www.w3.org/2000/svg" viewBox="0 0 64 64">
  <defs>
    <style>
      .cls-1 {
        fill: #00467e;
      }
    </style>
  </defs>
  <g id="noun_clock_61154" transform="translate(-5 -5)">
    <path id="Path_346" data-name="Path 346" class="cls-1" d="M37,8.689c14.53,0,28.308,13.78,28.308,28.311S51.53,65.311,37,65.311,8.692,51.531,8.692,37,22.471,8.689,37,8.689ZM5,37A32,32,0,1,0,37,5,32,32,0,0,0,5,37Z"/>
    <path id="Path_347" data-name="Path 347" class="cls-1" d="M67.937,52.067a2.847,2.847,0,0,1-3.886,1.042l-.01-.007L47.423,43.507a2.83,2.83,0,0,1-1.411-2.463H46v-19.2a2.844,2.844,0,0,1,5.689,0V39.4L66.9,48.18A2.846,2.846,0,0,1,67.937,52.067Z" transform="translate(-11.844 -4.044)"/>
  </g>
</svg>
