<svg xmlns="http://www.w3.org/2000/svg" viewBox="0 0 62.27 64">
  <defs>
    <style>
      .cls-1 {
        fill: #00467e;
      }
    </style>
  </defs>
  <g id="noun_857968_cc" transform="translate(-456 -460)">
    <g id="Group_19" data-name="Group 19" transform="translate(456 460)">
      <path id="Path_87" data-name="Path 87" class="cls-1" d="M56.013,7.313H50.825V2.125H47.364V7.313H19.69V2.125H16.229V7.313H11.041a8.657,8.657,0,0,0-8.649,8.649V57.476a8.657,8.657,0,0,0,8.649,8.649H56.013a8.657,8.657,0,0,0,8.649-8.649V15.962A8.66,8.66,0,0,0,56.013,7.313ZM61.2,57.476a5.193,5.193,0,0,1-5.188,5.188H11.041a5.193,5.193,0,0,1-5.188-5.188V24.611H61.2Zm0-36.323H5.85V15.962a5.193,5.193,0,0,1,5.188-5.188h5.188v3.461H19.69V10.774H47.367v3.461h3.461V10.774h5.188A5.193,5.193,0,0,1,61.2,15.962Z" transform="translate(-2.392 -2.125)"/>
      <path id="Path_88" data-name="Path 88" class="cls-1" d="M13.325,23.971h6.918A3.464,3.464,0,0,0,23.7,20.51V13.592a3.464,3.464,0,0,0-3.461-3.461H13.325a3.464,3.464,0,0,0-3.461,3.461V20.51A3.469,3.469,0,0,0,13.325,23.971Zm0-10.379h6.918l0,6.918H13.325V13.592Z" transform="translate(14.349 15.812)"/>
      <path id="Path_89" data-name="Path 89" class="cls-1" d="M18.663,23.971h6.918a3.464,3.464,0,0,0,3.461-3.461V13.592a3.464,3.464,0,0,0-3.461-3.461H18.663A3.464,3.464,0,0,0,15.2,13.592V20.51A3.469,3.469,0,0,0,18.663,23.971Zm0-10.379h6.918l0,6.918H18.663Z" transform="translate(26.309 15.812)"/>
      <path id="Path_90" data-name="Path 90" class="cls-1" d="M7.988,29.309h6.918a3.464,3.464,0,0,0,3.461-3.461V18.93a3.464,3.464,0,0,0-3.461-3.461H7.988A3.464,3.464,0,0,0,4.527,18.93v6.918A3.464,3.464,0,0,0,7.988,29.309Zm0-10.379h6.918l0,6.918H7.988Z" transform="translate(2.391 27.772)"/>
      <path id="Path_91" data-name="Path 91" class="cls-1" d="M13.325,29.309h6.918A3.464,3.464,0,0,0,23.7,25.848V18.93a3.464,3.464,0,0,0-3.461-3.461H13.325A3.464,3.464,0,0,0,9.864,18.93v6.918A3.469,3.469,0,0,0,13.325,29.309Zm0-10.379h6.918l0,6.918H13.325V18.93Z" transform="translate(14.349 27.772)"/>
      <path id="Path_92" data-name="Path 92" class="cls-1" d="M18.663,29.309h6.918a3.464,3.464,0,0,0,3.461-3.461V18.93a3.464,3.464,0,0,0-3.461-3.461H18.663A3.464,3.464,0,0,0,15.2,18.93v6.918A3.469,3.469,0,0,0,18.663,29.309Zm0-10.379h6.918l0,6.918H18.663Z" transform="translate(26.309 27.772)"/>
    </g>
  </g>
</svg>
