<svg xmlns="http://www.w3.org/2000/svg" viewBox="0 0 65.094 65">
  <defs>
    <style>
      .cls-1 {
        fill: #00467e;
        stroke: #003c6d;
      }
    </style>
  </defs>
  <g id="noun_Gear_253892" transform="translate(-15.3 -15.4)">
    <path id="Path_338" data-name="Path 338" class="cls-1" d="M77.266,53.906a3.205,3.205,0,0,0,2.628-3.1V44.991a3.059,3.059,0,0,0-2.628-3.1L72.1,41.05A26.889,26.889,0,0,0,69.853,35.7l3-4.317a3.03,3.03,0,0,0-.375-4.035L68.539,23.22a3.277,3.277,0,0,0-2.252-.938,3.384,3.384,0,0,0-1.877.563l-4.317,3.1a28.54,28.54,0,0,0-5.537-2.252l-.845-5.161a3.205,3.205,0,0,0-3.1-2.628H44.8a3.059,3.059,0,0,0-3.1,2.628l-.845,5.255a26.889,26.889,0,0,0-5.349,2.252l-4.223-3a3.384,3.384,0,0,0-1.877-.563,3.277,3.277,0,0,0-2.252.938l-4.129,4.129a3.147,3.147,0,0,0-.375,4.035l3.1,4.317a22.04,22.04,0,0,0-2.158,5.349l-5.161.845a3.205,3.205,0,0,0-2.628,3.1V51a3.059,3.059,0,0,0,2.628,3.1l5.255.845a26.889,26.889,0,0,0,2.252,5.349l-3,4.223a3.03,3.03,0,0,0,.375,4.035l4.129,4.129a3.277,3.277,0,0,0,2.252.938,3.384,3.384,0,0,0,1.877-.563l4.317-3.1a27.344,27.344,0,0,0,5.161,2.158l.845,5.161a3.205,3.205,0,0,0,3.1,2.628H50.8a3.059,3.059,0,0,0,3.1-2.628l.845-5.161a26.889,26.889,0,0,0,5.349-2.252l4.317,3a3.384,3.384,0,0,0,1.877.563h0a3.277,3.277,0,0,0,2.252-.938l4.129-4.129a3.147,3.147,0,0,0,.375-4.035L69.853,60.1A26.889,26.889,0,0,0,72.1,54.75Zm-6.85-.188a24.046,24.046,0,0,1-2.534,6.006,1.017,1.017,0,0,0,0,1.032l3.378,4.786a1.269,1.269,0,0,1-.094,1.6l-4.129,4.129a1.2,1.2,0,0,1-.938.375h0a2.209,2.209,0,0,1-.751-.188l-4.786-3.378a.845.845,0,0,0-1.032,0,20.749,20.749,0,0,1-6.006,2.44.8.8,0,0,0-.657.751l-.938,5.818a1.3,1.3,0,0,1-1.22,1.032H44.891a1.221,1.221,0,0,1-1.22-1.032l-.938-5.818a1.073,1.073,0,0,0-.657-.751,21.241,21.241,0,0,1-5.818-2.44.846.846,0,0,0-.469-.094,1.334,1.334,0,0,0-.563.188l-4.786,3.378a1.269,1.269,0,0,1-1.6-.094l-4.129-4.129a1.167,1.167,0,0,1-.094-1.6L28,60.944a.845.845,0,0,0,0-1.032,22.663,22.663,0,0,1-2.534-6.006.8.8,0,0,0-.751-.657L18.8,52.217A1.3,1.3,0,0,1,17.771,51V45.179a1.221,1.221,0,0,1,1.032-1.22l5.724-.938a1.018,1.018,0,0,0,.751-.751,23.761,23.761,0,0,1,2.44-6.006.853.853,0,0,0-.094-1.032l-3.378-4.786a1.269,1.269,0,0,1,.094-1.6l4.129-4.129a1.167,1.167,0,0,1,1.6-.094l4.786,3.378a.845.845,0,0,0,1.032,0,22.663,22.663,0,0,1,6.006-2.534.8.8,0,0,0,.657-.751L43.577,18.9a1.3,1.3,0,0,1,1.22-1.032h5.818a1.221,1.221,0,0,1,1.22,1.032l.938,5.724a1.018,1.018,0,0,0,.751.751,23.274,23.274,0,0,1,6.1,2.534,1.017,1.017,0,0,0,1.032,0l4.786-3.378a1.269,1.269,0,0,1,1.6.094l4.129,4.129a1.167,1.167,0,0,1,.094,1.6l-3.378,4.786a.845.845,0,0,0,0,1.032,20.749,20.749,0,0,1,2.44,6.006.8.8,0,0,0,.751.657l5.818.938a1.3,1.3,0,0,1,1.032,1.22v5.818a1.221,1.221,0,0,1-1.032,1.22l-5.818.938A1.073,1.073,0,0,0,70.416,53.718ZM47.894,33.73A14.17,14.17,0,1,0,62.064,47.9,14.218,14.218,0,0,0,47.894,33.73Zm0,26.463A12.293,12.293,0,1,1,60.187,47.9,12.335,12.335,0,0,1,47.894,60.193Z"/>
  </g>
</svg>
