<svg xmlns="http://www.w3.org/2000/svg" viewBox="0 0 64 52.364">
  <defs>
    <style>
      .cls-1 {
        fill: #00467e;
      }
    </style>
  </defs>
  <g id="Group_555" data-name="Group 555" transform="translate(-31 -1213)">
    <g id="noun_chat_1312208" transform="translate(25 1199)">
      <g id="Group_534" data-name="Group 534" transform="translate(6 14)">
        <path id="Path_395" data-name="Path 395" class="cls-1" d="M14.727,966.362A8.742,8.742,0,0,0,6,975.094v21.829a8.742,8.742,0,0,0,8.727,8.731H29.886c2.173,4.188,4.827,8.294,6.818,12.279a1.454,1.454,0,0,0,2.591,0c1.991-3.984,4.645-8.091,6.818-12.279H61.273A8.742,8.742,0,0,0,70,996.922V975.094a8.742,8.742,0,0,0-8.727-8.732H14.727Zm0,2.911H61.273a5.775,5.775,0,0,1,5.818,5.821v21.829a5.775,5.775,0,0,1-5.818,5.821h-16a1.455,1.455,0,0,0-1.3.8c-1.745,3.491-3.979,7.108-5.977,10.755-2-3.647-4.233-7.264-5.977-10.755a1.455,1.455,0,0,0-1.3-.793h-16a5.775,5.775,0,0,1-5.818-5.821V975.1a5.775,5.775,0,0,1,5.818-5.821Zm4.955,7.276a1.457,1.457,0,0,0,.136,2.911h4.364a1.455,1.455,0,0,0,0-2.911H19.818q-.068,0-.136,0Zm10.909,0a1.457,1.457,0,0,0,.136,2.911h4.364a1.455,1.455,0,0,0,0-2.911H30.727q-.068,0-.136,0Zm10.182,0a1.457,1.457,0,0,0,.136,2.911h4.364a1.455,1.455,0,0,0,0-2.911H40.909q-.068,0-.136,0Zm10.909,0a1.457,1.457,0,0,0,.136,2.911h4.364a1.455,1.455,0,0,0,0-2.911H51.818q-.068,0-.136,0Zm-32,8a1.457,1.457,0,0,0,.136,2.911H37.273a1.455,1.455,0,0,0,0-2.911H19.818Q19.75,984.549,19.682,984.553Zm23.273,0a1.457,1.457,0,0,0,.136,2.911H56.182a1.455,1.455,0,0,0,0-2.911H43.091Q43.023,984.549,42.955,984.553Zm-23.273,8a1.457,1.457,0,0,0,.136,2.911H56.182a1.455,1.455,0,0,0,0-2.911H19.818Q19.75,992.553,19.682,992.556Z" transform="translate(-6 -966.362)"/>
      </g>
    </g>
  </g>
</svg>
