<svg xmlns="http://www.w3.org/2000/svg" viewBox="0 0 64 64">
  <defs>
    <style>
      .cls-1 {
        fill: #00467e;
      }
    </style>
  </defs>
  <path id="Exclusion_24" data-name="Exclusion 24" class="cls-1" d="M-136-907a31.8,31.8,0,0,1-12.456-2.515,31.894,31.894,0,0,1-10.172-6.858,31.894,31.894,0,0,1-6.858-10.171A31.8,31.8,0,0,1-168-939a31.8,31.8,0,0,1,2.515-12.456,31.894,31.894,0,0,1,6.858-10.172,31.894,31.894,0,0,1,10.172-6.858A31.8,31.8,0,0,1-136-971a31.8,31.8,0,0,1,12.456,2.515,31.893,31.893,0,0,1,10.171,6.858,31.894,31.894,0,0,1,6.858,10.172A31.8,31.8,0,0,1-104-939a31.8,31.8,0,0,1-2.515,12.455,31.893,31.893,0,0,1-6.858,10.171,31.892,31.892,0,0,1-10.171,6.858A31.8,31.8,0,0,1-136-907Zm-6.422-16.627h.07a2.938,2.938,0,0,0,2.093-.868l23.814-23.814a2.964,2.964,0,0,0,0-4.186,2.94,2.94,0,0,0-2.093-.867,2.94,2.94,0,0,0-2.093.867L-142.421-930.7l-9.3-9.3a2.941,2.941,0,0,0-2.093-.867,2.939,2.939,0,0,0-2.093.867,2.939,2.939,0,0,0-.867,2.093,2.941,2.941,0,0,0,.867,2.093l11.322,11.321a2.935,2.935,0,0,0,2.091.868Z" transform="translate(168 971)"/>
</svg>
