<svg xmlns="http://www.w3.org/2000/svg" viewBox="0 0 50.235 65">
  <defs>
    <style>
      .cls-1 {
        fill: #00467e;
        stroke: #00467e;
        stroke-linecap: round;
        stroke-linejoin: round;
      }
    </style>
  </defs>
  <g id="noun_Calculator_1863490" transform="translate(-94.302 -63.7)">
    <g id="Group_421" data-name="Group 421" transform="translate(94.802 64.2)">
      <g id="Group_402" data-name="Group 402">
        <g id="Group_401" data-name="Group 401">
          <path id="Path_324" data-name="Path 324" class="cls-1" d="M215.2,122.768a4.028,4.028,0,0,1-2.179,3.557,4.219,4.219,0,0,1-1.957.436h-38.16a4.1,4.1,0,0,1-2.486-.8,4.033,4.033,0,0,1-1.586-3.2V69.9c0-.164,0-.329.007-.493a4.026,4.026,0,0,1,2.343-3.443,6.32,6.32,0,0,1,2.729-.35h37.238a4.039,4.039,0,0,1,4.057,4.007c.007.486,0,.971,0,1.457v50.553c-.007.371-.007.757-.007,1.136a.715.715,0,0,0,1.429,0V70.722a13.559,13.559,0,0,0-.05-1.786A5.491,5.491,0,0,0,211.1,64.2H172.872a5.44,5.44,0,0,0-5.472,5.422v52.925a5.527,5.527,0,0,0,2.972,5.065,7.409,7.409,0,0,0,3.443.586h35.224c.707,0,1.422.007,2.129,0a5.491,5.491,0,0,0,5.457-5.422A.711.711,0,0,0,215.2,122.768Z" transform="translate(-167.4 -64.2)"/>
        </g>
      </g>
      <g id="Group_404" data-name="Group 404" transform="translate(6.665 7.207)">
        <g id="Group_403" data-name="Group 403">
          <path id="Path_325" data-name="Path 325" class="cls-1" d="M295.888,176.99H262.822c-.443,0-.9-.036-1.343,0h-.057l.714.714V165.825l-.714.714h33.066c.443,0,.9.036,1.343,0h.057l-.714-.714V177.7a.715.715,0,0,0,1.429,0V165.825a.726.726,0,0,0-.714-.714H265.672c-1.393,0-2.8-.05-4.2,0h-.057a.726.726,0,0,0-.714.714V177.7a.726.726,0,0,0,.714.714H291.63c1.393,0,2.8.05,4.2,0h.057A.715.715,0,0,0,295.888,176.99Z" transform="translate(-260.7 -165.089)"/>
        </g>
      </g>
      <g id="Group_406" data-name="Group 406" transform="translate(6.665 25.137)">
        <g id="Group_405" data-name="Group 405">
          <path id="Path_326" data-name="Path 326" class="cls-1" d="M269.508,422.765h-8.093l.714.714v-6.665l-.714.714h8.093l-.714-.714v6.665a.715.715,0,0,0,1.429,0v-6.665a.726.726,0,0,0-.714-.714h-8.093a.726.726,0,0,0-.714.714v6.665a.726.726,0,0,0,.714.714h8.093A.715.715,0,0,0,269.508,422.765Z" transform="translate(-260.7 -416.1)"/>
        </g>
      </g>
      <g id="Group_408" data-name="Group 408" transform="translate(19.851 25.137)">
        <g id="Group_407" data-name="Group 407">
          <path id="Path_327" data-name="Path 327" class="cls-1" d="M454.108,422.765h-8.093l.714.714v-6.665l-.714.714h8.093l-.714-.714v6.665a.715.715,0,0,0,1.429,0v-6.665a.726.726,0,0,0-.714-.714h-8.093a.726.726,0,0,0-.714.714v6.665a.726.726,0,0,0,.714.714h8.093A.715.715,0,0,0,454.108,422.765Z" transform="translate(-445.3 -416.1)"/>
        </g>
      </g>
      <g id="Group_410" data-name="Group 410" transform="translate(33.045 25.137)">
        <g id="Group_409" data-name="Group 409">
          <path id="Path_328" data-name="Path 328" class="cls-1" d="M638.808,422.765h-8.093l.714.714v-6.665l-.714.714h8.093l-.714-.714v6.665a.715.715,0,0,0,1.429,0v-6.665a.726.726,0,0,0-.714-.714h-8.093a.726.726,0,0,0-.714.714v6.665a.726.726,0,0,0,.714.714h8.093A.715.715,0,0,0,638.808,422.765Z" transform="translate(-630 -416.1)"/>
        </g>
      </g>
      <g id="Group_412" data-name="Group 412" transform="translate(6.665 37.195)">
        <g id="Group_411" data-name="Group 411">
          <path id="Path_329" data-name="Path 329" class="cls-1" d="M269.508,591.565h-8.093l.714.714v-6.665l-.714.714h8.093l-.714-.714v6.665a.715.715,0,0,0,1.429,0v-6.665a.726.726,0,0,0-.714-.714h-8.093a.726.726,0,0,0-.714.714v6.665a.726.726,0,0,0,.714.714h8.093A.715.715,0,0,0,269.508,591.565Z" transform="translate(-260.7 -584.9)"/>
        </g>
      </g>
      <g id="Group_414" data-name="Group 414" transform="translate(19.851 37.195)">
        <g id="Group_413" data-name="Group 413">
          <path id="Path_330" data-name="Path 330" class="cls-1" d="M454.108,591.565h-8.093l.714.714v-6.665l-.714.714h8.093l-.714-.714v6.665a.715.715,0,0,0,1.429,0v-6.665a.726.726,0,0,0-.714-.714h-8.093a.726.726,0,0,0-.714.714v6.665a.726.726,0,0,0,.714.714h8.093A.715.715,0,0,0,454.108,591.565Z" transform="translate(-445.3 -584.9)"/>
        </g>
      </g>
      <g id="Group_416" data-name="Group 416" transform="translate(6.665 49.26)">
        <g id="Group_415" data-name="Group 415">
          <path id="Path_331" data-name="Path 331" class="cls-1" d="M269.508,760.465h-8.093l.714.714v-6.665l-.714.714h8.093l-.714-.714v6.665a.715.715,0,0,0,1.429,0v-6.665a.726.726,0,0,0-.714-.714h-8.093a.726.726,0,0,0-.714.714v6.665a.726.726,0,0,0,.714.714h8.093A.715.715,0,0,0,269.508,760.465Z" transform="translate(-260.7 -753.8)"/>
        </g>
      </g>
      <g id="Group_418" data-name="Group 418" transform="translate(19.851 49.26)">
        <g id="Group_417" data-name="Group 417">
          <path id="Path_332" data-name="Path 332" class="cls-1" d="M454.108,760.465h-8.093l.714.714v-6.665l-.714.714h8.093l-.714-.714v6.665a.715.715,0,0,0,1.429,0v-6.665a.726.726,0,0,0-.714-.714h-8.093a.726.726,0,0,0-.714.714v6.665a.726.726,0,0,0,.714.714h8.093A.715.715,0,0,0,454.108,760.465Z" transform="translate(-445.3 -753.8)"/>
        </g>
      </g>
      <g id="Group_420" data-name="Group 420" transform="translate(33.045 37.202)">
        <g id="Group_419" data-name="Group 419">
          <path id="Path_333" data-name="Path 333" class="cls-1" d="M638.093,585.714v18.723l.714-.714h-8.093l.714.714V585.714l-.714.714h8.093a.715.715,0,0,0,0-1.429h-8.093a.726.726,0,0,0-.714.714v18.723a.726.726,0,0,0,.714.714h8.093a.726.726,0,0,0,.714-.714V585.714A.715.715,0,0,0,638.093,585.714Z" transform="translate(-630 -585)"/>
        </g>
      </g>
    </g>
  </g>
</svg>
