<svg xmlns="http://www.w3.org/2000/svg" viewBox="0 0 64 64">
  <defs>
    <style>
      .cls-1 {
        fill: #00467e;
      }
    </style>
  </defs>
  <g id="noun_database_1698569" transform="translate(300.42 -185.82)">
    <path id="Path_351" data-name="Path 351" class="cls-1" d="M69.58,18.588c0-8.292-16.488-12.768-32-12.768s-32,4.476-32,12.768V57.052c0,8.292,16.488,12.768,32,12.768s32-4.471,32-12.768v-37.7a1.844,1.844,0,0,0-.021-.263C69.572,18.917,69.58,18.754,69.58,18.588ZM65.905,44.347c0,2-2.921,4.292-7.612,6-5.512,1.993-12.861,3.09-20.7,3.09a72.565,72.565,0,0,1-15.005-1.486c-9.2-1.983-13.32-5.247-13.32-7.6V37.812c2.766,2.1,7.026,3.821,12.549,5.01A76.364,76.364,0,0,0,37.591,44.4c11.052,0,22.6-2.275,28.325-6.575Zm0-12.726c0,2-2.921,4.295-7.612,6-5.512,1.993-12.861,3.093-20.7,3.093a72.566,72.566,0,0,1-15.005-1.488c-9.2-1.98-13.32-5.244-13.32-7.6V24.784c5.727,4.305,17.273,6.575,28.325,6.575s22.6-2.272,28.325-6.575ZM16.877,12.594C22.388,10.6,29.737,9.5,37.58,9.5c17.549,0,28.325,5.294,28.325,9.086,0,2-2.921,4.295-7.612,6-5.512,1.993-12.861,3.09-20.7,3.09-17.559,0-28.336-5.291-28.336-9.086C9.255,16.594,12.176,14.3,16.877,12.594ZM58.283,63.046c-5.512,1.993-12.861,3.093-20.7,3.093-17.549,0-28.325-5.294-28.325-9.086V50.535c2.766,2.1,7.026,3.821,12.549,5.012A76.369,76.369,0,0,0,37.58,57.126c11.052,0,22.6-2.272,28.325-6.575v6.517C65.905,59.046,62.984,61.357,58.283,63.046Z" transform="translate(-306 180)"/>
  </g>
</svg>
