<svg viewBox="0 0 71.899 64" xmlns="http://www.w3.org/2000/svg">
 <path d="m35.916 0c-14.646 1.8504e-17 -29.293 0.070275-29.842 0.20898-2.6415 0.66807-4.9704 2.849-5.7754 5.4082l-0.29883 0.94727v19.428 19.426l0.29883 0.94726c0.7819 2.4858 2.9318 4.5586 5.5762 5.375 0.57055 0.17608 2.1281 0.21195 10.715 0.25195 5.5259 0.025775 10.048 0.089005 10.049 0.14062 0.001046 0.051624-0.47973 1.8646-1.168 3.998l-1.1699 3.6289h-3.1797c-3.5487 0.001233-4.1966 0.37417-4.6953 0.9668-0.88622 1.0532-0.41984 2.8233 0.83203 3.1582 0.32403 0.086605 6.9575 0.12694 18.859 0.11328 20.1-0.022472 18.8 0.03013 19.414-0.79883 0.39154-0.52893 0.39154-1.7875 0-2.3164-0.54324-0.73387-0.76042-1.1194-4.4609-1.166l-3.4043-0.042969-1.1895-3.4844c-0.65421-2.106-1.2164-3.8999-1.248-3.9883-0.044315-0.12391 2.2388-0.17256 10.002-0.20898 8.5974-0.040084 10.156-0.075801 10.727-0.25195 1.7625-0.54411 3.2894-1.5952 4.291-2.9551 0.8153-1.1069 1.0845-1.6608 1.3926-2.8652 0.2498-0.97784 0.25781-1.6485 0.25781-19.928-1e-6 -18.279-0.007713-18.952-0.25781-19.93-0.30805-1.2045-0.57728-1.7563-1.3926-2.8633-1.0464-1.4207-2.7373-2.5469-4.4902-2.9902-0.54845-0.13871-15.195-0.20898-29.842-0.20898zm0 4.377c25.228 0 28.808 0.024116 29.404 0.20117 0.89963 0.26716 1.4897 0.75994 1.9062 1.6816l0.31836 0.70508v19.027 19.025l-0.31836 0.70508c-0.41652 0.9217-1.0066 1.3461-1.9062 1.6133-0.9967 0.29624-57.901 0.28845-58.863-0.007813-0.84001-0.25862-1.5202-0.72083-1.9199-1.6055l-0.31836-0.70508v-19.025-19.027l0.31836-0.70508c0.41652-0.9217 1.0769-1.4145 1.9766-1.6816 0.59621-0.17708 4.1746-0.20117 29.402-0.20117zm-4.6191 47.717h4.6211 4.6211l1.1797 3.9395c0.64899 2.1663 1.1816 3.677 1.1836 3.6953 0.001848 0.01833-2.8421 0.033203-6.9961 0.033203h-6.998l0.097656-0.30078c0.054099-0.16522 0.59256-1.6759 1.1953-3.6953l1.0957-3.6719z" fill="#00467e" stroke-width=".13352"/>
</svg>
