<svg viewBox="0 0 71.899 64" xmlns="http://www.w3.org/2000/svg">
 <path d="m30.23 0c-12.351 0.016468-23.686 0.074346-24.156 0.19336-2.6415 0.66806-4.9704 2.849-5.7754 5.4082l-0.29883 0.94727v19.428 19.426l0.29883 0.94726c0.7819 2.4858 2.9318 4.5586 5.5762 5.375 0.57054 0.17608 2.1281 0.21195 10.715 0.25195 5.5259 0.02578 10.048 0.089012 10.049 0.14063 1e-3 0.051619-0.47973 1.8646-1.168 3.998l-1.1699 3.6289h-3.1797c-3.5487 0.0012-4.1966 0.37417-4.6953 0.9668-0.88622 1.0532-0.41983 2.8233 0.83203 3.1582 0.32402 0.0866 6.9575 0.12694 18.859 0.11328 20.1-0.02247 18.8 0.030129 19.414-0.79883 0.39154-0.52893 0.39154-1.7875 0-2.3164-0.54324-0.73386-0.76044-1.1194-4.4609-1.166l-3.4043-0.042969-1.1895-3.4844c-0.65421-2.106-1.2164-3.8999-1.248-3.9883-0.04431-0.12391 2.2388-0.17257 10.002-0.20898 8.5974-0.040079 10.156-0.075799 10.727-0.25195 1.7625-0.5441 3.2894-1.5952 4.291-2.9551 0.8153-1.1069 1.0845-1.6608 1.3926-2.8652 0.2498-0.97783 0.25781-1.6486 0.25781-19.928-1e-6 -18.279-0.007713-18.952-0.25781-19.93-0.30805-1.2045-0.57728-1.7563-1.3926-2.8633-1.0464-1.4207-2.7373-2.5469-4.4902-2.9902-0.46966-0.11878-11.768-0.17493-24.09-0.19141v4.3691c17.815 0.0065599 23.13 0.036226 23.652 0.19141 0.89963 0.26716 1.4897 0.75995 1.9062 1.6816l0.31836 0.70508v19.027 19.025l-0.31836 0.70508c-0.41652 0.92169-1.0066 1.3461-1.9062 1.6133-0.9967 0.29623-57.901 0.28843-58.863-0.007812-0.84001-0.25863-1.5202-0.72083-1.9199-1.6055l-0.31836-0.70508v-19.025-19.027l0.31836-0.70508c0.41652-0.92169 1.0769-1.4145 1.9766-1.6816 0.5234-0.15546 5.8262-0.18494 23.717-0.19141v-4.3711zm3.8711 0v29.174l-7.9336-7.9336c-0.34658-0.34646-0.81659-0.54106-1.3066-0.54102-0.49005-4.6e-5 -0.96006 0.19456-1.3066 0.54102-0.72158 0.72166-0.72158 1.8916 0 2.6133l12.395 12.395 12.395-12.395c0.72158-0.72166 0.72158-1.8916 0-2.6133-0.72166-0.72158-1.8916-0.72158-2.6133 0l-7.9336 7.9336v-29.174h-3.6953zm-2.8047 52.078h4.6211 4.6211l1.1797 3.9395c0.64898 2.1663 1.1816 3.677 1.1836 3.6953 0.0018 0.01833-2.8421 0.033203-6.9961 0.033203h-6.998l0.097656-0.30078c0.0541-0.16522 0.59256-1.6759 1.1953-3.6953l1.0957-3.6719z" fill="#00467e" stroke-width=".13352"/>
</svg>
