<svg viewBox="0 0 71.899 64" xmlns="http://www.w3.org/2000/svg">
 <path d="m17.258 63.884c-1.2519-0.33492-1.7181-2.105-0.83192-3.1582 0.49866-0.59263 1.1467-0.96458 4.6954-0.96581l3.1787-0.0011 1.1702-3.6274c0.68824-2.1335 1.1693-3.9465 1.1683-3.9981-0.0011-0.05162-4.5231-0.11497-10.049-0.14074-8.5868-0.040001-10.144-0.076885-10.715-0.25297-2.6444-0.81641-4.795-2.8891-5.5769-5.3748l-0.29787-0.94697v-38.853l0.29787-0.94697c0.80499-2.5592 3.1357-4.7416 5.7772-5.4096 1.0969-0.27742 58.585-0.27742 59.682 0 1.753 0.44335 3.4446 1.5698 4.4909 2.9904 0.8153 1.1069 1.084 1.6598 1.392 2.8643 0.2501 0.97783 0.2588 1.6494 0.2588 19.929 0 18.279-9e-3 18.951-0.2588 19.929-0.30805 1.2045-0.57673 1.7573-1.392 2.8643-1.0016 1.3599-2.5282 2.4115-4.2907 2.9556-0.57058 0.17615-2.1292 0.21293-10.727 0.25301-7.7632 0.03642-10.046 0.08355-10.002 0.20746 0.03164 0.08836 0.59269 1.8837 1.2469 3.9898l1.1895 3.4831 3.4047 0.04267c3.7005 0.04659 3.9176 0.43258 4.4608 1.1664 0.39154 0.52893 0.39154 1.788 0 2.317-0.61362 0.82896 0.68528 0.77557-19.415 0.79804-11.902 0.01366-18.534-0.0266-18.858-0.1132zm25.645-4.1563c-2e-3 -0.01833-0.53436-1.529-1.1833-3.6953l-1.18-3.9388h-9.2427l-1.0959 3.6717c-0.60276 2.0194-1.1402 3.53-1.1943 3.6953l-0.09836 0.30039h6.999c4.154 0 6.9975-0.01474 6.9956-0.03307zm22.417-12.392c0.89964-0.26714 1.4904-0.69143 1.9069-1.6131l0.31855-0.70489v-38.052l-0.31855-0.70489c-0.41652-0.9217-1.0073-1.4152-1.9069-1.6823-0.59621-0.17706-4.1756-0.2016-29.403-0.2016-25.228 0-28.807 0.024518-29.403 0.2016-0.89963 0.26716-1.5596 0.76065-1.9762 1.6823l-0.31854 0.70489v38.052l0.31854 0.70489c0.39977 0.88464 1.0803 1.3468 1.9203 1.6054 0.96223 0.29626 57.866 0.30374 58.863 0.0075zm-32.049-9.5157c-1.202-0.44156-1.293-0.77859-1.293-4.7927v-3.1472l-3.3776-0.04179c-3.7363-0.04608-3.834-0.06733-4.3723-0.95015-0.23377-0.38339-0.26016-0.68401-0.26016-2.9635 0-2.2811 0.02628-2.5799 0.26063-2.9643 0.51686-0.84769 0.77592-0.90311 4.4385-0.94951l3.2982-0.04179 0.03977-3.3868c0.05485-4.6725-0.05875-4.5406 3.9117-4.5406 2.77 0 3.0643 0.06368 3.593 0.77719 0.26304 0.35504 0.2813 0.57085 0.3188 3.7634l0.0398 3.3868 3.2982 0.04179c3.6626 0.04642 3.9216 0.10183 4.4385 0.94951 0.23428 0.3843 0.26067 0.68352 0.26092 2.9643 2.84e-4 2.8672-0.09448 3.2461-0.93391 3.7339-0.42946 0.24957-0.7346 0.27497-3.7655 0.31334l-3.2982 0.04179-0.0398 3.3868c-0.05432 4.628 0.03271 4.5208-3.7115 4.5736-1.7414 0.02481-2.4663-0.01474-2.8461-0.15419z" fill="#00467e" stroke-width=".13352"/>
</svg>
