<svg xmlns="http://www.w3.org/2000/svg" viewBox="0 0 57.673 53.103">
  <defs>
    <style>
      .cls-1 {
        fill: #00467e;
      }

      .cls-2, .cls-3, .cls-5 {
        fill: none;
      }

      .cls-2, .cls-3 {
        stroke: #00467e;
        stroke-linecap: round;
        stroke-linejoin: round;
      }

      .cls-2 {
        stroke-width: 3px;
      }

      .cls-3 {
        stroke-width: 2px;
      }

      .cls-4 {
        stroke: none;
      }
    </style>
  </defs>
  <g id="Group_425" data-name="Group 425" transform="translate(-681.5 -925.52)">
    <g id="Group_423" data-name="Group 423" transform="translate(695.069 939.604) rotate(-45)">
      <rect id="Rectangle_330" data-name="Rectangle 330" class="cls-1" width="3.011" height="14.896" rx="1.505" transform="translate(0 6.989)"/>
      <rect id="Rectangle_331" data-name="Rectangle 331" class="cls-1" width="2.979" height="15.054" rx="1.49" transform="translate(15.054 18.906) rotate(90)"/>
      <path id="Path_337" data-name="Path 337" class="cls-1" d="M1.5-.008a1.479,1.479,0,0,1,1.49,1.49L2.864,24.888a1.517,1.517,0,0,1-1.505,1.505A1.479,1.479,0,0,1-.131,24.9L-.008,1.5A1.517,1.517,0,0,1,1.5-.008Z" transform="translate(19.907) rotate(45)"/>
    </g>
    <g id="Group_424" data-name="Group 424" transform="translate(683 960.146)">
      <path id="Path_336" data-name="Path 336" class="cls-2" d="M851.368,1963.5h54.673v16.977H851.368Z" transform="translate(-851.368 -1963.495)"/>
      <g id="Rectangle_337" data-name="Rectangle 337" class="cls-3" transform="translate(9.579 5.209)">
        <rect class="cls-4" width="6.08" height="5.786"/>
        <rect class="cls-5" x="1" y="1" width="4.08" height="3.786"/>
      </g>
      <g id="Rectangle_338" data-name="Rectangle 338" class="cls-3" transform="translate(21.335 5.209)">
        <rect class="cls-4" width="6.08" height="5.786"/>
        <rect class="cls-5" x="1" y="1" width="4.08" height="3.786"/>
      </g>
    </g>
  </g>
</svg>
