<svg xmlns="http://www.w3.org/2000/svg" viewBox="0 0 70.136 64">
  <defs>
    <style>
      .cls-1 {
        fill: #00467e;
      }
    </style>
  </defs>
  <g id="noun_eraser_584200" transform="translate(16 -10.299)">
    <path id="Path_354" data-name="Path 354" class="cls-1" d="M37.891,60.234a1.465,1.465,0,0,0,2.065,0L70.71,29.479a1.464,1.464,0,0,0,0-2.065L48.9,5.725a1.465,1.465,0,0,0-2.065,0L16.084,36.48a1.465,1.465,0,0,0,0,2.065l-14.5,14.5a1.465,1.465,0,0,0,0,2.109L13.858,66.37H2.465a1.465,1.465,0,1,0,0,2.929H46.4a1.465,1.465,0,1,0,0-2.929H31.476l6.4-6.166h0Zm9.973-51.4L67.547,28.5,38.931,57.115,19.248,37.446ZM27.259,66.37h-9.08L4.793,53.98l13.43-13.43L35.8,58.125l-6.831,6.6Z" transform="translate(-17 5)"/>
  </g>
</svg>
