<svg xmlns="http://www.w3.org/2000/svg" viewBox="0 0 64 38.35">
  <defs>
    <style>
      .cls-1 {
        fill: #00467e;
      }
    </style>
  </defs>
  <g id="Group_554" data-name="Group 554" transform="translate(-25.956 -836)">
    <g id="noun_Eye_245507" transform="translate(21 812.992)">
      <g id="Group_543" data-name="Group 543" transform="translate(4.956 23.008)">
        <path id="Path_411" data-name="Path 411" class="cls-1" d="M47.059,38.62a8.094,8.094,0,0,0-7.076,4.173,1.11,1.11,0,0,0,.695,1.613,2.372,2.372,0,0,1,0,4.6,1.11,1.11,0,0,0-.695,1.613A8.084,8.084,0,1,0,47.059,38.62Z" transform="translate(-15.059 -27.529)"/>
        <path id="Path_412" data-name="Path 412" class="cls-1" d="M68.732,41.35a36.691,36.691,0,0,0-63.552,0,1.665,1.665,0,0,0,0,1.667,36.691,36.691,0,0,0,63.552,0A1.665,1.665,0,0,0,68.732,41.35ZM36.956,57.955A15.771,15.771,0,1,1,52.727,42.184,15.789,15.789,0,0,1,36.956,57.955ZM8.561,42.184A33.563,33.563,0,0,1,20.044,30.937c.843-.5,1.707-.951,2.587-1.37a19.047,19.047,0,0,0,0,25.231q-1.32-.628-2.587-1.37A33.552,33.552,0,0,1,8.561,42.184ZM53.868,53.43c-.843.5-1.707.951-2.587,1.37a19.047,19.047,0,0,0,0-25.231c.88.418,1.745.872,2.587,1.37A33.552,33.552,0,0,1,65.351,42.184,33.569,33.569,0,0,1,53.868,53.43Z" transform="translate(-4.956 -23.008)"/>
      </g>
    </g>
  </g>
</svg>
