<svg xmlns="http://www.w3.org/2000/svg" viewBox="0 0 71.642 49.627">
  <defs>
    <style>
      .cls-1 {
        fill: #00467e;
      }
    </style>
  </defs>
  <g id="Group_557" data-name="Group 557" transform="translate(-201.707 -1212.707)">
    <g id="Group_537" data-name="Group 537" transform="translate(-112 3)">
      <g id="Group_535" data-name="Group 535" transform="translate(-31.651 193.692)">
        <path id="Path_397" data-name="Path 397" class="cls-1" d="M2.5-10A2.5,2.5,0,0,1,5-7.5v40a2.5,2.5,0,0,1-5,0v-40A2.5,2.5,0,0,1,2.5-10Z" transform="translate(382 1044) rotate(90)"/>
        <rect id="Rectangle_368" data-name="Rectangle 368" class="cls-1" width="5" height="27" rx="2.5" transform="translate(364.45 1027.015) rotate(45)"/>
        <rect id="Rectangle_369" data-name="Rectangle 369" class="cls-1" width="5" height="27" rx="2.5" transform="translate(367.985 1062.107) rotate(135)"/>
      </g>
      <g id="Group_536" data-name="Group 536" transform="translate(730.707 2275.349) rotate(180)">
        <path id="Path_396" data-name="Path 396" class="cls-1" d="M2.5-10A2.5,2.5,0,0,1,5-7.5v40a2.5,2.5,0,0,1-5,0v-40A2.5,2.5,0,0,1,2.5-10Z" transform="translate(382 1044) rotate(90)"/>
        <rect id="Rectangle_368-2" data-name="Rectangle 368" class="cls-1" width="5" height="27" rx="2.5" transform="translate(364.45 1027.015) rotate(45)"/>
        <rect id="Rectangle_369-2" data-name="Rectangle 369" class="cls-1" width="5" height="27" rx="2.5" transform="translate(367.985 1062.107) rotate(135)"/>
      </g>
    </g>
  </g>
</svg>
