<svg id="noun_548861_cc" xmlns="http://www.w3.org/2000/svg" viewBox="0 0 48.64 64">
  <defs>
    <style>
      .cls-1 {
        fill: #00467e;
      }
    </style>
  </defs>
  <g id="Group_49" data-name="Group 49" transform="translate(0 0)">
    <g id="Group_48" data-name="Group 48" transform="translate(0 0)">
      <path id="Path_112" data-name="Path 112" class="cls-1" d="M61.541,23.147a1.285,1.285,0,0,0-.278-.413L45.906,7.376A1.292,1.292,0,0,0,45,7H14.28A1.28,1.28,0,0,0,13,8.28V69.72A1.28,1.28,0,0,0,14.28,71H60.36a1.279,1.279,0,0,0,1.28-1.28V23.64A1.292,1.292,0,0,0,61.541,23.147ZM46.28,11.37,57.27,22.36H46.28ZM15.56,68.44V9.56H43.72V23.64A1.28,1.28,0,0,0,45,24.92H59.08V68.44Z" transform="translate(-13 -7)"/>
    </g>
  </g>
</svg>
