<svg xmlns="http://www.w3.org/2000/svg" viewBox="0 0 52.494 64">
  <defs>
    <style>
      .cls-1 {
        fill: #00467e;
      }
    </style>
  </defs>
  <g id="Group_527" data-name="Group 527" transform="translate(-31 -20)">
    <g id="noun_5086_cc">
      <path id="Path_153" data-name="Path 153" class="cls-1" d="M57.214,5H35V57.494H71.674V20.65Zm-.641,3.235L67.726,20.1H56.573Zm-18.7,46.383V7.876H53.7v15.1h15.82v31.64Z" transform="translate(11.82 15)"/>
      <rect id="Rectangle_302" data-name="Rectangle 302" class="cls-1" width="12.566" height="2.495" transform="translate(54.46 32.945)"/>
      <rect id="Rectangle_303" data-name="Rectangle 303" class="cls-1" width="21.78" height="2.495" transform="translate(54.46 40.117)"/>
      <rect id="Rectangle_304" data-name="Rectangle 304" class="cls-1" width="21.78" height="2.495" transform="translate(54.46 47.288)"/>
      <rect id="Rectangle_305" data-name="Rectangle 305" class="cls-1" width="21.78" height="2.495" transform="translate(54.46 54.461)"/>
      <rect id="Rectangle_306" data-name="Rectangle 306" class="cls-1" width="21.78" height="2.495" transform="translate(54.46 61.633)"/>
      <rect id="Rectangle_307" data-name="Rectangle 307" class="cls-1" width="12.566" height="2.495" transform="translate(54.46 32.945)"/>
      <path id="Path_154" data-name="Path 154" class="cls-1" d="M58.517,60.022v3.6H26.876V16.157H31.91V14H24V65.775H60.674V60.022Z" transform="translate(14.91 12.472)"/>
      <path id="Path_155" data-name="Path 155" class="cls-1" d="M47.517,68.022v3.6H15.876V24.157H20.91V22H13V73.775H49.674V68.022Z" transform="translate(18 10.225)"/>
    </g>
  </g>
</svg>
