<svg xmlns="http://www.w3.org/2000/svg" viewBox="0 0 48.64 64">
  <defs>
    <style>
      .cls-1 {
        fill: #00467e;
      }
    </style>
  </defs>
  <g id="Symbol_28_1" data-name="Symbol 28 – 1" transform="translate(-33 -548)">
    <g id="noun_548861_cc" transform="translate(33 548)">
      <g id="Group_49" data-name="Group 49" transform="translate(0 0)">
        <g id="Group_48" data-name="Group 48" transform="translate(0 0)">
          <path id="Path_112" data-name="Path 112" class="cls-1" d="M61.541,23.147a1.285,1.285,0,0,0-.278-.413L45.906,7.376A1.292,1.292,0,0,0,45,7H14.28A1.28,1.28,0,0,0,13,8.28V69.72A1.28,1.28,0,0,0,14.28,71H60.36a1.279,1.279,0,0,0,1.28-1.28V23.64A1.292,1.292,0,0,0,61.541,23.147ZM46.28,11.37,57.27,22.36H46.28ZM15.56,68.44V9.56H43.72V23.64A1.28,1.28,0,0,0,45,24.92H59.08V68.44Z" transform="translate(-13 -7)"/>
          <path id="Path_113" data-name="Path 113" class="cls-1" d="M22.28,17.56H32.52a1.28,1.28,0,0,0,0-2.56H22.28a1.28,1.28,0,1,0,0,2.56Z" transform="translate(-10.76 -4.76)"/>
          <path id="Path_114" data-name="Path 114" class="cls-1" d="M22.28,25.56H32.52a1.28,1.28,0,1,0,0-2.56H22.28a1.28,1.28,0,1,0,0,2.56Z" transform="translate(-10.76 -2.52)"/>
          <path id="Path_115" data-name="Path 115" class="cls-1" d="M47.88,31H22.28a1.28,1.28,0,1,0,0,2.56h25.6a1.28,1.28,0,1,0,0-2.56Z" transform="translate(-10.76 -0.28)"/>
          <path id="Path_116" data-name="Path 116" class="cls-1" d="M47.88,39H22.28a1.28,1.28,0,1,0,0,2.56h25.6a1.28,1.28,0,1,0,0-2.56Z" transform="translate(-10.76 1.96)"/>
          <path id="Path_117" data-name="Path 117" class="cls-1" d="M47.88,47H22.28a1.28,1.28,0,1,0,0,2.56h25.6a1.28,1.28,0,1,0,0-2.56Z" transform="translate(-10.76 4.2)"/>
        </g>
      </g>
    </g>
  </g>
</svg>
