<svg xmlns="http://www.w3.org/2000/svg" viewBox="0 0 75.033 64">
  <defs>
    <style>
      .cls-1 {
        fill: #00467e;
      }
    </style>
  </defs>
  <g id="noun_filter_1860407" transform="translate(-659.292 -637)">
    <g id="Group_382" data-name="Group 382" transform="translate(647 620)">
      <path id="Path_303" data-name="Path 303" class="cls-1" d="M37.571,52.534a2.2,2.2,0,0,1,.581,1.549V77.514a3.414,3.414,0,0,0,1.549,2.9A3.491,3.491,0,0,0,41.637,81a3.093,3.093,0,0,0,1.356-.29l16.266-6.778a3.57,3.57,0,0,0,2.227-3.292V54.083a2.378,2.378,0,0,1,.484-1.452l24.4-28.563a4.1,4.1,0,0,0,.484-4.551A4.236,4.236,0,0,0,82.981,17H16.56a4.244,4.244,0,0,0-3.292,6.971Zm-21.4-31.371c.1-.1.194-.29.387-.29H82.981c.194,0,.387.1.387.29.1.194.1.29,0,.387l-24.4,28.563a6.558,6.558,0,0,0-1.356,3.97v16.46L41.928,77.03V54.083a6.091,6.091,0,0,0-1.452-3.97l-24.3-28.563A.3.3,0,0,1,16.173,21.163Z" transform="translate(0)"/>
    </g>
  </g>
</svg>
