<svg version="1.1" viewBox="0 0 64 65" xml:space="preserve" xmlns="http://www.w3.org/2000/svg"><defs><style>
      .cls-1, .cls-10, .cls-2, .cls-5 {
        fill: none;
      }

      .cls-1, .cls-5, .cls-6 {
        stroke: #00467e;
      }

      .cls-3, .cls-7 {
        fill: #fff;
      }

      .cls-4, .cls-6, .cls-9 {
        fill: #00467e;
      }

      .cls-5, .cls-6 {
        stroke-width: 2px;
      }

      .cls-8, .cls-9 {
        stroke: none;
      }
    </style><style>
      .cls-1, .cls-2, .cls-4 {
        fill: none;
      }

      .cls-1 {
        stroke: #707070;
      }

      .cls-2 {
        stroke: #00467e;
        stroke-linecap: round;
        stroke-linejoin: round;
        stroke-width: 2px;
      }

      .cls-3 {
        stroke: none;
      }
    </style></defs><g transform="matrix(.9307 0 0 .9307 -466.17 -508.87)" data-name="Group 531"><g data-name="Group 530"><path class="cls-1" transform="translate(-580,-1077)" d="m1098.6 1625" data-name="Path 356"/><g class="cls-2" transform="translate(501,548)" data-name="Path 357"><path class="cls-8" d="m7 0h46.531l10.469 10v47a7 7 0 0 1-7 7h-50a7 7 0 0 1-7-7v-50a7 7 0 0 1 7-7z"/><path class="cls-9" d="m7 2c-2.757 0-5 2.243-5 5v50c0 2.757 2.243 5 5 5h50c2.757 0 5-2.243 5-5v-46.145l-9.2712-8.8554h-45.729m0-2h46.531l10.469 10v47c0 3.866-3.134 7-7 7h-50c-3.866 0-7-3.134-7-7v-50c0-3.866 3.134-7 7-7z"/></g><g class="cls-3" transform="translate(512,577)" data-name="Path 371"><path class="cls-8" d="m39 23h-36c-1.1028 0-2-0.8972-2-2v-18c0-1.1028 0.8972-2 2-2h36c1.1028 0 2 0.8972 2 2v18c0 1.1028-0.8972 2-2 2z"/><path class="cls-9" d="m3 2c-0.5514 0-1 0.4486-1 1v18c0 0.5514 0.4486 1 1 1h36c0.5514 0 1-0.4486 1-1v-18c0-0.5514-0.4486-1-1-1h-36m0-2h36c1.6568 0 3 1.3431 3 3v18c0 1.6569-1.3432 3-3 3h-36c-1.6568 0-3-1.3431-3-3v-18c0-1.6569 1.3432-3 3-3z"/></g><rect class="cls-4" transform="translate(519,582)" width="28" height="2" rx="1" data-name="Rectangle 356"/><rect class="cls-4" transform="translate(519,588)" width="28" height="2" rx="1" data-name="Rectangle 357"/><rect class="cls-4" transform="translate(519,593)" width="28" height="2" rx="1" data-name="Rectangle 358"/><g class="cls-5" transform="translate(519,548)" data-name="Rectangle 359"><path class="cls-8" d="m0 0h28v13a5 5 0 0 1-5 5h-18a5 5 0 0 1-5-5z"/><path class="cls-10" d="m2 1h24a1 1 0 0 1 1 1v11a4 4 0 0 1-4 4h-18a4 4 0 0 1-4-4v-11a1 1 0 0 1 1-1z"/></g><g class="cls-6" transform="translate(534,548)" data-name="Rectangle 360"><path class="cls-8" d="m0 0h8v11a2 2 0 0 1-2 2h-4a2 2 0 0 1-2-2z"/><rect class="cls-10" x="1" y="1" width="6" height="11" rx="1"/></g><rect class="cls-7" transform="translate(521,547)" width="13" height="5" data-name="Rectangle 370"/><rect class="cls-7" transform="translate(542,547)" width="3" height="4" data-name="Rectangle 371"/></g></g><g transform="matrix(.47455 0 0 .47455 -245.75 -233.93)" data-name="Group 451"><path transform="matrix(2.1073 0 0 2.1073 517.86 492.95)" d="m51.08 34.053 5.2419-5.2225 7.0863 6.931-5.3196 5.1254z" fill="#fff"/><path transform="matrix(2.1073 0 0 2.1073 517.86 492.95)" d="m35.611 49.284 7.1661 6.9739-2.6358 2.7731-9.3077 2.0318 2.0043-9.0606z" fill="#fff"/><path class="cls-1" transform="translate(-575.41 -989.95)" d="m1205.8 1555" data-name="Path 358"/><g class="cls-2" transform="rotate(-45 1032.4 -422.79)" data-name="Rectangle 362"><rect class="cls-3" width="47.274" height="9.697"/><rect class="cls-4" x="1" y="1" width="45.274" height="7.697"/></g><g class="cls-2" transform="rotate(-45 1024.2 -419.41)" data-name="Rectangle 363"><rect class="cls-3" width="47.274" height="9.697"/><rect class="cls-4" x="1" y="1" width="45.274" height="7.697"/></g><g class="cls-2" transform="rotate(-45 1016 -416.02)" data-name="Rectangle 364"><rect class="cls-3" width="47.274" height="9.697"/><rect class="cls-4" x="1" y="1" width="45.274" height="7.697"/></g><path class="cls-2" transform="translate(-576.34 -992)" d="m1201.4 1556.7 11.375-11.375 14.946 14.946-8.67 8.67" data-name="Path 359"/><path class="cls-2" transform="translate(-583.43 -984.87)" d="m1177.1 1581.3-6.583 6.583-4 18.292 3.05-0.635 16.167-3.365 6.345-6.345" data-name="Path 360"/></g></svg>
