<svg xmlns="http://www.w3.org/2000/svg" viewBox="0 0 54.492 65">
  <defs>
    <style>
      .cls-1 {
        fill: #00467e;
        stroke: #00467e;
      }
    </style>
  </defs>
  <g id="noun_Flag_935788" transform="translate(-3.75 -2.227)">
    <path id="Path_340" data-name="Path 340" class="cls-1" d="M56.092,5.571a20.9,20.9,0,0,1-10.3,2.564c-4.783,0-9.725-1.353-14.5-2.664C26.368,4.121,21.278,2.727,16.2,2.727A23.044,23.044,0,0,0,4.83,5.567l-.58.321V65.612a1.115,1.115,0,1,0,2.229,0V40.665A20.918,20.918,0,0,1,16.2,38.394c4.783,0,9.725,1.353,14.5,2.661C35.624,42.4,40.714,43.8,45.794,43.8a23.044,23.044,0,0,0,11.368-2.84l.58-.317V4.666Zm-.58,33.738a20.954,20.954,0,0,1-9.718,2.26c-4.783,0-9.725-1.353-14.5-2.664-4.921-1.349-10.012-2.744-15.092-2.744a23.272,23.272,0,0,0-9.718,2.015V7.22A20.954,20.954,0,0,1,16.2,4.96c4.783,0,9.725,1.353,14.5,2.661,4.921,1.349,10.012,2.744,15.092,2.744a23.272,23.272,0,0,0,9.718-2.015Z" transform="translate(0 0)"/>
  </g>
</svg>
