<svg id="noun_Gavel_1416045_1_" data-name="noun_Gavel_1416045 (1)" xmlns="http://www.w3.org/2000/svg" viewBox="0 0 64 64">
  <defs>
    <style>
      .cls-1 {
        fill: none;
      }

      .cls-2 {
        fill: #00467e;
      }
    </style>
  </defs>
  <g id="Group_399" data-name="Group 399">
    <g id="Group_398" data-name="Group 398">
      <rect id="Rectangle_333" data-name="Rectangle 333" class="cls-1" width="64" height="64"/>
      <path id="Path_319" data-name="Path 319" class="cls-2" d="M4.664,51.216H23.236V49.67a1.638,1.638,0,0,0-.456-1.115A1.531,1.531,0,0,0,21.69,48.1H6.209a1.531,1.531,0,0,0-1.089.456,1.49,1.49,0,0,0-.456,1.115v1.546Zm42.515-34-.076.076a3.593,3.593,0,0,1-2.483.988,3.694,3.694,0,0,1-1.723-.431l-4.13,4.13,24.83,24.8a1.04,1.04,0,0,1,0,1.47L59.948,51.9a1.04,1.04,0,0,1-1.47,0l-24.8-24.83-4.13,4.13a3.694,3.694,0,0,1,.431,1.723,3.529,3.529,0,0,1-1.064,2.534v.025l-.051.051a3.643,3.643,0,0,1-5.042-.051L12.873,24.511a3.529,3.529,0,0,1-1.064-2.534h0a3.586,3.586,0,0,1,1.064-2.559h0a3.529,3.529,0,0,1,2.534-1.064h0a3.694,3.694,0,0,1,1.723.431L30.482,5.433a3.694,3.694,0,0,1-.431-1.723h0a3.529,3.529,0,0,1,1.064-2.534l.051-.076A3.654,3.654,0,0,1,33.674.112h0a3.529,3.529,0,0,1,2.534,1.064L47.179,12.122a3.64,3.64,0,0,1,0,5.093Zm-1.47-1.444a1.56,1.56,0,0,0,0-2.2L34.764,2.62a1.558,1.558,0,0,0-1.089-.456h0a1.584,1.584,0,0,0-1.064.431l-.051.025A1.558,1.558,0,0,0,32.1,3.71h.025a1.472,1.472,0,0,0,.405,1.064h0l.025.051L43.53,15.77a1.5,1.5,0,0,0,2.128.025l.051-.025ZM27.467,34.012a1.529,1.529,0,0,0,0-2.179h0L16.521,20.863h0a1.572,1.572,0,0,0-1.115-.456v.025a1.647,1.647,0,0,0-1.089.431,1.572,1.572,0,0,0-.456,1.115h0a1.558,1.558,0,0,0,.456,1.089L25.262,34.012a1.563,1.563,0,0,0,2.154.051l.051-.051Zm.735-4.383,8.386-8.386L41.326,16.5,31.85,7,18.7,20.153Zm9.121-6.207-2.2,2.2,24.1,24.07,2.179-2.179-24.07-24.1ZM25.288,51.368a3.453,3.453,0,0,1,1.52.912,3.519,3.519,0,0,1,1.064,2.534V57.4a1.027,1.027,0,0,1-1.039,1.039H1.041A1.027,1.027,0,0,1,0,57.4V54.814A3.519,3.519,0,0,1,1.066,52.28a3.6,3.6,0,0,1,1.52-.912v-1.7A3.622,3.622,0,0,1,3.65,47.111a3.577,3.577,0,0,1,2.559-1.064H21.69a3.519,3.519,0,0,1,2.534,1.064,3.577,3.577,0,0,1,1.064,2.559Zm-1.013,1.9H3.625a1.531,1.531,0,0,0-1.089.456,1.577,1.577,0,0,0-.456,1.089v1.546H25.82V54.814a1.557,1.557,0,0,0-1.546-1.546Z" transform="translate(0.049 2.726)"/>
    </g>
  </g>
</svg>
