<svg xmlns="http://www.w3.org/2000/svg" viewBox="0 0 31.677 59.479">
  <defs>
    <style>
      .cls-1 {
        fill: #00467e;
      }
    </style>
  </defs>
  <path id="Path_212" data-name="Path 212" class="cls-1" d="M44.126,46.775c2.711-2.327,2.373-8.557,2.07-14.055-.069-1.267-.136-2.488-.16-3.591a3.381,3.381,0,0,0-3.5-3.215,3.648,3.648,0,0,0-1.947.556,3.653,3.653,0,0,0-3.608-2.41,4.075,4.075,0,0,0-2.3.689,3.719,3.719,0,0,0-3.429-2.1,3.891,3.891,0,0,0-1.97.528l-.018-12.247a3.734,3.734,0,1,0-7.465.086V27.342H20.765a3.557,3.557,0,0,0-1.424.313,7.025,7.025,0,0,0-3.2,3.045,12.206,12.206,0,0,0-.429,10.525c1.156,2.8,4.517,5.851,6.525,7.674.463.421.979.887,1.212,1.135v3.013H21.259a.887.887,0,0,0-.887.887v11.8a.887.887,0,0,0,.887.887H44.5a.887.887,0,0,0,.887-.887v-11.8a.887.887,0,0,0-.887-.887H42.155C42.068,51.619,42.132,48.487,44.126,46.775Zm-.509,18.068H22.146V54.82H43.617Zm-18.391-11.8V49.764c0-.548-.309-.829-1.793-2.177-1.9-1.725-5.075-4.609-6.077-7.041a10.435,10.435,0,0,1,.347-9,5.274,5.274,0,0,1,2.4-2.288,1.818,1.818,0,0,1,.695-.148h.772a9.422,9.422,0,0,1-.73,1.922,5.953,5.953,0,0,0-.667,2.684,12.142,12.142,0,0,0,.875,4.628.887.887,0,1,0,1.617-.73,10.385,10.385,0,0,1-.714-3.885,4.2,4.2,0,0,1,.479-1.888,9.972,9.972,0,0,0,1.149-4.479V11.015a2.037,2.037,0,0,1,1.956-2.1,2.01,2.01,0,0,1,1.959,2.034l.033,19.618a.887.887,0,0,0,.887.887h0a.887.887,0,0,0,.887-.887V26.151a1.978,1.978,0,0,1,3.917-.053l.033,4.778a.887.887,0,0,0,.887.887h0a.887.887,0,0,0,.887-.887V27.328c0-.8.9-1.478,1.96-1.478a1.789,1.789,0,0,1,1.957,1.444l.1,4.77a.939.939,0,0,0,.894.869.887.887,0,0,0,.878-.887V29.2a1.747,1.747,0,0,1,3.459-.035c.025,1.122.092,2.365.161,3.647.262,4.835.591,10.856-1.459,12.614-2.534,2.173-2.689,5.836-2.594,7.616Z" transform="translate(-14.719 -7.138)"/>
</svg>
