<svg xmlns="http://www.w3.org/2000/svg" viewBox="0 0 48.941 64">
  <defs>
    <style>
      .cls-1 {
        fill: #00467e;
        fill-rule: evenodd;
      }
    </style>
  </defs>
  <g id="noun_Merge_979069" transform="translate(-6 14)">
    <path id="Path_415" data-name="Path 415" class="cls-1" d="M582.894,88l8.76,2.92a1.882,1.882,0,0,1,0,3.572l-22.588,7.529a1.878,1.878,0,0,1-1.19,0l-22.588-7.529a1.882,1.882,0,0,1,0-3.572l8.76-2.92-8.76-2.92a1.882,1.882,0,0,1,0-3.572l22.588-7.529a1.88,1.88,0,0,1,1.19,0l22.588,7.529a1.882,1.882,0,0,1,0,3.572ZM568.471,77.749l-16.635,5.545,16.635,5.545,16.635-5.545Zm.595,14.86a1.881,1.881,0,0,1-1.19,0L560,89.984l-8.165,2.722,16.635,5.545,16.635-5.545-8.165-2.722Zm-2.477-27.977h0v-6.75a1.882,1.882,0,0,1,3.765,0v6.75l1.493-1.493a1.882,1.882,0,0,1,2.662,2.662L569.8,70.507a1.882,1.882,0,0,1-2.662,0l-4.784-4.784a1.882,1.882,0,1,1,2.662-2.662Zm3.765,46.735v6.75a1.882,1.882,0,0,1-3.765,0v-6.75l-1.571,1.571a1.882,1.882,0,0,1-2.662-2.662l4.784-4.784a1.882,1.882,0,0,1,2.662,0l4.706,4.706a1.882,1.882,0,1,1-2.662,2.662Z" transform="translate(-538 -70)"/>
  </g>
</svg>
