<svg xmlns="http://www.w3.org/2000/svg" viewBox="0 0 65.947 64">
  <defs>
    <style>
      .cls-1 {
        fill: #fff;
      }

      .cls-2 {
        fill: #00467e;
      }
    </style>
  </defs>
  <g id="Group_435" data-name="Group 435" transform="translate(-153 -1035)">
    <rect id="Rectangle_350" data-name="Rectangle 350" class="cls-1" width="12" height="14" transform="translate(153 1039)"/>
    <g id="noun_History_1856606" transform="translate(151.985 1032)">
      <path id="Path_349" data-name="Path 349" class="cls-2" d="M66.891,33.611a1.719,1.719,0,0,0,.067-.469A32.008,32.008,0,0,0,35.011,3l-.019,0-.03,0a32.069,32.069,0,0,0-28.4,17.343c1.931.55.5,1.978,2.14,3.99A28.234,28.234,0,1,1,6.566,36.7a1.777,1.777,0,1,0-3.549.208A32,32,0,0,0,66.962,35c0-.469-.05-.925-.07-1.389Z" transform="translate(0 0)"/>
    </g>
    <path id="Path_350" data-name="Path 350" class="cls-2" d="M67.937,52.067a2.847,2.847,0,0,1-3.886,1.042l-.01-.007L47.423,43.507a2.83,2.83,0,0,1-1.411-2.463H46v-19.2a2.844,2.844,0,0,1,5.689,0V39.4L66.9,48.18A2.846,2.846,0,0,1,67.937,52.067Z" transform="translate(137 1025)"/>
    <g id="Group_434" data-name="Group 434" transform="matrix(-0.921, -0.391, 0.391, -0.921, 165.613, 1061.744)">
      <rect id="Rectangle_328" data-name="Rectangle 328" class="cls-2" width="11.062" height="3.939" rx="1.969" transform="translate(10.607 2.785) rotate(135)"/>
      <g id="Group_384" data-name="Group 384" transform="translate(5.446 0)">
        <rect id="Rectangle_329" data-name="Rectangle 329" class="cls-2" width="11.062" height="3.939" rx="1.969" transform="translate(7.822 10.607) rotate(-135)"/>
      </g>
    </g>
  </g>
</svg>
