<svg xmlns="http://www.w3.org/2000/svg" viewBox="0 0 93.632 40">
  <defs>
    <style>
      .cls-1 {
        fill: #00467e;
      }
    </style>
  </defs>
  <g id="Symbol_7_1" data-name="Symbol 7 – 1" transform="translate(-526 -204)">
    <path id="Path_277" data-name="Path 277" class="cls-1" d="M92.613,18.9c-.639,0-2.906-.081-5.705-.179-5.29-.19-11.868-.422-14.039-.365a87.705,87.705,0,0,1-10.354-.963c-2.471-.317-4.421-.569-5.34-.569a69.664,69.664,0,0,0-8,1.075,71.54,71.54,0,0,1-7.264,1H26.954V17.365a1.423,1.423,0,0,0-1.423-1.423H5.229a1.423,1.423,0,0,0-1.423,1.423V51.181A1.423,1.423,0,0,0,5.229,52.6h20.3a1.423,1.423,0,0,0,1.423-1.423V50.087a1.359,1.359,0,0,0,.177,0c2.965-.7,4.939.646,9.135,3.766a11.312,11.312,0,0,0,6.9,2.083A28.112,28.112,0,0,0,55.354,52.4a15.676,15.676,0,0,1,5.581-1.7c.9-.182,1.97-.4,3.237-.672,6.316-1.355,5.909-7.222,5.74-9.443-.02-.278-.037-.512-.037-.692,0-.823-.486-1.4-1.477-1.884l2.136-7.879.462-.026c1.613-.094,4-.2,6.6-.315,8.03-.352,13.831-.632,15.361-1.013a5.3,5.3,0,0,0,4.454-5.738,4.681,4.681,0,0,0-4.8-4.141Zm-68.5,30.858H6.653V18.785H24.109ZM65.694,37.131c-1.333-.32-2.976-.639-5.051-1.022-1.029-.19-2.215-.414-3.267-.632-.258-.066-.963-.245-1.86-.479a6.819,6.819,0,0,1,6.213-4.436c1.707-.07,3.72-.16,5.819-.267ZM92.275,26.018c-1.37.341-9.13.685-14.8.934-2.626.116-5.033.219-6.646.317-3.283.193-6.6.344-9.22.451a9.64,9.64,0,0,0-8.831,6.533c-.672-.193-1.272-.376-1.668-.519a15.26,15.26,0,0,1-3-1.6,1.423,1.423,0,1,0-1.635,2.329,18.1,18.1,0,0,0,3.674,1.943c.875.315,2.523.775,3.968,1.162a19.611,19.611,0,0,0,2.709.7h0c.93.193,2,.394,3.3.632a50.17,50.17,0,0,1,6.931,1.58c0,.094.013.195.022.3.2,2.845.1,5.69-3.5,6.46-1.261.271-2.313.486-3.2.657A17.946,17.946,0,0,0,53.9,49.953c-2.114,1.269-11.015,5.252-15.956,1.58-3.955-2.941-6.854-5.064-10.982-4.3V21.744H41.918A68.5,68.5,0,0,0,49.646,20.7a74.276,74.276,0,0,1,7.533-1.035c.738,0,2.8.265,4.977.545a87.783,87.783,0,0,0,10.8.983c2.07-.033,8.887.188,13.862.365,2.845.1,5.156.184,5.806.184a1.851,1.851,0,0,1,1.97,1.648c.116.963-.431,2.158-2.32,2.631Z" transform="translate(522.194 188.058)"/>
  </g>
</svg>
