<svg xmlns="http://www.w3.org/2000/svg" viewBox="0 0 64 64">
  <defs>
    <style>
      .cls-1 {
        fill: #00467e;
      }
    </style>
  </defs>
  <g id="noun_641713_cc" transform="translate(-347 -20)">
    <path id="Path_158" data-name="Path 158" class="cls-1" d="M37,9.267A27.733,27.733,0,1,1,9.267,37,27.764,27.764,0,0,1,37,9.267M37,5A32,32,0,1,0,69,37,32,32,0,0,0,37,5Z" transform="translate(342 15)"/>
    <path id="Path_159" data-name="Path 159" class="cls-1" d="M51.431,59.274q0,.865-4.08,4.053t-7.377,3.189a4.192,4.192,0,0,1-3.3-1.162,3.853,3.853,0,0,1-1.027-2.621,5.179,5.179,0,0,1,.27-1.7q.27-.783.594-1.594L41.649,48.79a14.351,14.351,0,0,0,.622-1.486,3.224,3.224,0,0,0,.189-1,.953.953,0,0,0-.162-.622.542.542,0,0,0-.432-.189q-.7,0-2.729,2.135t-2.4,2.135a1.16,1.16,0,0,1-.865-.594,2.1,2.1,0,0,1-.432-.757,3.592,3.592,0,0,1,1.027-1.756,23.375,23.375,0,0,1,2.594-2.567,18.493,18.493,0,0,1,3.378-2.324,7.465,7.465,0,0,1,3.486-1.081,4.61,4.61,0,0,1,3.648,1.378,4.85,4.85,0,0,1,1.216,3.324,9.973,9.973,0,0,1-.162,1.729,6.088,6.088,0,0,1-.7,1.892l-4.107,9.025a19.282,19.282,0,0,0-.7,1.838,4.01,4.01,0,0,0-.216.973q0,.324.162.405a.72.72,0,0,0,.324.081q1.188,0,2.783-1.7t2.027-1.7q.378,0,.811.567A1.794,1.794,0,0,1,51.431,59.274Z" transform="translate(333.208 4.692)"/>
    <path id="Path_160" data-name="Path 160" class="cls-1" d="M59.786,25.613a4.77,4.77,0,0,1-1.432,3.459,4.932,4.932,0,0,1-8.4-3.459,4.918,4.918,0,0,1,9.836,0Z" transform="translate(329.014 10.466)"/>
  </g>
</svg>
