<svg xmlns="http://www.w3.org/2000/svg" viewBox="0 0 64 64">
  <defs>
    <style>
      .cls-1 {
        fill: #00467e;
      }
    </style>
  </defs>
  <g id="Group_548" data-name="Group 548" transform="translate(-152 -1425)">
    <g id="noun_641713_cc" transform="translate(175 1440)">
      <path id="Path_159" data-name="Path 159" class="cls-1" d="M50,56.352q0,.729-3.716,3.416t-6.719,2.687a4,4,0,0,1-3-.979,3.117,3.117,0,0,1-.935-2.209,4.069,4.069,0,0,1,.246-1.435q.246-.66.541-1.344l4.676-8.973a11.612,11.612,0,0,0,.566-1.253,2.538,2.538,0,0,0,.172-.843.76.76,0,0,0-.148-.524.512.512,0,0,0-.394-.159q-.64,0-2.486,1.8t-2.19,1.8a1.065,1.065,0,0,1-.788-.5,1.738,1.738,0,0,1-.394-.638q0-.456.935-1.48a20.588,20.588,0,0,1,2.363-2.164,16.948,16.948,0,0,1,3.076-1.959,7.2,7.2,0,0,1,3.175-.911,4.385,4.385,0,0,1,3.323,1.162,3.913,3.913,0,0,1,1.108,2.8,7.8,7.8,0,0,1-.148,1.458,4.9,4.9,0,0,1-.64,1.594L44.885,55.3a15.52,15.52,0,0,0-.64,1.549,3.163,3.163,0,0,0-.2.82q0,.273.148.342a.7.7,0,0,0,.3.068,4,4,0,0,0,2.535-1.435q1.452-1.435,1.846-1.435a1.054,1.054,0,0,1,.738.478A1.477,1.477,0,0,1,50,56.352Z" transform="translate(-35.434 -28.703)"/>
      <path id="Path_160" data-name="Path 160" class="cls-1" d="M58.909,24.84a3.874,3.874,0,0,1-1.3,2.915,4.681,4.681,0,0,1-6.325,0,3.862,3.862,0,0,1,0-5.83,4.681,4.681,0,0,1,6.325,0A3.876,3.876,0,0,1,58.909,24.84Z" transform="translate(-40.548 -20.695)"/>
    </g>
    <g id="Group_547" data-name="Group 547" transform="translate(-9 338)">
      <g id="noun_clock_61154" transform="translate(156 1082)">
        <path id="Path_346" data-name="Path 346" class="cls-1" d="M37,8.689c14.53,0,28.308,13.78,28.308,28.311S51.53,65.311,37,65.311,8.692,51.531,8.692,37,22.471,8.689,37,8.689ZM5,37A32,32,0,1,0,37,5,32,32,0,0,0,5,37Z"/>
      </g>
    </g>
  </g>
</svg>
