<svg xmlns="http://www.w3.org/2000/svg" viewBox="0 0 66 66">
  <defs>
    <style>
      .cls-1, .cls-2 {
        fill: none;
        stroke: #00467e;
        stroke-linecap: round;
        stroke-width: 2px;
      }

      .cls-2 {
        stroke-linejoin: round;
        stroke-miterlimit: 10;
      }
    </style>
  </defs>
  <g id="noun_654827_cc" transform="translate(-123 -547)">
    <g id="noun_654827_cc-2" data-name="noun_654827_cc" transform="translate(116.465 621.999) rotate(-90)">
      <path id="Path_111" data-name="Path 111" class="cls-1" d="M0,0H31.154V5.842H0Z" transform="translate(28.92 48.481) rotate(-45)"/>
      <path id="Path_109" data-name="Path 109" class="cls-2" d="M49.569,37.184l-3.44-3.441a5.842,5.842,0,0,1,0-8.262L59.9,11.712a5.843,5.843,0,0,1,8.261,0L79.173,22.726a5.841,5.841,0,0,1,0,8.26L65.4,44.752a5.84,5.84,0,0,1-8.262,0l-3.44-3.44,4.129-4.133,3.442,3.441L75.042,26.856,64.03,15.841,50.26,29.61,53.7,33.051Z" transform="translate(-6.884 -2.466)"/>
      <path id="Path_110" data-name="Path 110" class="cls-2" d="M41.312,53.7l3.438,3.441a5.843,5.843,0,0,1,0,8.262L30.984,79.173a5.841,5.841,0,0,1-8.261,0L11.709,68.159a5.845,5.845,0,0,1,0-8.261L25.479,46.13a5.84,5.84,0,0,1,8.261,0l3.442,3.44L33.05,53.7,29.608,50.26,15.838,64.028,26.855,75.044,40.622,61.275l-3.441-3.442Z" transform="translate(0 -9.349)"/>
    </g>
  </g>
</svg>
