<svg xmlns="http://www.w3.org/2000/svg" viewBox="0 0 49.198 65">
  <defs>
    <style>
      .cls-1, .cls-2 {
        fill: #00467e;
      }

      .cls-1 {
        stroke: #00467e;
      }
    </style>
  </defs>
  <g id="Group_461" data-name="Group 461" transform="translate(-739.5 -2188.5)">
    <g id="noun_padlock_1386383" transform="translate(740 2189)">
      <g id="Group_460" data-name="Group 460" transform="translate(0 0)">
        <path id="Path_362" data-name="Path 362" class="cls-1" d="M60.731,32.171V26.693a16.993,16.993,0,0,0-33.985,0v5.479a8.063,8.063,0,0,0-7.146,7.94V65.68a8,8,0,0,0,8.02,8.02H59.779a8,8,0,0,0,8.02-8.02V40.112A7.936,7.936,0,0,0,60.731,32.171Zm-32.4-5.479a15.4,15.4,0,0,1,30.809,0v5.4H54.061V26.216a10.334,10.334,0,0,0-20.645,0v5.876H28.334Zm6.67,5.4V26.3a8.746,8.746,0,0,1,17.469-.079v5.876ZM66.21,65.68a6.405,6.405,0,0,1-6.432,6.432H27.7a6.405,6.405,0,0,1-6.432-6.432V40.112A6.405,6.405,0,0,1,27.7,33.68H59.858a6.405,6.405,0,0,1,6.432,6.432V65.68Z" transform="translate(-19.6 -9.7)"/>
      </g>
    </g>
    <path id="Exclusion_22" data-name="Exclusion 22" class="cls-2" d="M8.85,19.156H8.761a2.487,2.487,0,0,1-1.769-.732L.734,12.164A2.5,2.5,0,1,1,4.271,8.626l4.534,4.535L21.233.734a2.5,2.5,0,1,1,3.538,3.538L10.619,18.423A2.489,2.489,0,0,1,8.85,19.156Z" transform="translate(751.117 2223.808)"/>
  </g>
</svg>
