<svg xmlns="http://www.w3.org/2000/svg" viewBox="0 0 48.198 64">
  <defs>
    <style>
      .cls-1 {
        fill: #00467e;
      }

      .cls-2 {
        fill: #fff;
      }
    </style>
  </defs>
  <g id="Group_462" data-name="Group 462" transform="translate(-740 -2189)">
    <g id="noun_padlock_1386383" transform="translate(740 2189)">
      <g id="Group_460" data-name="Group 460" transform="translate(0 0)">
        <path id="Path_362" data-name="Path 362" class="cls-1" d="M60.731,32.171V26.693a16.993,16.993,0,0,0-33.985,0v5.479a8.063,8.063,0,0,0-7.146,7.94V65.68a8,8,0,0,0,8.02,8.02H59.779a8,8,0,0,0,8.02-8.02V40.112A7.936,7.936,0,0,0,60.731,32.171ZM35,32.092V26.3a8.746,8.746,0,0,1,17.469-.079v5.876Zm24.774,40.02h0Z" transform="translate(-19.6 -9.7)"/>
      </g>
    </g>
    <path id="Exclusion_22" data-name="Exclusion 22" class="cls-2" d="M8.85,19.156H8.761a2.487,2.487,0,0,1-1.769-.732L.734,12.164A2.5,2.5,0,1,1,4.271,8.626l4.534,4.535L21.233.734a2.5,2.5,0,1,1,3.538,3.538L10.619,18.423A2.489,2.489,0,0,1,8.85,19.156Z" transform="translate(751.117 2223.808)"/>
  </g>
</svg>
