<svg xmlns="http://www.w3.org/2000/svg" viewBox="0 0 71.523 64">
  <defs>
    <style>
      .cls-1 {
        fill: #00467e;
      }
    </style>
  </defs>
  <g id="noun_Map_1860887" transform="translate(-128 -725)">
    <g id="Group_388" data-name="Group 388" transform="translate(116 -243.359)">
      <path id="Path_311" data-name="Path 311" class="cls-1" d="M35.88,968.458l-22.586,7.529A1.935,1.935,0,0,0,12,977.781V1030.5a1.974,1.974,0,0,0,2.47,1.765l22-7.323,22,7.323a1.9,1.9,0,0,0,1.176,0l22.586-7.529a1.934,1.934,0,0,0,1.294-1.765V970.252a1.976,1.976,0,0,0-2.47-1.794l-22,7.323-22-7.323A1.831,1.831,0,0,0,35.88,968.458Zm-.294,3.382v50.78l-20.822,6.264V978.1Zm2.764,0L58.173,978.1v50.78l-19.822-6.264Zm42.408,0v50.78l-19.822,6.264V978.1Z"/>
    </g>
  </g>
</svg>
