<svg xmlns="http://www.w3.org/2000/svg" viewBox="0 0 64 64">
  <defs>
    <style>
      .cls-1 {
        fill: #00467e;
      }
    </style>
  </defs>
  <g id="noun_668135_cc" transform="translate(-669 -460)">
    <g id="Group_46" data-name="Group 46" transform="translate(669 460)">
      <path id="Path_100" data-name="Path 100" class="cls-1" d="M0,47.923H64L54.154,11H49.418c-4.674,11.682-15.033,23.19-15.6,23.81l-1.822,2-1.822-2c-.564-.62-10.922-12.128-15.6-23.81H9.846Z" transform="translate(0 16.077)"/>
      <path id="Path_101" data-name="Path 101" class="cls-1" d="M40.462,17.041A17.232,17.232,0,0,0,6,17.041C6,30.3,23.231,49.231,23.231,49.231S40.462,30.3,40.462,17.041Zm-17.231-7.2a7.383,7.383,0,1,1-7.385,7.382A7.384,7.384,0,0,1,23.231,9.846Z" transform="translate(8.769)"/>
    </g>
  </g>
</svg>
