<?xml version="1.0" encoding="UTF-8" standalone="no"?>
<svg
   viewBox="0 0 70.362 70"
   version="1.1"
   id="svg25"
   sodipodi:docname="fa-pencil-square-green-inkscape.svg"
   inkscape:version="1.2.2 (732a01da63, 2022-12-09)"
   xmlns:inkscape="http://www.inkscape.org/namespaces/inkscape"
   xmlns:sodipodi="http://sodipodi.sourceforge.net/DTD/sodipodi-0.dtd"
   xmlns="http://www.w3.org/2000/svg"
   xmlns:svg="http://www.w3.org/2000/svg">
  <sodipodi:namedview
     id="namedview27"
     pagecolor="#ffffff"
     bordercolor="#000000"
     borderopacity="0.25"
     inkscape:showpageshadow="2"
     inkscape:pageopacity="0.0"
     inkscape:pagecheckerboard="0"
     inkscape:deskcolor="#d1d1d1"
     showgrid="false"
     inkscape:zoom="11.957143"
     inkscape:cx="34.121863"
     inkscape:cy="35.125448"
     inkscape:window-width="1920"
     inkscape:window-height="1017"
     inkscape:window-x="-8"
     inkscape:window-y="-8"
     inkscape:window-maximized="1"
     inkscape:current-layer="svg25" />
  <defs
     id="defs4">
    <style
       id="style2">
      .cls-1, .cls-2, .cls-4 {
        fill: none;
      }

      .cls-1 {
        stroke: #707070;
      }

      .cls-2 {
        stroke: #00467e;
        stroke-linecap: round;
        stroke-linejoin: round;
        stroke-width: 2px;
      }

      .cls-3 {
        stroke: none;
      }
    </style>
  </defs>
  <g
     id="Group_451"
     data-name="Group 451"
     transform="translate(-582.058 -552.332)">
    <path
       id="Path_358"
       data-name="Path 358"
       class="cls-1"
       d="M1205.828,1555"
       transform="translate(-575.411 -989.949)" />
    <g
       id="Rectangle_362"
       data-name="Rectangle 362"
       class="cls-2"
       transform="translate(601.331 606.156) rotate(-45)">
      <rect
         class="cls-3"
         width="47.274"
         height="9.697"
         id="rect7" />
      <rect
         class="cls-4"
         x="1"
         y="1"
         width="45.274"
         height="7.697"
         id="rect9" />
    </g>
    <g
       id="Rectangle_363"
       data-name="Rectangle 363"
       class="cls-2"
       transform="translate(596.543 601.368) rotate(-45)">
      <rect
         class="cls-3"
         width="47.274"
         height="9.697"
         id="rect12" />
      <rect
         class="cls-4"
         x="1"
         y="1"
         width="45.274"
         height="7.697"
         id="rect14" />
    </g>
    <g
       id="Rectangle_364"
       data-name="Rectangle 364"
       class="cls-2"
       transform="translate(591.755 596.58) rotate(-45)">
      <rect
         class="cls-3"
         width="47.274"
         height="9.697"
         id="rect17" />
      <rect
         class="cls-4"
         x="1"
         y="1"
         width="45.274"
         height="7.697"
         id="rect19" />
    </g>
    <path
       id="Path_359"
       data-name="Path 359"
       class="cls-2"
       d="M1201.441,1556.707l11.375-11.375,14.946,14.946-8.67,8.67"
       transform="translate(-576.341 -992)" />
    <path
       id="Path_360"
       data-name="Path 360"
       class="cls-2"
       d="M1177.071,1581.324l-6.583,6.583-4,18.292,3.05-.635,16.167-3.365,6.345-6.345"
       transform="translate(-583.429 -984.867)" />
  </g>
  <path
     style="fill:#009f00;stroke-width:0.083632;fill-opacity:1"
     d="M 0.53297046,69.817372 C 0.28184307,69.661517 0.04181601,69.294589 0.04181601,69.066547 c 0,-0.08523 0.91623744,-4.344927 2.03608319,-9.466001 L 4.1139824,50.289501 7.1281438,47.265419 C 9.373005,45.01317 10.155437,44.177302 10.193757,43.990442 10.233428,43.796996 15.235043,38.757543 32.03682,21.982134 44.022205,10.015558 53.93818,0.17926282 54.07232,0.1237005 c 0.578872,-0.23977677 0.268404,-0.52147877 8.505933,7.7178439 7.667889,7.6695586 7.714459,7.7181656 7.714459,8.0519016 0,0.184671 -0.06151,0.428816 -0.136683,0.542545 -0.22393,0.338772 -8.750576,8.863146 -8.995962,8.993564 -0.401873,0.213588 -0.801299,0.155019 -1.12064,-0.164322 -0.235746,-0.235745 -0.284349,-0.346196 -0.284349,-0.646176 V 24.25723 l 4.097969,-4.101069 c 2.253883,-2.255587 4.097969,-4.138282 4.097969,-4.183766 0,-0.04548 -3.048411,-3.130935 -6.774247,-6.8565576 l -6.774246,-6.773859 -4.95501,4.9550096 -4.95501,4.95501 7.204456,7.213308 c 3.962452,3.967319 7.245993,7.295512 7.29676,7.395982 0.126416,0.250187 0.115736,0.576046 -0.02773,0.845971 -0.114476,0.215389 -29.141222,29.213764 -35.23275,35.198315 -1.599878,1.571781 -3.002955,2.898317 -3.117949,2.947857 C 20.367458,65.9602 1.172832,69.959199 0.92374367,69.955959 0.82966317,69.954738 0.6538152,69.892371 0.53297046,69.817372 Z M 11.15293,65.91022 l 8.558424,-1.780826 2.47986,-2.47986 2.47986,-2.47986 -6.690198,-6.69059 -6.690198,-6.69059 -2.7099057,2.709905 -2.7099055,2.709906 -1.7832145,8.141367 c -0.980768,4.477752 -1.78424,8.203704 -1.7854932,8.279894 -0.00151,0.09156 0.047667,0.125465 0.1450346,0.100003 0.081022,-0.02119 3.9986038,-0.839895 8.7057363,-1.819349 z m 15.092114,-8.170945 c 0.231182,-0.116767 30.499281,-30.361677 30.499281,-30.475915 0,-0.04647 -0.762284,-0.846088 -1.693965,-1.776936 l -1.693964,-1.692453 -15.345624,15.345795 -15.345625,15.345795 1.671421,1.67299 c 0.919282,0.920145 1.683657,1.67299 1.698611,1.67299 0.01496,0 0.109394,-0.04152 0.209865,-0.09227 z M 49.969763,20.406468 48.589806,19.026511 33.244047,34.37244 17.898289,49.71837 l 1.37892,1.380822 1.37892,1.380822 L 36.002924,37.133219 51.349719,21.786424 Z M 44.847447,15.284032 43.11214,13.548725 27.886143,28.769584 c -8.374299,8.371472 -15.265382,15.291763 -15.313519,15.378425 -0.07605,0.136916 0.135554,0.380842 1.614572,1.86118 L 15.88929,47.712804 31.236022,32.366071 46.582754,17.019339 Z"
     id="path379" />
</svg>
