<svg xmlns="http://www.w3.org/2000/svg" viewBox="0 0 61.034 65.5">
  <defs>
    <style>
      .cls-1 {
        fill: #00467e;
        stroke: #00467e;
        stroke-width: 1.5px;
      }
    </style>
  </defs>
  <g id="noun_print_1083884" transform="translate(-9.25 -6.249)">
    <path id="Path_321" data-name="Path 321" class="cls-1" d="M18.046,7a.744.744,0,0,0-.6.744V30.813H13.721A3.729,3.729,0,0,0,10,34.534V58.348a3.729,3.729,0,0,0,3.721,3.721h3.721v8.186a.744.744,0,0,0,.744.744H61.348a.744.744,0,0,0,.744-.744V62.069h3.721a3.729,3.729,0,0,0,3.721-3.721V34.534a3.729,3.729,0,0,0-3.721-3.721H18.93V8.488H52.046L60.6,17.209v9.884a.744.744,0,1,0,1.488,0V16.907a.744.744,0,0,0-.209-.535l-9-9.139A.744.744,0,0,0,52.348,7H18.186q-.035,0-.07,0t-.07,0ZM13.721,32.3H65.813a2.211,2.211,0,0,1,2.233,2.233V58.348a2.211,2.211,0,0,1-2.233,2.233H62.092V55.371a.744.744,0,0,0-.744-.744H18.186q-.035,0-.07,0a.744.744,0,0,0-.674.744V60.58H13.721a2.211,2.211,0,0,1-2.233-2.233V34.534A2.211,2.211,0,0,1,13.721,32.3Zm39.441,3.721A2.977,2.977,0,1,0,56.139,39,2.988,2.988,0,0,0,53.162,36.023Zm7.442,0A2.977,2.977,0,1,0,63.581,39,2.988,2.988,0,0,0,60.6,36.023Zm-7.442,1.488A1.488,1.488,0,1,1,51.674,39,1.477,1.477,0,0,1,53.162,37.511Zm7.442,0A1.488,1.488,0,1,1,59.116,39,1.477,1.477,0,0,1,60.6,37.511Zm-41.813.744a.747.747,0,0,0,.14,1.488h7.442a.744.744,0,1,0,0-1.488H18.93q-.035,0-.07,0t-.07,0Zm.14,17.86H60.6v13.4H18.93Z" transform="translate(0 0)"/>
  </g>
</svg>
