<svg xmlns="http://www.w3.org/2000/svg" viewBox="0 0 64 64">
  <defs>
    <style>
      .cls-1 {
        fill: #00467e;
        fill-rule: evenodd;
      }
    </style>
  </defs>
  <g id="noun_480767_cc" transform="translate(-777 -460)">
    <g id="Group_39" data-name="Group 39" transform="translate(777 460)">
      <path id="Path_99" data-name="Path 99" class="cls-1" d="M29.091,29.091H17.455v5.818H29.091V46.545h5.818V34.909H46.545V29.091H34.909V17.455H29.091ZM32,64A32,32,0,1,0,0,32,32,32,0,0,0,32,64Z"/>
      <path id="Path_348" data-name="Path 348" class="cls-1" d="M29.091,29.091H17.455v5.818H29.091V46.545h5.818V34.909H46.545V29.091H34.909V17.455H29.091ZM32,64A32,32,0,1,0,0,32,32,32,0,0,0,32,64Z"/>
    </g>
  </g>
</svg>
