<svg viewBox="0 0 64 64" xmlns="http://www.w3.org/2000/svg">
 <path d="m32 0c-17.675 0-32 14.325-32 32 0 17.675 14.325 32 32 32 17.675 0 32-14.325 32-32 0-17.675-14.325-32-32-32zm0 50c-2.25 0-4-1.75-4-4s1.6375-4 4-4c2.1375 0 4 1.75 4 4s-1.8625 4-4 4zm7.687-18.067s-2.2917 0.76688-3.2368 1.4059c-0.94516 0.63905-1.2977 1.0191-1.6086 1.9357-0.35839 1.0567-0.0792 3.5767-0.0792 3.5767h-5.9208l0.15842-4.8515c0.03264-0.99947 0.65842-2.396 1.6584-3.021 0 0 1.6437-1.5714 2.8645-2.2756s4.1021-1.5784 4.1021-1.5784c0.875-0.5 1.375-1.375 1.375-2.375-0.09924-3.8642-3.3018-5.7054-7-5.7054-3.6982 0-5 4.2054-5 5.7054 0 1.625-1.375 3-3 3s-3-1.375-3-3c0-4.875 4.8599-10.834 11-10.834 6.1401 0 12.803 4.2329 13 10.834 0 3-2.5755 5.5582-5.313 7.1832z" fill="#00467e" stroke-width=".125"/>
</svg>
