<svg xmlns="http://www.w3.org/2000/svg" viewBox="0 0 55.471 64">
  <defs>
    <style>
      .cls-1 {
        fill: #00467e;
      }
    </style>
  </defs>
  <g id="noun_street_983802" transform="translate(-238.996 -725)">
    <path id="Path_312" data-name="Path 312" class="cls-1" d="M14.131,68a2.133,2.133,0,0,0,2.048-1.547L33.246,6.719a2.133,2.133,0,1,0-4.1-1.173L12.078,65.279A2.133,2.133,0,0,0,14.131,68Z" transform="translate(227 721.001)"/>
    <path id="Path_313" data-name="Path 313" class="cls-1" d="M95.2,68a2.133,2.133,0,0,0,2.053-2.72L80.188,5.546a2.133,2.133,0,1,0-4.1,1.173L93.154,66.452A2.133,2.133,0,0,0,95.2,68Z" transform="translate(197.129 721.001)"/>
    <path id="Path_314" data-name="Path 314" class="cls-1" d="M60,94.667a2.133,2.133,0,0,0,4.267,0V86.133a2.133,2.133,0,0,0-4.267,0Z" transform="translate(204.598 683.667)"/>
    <path id="Path_315" data-name="Path 315" class="cls-1" d="M60,58.4a2.133,2.133,0,0,0,4.267,0V54.133a2.133,2.133,0,0,0-4.267,0Z" transform="translate(204.598 698.6)"/>
    <circle id="Ellipse_36" data-name="Ellipse 36" class="cls-1" cx="2.133" cy="2.133" r="2.133" transform="translate(264.598 737.8)"/>
    <path id="Path_316" data-name="Path 316" class="cls-1" d="M60,58.4a2.133,2.133,0,0,0,4.267,0V56.133a2.133,2.133,0,0,0-4.267,0Z" transform="translate(204.598 681.6)"/>
  </g>
</svg>
