<svg xmlns="http://www.w3.org/2000/svg" viewBox="0 0 55.169 60.018">
  <defs>
    <style>
      .cls-1 {
        fill: #00467e;
      }
    </style>
  </defs>
  <g id="Group_432" data-name="Group 432" transform="translate(767.713 -819.587) rotate(60)">
    <g id="noun_reload_584837" transform="translate(341.315 1048)">
      <g id="Group_383" data-name="Group 383" transform="translate(0 0)">
        <path id="Path_309" data-name="Path 309" class="cls-1" d="M74.019,25.717A21.183,21.183,0,0,0,39.972,42.585a19.908,19.908,0,0,0,.233,3.032l1.185,1.695c.933-.933,3.4-4.882,4.256-3.949a2.254,2.254,0,0,1,0,3.265l-7.379,5.61L29.556,46.7a2.311,2.311,0,0,1,3.109-3.42l2.721,2.487a21.981,21.981,0,0,1-.233-3.187A25.926,25.926,0,0,1,61.037,16.7a25.126,25.126,0,0,1,15.624,5.286,2.349,2.349,0,0,1,.466,3.265A2.146,2.146,0,0,1,74.019,25.717Z" transform="translate(-28.805 -16.7)"/>
      </g>
    </g>
    <g id="Group_386" data-name="Group 386" transform="translate(339.946 1072.689)">
      <rect id="Rectangle_328" data-name="Rectangle 328" class="cls-1" width="14.211" height="5.06" rx="2.53" transform="translate(10.049 13.627) rotate(-135)"/>
      <g id="Group_384" data-name="Group 384" transform="translate(6.996 0)">
        <rect id="Rectangle_329" data-name="Rectangle 329" class="cls-1" width="14.211" height="5.06" rx="2.53" transform="translate(13.627 3.578) rotate(135)"/>
      </g>
    </g>
  </g>
</svg>
