<svg xmlns="http://www.w3.org/2000/svg" viewBox="0 0 58.161 65.217">
  <defs>
    <style>
      .cls-1 {
        fill: #00467e;
      }
    </style>
  </defs>
  <g id="Group_546" data-name="Group 546" transform="translate(1155.048 151.271) rotate(115)">
    <g id="noun_reload_584837" transform="translate(341.453 1051.059)">
      <g id="Group_383" data-name="Group 383" transform="translate(0 0)">
        <path id="Path_309" data-name="Path 309" class="cls-1" d="M78.586,45.9A23.323,23.323,0,0,1,41.1,27.327a21.918,21.918,0,0,1,.257-3.338l1.3-1.866c1.027,1.027,3.745,5.375,4.686,4.348a2.481,2.481,0,0,0,0-3.594L39.224,16.7l-9.592,6.091a2.545,2.545,0,0,0,3.423,3.766l3-2.739a24.2,24.2,0,0,0-.257,3.509,28.544,28.544,0,0,0,28.5,28.5,27.664,27.664,0,0,0,17.2-5.82,2.586,2.586,0,0,0,.513-3.594A2.363,2.363,0,0,0,78.586,45.9Z" transform="translate(-28.805 -16.7)"/>
      </g>
    </g>
    <g id="Group_386" data-name="Group 386" transform="translate(339.946 1048)">
      <rect id="Rectangle_328" data-name="Rectangle 328" class="cls-1" width="15.647" height="5.571" rx="2.785" transform="translate(15.003 3.939) rotate(135)"/>
      <g id="Group_384" data-name="Group 384" transform="translate(7.703 0)">
        <rect id="Rectangle_329" data-name="Rectangle 329" class="cls-1" width="15.647" height="5.571" rx="2.785" transform="translate(11.064 15.003) rotate(-135)"/>
      </g>
    </g>
  </g>
</svg>
