<svg xmlns="http://www.w3.org/2000/svg" viewBox="0 0 64 65">
  <defs>
    <style>
      .cls-1, .cls-10, .cls-2, .cls-5 {
        fill: none;
      }

      .cls-1, .cls-5, .cls-6 {
        stroke: #00467e;
      }

      .cls-3, .cls-7 {
        fill: #fff;
      }

      .cls-4, .cls-6, .cls-9 {
        fill: #00467e;
      }

      .cls-5, .cls-6 {
        stroke-width: 2px;
      }

      .cls-8, .cls-9 {
        stroke: none;
      }
    </style>
  </defs>
  <g id="Group_531" data-name="Group 531" transform="translate(-501 -547)">
    <g id="Group_530" data-name="Group 530">
      <path id="Path_356" data-name="Path 356" class="cls-1" d="M1098.607,1625" transform="translate(-580 -1077)"/>
      <g id="Path_357" data-name="Path 357" class="cls-2" transform="translate(501 548)">
        <path class="cls-8" d="M7,0H53.531L64,10V57a7,7,0,0,1-7,7H7a7,7,0,0,1-7-7V7A7,7,0,0,1,7,0Z"/>
        <path class="cls-9" d="M 7 2 C 4.242988586425781 2 2 4.242988586425781 2 7 L 2 57 C 2 59.75701141357422 4.242988586425781 62 7 62 L 57 62 C 59.75701141357422 62 62 59.75701141357422 62 57 L 62 10.85541915893555 L 52.72883605957031 2 L 7 2 M 7 0 L 53.53052139282227 0 L 64 10 L 64 57 C 64 60.86598968505859 60.86598968505859 64 57 64 L 7 64 C 3.134010314941406 64 0 60.86598968505859 0 57 L 0 7 C 0 3.134010314941406 3.134010314941406 0 7 0 Z"/>
      </g>
      <g id="Path_371" data-name="Path 371" class="cls-3" transform="translate(512 577)">
        <path class="cls-8" d="M 39 23 L 3 23 C 1.897199988365173 23 1 22.1028003692627 1 21 L 1 3 C 1 1.897199988365173 1.897199988365173 1 3 1 L 39 1 C 40.10279846191406 1 41 1.897199988365173 41 3 L 41 21 C 41 22.1028003692627 40.10279846191406 23 39 23 Z"/>
        <path class="cls-9" d="M 3 2 C 2.448600769042969 2 2 2.448600769042969 2 3 L 2 21 C 2 21.55139923095703 2.448600769042969 22 3 22 L 39 22 C 39.55139923095703 22 40 21.55139923095703 40 21 L 40 3 C 40 2.448600769042969 39.55139923095703 2 39 2 L 3 2 M 3 0 L 39 0 C 40.6568489074707 0 42 1.3431396484375 42 3 L 42 21 C 42 22.65685081481934 40.6568489074707 24 39 24 L 3 24 C 1.343151092529297 24 0 22.65685081481934 0 21 L 0 3 C 0 1.3431396484375 1.343151092529297 0 3 0 Z"/>
      </g>
      <rect id="Rectangle_356" data-name="Rectangle 356" class="cls-4" width="28" height="2" rx="1" transform="translate(519 582)"/>
      <rect id="Rectangle_357" data-name="Rectangle 357" class="cls-4" width="28" height="2" rx="1" transform="translate(519 588)"/>
      <rect id="Rectangle_358" data-name="Rectangle 358" class="cls-4" width="28" height="2" rx="1" transform="translate(519 593)"/>
      <g id="Rectangle_359" data-name="Rectangle 359" class="cls-5" transform="translate(519 548)">
        <path class="cls-8" d="M0,0H28a0,0,0,0,1,0,0V13a5,5,0,0,1-5,5H5a5,5,0,0,1-5-5V0A0,0,0,0,1,0,0Z"/>
        <path class="cls-10" d="M2,1H26a1,1,0,0,1,1,1V13a4,4,0,0,1-4,4H5a4,4,0,0,1-4-4V2A1,1,0,0,1,2,1Z"/>
      </g>
      <g id="Rectangle_360" data-name="Rectangle 360" class="cls-6" transform="translate(534 548)">
        <path class="cls-8" d="M0,0H8A0,0,0,0,1,8,0V11a2,2,0,0,1-2,2H2a2,2,0,0,1-2-2V0A0,0,0,0,1,0,0Z"/>
        <rect class="cls-10" x="1" y="1" width="6" height="11" rx="1"/>
      </g>
      <rect id="Rectangle_370" data-name="Rectangle 370" class="cls-7" width="13" height="5" transform="translate(521 547)"/>
      <rect id="Rectangle_371" data-name="Rectangle 371" class="cls-7" width="3" height="4" transform="translate(542 547)"/>
    </g>
  </g>
</svg>
