<svg xmlns="http://www.w3.org/2000/svg" viewBox="0 0 64 60.181">
  <defs>
    <style>
      .cls-1 {
        fill: #00467e;
      }
    </style>
  </defs>
  <g id="noun_Star_1861217" transform="translate(-8.173 -18.014)">
    <g id="Group_470" data-name="Group 470" transform="translate(8.173 18.014)">
      <path id="Path_365" data-name="Path 365" class="cls-1" d="M66.722,1030.548a1.906,1.906,0,0,0,1.325-.672,1.85,1.85,0,0,0,.423-1.408l-2.275-19.187,13.287-14.214a1.849,1.849,0,0,0,.409-1.844,1.887,1.887,0,0,0-1.431-1.255l-19.222-3.812-9.605-16.835a1.909,1.909,0,0,0-3.3,0l-9.605,16.835-19.222,3.813a1.886,1.886,0,0,0-1.431,1.254,1.848,1.848,0,0,0,.409,1.844l13.287,14.214L27.5,1028.47a1.857,1.857,0,0,0,.766,1.729,1.919,1.919,0,0,0,1.9.189l17.815-8.06,17.815,8.06a1.921,1.921,0,0,0,.923.162Zm-2.407-4.951-15.54-7.031a1.918,1.918,0,0,0-1.583,0l-15.54,7.031,1.978-16.738a1.851,1.851,0,0,0-.484-1.484L21.563,994.981l16.76-3.326a1.893,1.893,0,0,0,1.275-.91l8.386-14.689,8.386,14.69a1.894,1.894,0,0,0,1.275.91l16.76,3.326L62.82,1007.376a1.851,1.851,0,0,0-.484,1.484l1.978,16.738Z" transform="translate(-15.983 -970.376)"/>
    </g>
  </g>
</svg>
