<svg xmlns="http://www.w3.org/2000/svg" viewBox="0 0 83.152 64">
  <defs>
    <style>
      .cls-1 {
        fill: #00467e;
      }
    </style>
  </defs>
  <g id="Symbol_35_1" data-name="Symbol 35 – 1" transform="translate(-15.797 -724)">
    <g id="noun_reload_584837" transform="translate(17.756 724)">
      <g id="Group_383" data-name="Group 383" transform="translate(0 0)">
        <path id="Path_309" data-name="Path 309" class="cls-1" d="M33.221,27.847A26.187,26.187,0,0,1,75.311,48.7a24.612,24.612,0,0,1-.288,3.748l-1.465,2.1c-1.153-1.153-4.2-6.035-5.262-4.882a2.786,2.786,0,0,0,0,4.036l9.122,6.936,10.77-6.839a2.857,2.857,0,0,0-3.844-4.228L80.98,52.64a27.175,27.175,0,0,0,.288-3.94,32.051,32.051,0,0,0-32-32,31.062,31.062,0,0,0-19.315,6.535,2.9,2.9,0,0,0-.577,4.036A2.653,2.653,0,0,0,33.221,27.847Z" transform="translate(-9.615 -16.7)"/>
        <path id="Path_310" data-name="Path 310" class="cls-1" d="M11.4,49.026a3.052,3.052,0,0,0,1.922-.769l3.267-2.979a30.225,30.225,0,0,0-.288,4.228A31.962,31.962,0,0,0,68,74.683a2.874,2.874,0,1,0-3.556-4.517A25.917,25.917,0,0,1,48.3,75.741,26.268,26.268,0,0,1,22.063,49.506a29.866,29.866,0,0,1,.288-4.132l2.691,2.787a2.854,2.854,0,0,0,4.036-4.036s-7.671-6.751-9.547-6.77-9.15,7.444-9.15,7.444c-1.153,1.057-2.156,2.112-1.1,3.265A2.725,2.725,0,0,0,11.4,49.026Z" transform="translate(-8.835 -17.506)"/>
      </g>
    </g>
    <g id="Group_385" data-name="Group 385" transform="translate(15.797 741.068)">
      <rect id="Rectangle_328" data-name="Rectangle 328" class="cls-1" width="17.569" height="6.255" rx="3.128" transform="translate(16.846 4.423) rotate(135)"/>
      <g id="Group_384" data-name="Group 384" transform="translate(8.649)">
        <rect id="Rectangle_329" data-name="Rectangle 329" class="cls-1" width="17.569" height="6.255" rx="3.128" transform="translate(12.423 16.846) rotate(-135)"/>
      </g>
    </g>
    <g id="Group_386" data-name="Group 386" transform="translate(98.95 771.368) rotate(180)">
      <rect id="Rectangle_328-2" data-name="Rectangle 328" class="cls-1" width="17.569" height="6.255" rx="3.128" transform="translate(16.846 4.423) rotate(135)"/>
      <g id="Group_384-2" data-name="Group 384" transform="translate(8.649)">
        <rect id="Rectangle_329-2" data-name="Rectangle 329" class="cls-1" width="17.569" height="6.255" rx="3.128" transform="translate(12.423 16.846) rotate(-135)"/>
      </g>
    </g>
  </g>
</svg>
