<svg xmlns="http://www.w3.org/2000/svg" xmlns:xlink="http://www.w3.org/1999/xlink" viewBox="0 0 90.949 86.576">
  <defs>
    <style>
      .cls-1, .cls-2, .cls-7 {
        fill: none;
      }

      .cls-1 {
        stroke: #707070;
      }

      .cls-2 {
        stroke: #00467e;
        stroke-width: 3px;
      }

      .cls-3 {
        fill: #00467e;
        fill-rule: evenodd;
      }

      .cls-4 {
        clip-path: url(#clip-path);
      }

      .cls-5 {
        fill: #fff;
      }

      .cls-6 {
        stroke: none;
      }
    </style>
    <clipPath id="clip-path">
      <ellipse id="Ellipse_38" data-name="Ellipse 38" class="cls-1" cx="45.474" cy="26.235" rx="45.474" ry="26.235" transform="translate(0 0)"/>
    </clipPath>
  </defs>
  <g id="Group_395" data-name="Group 395" transform="translate(-1164 -1622)">
    <g id="Group_397" data-name="Group 397" transform="translate(1164 1622)">
      <g id="Group_396" data-name="Group 396" transform="translate(10.494)">
        <g id="Ellipse_37" data-name="Ellipse 37" class="cls-2" transform="translate(0 35.855)">
          <ellipse class="cls-6" cx="34.98" cy="13.555" rx="34.98" ry="13.555"/>
          <ellipse class="cls-7" cx="34.98" cy="13.555" rx="33.48" ry="12.055"/>
        </g>
        <g id="noun_Add_User_1630159_1_" data-name="noun_Add User_1630159 (1)" transform="translate(12.243)">
          <g id="Group_391" data-name="Group 391" transform="translate(0)">
            <path id="Path_317" data-name="Path 317" class="cls-3" d="M22.6,25.684A12.917,12.917,0,0,1,9.643,12.817a12.986,12.986,0,0,1,25.969,0A12.928,12.928,0,0,1,22.6,25.684Zm0,21.294h9.235a10.432,10.432,0,0,1-.051-1.261,12.166,12.166,0,0,1,7.857-11.353A32.7,32.7,0,0,0,22.6,29.518c-7.857,0-17.5,3.229-22.347,9.638A1.906,1.906,0,0,0,0,39.913v5.8a1.256,1.256,0,0,0,1.275,1.261Z" transform="translate(0 0)"/>
            <path id="Path_318" data-name="Path 318" class="cls-3" d="M17.041,25.684A12.917,12.917,0,0,0,30,12.817a12.986,12.986,0,0,0-25.969,0A12.928,12.928,0,0,0,17.041,25.684Zm0,21.294H7.806a10.431,10.431,0,0,0,.051-1.261A12.166,12.166,0,0,0,0,34.363a32.7,32.7,0,0,1,17.041-4.844c7.857,0,17.5,3.229,22.347,9.638a1.906,1.906,0,0,1,.255.757v5.8a1.256,1.256,0,0,1-1.275,1.261Z" transform="translate(5.536)"/>
          </g>
        </g>
      </g>
      <g id="Mask_Group_2" data-name="Mask Group 2" class="cls-4" transform="translate(0 34.106)">
        <path id="Exclusion_21" data-name="Exclusion 21" class="cls-5" d="M51.6,55.095H0V0H51.6V55.094ZM26.005,35.969a32.379,32.379,0,0,0-16.971,4.9l.012,0a20.465,20.465,0,0,0-5.293,4.842,1.941,1.941,0,0,0-.255.765v5.868a1.261,1.261,0,0,0,1.275,1.275H47.4a1.262,1.262,0,0,0,1.276-1.275V46.478a1.956,1.956,0,0,0-.255-.765,20.469,20.469,0,0,0-5.293-4.842l.011,0a32.376,32.376,0,0,0-16.971-4.9h-.164Zm.07-29.847a12.985,12.985,0,1,0,0,25.969H26.1a12.985,12.985,0,1,0,0-25.969h-.024Z" transform="translate(19.239 -40.227)"/>
      </g>
    </g>
  </g>
</svg>
