<svg xmlns="http://www.w3.org/2000/svg" viewBox="0 0 73.846 64">
  <defs>
    <style>
      .cls-1 {
        fill: #00467e;
      }
    </style>
  </defs>
  <g id="noun_185225_cc_1_" data-name="noun_185225_cc (1)" transform="translate(-223 -636)">
    <g id="Group_183" data-name="Group 183" transform="translate(223 636)">
      <path id="Path_165" data-name="Path 165" class="cls-1" d="M62.026,18.465A4.821,4.821,0,0,0,57.1,13.542H38.642c-4.515,0-6.154,2.945-6.154,4.923v6.154H27.565V77.541H66.95V24.62H62.027V18.465ZM37.411,24.62V18.692a2.334,2.334,0,0,1,1.231-.226H57.033a.348.348,0,0,1,.069.009V24.62Z" transform="translate(-10.334 -13.542)"/>
      <path id="Path_166" data-name="Path 166" class="cls-1" d="M7.934,31.222v42.94a4.922,4.922,0,0,0,4.923,4.922h7.384V26.163H12.857A5.041,5.041,0,0,0,7.934,31.222Z" transform="translate(-7.934 -15.085)"/>
      <path id="Path_167" data-name="Path 167" class="cls-1" d="M85.428,26.163H78.044V79.085h7.384a4.923,4.923,0,0,0,4.923-4.922V31.222A5.041,5.041,0,0,0,85.428,26.163Z" transform="translate(-16.506 -15.085)"/>
    </g>
  </g>
</svg>
