<svg xmlns="http://www.w3.org/2000/svg" viewBox="0 0 57.073 64">
  <defs>
    <style>
      .cls-1 {
        fill: #00467e;
      }
    </style>
  </defs>
  <g id="Symbol_6_1" data-name="Symbol 6 – 1" transform="translate(-142 -196)">
    <path id="Path_100" data-name="Path 100" class="cls-1" d="M67.291,14.352h-13.7l-.678-4.141A3.3,3.3,0,0,0,49.672,7.5H31.827a3.167,3.167,0,0,0-3.162,2.711l-.678,4.141h-14a1.882,1.882,0,0,0,0,3.765h4.066l3.238,48.715a5.117,5.117,0,0,0,5.2,4.668H54.792a5.066,5.066,0,0,0,5.2-4.668l3.238-48.715h4.066a1.882,1.882,0,0,0,0-3.765ZM32.354,11.265H49.22l.527,3.087H31.827ZM56.222,66.606a1.431,1.431,0,0,1-1.506,1.129H26.481a1.491,1.491,0,0,1-1.506-1.129L21.813,18.192H59.46Z" transform="translate(129.9 188.5)"/>
    <path id="Path_101" data-name="Path 101" class="cls-1" d="M49.706,67.147a1.51,1.51,0,0,0,1.506-1.506V31.006a1.506,1.506,0,0,0-3.012,0V65.641A1.51,1.51,0,0,0,49.706,67.147Z" transform="translate(120.981 183.065)"/>
    <path id="Path_102" data-name="Path 102" class="cls-1" d="M60.629,67.147h0a1.514,1.514,0,0,0,1.581-1.431l1.506-34.635a1.508,1.508,0,0,0-3.012-.151L59.2,65.566A1.466,1.466,0,0,0,60.629,67.147Z" transform="translate(118.265 183.065)"/>
    <path id="Path_103" data-name="Path 103" class="cls-1" d="M38.21,67.145h0a1.527,1.527,0,0,0,1.506-1.581L38.21,30.929a1.508,1.508,0,1,0-3.012.151L36.7,65.715A1.448,1.448,0,0,0,38.21,67.145Z" transform="translate(124.195 183.067)"/>
  </g>
</svg>
