<svg xmlns="http://www.w3.org/2000/svg" viewBox="0 0 74.786 64">
  <defs>
    <style>
      .cls-1 {
        fill: none;
      }

      .cls-2 {
        fill: #00467e;
      }
    </style>
  </defs>
  <g id="noun_1033804_cc" transform="translate(-20 -196)">
    <path id="Path_196" data-name="Path 196" class="cls-1" d="M65.335,43.078H54.5c-4.126,0-6.829.628-8.033,1.873-1.144,1.183-2.7,3.772-.313,7.825.769,1.3,1.558,2.492,2.293,3.6a13.637,13.637,0,0,1,2.922,5.993c0,2.739-.544,6.021-3.135,6.167-.813.051-.926.044-1.04-2.084a6.4,6.4,0,0,0-1.223-4.168A34.179,34.179,0,0,0,42.192,59.1a49.145,49.145,0,0,1-9.066-8.362c-.074-.1-7.688-10.249-10.112-10.249H17.871V16.758c2.779.148,8.526-.095,11.933-4.064,2.816-3.279,15.445-2.672,23.814-2.262,2.063.1,3.974.192,5.595.232a2.739,2.739,0,0,1-.056,5.421H50.77a1.389,1.389,0,1,0,0,2.779l10.1.148a2.809,2.809,0,0,1,2.262,3.068c0,1.663-1.063,3.068-2.316,3.068h-8.36a1.392,1.392,0,0,0,.169,2.779l10.089.051a3.1,3.1,0,0,1-.072,6.139H52.976a1.391,1.391,0,0,0,.125,2.779l12.333.051a3.149,3.149,0,0,1,3.2,3.068,3.189,3.189,0,0,1-3.3,3.064Z" transform="translate(23.387 188.678)"/>
    <path id="Path_197" data-name="Path 197" class="cls-2" d="M77.413,47.438H66.573c-3.981,0-5.666.646-6.035,1.026s-1.591,1.646.083,4.483c.741,1.255,1.505,2.4,2.214,3.473a14.962,14.962,0,0,1,3.385,7.533c0,7.517-3.612,8.83-5.766,8.943-3.615.174-3.865-3.01-3.96-4.715a4.578,4.578,0,0,0-.516-2.45,34.418,34.418,0,0,0-3.413-2.844,51.066,51.066,0,0,1-9.6-8.918,59.576,59.576,0,0,0-8.1-9.112H29.949v2.5a1.389,1.389,0,0,1-1.389,1.389H10.08a1.389,1.389,0,1,1,0-2.779H27.17V12.335H10.08a1.389,1.389,0,1,1,0-2.779H28.557a1.389,1.389,0,0,1,1.389,1.389v4.608c2.237.137,7.144.037,9.825-3.087C42.236,9.6,48.555,8.9,55.446,8.9c3.455,0,7.056.174,10.381.336,2.038.1,3.92.19,5.523.232a5.3,5.3,0,0,1,5.037,5.486,5.692,5.692,0,0,1-1.176,3.49,5.958,5.958,0,0,1,2.779,5.217,6.382,6.382,0,0,1-1.079,3.594A5.824,5.824,0,0,1,80.2,32.618a6.076,6.076,0,0,1-1.01,3.376A5.824,5.824,0,0,1,77.41,47.431Zm.088-8.915-12.333-.051a1.391,1.391,0,0,1-.125-2.779H74.71a3.1,3.1,0,0,0,.072-6.139L64.693,29.5a1.392,1.392,0,1,1-.169-2.779h8.36c1.257,0,2.316-1.406,2.316-3.068a2.809,2.809,0,0,0-2.262-3.068l-10.1-.148a1.389,1.389,0,1,1,0-2.779h8.4a2.739,2.739,0,0,0,.056-5.421c-1.621-.035-3.531-.127-5.595-.232-8.369-.412-21-1.017-23.814,2.262-3.409,3.969-9.147,4.212-11.933,4.064V42.073h5.145c2.425,0,10.038,10.145,10.112,10.249a49.144,49.144,0,0,0,9.066,8.362,34.185,34.185,0,0,1,3.763,3.177,6.4,6.4,0,0,1,1.223,4.168c.118,2.128.232,2.137,1.04,2.084,2.589-.137,3.135-3.427,3.135-6.167a13.637,13.637,0,0,0-2.922-5.993c-.734-1.1-1.524-2.292-2.292-3.6-2.392-4.052-.831-6.641.313-7.825,1.2-1.244,3.907-1.873,8.033-1.873H77.4a3.189,3.189,0,0,0,3.291-3.068A3.149,3.149,0,0,0,77.5,38.523Z" transform="translate(11.309 187.097)"/>
  </g>
</svg>
