<svg xmlns="http://www.w3.org/2000/svg" viewBox="0 0 45.179 46.977">
  <defs>
    <style>
      .cls-1 {
        fill: #00467e;
        fill-rule: evenodd;
      }
    </style>
  </defs>
  <g id="Group_560" data-name="Group 560" transform="translate(-482 -1202)">
    <g id="Group_539" data-name="Group 539" transform="translate(436 163)">
      <g id="noun_Add_User_1630159_1_" data-name="noun_Add User_1630159 (1)" transform="translate(46 1039)">
        <g id="Group_391" data-name="Group 391" transform="translate(0)">
          <path id="Path_317" data-name="Path 317" class="cls-1" d="M22.6,25.684A12.917,12.917,0,0,1,9.643,12.817a12.986,12.986,0,0,1,25.969,0A12.928,12.928,0,0,1,22.6,25.684Zm0,21.294h9.235a10.432,10.432,0,0,1-.051-1.261,12.166,12.166,0,0,1,7.857-11.353A32.7,32.7,0,0,0,22.6,29.518c-7.857,0-17.5,3.229-22.347,9.638A1.906,1.906,0,0,0,0,39.913v5.8a1.256,1.256,0,0,0,1.275,1.261Z" transform="translate(0 0)"/>
          <path id="Path_318" data-name="Path 318" class="cls-1" d="M17.041,25.684A12.917,12.917,0,0,0,30,12.817a12.986,12.986,0,0,0-25.969,0A12.928,12.928,0,0,0,17.041,25.684Zm0,21.294H7.806a10.431,10.431,0,0,0,.051-1.261A12.166,12.166,0,0,0,0,34.363a32.7,32.7,0,0,1,17.041-4.844c7.857,0,17.5,3.229,22.347,9.638a1.906,1.906,0,0,1,.255.757v5.8a1.256,1.256,0,0,1-1.275,1.261Z" transform="translate(5.536)"/>
        </g>
      </g>
    </g>
  </g>
</svg>
