<svg id="noun_Add_User_1630159_1_" data-name="noun_Add User_1630159 (1)" xmlns="http://www.w3.org/2000/svg" viewBox="0 0 61.55 64">
  <defs>
    <style>
      .cls-1 {
        fill: #00467e;
        fill-rule: evenodd;
      }
    </style>
  </defs>
  <g id="Group_391" data-name="Group 391" transform="translate(0)">
    <path id="Path_317" data-name="Path 317" class="cls-1" d="M25.845,29.7A14.848,14.848,0,1,1,40.722,14.819,14.852,14.852,0,0,1,25.845,29.7Zm24.62,12.018A11.143,11.143,0,1,1,39.322,52.857,11.13,11.13,0,0,1,50.465,41.714Zm1.459,5.017V51.34h4.609v2.975H51.923v4.667H48.948V54.315H44.339V51.34h4.609V46.731ZM25.845,54.315H36.4a12.194,12.194,0,0,1-.058-1.459A14.061,14.061,0,0,1,45.331,39.73a37.084,37.084,0,0,0-19.486-5.6c-8.985,0-20.011,3.734-25.553,11.143A2.22,2.22,0,0,0,0,46.148v6.709a1.444,1.444,0,0,0,1.459,1.459Z" transform="translate(0)"/>
  </g>
</svg>
